M48
; DRILL file {KiCad 8.0.4} date 2025-08-25T15:50:40-0400
; FORMAT={-:-/ absolute / inch / decimal}
; #@! TF.CreationDate,2025-08-25T15:50:40-04:00
; #@! TF.GenerationSoftware,Kicad,Pcbnew,8.0.4
; #@! TF.FileFunction,Plated,1,4,PTH
FMAT,2
INCH
; #@! TA.AperFunction,Plated,PTH,ViaDrill
T1C0.0118
; #@! TA.AperFunction,Plated,PTH,ComponentDrill
T2C0.0236
; #@! TA.AperFunction,Plated,PTH,ComponentDrill
T3C0.0394
%
G90
G05
T1
X4.1099Y-3.36
X4.2176Y-2.56
X4.22Y-3.09
X4.2438Y-2.5603
X4.2714Y-2.5603
X4.2938Y-2.6503
X4.3599Y-3.36
X4.39Y-3.01
X4.4188Y-2.9612
X4.44Y-2.24
X4.4938Y-2.4403
X5.23Y-2.52
X5.25Y-2.35
X5.27Y-2.52
X5.3305Y-3.1594
X5.3854Y-3.0907
X5.402Y-3.21
X5.41Y-3.1104
X5.45Y-2.6446
X5.45Y-3.44
X5.49Y-2.6
X5.5Y-3.22
X5.51Y-3.45
X5.525Y-3.075
X5.5267Y-2.7367
X5.53Y-2.85
X5.53Y-3.012
X5.53Y-3.11
X5.5339Y-2.5312
X5.55Y-3.2
X5.56Y-2.82
X5.56Y-3.0
X5.609Y-3.16
X5.62Y-3.2
X5.63Y-3.1005
X5.64Y-3.07
X5.64Y-3.1364
X5.65Y-3.19
X5.67Y-3.11
X5.7Y-3.07
X5.78Y-3.05
X5.83Y-3.06
X5.88Y-2.71
X5.88Y-2.78
X5.89Y-2.81
X5.9Y-3.03
X5.9083Y-2.7317
X5.91Y-2.94
X5.93Y-3.0
X5.94Y-3.31
X5.9404Y-2.726
X5.95Y-2.94
X5.95Y-3.12
X5.95Y-3.16
X5.952Y-2.58
X5.96Y-2.79
X5.97Y-3.09
X5.97Y-3.19
X5.98Y-2.9
X5.98Y-3.05
X5.99Y-3.02
X6.01Y-2.98
X6.01Y-3.195
X6.02Y-2.88
X6.0218Y-2.9218
X6.03Y-2.638
X6.03Y-3.3013
X6.0697Y-2.4909
X6.08Y-2.4
X6.0809Y-2.609
X6.0863Y-3.2479
X6.0952Y-2.51
X6.11Y-3.33
X6.13Y-2.41
X6.1421Y-3.3156
X6.15Y-2.51
X6.1809Y-3.149
X6.185Y-2.425
X6.19Y-3.31
X6.21Y-2.89
X6.22Y-2.72
X6.22Y-3.33
X6.23Y-2.51
X6.2309Y-3.019
X6.2309Y-3.129
X6.2689Y-2.72
X6.29Y-2.399
X6.2959Y-3.094
X6.3Y-3.24
X6.31Y-2.49
X6.31Y-3.17
X6.3509Y-2.819
X6.37Y-2.76
X6.38Y-2.73
X6.38Y-3.384
X6.39Y-3.55
X6.44Y-2.66
X6.47Y-3.59
X6.48Y-3.71
X6.53Y-3.28
X6.53Y-3.52
X6.57Y-3.15
X6.58Y-3.61
X6.61Y-3.15
X6.65Y-3.15
X6.66Y-2.73
X6.72Y-2.39
X6.72Y-2.65
X6.74Y-3.15
X6.78Y-3.0437
X6.81Y-2.56
X6.8156Y-3.0437
X6.83Y-3.15
X6.87Y-3.15
X6.92Y-3.15
X6.98Y-3.07
X7.06Y-3.1
X7.1Y-3.61
X7.11Y-3.29
X7.23Y-2.4
X7.27Y-2.61
T3
X4.48Y-3.64
X4.48Y-3.74
X4.58Y-3.64
X4.58Y-3.74
X4.68Y-3.64
X4.68Y-3.74
X4.7Y-2.52
X4.7Y-2.62
X4.7Y-2.72
X4.7Y-2.82
X4.7Y-2.92
X4.7Y-3.02
X4.78Y-3.64
X4.78Y-3.74
X4.85Y-2.52
X4.85Y-2.62
X4.85Y-2.72
X4.85Y-2.82
X4.85Y-2.92
X4.85Y-3.02
X4.88Y-2.18
X4.88Y-2.28
X4.88Y-3.64
X4.88Y-3.74
X4.98Y-2.18
X4.98Y-2.28
X4.98Y-3.64
X4.98Y-3.74
X4.9939Y-2.52
X4.9939Y-2.62
X4.9939Y-2.72
X4.9939Y-2.82
X5.08Y-2.18
X5.08Y-2.28
X5.08Y-3.64
X5.08Y-3.74
X5.14Y-2.52
X5.14Y-2.62
X5.14Y-2.72
X5.14Y-2.82
X5.18Y-2.18
X5.18Y-2.28
X5.18Y-3.64
X5.18Y-3.74
X5.28Y-3.64
X5.28Y-3.74
X5.33Y-2.18
X5.33Y-2.28
X5.38Y-3.64
X5.38Y-3.74
X5.43Y-2.18
X5.43Y-2.28
X5.48Y-3.64
X5.48Y-3.74
X5.53Y-2.18
X5.53Y-2.28
X5.58Y-3.64
X5.58Y-3.74
X5.63Y-2.18
X5.63Y-2.28
X5.68Y-3.64
X5.68Y-3.74
X5.73Y-2.18
X5.73Y-2.28
X5.78Y-3.64
X5.78Y-3.74
X5.83Y-2.18
X5.83Y-2.28
X5.88Y-3.64
X5.88Y-3.74
X5.93Y-2.18
X5.93Y-2.28
X5.98Y-3.64
X5.98Y-3.74
X6.03Y-2.18
X6.03Y-2.28
X6.08Y-3.64
X6.08Y-3.74
X6.13Y-2.18
X6.13Y-2.28
X6.18Y-3.64
X6.18Y-3.74
X6.23Y-2.18
X6.23Y-2.28
X6.28Y-3.64
X6.28Y-3.74
X6.33Y-2.18
X6.33Y-2.28
X6.38Y-3.64
X6.38Y-3.74
X6.43Y-2.18
X6.43Y-2.28
X6.53Y-2.18
X6.53Y-2.28
X6.63Y-2.18
X6.63Y-2.28
X6.73Y-2.18
X6.73Y-2.28
X6.78Y-2.88
X6.83Y-2.18
X6.83Y-2.28
X6.88Y-2.88
X6.93Y-2.18
X6.93Y-2.28
X6.98Y-2.5131
X6.98Y-2.6961
X6.98Y-2.88
X7.03Y-2.18
X7.03Y-2.28
X7.08Y-2.5131
X7.08Y-2.6961
X7.08Y-2.88
X7.13Y-2.18
X7.13Y-2.28
X7.18Y-2.5131
X7.18Y-2.6961
X7.18Y-2.88
X7.23Y-2.18
X7.23Y-2.28
X7.29Y-3.28
X7.29Y-3.38
X7.36Y-2.5139
X7.36Y-2.6969
X7.36Y-2.88
X7.36Y-3.0631
X7.46Y-2.5139
X7.46Y-2.6969
X7.46Y-2.88
X7.46Y-3.0631
X7.46Y-3.24
X7.46Y-3.41
X7.56Y-2.5139
X7.56Y-2.6969
X7.56Y-2.88
X7.56Y-3.0631
X7.56Y-3.24
X7.56Y-3.41
T2
G00X4.1618Y-2.7894
M15
G01X4.1382Y-2.7894
M16
G05
G00X4.1618Y-3.13
M15
G01X4.1382Y-3.13
M16
G05
G00X4.3331Y-2.7894
M15
G01X4.2976Y-2.7894
M16
G05
G00X4.3331Y-3.13
M15
G01X4.2976Y-3.13
M16
G05
M30
