%TF.GenerationSoftware,KiCad,Pcbnew,8.0.4*%
%TF.CreationDate,2024-11-29T22:22:18-05:00*%
%TF.ProjectId,SRSFC,53525346-432e-46b6-9963-61645f706362,V1.0*%
%TF.SameCoordinates,Original*%
%TF.FileFunction,Copper,L2,Inr*%
%TF.FilePolarity,Positive*%
%FSLAX46Y46*%
G04 Gerber Fmt 4.6, Leading zero omitted, Abs format (unit mm)*
G04 Created by KiCad (PCBNEW 8.0.4) date 2024-11-29 22:22:18*
%MOMM*%
%LPD*%
G01*
G04 APERTURE LIST*
%TA.AperFunction,ComponentPad*%
%ADD10R,1.700000X1.700000*%
%TD*%
%TA.AperFunction,ComponentPad*%
%ADD11O,1.700000X1.700000*%
%TD*%
%TA.AperFunction,ComponentPad*%
%ADD12O,1.100000X2.000000*%
%TD*%
%TA.AperFunction,ComponentPad*%
%ADD13O,1.200000X1.800000*%
%TD*%
%TA.AperFunction,ComponentPad*%
%ADD14C,7.500000*%
%TD*%
%TA.AperFunction,ViaPad*%
%ADD15C,0.450000*%
%TD*%
%TA.AperFunction,ViaPad*%
%ADD16C,0.600000*%
%TD*%
G04 APERTURE END LIST*
D10*
%TO.N,GND*%
%TO.C,J6*%
X147066000Y-101092000D03*
D11*
%TO.N,VCC*%
X149606000Y-101092000D03*
%TO.N,/servo_4*%
X152146000Y-101092000D03*
%TD*%
D10*
%TO.N,/SWCLK*%
%TO.C,J1*%
X134620000Y-112776000D03*
D11*
%TO.N,/SWDIO*%
X137160000Y-112776000D03*
%TO.N,GND*%
X139700000Y-112776000D03*
%TO.N,+3.3V*%
X142240000Y-112776000D03*
%TO.N,/boot0*%
X144780000Y-112776000D03*
%TD*%
D12*
%TO.N,GND*%
%TO.C,USB1*%
X161297000Y-87241500D03*
D13*
X161297000Y-83041500D03*
D12*
X152647000Y-87241500D03*
D13*
X152647000Y-83041500D03*
%TD*%
D10*
%TO.N,GND*%
%TO.C,J8*%
X121412000Y-93472000D03*
D11*
%TO.N,VCC*%
X121412000Y-96012000D03*
%TO.N,/IBUS_RX*%
X121412000Y-98552000D03*
%TD*%
D10*
%TO.N,GND*%
%TO.C,J3*%
X148590000Y-112776000D03*
D11*
%TO.N,VCC*%
X151130000Y-112776000D03*
%TO.N,/servo_1*%
X153670000Y-112776000D03*
%TD*%
D14*
%TO.N,N/C*%
%TO.C,H4*%
X166878000Y-110998000D03*
%TD*%
D10*
%TO.N,GND*%
%TO.C,J7*%
X147066000Y-97282000D03*
D11*
%TO.N,VCC*%
X149606000Y-97282000D03*
%TO.N,/servo_5*%
X152146000Y-97282000D03*
%TD*%
D10*
%TO.N,GND*%
%TO.C,J5*%
X147066000Y-104902000D03*
D11*
%TO.N,VCC*%
X149606000Y-104902000D03*
%TO.N,/servo_3*%
X152146000Y-104902000D03*
%TD*%
D10*
%TO.N,GND*%
%TO.C,J2*%
X157480000Y-112776000D03*
D11*
%TO.N,VCC*%
X160020000Y-112776000D03*
%TD*%
D14*
%TO.N,N/C*%
%TO.C,H3*%
X122936000Y-110998000D03*
%TD*%
D10*
%TO.N,GND*%
%TO.C,J4*%
X154955000Y-108966000D03*
D11*
%TO.N,VCC*%
X157495000Y-108966000D03*
%TO.N,/servo_2*%
X160035000Y-108966000D03*
%TD*%
D14*
%TO.N,N/C*%
%TO.C,H2*%
X166878000Y-85852000D03*
%TD*%
%TO.N,N/C*%
%TO.C,H1*%
X122936000Y-85852000D03*
%TD*%
D15*
%TO.N,GND*%
X136652000Y-87376000D03*
X158690000Y-91500000D03*
X135382000Y-85852000D03*
X141986000Y-96012000D03*
X150876000Y-93726000D03*
X153162000Y-91186000D03*
X147320000Y-93726000D03*
X121666000Y-101092000D03*
D16*
X125222000Y-90678000D03*
D15*
X127762000Y-112268000D03*
X135382000Y-107950000D03*
X121412000Y-103124000D03*
X142494000Y-91440000D03*
X132334000Y-109474000D03*
X137414000Y-107950000D03*
X164846000Y-90678000D03*
X129032000Y-84328000D03*
X143002000Y-102108000D03*
X144780000Y-99060000D03*
X129032000Y-91186000D03*
X144018000Y-92202000D03*
X145796000Y-88138000D03*
X140716000Y-89154000D03*
X132842000Y-87630000D03*
X165172000Y-106100000D03*
X154432000Y-101854000D03*
X140520793Y-86175316D03*
X130556000Y-83820000D03*
X157734000Y-104902000D03*
%TO.N,+3.3V*%
X131572000Y-113792000D03*
X135636000Y-87376000D03*
X134366000Y-85852000D03*
X121412000Y-104140000D03*
X141478000Y-93472000D03*
X149098000Y-89662000D03*
X141732000Y-90678000D03*
X143002000Y-92202000D03*
X142748000Y-98044000D03*
X135128000Y-109474000D03*
X138430000Y-107950000D03*
X128016000Y-91186000D03*
X154432000Y-99314000D03*
X145288000Y-101854000D03*
X141986000Y-85598000D03*
X148082000Y-85852000D03*
D16*
X122682000Y-90678000D03*
D15*
%TO.N,/servo_3*%
X135890000Y-97536000D03*
%TO.N,/servo_4*%
X136652000Y-98298000D03*
%TO.N,/SWCLK*%
X139954000Y-104394000D03*
X138078122Y-109122122D03*
X133350000Y-109474000D03*
X140716000Y-106426000D03*
%TO.N,/SWDIO*%
X136906000Y-110490000D03*
X136017000Y-103251000D03*
%TO.N,/boot0*%
X131064000Y-108204000D03*
%TO.N,/servo_5*%
X133858000Y-103378000D03*
X138430000Y-97790000D03*
X131826000Y-103124000D03*
%TO.N,/SDIO_D0*%
X139414250Y-108743750D03*
X133096000Y-106934000D03*
%TO.N,/SDIO_D3*%
X158242000Y-98552000D03*
X137922000Y-102616000D03*
%TO.N,/USB-*%
X134874000Y-102616000D03*
X156972000Y-89408000D03*
%TO.N,/USB+*%
X135890000Y-102362000D03*
X155702000Y-89154000D03*
%TO.N,/SPI_CS_LSM*%
X143256000Y-100076000D03*
X141224000Y-98044000D03*
%TO.N,/SPI_SCK_BMP*%
X143510000Y-94742000D03*
X138176000Y-91186000D03*
%TO.N,/SDIO_CMD*%
X137541000Y-101219000D03*
X158242000Y-101219000D03*
%TO.N,/SPI_MISO_BMP*%
X137414000Y-91440000D03*
X144272000Y-96520000D03*
%TO.N,/SDIO_SCK*%
X158242000Y-100330000D03*
X138684000Y-101854000D03*
%TO.N,/SPI_MOSI_BMP*%
X143510000Y-96266000D03*
X136144000Y-91186000D03*
%TO.N,/SD_CD*%
X143764000Y-103632000D03*
X151384000Y-103124000D03*
D16*
%TO.N,/IBUS_RX*%
X127000000Y-91440000D03*
D15*
%TO.N,/SDIO_D2*%
X137922000Y-103632000D03*
X158242000Y-99441000D03*
%TO.N,/SPI_MISO_LSM*%
X137922000Y-96520000D03*
X142240000Y-102362000D03*
%TO.N,/SPI_SCK_LSM*%
X141669182Y-99563302D03*
X137668000Y-97282000D03*
D16*
%TO.N,VCC*%
X123952000Y-106172000D03*
D15*
X156068998Y-106172000D03*
%TO.N,/servo_1*%
X138176000Y-95758000D03*
%TD*%
%TA.AperFunction,Conductor*%
%TO.N,+3.3V*%
G36*
X151636804Y-82054185D02*
G01*
X151682559Y-82106989D01*
X151692503Y-82176147D01*
X151680250Y-82214795D01*
X151627128Y-82319052D01*
X151573597Y-82483802D01*
X151546500Y-82654889D01*
X151546500Y-83428110D01*
X151566024Y-83551385D01*
X151573598Y-83599201D01*
X151627127Y-83763945D01*
X151705768Y-83918288D01*
X151807586Y-84058428D01*
X151930072Y-84180914D01*
X152070212Y-84282732D01*
X152224555Y-84361373D01*
X152389299Y-84414902D01*
X152560389Y-84442000D01*
X152560390Y-84442000D01*
X152733610Y-84442000D01*
X152733611Y-84442000D01*
X152904701Y-84414902D01*
X153069445Y-84361373D01*
X153223788Y-84282732D01*
X153363928Y-84180914D01*
X153486414Y-84058428D01*
X153588232Y-83918288D01*
X153666873Y-83763945D01*
X153720402Y-83599201D01*
X153747500Y-83428111D01*
X153747500Y-82654889D01*
X153720402Y-82483799D01*
X153666873Y-82319055D01*
X153613749Y-82214793D01*
X153600854Y-82146126D01*
X153627130Y-82081385D01*
X153684237Y-82041128D01*
X153724235Y-82034500D01*
X160219765Y-82034500D01*
X160286804Y-82054185D01*
X160332559Y-82106989D01*
X160342503Y-82176147D01*
X160330250Y-82214795D01*
X160277128Y-82319052D01*
X160223597Y-82483802D01*
X160196500Y-82654889D01*
X160196500Y-83428110D01*
X160216024Y-83551385D01*
X160223598Y-83599201D01*
X160277127Y-83763945D01*
X160355768Y-83918288D01*
X160457586Y-84058428D01*
X160580072Y-84180914D01*
X160720212Y-84282732D01*
X160874555Y-84361373D01*
X161039299Y-84414902D01*
X161210389Y-84442000D01*
X161210390Y-84442000D01*
X161383610Y-84442000D01*
X161383611Y-84442000D01*
X161554701Y-84414902D01*
X161719445Y-84361373D01*
X161873788Y-84282732D01*
X162013928Y-84180914D01*
X162136414Y-84058428D01*
X162238232Y-83918288D01*
X162316873Y-83763945D01*
X162370402Y-83599201D01*
X162397500Y-83428111D01*
X162397500Y-82654889D01*
X162370402Y-82483799D01*
X162316873Y-82319055D01*
X162263749Y-82214793D01*
X162250854Y-82146126D01*
X162277130Y-82081385D01*
X162334237Y-82041128D01*
X162374235Y-82034500D01*
X164533874Y-82034500D01*
X164600913Y-82054185D01*
X164646668Y-82106989D01*
X164656612Y-82176147D01*
X164627587Y-82239703D01*
X164600913Y-82262816D01*
X164409683Y-82385711D01*
X164409676Y-82385716D01*
X164409672Y-82385719D01*
X164170044Y-82574164D01*
X164091359Y-82636043D01*
X164091357Y-82636044D01*
X163798283Y-82915490D01*
X163798281Y-82915492D01*
X163533094Y-83221534D01*
X163533083Y-83221547D01*
X163298206Y-83551385D01*
X163298200Y-83551393D01*
X163095725Y-83902091D01*
X163095717Y-83902107D01*
X162927494Y-84270462D01*
X162927492Y-84270466D01*
X162795053Y-84653125D01*
X162795050Y-84653136D01*
X162699579Y-85046673D01*
X162641948Y-85447501D01*
X162622680Y-85852000D01*
X162641948Y-86256498D01*
X162699579Y-86657326D01*
X162795050Y-87050863D01*
X162795053Y-87050874D01*
X162927492Y-87433533D01*
X162927494Y-87433537D01*
X163095717Y-87801892D01*
X163095725Y-87801908D01*
X163298200Y-88152606D01*
X163298206Y-88152614D01*
X163533083Y-88482452D01*
X163533092Y-88482462D01*
X163533093Y-88482464D01*
X163798280Y-88788507D01*
X164091358Y-89067956D01*
X164409672Y-89318281D01*
X164750340Y-89537215D01*
X165110276Y-89722775D01*
X165110281Y-89722777D01*
X165110283Y-89722778D01*
X165297444Y-89797706D01*
X165486221Y-89873281D01*
X165486229Y-89873283D01*
X165486231Y-89873284D01*
X165552118Y-89892630D01*
X165874770Y-89987369D01*
X166045165Y-90020210D01*
X166190307Y-90048184D01*
X166272405Y-90064007D01*
X166675524Y-90102500D01*
X166675530Y-90102500D01*
X167080470Y-90102500D01*
X167080476Y-90102500D01*
X167483595Y-90064007D01*
X167881230Y-89987369D01*
X168269779Y-89873281D01*
X168645724Y-89722775D01*
X169005660Y-89537215D01*
X169346328Y-89318281D01*
X169664642Y-89067956D01*
X169957720Y-88788507D01*
X170222907Y-88482464D01*
X170242625Y-88454775D01*
X170457793Y-88152614D01*
X170457794Y-88152612D01*
X170457803Y-88152600D01*
X170464113Y-88141669D01*
X170514679Y-88093455D01*
X170583286Y-88080231D01*
X170648151Y-88106199D01*
X170688680Y-88163113D01*
X170695500Y-88203670D01*
X170695500Y-108646329D01*
X170675815Y-108713368D01*
X170623011Y-108759123D01*
X170553853Y-108769067D01*
X170490297Y-108740042D01*
X170464115Y-108708334D01*
X170457803Y-108697400D01*
X170457798Y-108697393D01*
X170457793Y-108697384D01*
X170222916Y-108367547D01*
X170222905Y-108367534D01*
X169957720Y-108061493D01*
X169664642Y-107782044D01*
X169346328Y-107531719D01*
X169005660Y-107312785D01*
X168645724Y-107127225D01*
X168645723Y-107127224D01*
X168645720Y-107127223D01*
X168645716Y-107127221D01*
X168269780Y-106976719D01*
X168269768Y-106976715D01*
X167881235Y-106862632D01*
X167881218Y-106862628D01*
X167483610Y-106785995D01*
X167483598Y-106785993D01*
X167332225Y-106771539D01*
X167080476Y-106747500D01*
X166675524Y-106747500D01*
X166433652Y-106770595D01*
X166272401Y-106785993D01*
X166272389Y-106785995D01*
X165874781Y-106862628D01*
X165874757Y-106862633D01*
X165695501Y-106915267D01*
X165625631Y-106915267D01*
X165566853Y-106877492D01*
X165537829Y-106813936D01*
X165547773Y-106744778D01*
X165593528Y-106691974D01*
X165594473Y-106691374D01*
X165627204Y-106670808D01*
X165742808Y-106555204D01*
X165829789Y-106416775D01*
X165883786Y-106262461D01*
X165884327Y-106257659D01*
X165902091Y-106100003D01*
X165902091Y-106099996D01*
X165883787Y-105937544D01*
X165883786Y-105937542D01*
X165883786Y-105937539D01*
X165829789Y-105783225D01*
X165742808Y-105644796D01*
X165627204Y-105529192D01*
X165517427Y-105460214D01*
X165488774Y-105442210D01*
X165334455Y-105388212D01*
X165172004Y-105369909D01*
X165171996Y-105369909D01*
X165009544Y-105388212D01*
X164855225Y-105442210D01*
X164716795Y-105529192D01*
X164601192Y-105644795D01*
X164514210Y-105783225D01*
X164460212Y-105937544D01*
X164441909Y-106099996D01*
X164441909Y-106100003D01*
X164460212Y-106262455D01*
X164514210Y-106416774D01*
X164559451Y-106488774D01*
X164601192Y-106555204D01*
X164716796Y-106670808D01*
X164855225Y-106757789D01*
X165009539Y-106811786D01*
X165009542Y-106811786D01*
X165009544Y-106811787D01*
X165171996Y-106830091D01*
X165172000Y-106830091D01*
X165207027Y-106826144D01*
X165275847Y-106838198D01*
X165327228Y-106885546D01*
X165344853Y-106953156D01*
X165323128Y-107019562D01*
X165268949Y-107063681D01*
X165266998Y-107064481D01*
X165110294Y-107127216D01*
X165110279Y-107127223D01*
X164750343Y-107312783D01*
X164409683Y-107531711D01*
X164409676Y-107531716D01*
X164409672Y-107531719D01*
X164205739Y-107692094D01*
X164091359Y-107782043D01*
X164091357Y-107782044D01*
X163798283Y-108061490D01*
X163798281Y-108061492D01*
X163533094Y-108367534D01*
X163533083Y-108367547D01*
X163298206Y-108697385D01*
X163298200Y-108697393D01*
X163095725Y-109048091D01*
X163095717Y-109048107D01*
X162927494Y-109416462D01*
X162927492Y-109416466D01*
X162795053Y-109799125D01*
X162795050Y-109799136D01*
X162699579Y-110192673D01*
X162641948Y-110593501D01*
X162622680Y-110998000D01*
X162641948Y-111402498D01*
X162699579Y-111803326D01*
X162795050Y-112196863D01*
X162795053Y-112196874D01*
X162927492Y-112579533D01*
X162927494Y-112579537D01*
X163095717Y-112947892D01*
X163095725Y-112947908D01*
X163298200Y-113298606D01*
X163298206Y-113298614D01*
X163533083Y-113628452D01*
X163533092Y-113628462D01*
X163533093Y-113628464D01*
X163798280Y-113934507D01*
X164091358Y-114213956D01*
X164409672Y-114464281D01*
X164409683Y-114464288D01*
X164600913Y-114587184D01*
X164646668Y-114639988D01*
X164656612Y-114709147D01*
X164627587Y-114772703D01*
X164568809Y-114810477D01*
X164533874Y-114815500D01*
X125280126Y-114815500D01*
X125213087Y-114795815D01*
X125167332Y-114743011D01*
X125157388Y-114673853D01*
X125186413Y-114610297D01*
X125213087Y-114587184D01*
X125264791Y-114553956D01*
X125404328Y-114464281D01*
X125722642Y-114213956D01*
X126015720Y-113934507D01*
X126280907Y-113628464D01*
X126308693Y-113589445D01*
X126515793Y-113298614D01*
X126515799Y-113298606D01*
X126515800Y-113298603D01*
X126515803Y-113298600D01*
X126718279Y-112947900D01*
X126881427Y-112590655D01*
X126927180Y-112537854D01*
X126994220Y-112518169D01*
X127061259Y-112537853D01*
X127098607Y-112580071D01*
X127100506Y-112578879D01*
X127183005Y-112710174D01*
X127191192Y-112723204D01*
X127306796Y-112838808D01*
X127445225Y-112925789D01*
X127599539Y-112979786D01*
X127599542Y-112979786D01*
X127599544Y-112979787D01*
X127761996Y-112998091D01*
X127762000Y-112998091D01*
X127762004Y-112998091D01*
X127924455Y-112979787D01*
X127924456Y-112979786D01*
X127924461Y-112979786D01*
X128078775Y-112925789D01*
X128217204Y-112838808D01*
X128332808Y-112723204D01*
X128419789Y-112584775D01*
X128473786Y-112430461D01*
X128473787Y-112430455D01*
X128492091Y-112268003D01*
X128492091Y-112267996D01*
X128473787Y-112105544D01*
X128473786Y-112105542D01*
X128473786Y-112105539D01*
X128419789Y-111951225D01*
X128373863Y-111878135D01*
X133269500Y-111878135D01*
X133269500Y-113673870D01*
X133269501Y-113673876D01*
X133275908Y-113733483D01*
X133326202Y-113868328D01*
X133326206Y-113868335D01*
X133412452Y-113983544D01*
X133412455Y-113983547D01*
X133527664Y-114069793D01*
X133527671Y-114069797D01*
X133662517Y-114120091D01*
X133662516Y-114120091D01*
X133669444Y-114120835D01*
X133722127Y-114126500D01*
X135517872Y-114126499D01*
X135577483Y-114120091D01*
X135712331Y-114069796D01*
X135827546Y-113983546D01*
X135913796Y-113868331D01*
X135962810Y-113736916D01*
X136004681Y-113680984D01*
X136070145Y-113656566D01*
X136138418Y-113671417D01*
X136166673Y-113692569D01*
X136288599Y-113814495D01*
X136385384Y-113882265D01*
X136482165Y-113950032D01*
X136482167Y-113950033D01*
X136482170Y-113950035D01*
X136696337Y-114049903D01*
X136924592Y-114111063D01*
X137101034Y-114126500D01*
X137159999Y-114131659D01*
X137160000Y-114131659D01*
X137160001Y-114131659D01*
X137218966Y-114126500D01*
X137395408Y-114111063D01*
X137623663Y-114049903D01*
X137837830Y-113950035D01*
X138031401Y-113814495D01*
X138198495Y-113647401D01*
X138328425Y-113461842D01*
X138383002Y-113418217D01*
X138452500Y-113411023D01*
X138514855Y-113442546D01*
X138531575Y-113461842D01*
X138661500Y-113647395D01*
X138661505Y-113647401D01*
X138828599Y-113814495D01*
X138925384Y-113882265D01*
X139022165Y-113950032D01*
X139022167Y-113950033D01*
X139022170Y-113950035D01*
X139236337Y-114049903D01*
X139464592Y-114111063D01*
X139641034Y-114126500D01*
X139699999Y-114131659D01*
X139700000Y-114131659D01*
X139700001Y-114131659D01*
X139758966Y-114126500D01*
X139935408Y-114111063D01*
X140163663Y-114049903D01*
X140377830Y-113950035D01*
X140571401Y-113814495D01*
X140738495Y-113647401D01*
X140868730Y-113461405D01*
X140923307Y-113417781D01*
X140992805Y-113410587D01*
X141055160Y-113442110D01*
X141071879Y-113461405D01*
X141201890Y-113647078D01*
X141368917Y-113814105D01*
X141562421Y-113949600D01*
X141776507Y-114049429D01*
X141776516Y-114049433D01*
X141990000Y-114106634D01*
X141990000Y-113209012D01*
X142047007Y-113241925D01*
X142174174Y-113276000D01*
X142305826Y-113276000D01*
X142432993Y-113241925D01*
X142490000Y-113209012D01*
X142490000Y-114106633D01*
X142703483Y-114049433D01*
X142703492Y-114049429D01*
X142917578Y-113949600D01*
X143111082Y-113814105D01*
X143278105Y-113647082D01*
X143408119Y-113461405D01*
X143462696Y-113417781D01*
X143532195Y-113410588D01*
X143594549Y-113442110D01*
X143611269Y-113461405D01*
X143741505Y-113647401D01*
X143908599Y-113814495D01*
X144005384Y-113882265D01*
X144102165Y-113950032D01*
X144102167Y-113950033D01*
X144102170Y-113950035D01*
X144316337Y-114049903D01*
X144544592Y-114111063D01*
X144721034Y-114126500D01*
X144779999Y-114131659D01*
X144780000Y-114131659D01*
X144780001Y-114131659D01*
X144838966Y-114126500D01*
X145015408Y-114111063D01*
X145243663Y-114049903D01*
X145457830Y-113950035D01*
X145651401Y-113814495D01*
X145818495Y-113647401D01*
X145954035Y-113453830D01*
X146053903Y-113239663D01*
X146115063Y-113011408D01*
X146135659Y-112776000D01*
X146115063Y-112540592D01*
X146053903Y-112312337D01*
X145954035Y-112098171D01*
X145948731Y-112090595D01*
X145818494Y-111904597D01*
X145792032Y-111878135D01*
X147239500Y-111878135D01*
X147239500Y-113673870D01*
X147239501Y-113673876D01*
X147245908Y-113733483D01*
X147296202Y-113868328D01*
X147296206Y-113868335D01*
X147382452Y-113983544D01*
X147382455Y-113983547D01*
X147497664Y-114069793D01*
X147497671Y-114069797D01*
X147632517Y-114120091D01*
X147632516Y-114120091D01*
X147639444Y-114120835D01*
X147692127Y-114126500D01*
X149487872Y-114126499D01*
X149547483Y-114120091D01*
X149682331Y-114069796D01*
X149797546Y-113983546D01*
X149883796Y-113868331D01*
X149932810Y-113736916D01*
X149974681Y-113680984D01*
X150040145Y-113656566D01*
X150108418Y-113671417D01*
X150136673Y-113692569D01*
X150258599Y-113814495D01*
X150355384Y-113882265D01*
X150452165Y-113950032D01*
X150452167Y-113950033D01*
X150452170Y-113950035D01*
X150666337Y-114049903D01*
X150894592Y-114111063D01*
X151071034Y-114126500D01*
X151129999Y-114131659D01*
X151130000Y-114131659D01*
X151130001Y-114131659D01*
X151188966Y-114126500D01*
X151365408Y-114111063D01*
X151593663Y-114049903D01*
X151807830Y-113950035D01*
X152001401Y-113814495D01*
X152168495Y-113647401D01*
X152298425Y-113461842D01*
X152353002Y-113418217D01*
X152422500Y-113411023D01*
X152484855Y-113442546D01*
X152501575Y-113461842D01*
X152631500Y-113647395D01*
X152631505Y-113647401D01*
X152798599Y-113814495D01*
X152895384Y-113882265D01*
X152992165Y-113950032D01*
X152992167Y-113950033D01*
X152992170Y-113950035D01*
X153206337Y-114049903D01*
X153434592Y-114111063D01*
X153611034Y-114126500D01*
X153669999Y-114131659D01*
X153670000Y-114131659D01*
X153670001Y-114131659D01*
X153728966Y-114126500D01*
X153905408Y-114111063D01*
X154133663Y-114049903D01*
X154347830Y-113950035D01*
X154541401Y-113814495D01*
X154708495Y-113647401D01*
X154844035Y-113453830D01*
X154943903Y-113239663D01*
X155005063Y-113011408D01*
X155025659Y-112776000D01*
X155005063Y-112540592D01*
X154943903Y-112312337D01*
X154844035Y-112098171D01*
X154838731Y-112090595D01*
X154708494Y-111904597D01*
X154682032Y-111878135D01*
X156129500Y-111878135D01*
X156129500Y-113673870D01*
X156129501Y-113673876D01*
X156135908Y-113733483D01*
X156186202Y-113868328D01*
X156186206Y-113868335D01*
X156272452Y-113983544D01*
X156272455Y-113983547D01*
X156387664Y-114069793D01*
X156387671Y-114069797D01*
X156522517Y-114120091D01*
X156522516Y-114120091D01*
X156529444Y-114120835D01*
X156582127Y-114126500D01*
X158377872Y-114126499D01*
X158437483Y-114120091D01*
X158572331Y-114069796D01*
X158687546Y-113983546D01*
X158773796Y-113868331D01*
X158822810Y-113736916D01*
X158864681Y-113680984D01*
X158930145Y-113656566D01*
X158998418Y-113671417D01*
X159026673Y-113692569D01*
X159148599Y-113814495D01*
X159245384Y-113882265D01*
X159342165Y-113950032D01*
X159342167Y-113950033D01*
X159342170Y-113950035D01*
X159556337Y-114049903D01*
X159784592Y-114111063D01*
X159961034Y-114126500D01*
X160019999Y-114131659D01*
X160020000Y-114131659D01*
X160020001Y-114131659D01*
X160078966Y-114126500D01*
X160255408Y-114111063D01*
X160483663Y-114049903D01*
X160697830Y-113950035D01*
X160891401Y-113814495D01*
X161058495Y-113647401D01*
X161194035Y-113453830D01*
X161293903Y-113239663D01*
X161355063Y-113011408D01*
X161375659Y-112776000D01*
X161355063Y-112540592D01*
X161293903Y-112312337D01*
X161194035Y-112098171D01*
X161188731Y-112090595D01*
X161058494Y-111904597D01*
X160891402Y-111737506D01*
X160891395Y-111737501D01*
X160697834Y-111601967D01*
X160697830Y-111601965D01*
X160697828Y-111601964D01*
X160483663Y-111502097D01*
X160483659Y-111502096D01*
X160483655Y-111502094D01*
X160255413Y-111440938D01*
X160255403Y-111440936D01*
X160020001Y-111420341D01*
X160019999Y-111420341D01*
X159784596Y-111440936D01*
X159784586Y-111440938D01*
X159556344Y-111502094D01*
X159556335Y-111502098D01*
X159342171Y-111601964D01*
X159342169Y-111601965D01*
X159148600Y-111737503D01*
X159026673Y-111859430D01*
X158965350Y-111892914D01*
X158895658Y-111887930D01*
X158839725Y-111846058D01*
X158822810Y-111815081D01*
X158773797Y-111683671D01*
X158773793Y-111683664D01*
X158687547Y-111568455D01*
X158687544Y-111568452D01*
X158572335Y-111482206D01*
X158572328Y-111482202D01*
X158437482Y-111431908D01*
X158437483Y-111431908D01*
X158377883Y-111425501D01*
X158377881Y-111425500D01*
X158377873Y-111425500D01*
X158377864Y-111425500D01*
X156582129Y-111425500D01*
X156582123Y-111425501D01*
X156522516Y-111431908D01*
X156387671Y-111482202D01*
X156387664Y-111482206D01*
X156272455Y-111568452D01*
X156272452Y-111568455D01*
X156186206Y-111683664D01*
X156186202Y-111683671D01*
X156135908Y-111818517D01*
X156129501Y-111878116D01*
X156129500Y-111878135D01*
X154682032Y-111878135D01*
X154541402Y-111737506D01*
X154541395Y-111737501D01*
X154347834Y-111601967D01*
X154347830Y-111601965D01*
X154347828Y-111601964D01*
X154133663Y-111502097D01*
X154133659Y-111502096D01*
X154133655Y-111502094D01*
X153905413Y-111440938D01*
X153905403Y-111440936D01*
X153670001Y-111420341D01*
X153669999Y-111420341D01*
X153434596Y-111440936D01*
X153434586Y-111440938D01*
X153206344Y-111502094D01*
X153206335Y-111502098D01*
X152992171Y-111601964D01*
X152992169Y-111601965D01*
X152798597Y-111737505D01*
X152631505Y-111904597D01*
X152501575Y-112090158D01*
X152446998Y-112133783D01*
X152377500Y-112140977D01*
X152315145Y-112109454D01*
X152298425Y-112090158D01*
X152168494Y-111904597D01*
X152001402Y-111737506D01*
X152001395Y-111737501D01*
X151807834Y-111601967D01*
X151807830Y-111601965D01*
X151807828Y-111601964D01*
X151593663Y-111502097D01*
X151593659Y-111502096D01*
X151593655Y-111502094D01*
X151365413Y-111440938D01*
X151365403Y-111440936D01*
X151130001Y-111420341D01*
X151129999Y-111420341D01*
X150894596Y-111440936D01*
X150894586Y-111440938D01*
X150666344Y-111502094D01*
X150666335Y-111502098D01*
X150452171Y-111601964D01*
X150452169Y-111601965D01*
X150258600Y-111737503D01*
X150136673Y-111859430D01*
X150075350Y-111892914D01*
X150005658Y-111887930D01*
X149949725Y-111846058D01*
X149932810Y-111815081D01*
X149883797Y-111683671D01*
X149883793Y-111683664D01*
X149797547Y-111568455D01*
X149797544Y-111568452D01*
X149682335Y-111482206D01*
X149682328Y-111482202D01*
X149547482Y-111431908D01*
X149547483Y-111431908D01*
X149487883Y-111425501D01*
X149487881Y-111425500D01*
X149487873Y-111425500D01*
X149487864Y-111425500D01*
X147692129Y-111425500D01*
X147692123Y-111425501D01*
X147632516Y-111431908D01*
X147497671Y-111482202D01*
X147497664Y-111482206D01*
X147382455Y-111568452D01*
X147382452Y-111568455D01*
X147296206Y-111683664D01*
X147296202Y-111683671D01*
X147245908Y-111818517D01*
X147239501Y-111878116D01*
X147239500Y-111878135D01*
X145792032Y-111878135D01*
X145651402Y-111737506D01*
X145651395Y-111737501D01*
X145457834Y-111601967D01*
X145457830Y-111601965D01*
X145457828Y-111601964D01*
X145243663Y-111502097D01*
X145243659Y-111502096D01*
X145243655Y-111502094D01*
X145015413Y-111440938D01*
X145015403Y-111440936D01*
X144780001Y-111420341D01*
X144779999Y-111420341D01*
X144544596Y-111440936D01*
X144544586Y-111440938D01*
X144316344Y-111502094D01*
X144316335Y-111502098D01*
X144102171Y-111601964D01*
X144102169Y-111601965D01*
X143908597Y-111737505D01*
X143741508Y-111904594D01*
X143611269Y-112090595D01*
X143556692Y-112134219D01*
X143487193Y-112141412D01*
X143424839Y-112109890D01*
X143408119Y-112090594D01*
X143278113Y-111904926D01*
X143278108Y-111904920D01*
X143111082Y-111737894D01*
X142917578Y-111602399D01*
X142703492Y-111502570D01*
X142703486Y-111502567D01*
X142490000Y-111445364D01*
X142490000Y-112342988D01*
X142432993Y-112310075D01*
X142305826Y-112276000D01*
X142174174Y-112276000D01*
X142047007Y-112310075D01*
X141990000Y-112342988D01*
X141990000Y-111445364D01*
X141989999Y-111445364D01*
X141776513Y-111502567D01*
X141776507Y-111502570D01*
X141562422Y-111602399D01*
X141562420Y-111602400D01*
X141368926Y-111737886D01*
X141368920Y-111737891D01*
X141201891Y-111904920D01*
X141201890Y-111904922D01*
X141071880Y-112090595D01*
X141017303Y-112134219D01*
X140947804Y-112141412D01*
X140885450Y-112109890D01*
X140868730Y-112090594D01*
X140738494Y-111904597D01*
X140571402Y-111737506D01*
X140571395Y-111737501D01*
X140377834Y-111601967D01*
X140377830Y-111601965D01*
X140377828Y-111601964D01*
X140163663Y-111502097D01*
X140163659Y-111502096D01*
X140163655Y-111502094D01*
X139935413Y-111440938D01*
X139935403Y-111440936D01*
X139700001Y-111420341D01*
X139699999Y-111420341D01*
X139464596Y-111440936D01*
X139464586Y-111440938D01*
X139236344Y-111502094D01*
X139236335Y-111502098D01*
X139022171Y-111601964D01*
X139022169Y-111601965D01*
X138828597Y-111737505D01*
X138661505Y-111904597D01*
X138531575Y-112090158D01*
X138476998Y-112133783D01*
X138407500Y-112140977D01*
X138345145Y-112109454D01*
X138328425Y-112090158D01*
X138198494Y-111904597D01*
X138031402Y-111737506D01*
X138031395Y-111737501D01*
X137837834Y-111601967D01*
X137837830Y-111601965D01*
X137837828Y-111601964D01*
X137623663Y-111502097D01*
X137623659Y-111502096D01*
X137623655Y-111502094D01*
X137395413Y-111440938D01*
X137395403Y-111440936D01*
X137161217Y-111420447D01*
X137096149Y-111394994D01*
X137055170Y-111338403D01*
X137051292Y-111268641D01*
X137085746Y-111207857D01*
X137131068Y-111179878D01*
X137222775Y-111147789D01*
X137361204Y-111060808D01*
X137476808Y-110945204D01*
X137563789Y-110806775D01*
X137617786Y-110652461D01*
X137624429Y-110593506D01*
X137636091Y-110490003D01*
X137636091Y-110489996D01*
X137617787Y-110327544D01*
X137617786Y-110327542D01*
X137617786Y-110327539D01*
X137563789Y-110173225D01*
X137476808Y-110034796D01*
X137361204Y-109919192D01*
X137284482Y-109870984D01*
X137222774Y-109832210D01*
X137068455Y-109778212D01*
X136906004Y-109759909D01*
X136905996Y-109759909D01*
X136743544Y-109778212D01*
X136589225Y-109832210D01*
X136450795Y-109919192D01*
X136335192Y-110034795D01*
X136248210Y-110173225D01*
X136194212Y-110327544D01*
X136175909Y-110489996D01*
X136175909Y-110490003D01*
X136194212Y-110652455D01*
X136248210Y-110806774D01*
X136248211Y-110806775D01*
X136335192Y-110945204D01*
X136450796Y-111060808D01*
X136589225Y-111147789D01*
X136743539Y-111201786D01*
X136743542Y-111201786D01*
X136743544Y-111201787D01*
X136848075Y-111213565D01*
X136912489Y-111240631D01*
X136952045Y-111298226D01*
X136954182Y-111368063D01*
X136918224Y-111427970D01*
X136866285Y-111456560D01*
X136696344Y-111502094D01*
X136696335Y-111502098D01*
X136482171Y-111601964D01*
X136482169Y-111601965D01*
X136288600Y-111737503D01*
X136166673Y-111859430D01*
X136105350Y-111892914D01*
X136035658Y-111887930D01*
X135979725Y-111846058D01*
X135962810Y-111815081D01*
X135913797Y-111683671D01*
X135913793Y-111683664D01*
X135827547Y-111568455D01*
X135827544Y-111568452D01*
X135712335Y-111482206D01*
X135712328Y-111482202D01*
X135577482Y-111431908D01*
X135577483Y-111431908D01*
X135517883Y-111425501D01*
X135517881Y-111425500D01*
X135517873Y-111425500D01*
X135517864Y-111425500D01*
X133722129Y-111425500D01*
X133722123Y-111425501D01*
X133662516Y-111431908D01*
X133527671Y-111482202D01*
X133527664Y-111482206D01*
X133412455Y-111568452D01*
X133412452Y-111568455D01*
X133326206Y-111683664D01*
X133326202Y-111683671D01*
X133275908Y-111818517D01*
X133269501Y-111878116D01*
X133269500Y-111878135D01*
X128373863Y-111878135D01*
X128332808Y-111812796D01*
X128217204Y-111697192D01*
X128195674Y-111683664D01*
X128078774Y-111610210D01*
X127924455Y-111556212D01*
X127762004Y-111537909D01*
X127761996Y-111537909D01*
X127599544Y-111556212D01*
X127445225Y-111610210D01*
X127338926Y-111677003D01*
X127271689Y-111696003D01*
X127204854Y-111675635D01*
X127159640Y-111622367D01*
X127150216Y-111554364D01*
X127172052Y-111402494D01*
X127191320Y-110998000D01*
X127172052Y-110593506D01*
X127114421Y-110192675D01*
X127018950Y-109799138D01*
X127016056Y-109790775D01*
X126906418Y-109473996D01*
X131603909Y-109473996D01*
X131603909Y-109474003D01*
X131622212Y-109636455D01*
X131676210Y-109790774D01*
X131726610Y-109870984D01*
X131763192Y-109929204D01*
X131878796Y-110044808D01*
X132017225Y-110131789D01*
X132171539Y-110185786D01*
X132171542Y-110185786D01*
X132171544Y-110185787D01*
X132333996Y-110204091D01*
X132334000Y-110204091D01*
X132334004Y-110204091D01*
X132496455Y-110185787D01*
X132496456Y-110185786D01*
X132496461Y-110185786D01*
X132650775Y-110131789D01*
X132776028Y-110053086D01*
X132843264Y-110034086D01*
X132907970Y-110053086D01*
X133033225Y-110131789D01*
X133187539Y-110185786D01*
X133187542Y-110185786D01*
X133187544Y-110185787D01*
X133349996Y-110204091D01*
X133350000Y-110204091D01*
X133350004Y-110204091D01*
X133512455Y-110185787D01*
X133512456Y-110185786D01*
X133512461Y-110185786D01*
X133666775Y-110131789D01*
X133805204Y-110044808D01*
X133920808Y-109929204D01*
X134007789Y-109790775D01*
X134061786Y-109636461D01*
X134064693Y-109610664D01*
X134080091Y-109474003D01*
X134080091Y-109473996D01*
X134061787Y-109311544D01*
X134061786Y-109311542D01*
X134061786Y-109311539D01*
X134007789Y-109157225D01*
X133920808Y-109018796D01*
X133805204Y-108903192D01*
X133739312Y-108861789D01*
X133666774Y-108816210D01*
X133512455Y-108762212D01*
X133350004Y-108743909D01*
X133349996Y-108743909D01*
X133187544Y-108762212D01*
X133033225Y-108816210D01*
X132907972Y-108894913D01*
X132840736Y-108913913D01*
X132776028Y-108894913D01*
X132650774Y-108816210D01*
X132496455Y-108762212D01*
X132334004Y-108743909D01*
X132333996Y-108743909D01*
X132171544Y-108762212D01*
X132017225Y-108816210D01*
X131878795Y-108903192D01*
X131763192Y-109018795D01*
X131676210Y-109157225D01*
X131622212Y-109311544D01*
X131603909Y-109473996D01*
X126906418Y-109473996D01*
X126886507Y-109416466D01*
X126886505Y-109416462D01*
X126839966Y-109314557D01*
X126718279Y-109048100D01*
X126701360Y-109018796D01*
X126515799Y-108697393D01*
X126515793Y-108697385D01*
X126280916Y-108367547D01*
X126280905Y-108367534D01*
X126139199Y-108203996D01*
X130333909Y-108203996D01*
X130333909Y-108204003D01*
X130352212Y-108366455D01*
X130352213Y-108366460D01*
X130352214Y-108366461D01*
X130352590Y-108367536D01*
X130406210Y-108520774D01*
X130444238Y-108581294D01*
X130493192Y-108659204D01*
X130608796Y-108774808D01*
X130747225Y-108861789D01*
X130901539Y-108915786D01*
X130901542Y-108915786D01*
X130901544Y-108915787D01*
X131063996Y-108934091D01*
X131064000Y-108934091D01*
X131064004Y-108934091D01*
X131226455Y-108915787D01*
X131226456Y-108915786D01*
X131226461Y-108915786D01*
X131380775Y-108861789D01*
X131519204Y-108774808D01*
X131634808Y-108659204D01*
X131721789Y-108520775D01*
X131775786Y-108366461D01*
X131780595Y-108323783D01*
X131794091Y-108204003D01*
X131794091Y-108203996D01*
X131775787Y-108041544D01*
X131775786Y-108041542D01*
X131775786Y-108041539D01*
X131743754Y-107949996D01*
X134651909Y-107949996D01*
X134651909Y-107950003D01*
X134670212Y-108112455D01*
X134724210Y-108266774D01*
X134787530Y-108367547D01*
X134811192Y-108405204D01*
X134926796Y-108520808D01*
X135065225Y-108607789D01*
X135219539Y-108661786D01*
X135219542Y-108661786D01*
X135219544Y-108661787D01*
X135381996Y-108680091D01*
X135382000Y-108680091D01*
X135382004Y-108680091D01*
X135544455Y-108661787D01*
X135544456Y-108661786D01*
X135544461Y-108661786D01*
X135698775Y-108607789D01*
X135837204Y-108520808D01*
X135952808Y-108405204D01*
X136039789Y-108266775D01*
X136093786Y-108112461D01*
X136097677Y-108077930D01*
X136112091Y-107950003D01*
X136112091Y-107949996D01*
X136683909Y-107949996D01*
X136683909Y-107950003D01*
X136702212Y-108112455D01*
X136756210Y-108266774D01*
X136819530Y-108367547D01*
X136843192Y-108405204D01*
X136958796Y-108520808D01*
X137097225Y-108607789D01*
X137251539Y-108661786D01*
X137251543Y-108661786D01*
X137251545Y-108661787D01*
X137307744Y-108668119D01*
X137372158Y-108695185D01*
X137411714Y-108752779D01*
X137413853Y-108822616D01*
X137410904Y-108832293D01*
X137366334Y-108959666D01*
X137348031Y-109122118D01*
X137348031Y-109122125D01*
X137366334Y-109284577D01*
X137366335Y-109284582D01*
X137366336Y-109284583D01*
X137371188Y-109298448D01*
X137420332Y-109438896D01*
X137507314Y-109577326D01*
X137622918Y-109692930D01*
X137761347Y-109779911D01*
X137915661Y-109833908D01*
X137915664Y-109833908D01*
X137915666Y-109833909D01*
X138078118Y-109852213D01*
X138078122Y-109852213D01*
X138078126Y-109852213D01*
X138240577Y-109833909D01*
X138240578Y-109833908D01*
X138240583Y-109833908D01*
X138394897Y-109779911D01*
X138533326Y-109692930D01*
X138648930Y-109577326D01*
X138735911Y-109438897D01*
X138760888Y-109367516D01*
X138801608Y-109310741D01*
X138866560Y-109284993D01*
X138935122Y-109298448D01*
X138955243Y-109311525D01*
X138959045Y-109314557D01*
X138959046Y-109314558D01*
X139097475Y-109401539D01*
X139251789Y-109455536D01*
X139251792Y-109455536D01*
X139251794Y-109455537D01*
X139414246Y-109473841D01*
X139414250Y-109473841D01*
X139414254Y-109473841D01*
X139576705Y-109455537D01*
X139576706Y-109455536D01*
X139576711Y-109455536D01*
X139731025Y-109401539D01*
X139869454Y-109314558D01*
X139985058Y-109198954D01*
X140072039Y-109060525D01*
X140126036Y-108906211D01*
X140141410Y-108769767D01*
X140144341Y-108743753D01*
X140144341Y-108743746D01*
X140126037Y-108581294D01*
X140126036Y-108581292D01*
X140126036Y-108581289D01*
X140072039Y-108426975D01*
X139985058Y-108288546D01*
X139869454Y-108172942D01*
X139731024Y-108085960D01*
X139680083Y-108068135D01*
X153604500Y-108068135D01*
X153604500Y-109863870D01*
X153604501Y-109863876D01*
X153610908Y-109923483D01*
X153661202Y-110058328D01*
X153661206Y-110058335D01*
X153747452Y-110173544D01*
X153747455Y-110173547D01*
X153862664Y-110259793D01*
X153862671Y-110259797D01*
X153997517Y-110310091D01*
X153997516Y-110310091D01*
X154004444Y-110310835D01*
X154057127Y-110316500D01*
X155852872Y-110316499D01*
X155912483Y-110310091D01*
X156047331Y-110259796D01*
X156162546Y-110173546D01*
X156248796Y-110058331D01*
X156297810Y-109926916D01*
X156339681Y-109870984D01*
X156405145Y-109846566D01*
X156473418Y-109861417D01*
X156501673Y-109882569D01*
X156623599Y-110004495D01*
X156720384Y-110072265D01*
X156817165Y-110140032D01*
X156817167Y-110140033D01*
X156817170Y-110140035D01*
X157031337Y-110239903D01*
X157259592Y-110301063D01*
X157436034Y-110316500D01*
X157494999Y-110321659D01*
X157495000Y-110321659D01*
X157495001Y-110321659D01*
X157553966Y-110316500D01*
X157730408Y-110301063D01*
X157958663Y-110239903D01*
X158172830Y-110140035D01*
X158366401Y-110004495D01*
X158533495Y-109837401D01*
X158663425Y-109651842D01*
X158718002Y-109608217D01*
X158787500Y-109601023D01*
X158849855Y-109632546D01*
X158866575Y-109651842D01*
X158996500Y-109837395D01*
X158996505Y-109837401D01*
X159163599Y-110004495D01*
X159260384Y-110072265D01*
X159357165Y-110140032D01*
X159357167Y-110140033D01*
X159357170Y-110140035D01*
X159571337Y-110239903D01*
X159799592Y-110301063D01*
X159976034Y-110316500D01*
X160034999Y-110321659D01*
X160035000Y-110321659D01*
X160035001Y-110321659D01*
X160093966Y-110316500D01*
X160270408Y-110301063D01*
X160498663Y-110239903D01*
X160712830Y-110140035D01*
X160906401Y-110004495D01*
X161073495Y-109837401D01*
X161209035Y-109643830D01*
X161308903Y-109429663D01*
X161370063Y-109201408D01*
X161390659Y-108966000D01*
X161370063Y-108730592D01*
X161308903Y-108502337D01*
X161209035Y-108288171D01*
X161203425Y-108280158D01*
X161073494Y-108094597D01*
X160906402Y-107927506D01*
X160906395Y-107927501D01*
X160712834Y-107791967D01*
X160712830Y-107791965D01*
X160691552Y-107782043D01*
X160498663Y-107692097D01*
X160498659Y-107692096D01*
X160498655Y-107692094D01*
X160270413Y-107630938D01*
X160270403Y-107630936D01*
X160035001Y-107610341D01*
X160034999Y-107610341D01*
X159799596Y-107630936D01*
X159799586Y-107630938D01*
X159571344Y-107692094D01*
X159571335Y-107692098D01*
X159357171Y-107791964D01*
X159357169Y-107791965D01*
X159163597Y-107927505D01*
X158996505Y-108094597D01*
X158866575Y-108280158D01*
X158811998Y-108323783D01*
X158742500Y-108330977D01*
X158680145Y-108299454D01*
X158663425Y-108280158D01*
X158533494Y-108094597D01*
X158366402Y-107927506D01*
X158366395Y-107927501D01*
X158172834Y-107791967D01*
X158172830Y-107791965D01*
X158151552Y-107782043D01*
X157958663Y-107692097D01*
X157958659Y-107692096D01*
X157958655Y-107692094D01*
X157730413Y-107630938D01*
X157730403Y-107630936D01*
X157495001Y-107610341D01*
X157494999Y-107610341D01*
X157259596Y-107630936D01*
X157259586Y-107630938D01*
X157031344Y-107692094D01*
X157031335Y-107692098D01*
X156817171Y-107791964D01*
X156817169Y-107791965D01*
X156623600Y-107927503D01*
X156501673Y-108049430D01*
X156440350Y-108082914D01*
X156370658Y-108077930D01*
X156314725Y-108036058D01*
X156297810Y-108005081D01*
X156248797Y-107873671D01*
X156248793Y-107873664D01*
X156162547Y-107758455D01*
X156162544Y-107758452D01*
X156047335Y-107672206D01*
X156047328Y-107672202D01*
X155912482Y-107621908D01*
X155912483Y-107621908D01*
X155852883Y-107615501D01*
X155852881Y-107615500D01*
X155852873Y-107615500D01*
X155852864Y-107615500D01*
X154057129Y-107615500D01*
X154057123Y-107615501D01*
X153997516Y-107621908D01*
X153862671Y-107672202D01*
X153862664Y-107672206D01*
X153747455Y-107758452D01*
X153747452Y-107758455D01*
X153661206Y-107873664D01*
X153661202Y-107873671D01*
X153610908Y-108008517D01*
X153604501Y-108068116D01*
X153604500Y-108068135D01*
X139680083Y-108068135D01*
X139576705Y-108031962D01*
X139414254Y-108013659D01*
X139414246Y-108013659D01*
X139251794Y-108031962D01*
X139097475Y-108085960D01*
X138959045Y-108172942D01*
X138843442Y-108288545D01*
X138756461Y-108426974D01*
X138731484Y-108498355D01*
X138690762Y-108555131D01*
X138625809Y-108580878D01*
X138557247Y-108567422D01*
X138537129Y-108554347D01*
X138533326Y-108551314D01*
X138394896Y-108464332D01*
X138240577Y-108410334D01*
X138184375Y-108404002D01*
X138119961Y-108376935D01*
X138080406Y-108319340D01*
X138078269Y-108249503D01*
X138081214Y-108239839D01*
X138125786Y-108112461D01*
X138125786Y-108112459D01*
X138125787Y-108112457D01*
X138144091Y-107950003D01*
X138144091Y-107949996D01*
X138125787Y-107787544D01*
X138125786Y-107787542D01*
X138125786Y-107787539D01*
X138071789Y-107633225D01*
X137984808Y-107494796D01*
X137869204Y-107379192D01*
X137730774Y-107292210D01*
X137576455Y-107238212D01*
X137414004Y-107219909D01*
X137413996Y-107219909D01*
X137251544Y-107238212D01*
X137097225Y-107292210D01*
X136958795Y-107379192D01*
X136843192Y-107494795D01*
X136756210Y-107633225D01*
X136702212Y-107787544D01*
X136683909Y-107949996D01*
X136112091Y-107949996D01*
X136093787Y-107787544D01*
X136093786Y-107787542D01*
X136093786Y-107787539D01*
X136039789Y-107633225D01*
X135952808Y-107494796D01*
X135837204Y-107379192D01*
X135698774Y-107292210D01*
X135544455Y-107238212D01*
X135382004Y-107219909D01*
X135381996Y-107219909D01*
X135219544Y-107238212D01*
X135065225Y-107292210D01*
X134926795Y-107379192D01*
X134811192Y-107494795D01*
X134724210Y-107633225D01*
X134670212Y-107787544D01*
X134651909Y-107949996D01*
X131743754Y-107949996D01*
X131721789Y-107887225D01*
X131634808Y-107748796D01*
X131519204Y-107633192D01*
X131491049Y-107615501D01*
X131380774Y-107546210D01*
X131226455Y-107492212D01*
X131064004Y-107473909D01*
X131063996Y-107473909D01*
X130901544Y-107492212D01*
X130747225Y-107546210D01*
X130608795Y-107633192D01*
X130493192Y-107748795D01*
X130406210Y-107887225D01*
X130352212Y-108041544D01*
X130333909Y-108203996D01*
X126139199Y-108203996D01*
X126015720Y-108061493D01*
X125722642Y-107782044D01*
X125404328Y-107531719D01*
X125063660Y-107312785D01*
X124703724Y-107127225D01*
X124703723Y-107127224D01*
X124703720Y-107127223D01*
X124703716Y-107127221D01*
X124461132Y-107030105D01*
X124406210Y-106986914D01*
X124387895Y-106933996D01*
X132365909Y-106933996D01*
X132365909Y-106934003D01*
X132384212Y-107096455D01*
X132438210Y-107250774D01*
X132518901Y-107379192D01*
X132525192Y-107389204D01*
X132640796Y-107504808D01*
X132779225Y-107591789D01*
X132933539Y-107645786D01*
X132933542Y-107645786D01*
X132933544Y-107645787D01*
X133095996Y-107664091D01*
X133096000Y-107664091D01*
X133096004Y-107664091D01*
X133258455Y-107645787D01*
X133258456Y-107645786D01*
X133258461Y-107645786D01*
X133412775Y-107591789D01*
X133551204Y-107504808D01*
X133666808Y-107389204D01*
X133753789Y-107250775D01*
X133807786Y-107096461D01*
X133809214Y-107083789D01*
X133826091Y-106934003D01*
X133826091Y-106933996D01*
X133807787Y-106771544D01*
X133807786Y-106771542D01*
X133807786Y-106771539D01*
X133753789Y-106617225D01*
X133666808Y-106478796D01*
X133614008Y-106425996D01*
X139985909Y-106425996D01*
X139985909Y-106426003D01*
X140004212Y-106588455D01*
X140058210Y-106742774D01*
X140110595Y-106826144D01*
X140145192Y-106881204D01*
X140260796Y-106996808D01*
X140399225Y-107083789D01*
X140553539Y-107137786D01*
X140553542Y-107137786D01*
X140553544Y-107137787D01*
X140715996Y-107156091D01*
X140716000Y-107156091D01*
X140716004Y-107156091D01*
X140878455Y-107137787D01*
X140878456Y-107137786D01*
X140878461Y-107137786D01*
X141032775Y-107083789D01*
X141171204Y-106996808D01*
X141286808Y-106881204D01*
X141373789Y-106742775D01*
X141427786Y-106588461D01*
X141435328Y-106521523D01*
X141446091Y-106426003D01*
X141446091Y-106425996D01*
X141427787Y-106263544D01*
X141427786Y-106263542D01*
X141427786Y-106263539D01*
X141373789Y-106109225D01*
X141286808Y-105970796D01*
X141171204Y-105855192D01*
X141094482Y-105806984D01*
X141032774Y-105768210D01*
X140878455Y-105714212D01*
X140716004Y-105695909D01*
X140715996Y-105695909D01*
X140553544Y-105714212D01*
X140399225Y-105768210D01*
X140260795Y-105855192D01*
X140145192Y-105970795D01*
X140058210Y-106109225D01*
X140004212Y-106263544D01*
X139985909Y-106425996D01*
X133614008Y-106425996D01*
X133551204Y-106363192D01*
X133412774Y-106276210D01*
X133258455Y-106222212D01*
X133096004Y-106203909D01*
X133095996Y-106203909D01*
X132933544Y-106222212D01*
X132779225Y-106276210D01*
X132640795Y-106363192D01*
X132525192Y-106478795D01*
X132438210Y-106617225D01*
X132384212Y-106771544D01*
X132365909Y-106933996D01*
X124387895Y-106933996D01*
X124383358Y-106920887D01*
X124399831Y-106852987D01*
X124441247Y-106809993D01*
X124454262Y-106801816D01*
X124581816Y-106674262D01*
X124677789Y-106521522D01*
X124737368Y-106351255D01*
X124737369Y-106351249D01*
X124757565Y-106172003D01*
X124757565Y-106171996D01*
X124737369Y-105992750D01*
X124737368Y-105992745D01*
X124718052Y-105937544D01*
X124677789Y-105822478D01*
X124668053Y-105806984D01*
X124638582Y-105760080D01*
X124581816Y-105669738D01*
X124454262Y-105542184D01*
X124446048Y-105537023D01*
X124301523Y-105446211D01*
X124131254Y-105386631D01*
X124131249Y-105386630D01*
X123952004Y-105366435D01*
X123951996Y-105366435D01*
X123772750Y-105386630D01*
X123772745Y-105386631D01*
X123602476Y-105446211D01*
X123449737Y-105542184D01*
X123322184Y-105669737D01*
X123226211Y-105822476D01*
X123166631Y-105992745D01*
X123166630Y-105992750D01*
X123146435Y-106171996D01*
X123146435Y-106172003D01*
X123166630Y-106351249D01*
X123166631Y-106351254D01*
X123226211Y-106521523D01*
X123248909Y-106557646D01*
X123267909Y-106624883D01*
X123247541Y-106691718D01*
X123194273Y-106736932D01*
X123141428Y-106746843D01*
X123141428Y-106747500D01*
X123138476Y-106747500D01*
X122733524Y-106747500D01*
X122491652Y-106770595D01*
X122330401Y-106785993D01*
X122330389Y-106785995D01*
X121932781Y-106862628D01*
X121932764Y-106862632D01*
X121544231Y-106976715D01*
X121544219Y-106976719D01*
X121168283Y-107127221D01*
X121168279Y-107127223D01*
X120808343Y-107312783D01*
X120467683Y-107531711D01*
X120467676Y-107531716D01*
X120467672Y-107531719D01*
X120263739Y-107692094D01*
X120149359Y-107782043D01*
X120149357Y-107782044D01*
X119856283Y-108061490D01*
X119856281Y-108061492D01*
X119591094Y-108367534D01*
X119591083Y-108367547D01*
X119356206Y-108697384D01*
X119356197Y-108697400D01*
X119349884Y-108708333D01*
X119299317Y-108756546D01*
X119230710Y-108769767D01*
X119165846Y-108743798D01*
X119125319Y-108686883D01*
X119118500Y-108646329D01*
X119118500Y-104393996D01*
X139223909Y-104393996D01*
X139223909Y-104394003D01*
X139242212Y-104556455D01*
X139296210Y-104710774D01*
X139314288Y-104739544D01*
X139383192Y-104849204D01*
X139498796Y-104964808D01*
X139637225Y-105051789D01*
X139791539Y-105105786D01*
X139791542Y-105105786D01*
X139791544Y-105105787D01*
X139953996Y-105124091D01*
X139954000Y-105124091D01*
X139954004Y-105124091D01*
X140116455Y-105105787D01*
X140116456Y-105105786D01*
X140116461Y-105105786D01*
X140270775Y-105051789D01*
X140409204Y-104964808D01*
X140524808Y-104849204D01*
X140611789Y-104710775D01*
X140665786Y-104556461D01*
X140665787Y-104556455D01*
X140684091Y-104394003D01*
X140684091Y-104393996D01*
X140665787Y-104231544D01*
X140665786Y-104231542D01*
X140665786Y-104231539D01*
X140611789Y-104077225D01*
X140524808Y-103938796D01*
X140409204Y-103823192D01*
X140363479Y-103794461D01*
X140270774Y-103736210D01*
X140116455Y-103682212D01*
X139954004Y-103663909D01*
X139953996Y-103663909D01*
X139791544Y-103682212D01*
X139637225Y-103736210D01*
X139498795Y-103823192D01*
X139383192Y-103938795D01*
X139296210Y-104077225D01*
X139242212Y-104231544D01*
X139223909Y-104393996D01*
X119118500Y-104393996D01*
X119118500Y-103123996D01*
X120681909Y-103123996D01*
X120681909Y-103124003D01*
X120700212Y-103286455D01*
X120754210Y-103440774D01*
X120816844Y-103540455D01*
X120841192Y-103579204D01*
X120956796Y-103694808D01*
X121095225Y-103781789D01*
X121249539Y-103835786D01*
X121249542Y-103835786D01*
X121249544Y-103835787D01*
X121411996Y-103854091D01*
X121412000Y-103854091D01*
X121412004Y-103854091D01*
X121574455Y-103835787D01*
X121574456Y-103835786D01*
X121574461Y-103835786D01*
X121728775Y-103781789D01*
X121867204Y-103694808D01*
X121982808Y-103579204D01*
X122069789Y-103440775D01*
X122123786Y-103286461D01*
X122127782Y-103250996D01*
X122142091Y-103124003D01*
X122142091Y-103123996D01*
X131095909Y-103123996D01*
X131095909Y-103124003D01*
X131114212Y-103286455D01*
X131168210Y-103440774D01*
X131230844Y-103540455D01*
X131255192Y-103579204D01*
X131370796Y-103694808D01*
X131509225Y-103781789D01*
X131663539Y-103835786D01*
X131663542Y-103835786D01*
X131663544Y-103835787D01*
X131825996Y-103854091D01*
X131826000Y-103854091D01*
X131826004Y-103854091D01*
X131988455Y-103835787D01*
X131988456Y-103835786D01*
X131988461Y-103835786D01*
X132142775Y-103781789D01*
X132281204Y-103694808D01*
X132396808Y-103579204D01*
X132483789Y-103440775D01*
X132505756Y-103377996D01*
X133127909Y-103377996D01*
X133127909Y-103378003D01*
X133146212Y-103540455D01*
X133200210Y-103694774D01*
X133221067Y-103727967D01*
X133287192Y-103833204D01*
X133402796Y-103948808D01*
X133541225Y-104035789D01*
X133695539Y-104089786D01*
X133695542Y-104089786D01*
X133695544Y-104089787D01*
X133857996Y-104108091D01*
X133858000Y-104108091D01*
X133858004Y-104108091D01*
X134020455Y-104089787D01*
X134020456Y-104089786D01*
X134020461Y-104089786D01*
X134174775Y-104035789D01*
X134313204Y-103948808D01*
X134428808Y-103833204D01*
X134515789Y-103694775D01*
X134569786Y-103540461D01*
X134577777Y-103469544D01*
X134581342Y-103437901D01*
X134608408Y-103373487D01*
X134666003Y-103333932D01*
X134718444Y-103328564D01*
X134797647Y-103337488D01*
X134873998Y-103346091D01*
X134874000Y-103346091D01*
X134874004Y-103346091D01*
X135036455Y-103327787D01*
X135036456Y-103327786D01*
X135036461Y-103327786D01*
X135138968Y-103291916D01*
X135208744Y-103288354D01*
X135269372Y-103323083D01*
X135301599Y-103385076D01*
X135303141Y-103395072D01*
X135305212Y-103413455D01*
X135359210Y-103567774D01*
X135399564Y-103631996D01*
X135446192Y-103706204D01*
X135561796Y-103821808D01*
X135700225Y-103908789D01*
X135854539Y-103962786D01*
X135854542Y-103962786D01*
X135854544Y-103962787D01*
X136016996Y-103981091D01*
X136017000Y-103981091D01*
X136017004Y-103981091D01*
X136179455Y-103962787D01*
X136179456Y-103962786D01*
X136179461Y-103962786D01*
X136333775Y-103908789D01*
X136472204Y-103821808D01*
X136587808Y-103706204D01*
X136674789Y-103567775D01*
X136728786Y-103413461D01*
X136730858Y-103395072D01*
X136747091Y-103251003D01*
X136747091Y-103250996D01*
X136728787Y-103088544D01*
X136728786Y-103088542D01*
X136728786Y-103088539D01*
X136674789Y-102934225D01*
X136587808Y-102795796D01*
X136582922Y-102790910D01*
X136549437Y-102729587D01*
X136553561Y-102662277D01*
X136601786Y-102524461D01*
X136601786Y-102524459D01*
X136601787Y-102524457D01*
X136620091Y-102362003D01*
X136620091Y-102361996D01*
X136601787Y-102199544D01*
X136601786Y-102199542D01*
X136601786Y-102199539D01*
X136547789Y-102045225D01*
X136460808Y-101906796D01*
X136345204Y-101791192D01*
X136311207Y-101769830D01*
X136206774Y-101704210D01*
X136052455Y-101650212D01*
X135890004Y-101631909D01*
X135889996Y-101631909D01*
X135727544Y-101650212D01*
X135573225Y-101704210D01*
X135434795Y-101791192D01*
X135319194Y-101906793D01*
X135314851Y-101912240D01*
X135312652Y-101910486D01*
X135269785Y-101948367D01*
X135200726Y-101958982D01*
X135176226Y-101953120D01*
X135036455Y-101904212D01*
X134874004Y-101885909D01*
X134873996Y-101885909D01*
X134711544Y-101904212D01*
X134557225Y-101958210D01*
X134418795Y-102045192D01*
X134303192Y-102160795D01*
X134216210Y-102299225D01*
X134162212Y-102453544D01*
X134150657Y-102556099D01*
X134123590Y-102620513D01*
X134065995Y-102660068D01*
X134013554Y-102665435D01*
X133858004Y-102647909D01*
X133857996Y-102647909D01*
X133695544Y-102666212D01*
X133541225Y-102720210D01*
X133402795Y-102807192D01*
X133287192Y-102922795D01*
X133200210Y-103061225D01*
X133146212Y-103215544D01*
X133127909Y-103377996D01*
X132505756Y-103377996D01*
X132537786Y-103286461D01*
X132541782Y-103250996D01*
X132556091Y-103124003D01*
X132556091Y-103123996D01*
X132537787Y-102961544D01*
X132537786Y-102961542D01*
X132537786Y-102961539D01*
X132483789Y-102807225D01*
X132396808Y-102668796D01*
X132281204Y-102553192D01*
X132235473Y-102524457D01*
X132142774Y-102466210D01*
X131988455Y-102412212D01*
X131826004Y-102393909D01*
X131825996Y-102393909D01*
X131663544Y-102412212D01*
X131509225Y-102466210D01*
X131370795Y-102553192D01*
X131255192Y-102668795D01*
X131168210Y-102807225D01*
X131114212Y-102961544D01*
X131095909Y-103123996D01*
X122142091Y-103123996D01*
X122123787Y-102961544D01*
X122123786Y-102961542D01*
X122123786Y-102961539D01*
X122069789Y-102807225D01*
X121982808Y-102668796D01*
X121867204Y-102553192D01*
X121821473Y-102524457D01*
X121728774Y-102466210D01*
X121574455Y-102412212D01*
X121412004Y-102393909D01*
X121411996Y-102393909D01*
X121249544Y-102412212D01*
X121095225Y-102466210D01*
X120956795Y-102553192D01*
X120841192Y-102668795D01*
X120754210Y-102807225D01*
X120700212Y-102961544D01*
X120681909Y-103123996D01*
X119118500Y-103123996D01*
X119118500Y-101091996D01*
X120935909Y-101091996D01*
X120935909Y-101092003D01*
X120954212Y-101254455D01*
X121008210Y-101408774D01*
X121008211Y-101408775D01*
X121095192Y-101547204D01*
X121210796Y-101662808D01*
X121349225Y-101749789D01*
X121503539Y-101803786D01*
X121503542Y-101803786D01*
X121503544Y-101803787D01*
X121665996Y-101822091D01*
X121666000Y-101822091D01*
X121666004Y-101822091D01*
X121828455Y-101803787D01*
X121828456Y-101803786D01*
X121828461Y-101803786D01*
X121982775Y-101749789D01*
X122121204Y-101662808D01*
X122236808Y-101547204D01*
X122323789Y-101408775D01*
X122377786Y-101254461D01*
X122381782Y-101218996D01*
X136810909Y-101218996D01*
X136810909Y-101219003D01*
X136829212Y-101381455D01*
X136883210Y-101535774D01*
X136895708Y-101555664D01*
X136970192Y-101674204D01*
X137085796Y-101789808D01*
X137224225Y-101876789D01*
X137342399Y-101918140D01*
X137399174Y-101958861D01*
X137424922Y-102023813D01*
X137411466Y-102092375D01*
X137389126Y-102122861D01*
X137351192Y-102160795D01*
X137264210Y-102299225D01*
X137210212Y-102453544D01*
X137191909Y-102615996D01*
X137191909Y-102616003D01*
X137210212Y-102778455D01*
X137264210Y-102932774D01*
X137342913Y-103058028D01*
X137361913Y-103125264D01*
X137342913Y-103189972D01*
X137264210Y-103315225D01*
X137210212Y-103469544D01*
X137191909Y-103631996D01*
X137191909Y-103632003D01*
X137210212Y-103794455D01*
X137264210Y-103948774D01*
X137316504Y-104031998D01*
X137351192Y-104087204D01*
X137466796Y-104202808D01*
X137605225Y-104289789D01*
X137759539Y-104343786D01*
X137759542Y-104343786D01*
X137759544Y-104343787D01*
X137921996Y-104362091D01*
X137922000Y-104362091D01*
X137922004Y-104362091D01*
X138084455Y-104343787D01*
X138084456Y-104343786D01*
X138084461Y-104343786D01*
X138238775Y-104289789D01*
X138377204Y-104202808D01*
X138492808Y-104087204D01*
X138579789Y-103948775D01*
X138633786Y-103794461D01*
X138633787Y-103794455D01*
X138652091Y-103632003D01*
X138652091Y-103631996D01*
X143033909Y-103631996D01*
X143033909Y-103632003D01*
X143052212Y-103794455D01*
X143106210Y-103948774D01*
X143158504Y-104031998D01*
X143193192Y-104087204D01*
X143308796Y-104202808D01*
X143447225Y-104289789D01*
X143601539Y-104343786D01*
X143601542Y-104343786D01*
X143601544Y-104343787D01*
X143763996Y-104362091D01*
X143764000Y-104362091D01*
X143764004Y-104362091D01*
X143926455Y-104343787D01*
X143926456Y-104343786D01*
X143926461Y-104343786D01*
X144080775Y-104289789D01*
X144219204Y-104202808D01*
X144334808Y-104087204D01*
X144421789Y-103948775D01*
X144475786Y-103794461D01*
X144475787Y-103794455D01*
X144494091Y-103632003D01*
X144494091Y-103631996D01*
X144475787Y-103469544D01*
X144475786Y-103469542D01*
X144475786Y-103469539D01*
X144421789Y-103315225D01*
X144334808Y-103176796D01*
X144219204Y-103061192D01*
X144102620Y-102987937D01*
X144080774Y-102974210D01*
X143926455Y-102920212D01*
X143764004Y-102901909D01*
X143763996Y-102901909D01*
X143601544Y-102920212D01*
X143447548Y-102974097D01*
X143438831Y-102974541D01*
X143431675Y-102983706D01*
X143425378Y-102987937D01*
X143308798Y-103061190D01*
X143308795Y-103061192D01*
X143193192Y-103176795D01*
X143106210Y-103315225D01*
X143052212Y-103469544D01*
X143033909Y-103631996D01*
X138652091Y-103631996D01*
X138633787Y-103469544D01*
X138633786Y-103469542D01*
X138633786Y-103469539D01*
X138579789Y-103315225D01*
X138501086Y-103189971D01*
X138482086Y-103122736D01*
X138501087Y-103058028D01*
X138579789Y-102932775D01*
X138633786Y-102778461D01*
X138644250Y-102685587D01*
X138671316Y-102621174D01*
X138728910Y-102581618D01*
X138753585Y-102576250D01*
X138807902Y-102570130D01*
X138846454Y-102565787D01*
X138846454Y-102565786D01*
X138846461Y-102565786D01*
X139000775Y-102511789D01*
X139139204Y-102424808D01*
X139202016Y-102361996D01*
X141509909Y-102361996D01*
X141509909Y-102362003D01*
X141528212Y-102524455D01*
X141582210Y-102678774D01*
X141586492Y-102685588D01*
X141669192Y-102817204D01*
X141784796Y-102932808D01*
X141923225Y-103019789D01*
X142077539Y-103073786D01*
X142077542Y-103073786D01*
X142077544Y-103073787D01*
X142239996Y-103092091D01*
X142240000Y-103092091D01*
X142240004Y-103092091D01*
X142402455Y-103073787D01*
X142402456Y-103073786D01*
X142402461Y-103073786D01*
X142556775Y-103019789D01*
X142695204Y-102932808D01*
X142769174Y-102858837D01*
X142830493Y-102825355D01*
X142870735Y-102823301D01*
X142888965Y-102825355D01*
X143001997Y-102838091D01*
X143002000Y-102838091D01*
X143002004Y-102838091D01*
X143164453Y-102819787D01*
X143164453Y-102819786D01*
X143164461Y-102819786D01*
X143318452Y-102765901D01*
X143327167Y-102765457D01*
X143334325Y-102756292D01*
X143340608Y-102752069D01*
X143457204Y-102678808D01*
X143572808Y-102563204D01*
X143659789Y-102424775D01*
X143713786Y-102270461D01*
X143719554Y-102219269D01*
X143732091Y-102108003D01*
X143732091Y-102107996D01*
X143713787Y-101945544D01*
X143713786Y-101945542D01*
X143713786Y-101945539D01*
X143659789Y-101791225D01*
X143572808Y-101652796D01*
X143457204Y-101537192D01*
X143454947Y-101535774D01*
X143318774Y-101450210D01*
X143164455Y-101396212D01*
X143002004Y-101377909D01*
X143001996Y-101377909D01*
X142839544Y-101396212D01*
X142685225Y-101450210D01*
X142546797Y-101537191D01*
X142472828Y-101611160D01*
X142411504Y-101644644D01*
X142371264Y-101646698D01*
X142240004Y-101631909D01*
X142239996Y-101631909D01*
X142077544Y-101650212D01*
X141923225Y-101704210D01*
X141784795Y-101791192D01*
X141669192Y-101906795D01*
X141582210Y-102045225D01*
X141528212Y-102199544D01*
X141509909Y-102361996D01*
X139202016Y-102361996D01*
X139254808Y-102309204D01*
X139341789Y-102170775D01*
X139395786Y-102016461D01*
X139395787Y-102016455D01*
X139414091Y-101854003D01*
X139414091Y-101853996D01*
X139395787Y-101691544D01*
X139395786Y-101691542D01*
X139395786Y-101691539D01*
X139341789Y-101537225D01*
X139254808Y-101398796D01*
X139139204Y-101283192D01*
X139093479Y-101254461D01*
X139000774Y-101196210D01*
X138846455Y-101142212D01*
X138684004Y-101123909D01*
X138683996Y-101123909D01*
X138521543Y-101142212D01*
X138419031Y-101178082D01*
X138349252Y-101181643D01*
X138288625Y-101146913D01*
X138256399Y-101084920D01*
X138254858Y-101074923D01*
X138252787Y-101056544D01*
X138252786Y-101056542D01*
X138252786Y-101056539D01*
X138198789Y-100902225D01*
X138111808Y-100763796D01*
X137996204Y-100648192D01*
X137993946Y-100646773D01*
X137857774Y-100561210D01*
X137703455Y-100507212D01*
X137541004Y-100488909D01*
X137540996Y-100488909D01*
X137378544Y-100507212D01*
X137224225Y-100561210D01*
X137085795Y-100648192D01*
X136970192Y-100763795D01*
X136883210Y-100902225D01*
X136829212Y-101056544D01*
X136810909Y-101218996D01*
X122381782Y-101218996D01*
X122396091Y-101092003D01*
X122396091Y-101091996D01*
X122377787Y-100929544D01*
X122377786Y-100929542D01*
X122377786Y-100929539D01*
X122323789Y-100775225D01*
X122236808Y-100636796D01*
X122121204Y-100521192D01*
X122075473Y-100492457D01*
X121982774Y-100434210D01*
X121828455Y-100380212D01*
X121666004Y-100361909D01*
X121665996Y-100361909D01*
X121503544Y-100380212D01*
X121349225Y-100434210D01*
X121210795Y-100521192D01*
X121095192Y-100636795D01*
X121008210Y-100775225D01*
X120954212Y-100929544D01*
X120935909Y-101091996D01*
X119118500Y-101091996D01*
X119118500Y-96011999D01*
X120056341Y-96011999D01*
X120056341Y-96012000D01*
X120076936Y-96247403D01*
X120076938Y-96247413D01*
X120138094Y-96475655D01*
X120138096Y-96475659D01*
X120138097Y-96475663D01*
X120203283Y-96615454D01*
X120237965Y-96689830D01*
X120237967Y-96689834D01*
X120373501Y-96883395D01*
X120373506Y-96883402D01*
X120540597Y-97050493D01*
X120540603Y-97050498D01*
X120726158Y-97180425D01*
X120769783Y-97235002D01*
X120776977Y-97304500D01*
X120745454Y-97366855D01*
X120726158Y-97383575D01*
X120540597Y-97513505D01*
X120373505Y-97680597D01*
X120237965Y-97874169D01*
X120237964Y-97874171D01*
X120138098Y-98088335D01*
X120138094Y-98088344D01*
X120076938Y-98316586D01*
X120076936Y-98316596D01*
X120056341Y-98551999D01*
X120056341Y-98552000D01*
X120076936Y-98787403D01*
X120076938Y-98787413D01*
X120138094Y-99015655D01*
X120138096Y-99015659D01*
X120138097Y-99015663D01*
X120188721Y-99124226D01*
X120237965Y-99229830D01*
X120237967Y-99229834D01*
X120319244Y-99345909D01*
X120373505Y-99423401D01*
X120540599Y-99590495D01*
X120598172Y-99630808D01*
X120734165Y-99726032D01*
X120734167Y-99726033D01*
X120734170Y-99726035D01*
X120948337Y-99825903D01*
X121176592Y-99887063D01*
X121364918Y-99903539D01*
X121411999Y-99907659D01*
X121412000Y-99907659D01*
X121412001Y-99907659D01*
X121451234Y-99904226D01*
X121647408Y-99887063D01*
X121875663Y-99825903D01*
X122089830Y-99726035D01*
X122283401Y-99590495D01*
X122450495Y-99423401D01*
X122586035Y-99229830D01*
X122685903Y-99015663D01*
X122747063Y-98787408D01*
X122767659Y-98552000D01*
X122747063Y-98316592D01*
X122685903Y-98088337D01*
X122586035Y-97874171D01*
X122582929Y-97869734D01*
X122450494Y-97680597D01*
X122305892Y-97535996D01*
X135159909Y-97535996D01*
X135159909Y-97536003D01*
X135178212Y-97698455D01*
X135232210Y-97852774D01*
X135250288Y-97881544D01*
X135319192Y-97991204D01*
X135434796Y-98106808D01*
X135573225Y-98193789D01*
X135727539Y-98247786D01*
X135727543Y-98247786D01*
X135727545Y-98247787D01*
X135786655Y-98254446D01*
X135820411Y-98258250D01*
X135884826Y-98285316D01*
X135924381Y-98342910D01*
X135929749Y-98367587D01*
X135940212Y-98460455D01*
X135994210Y-98614774D01*
X136056848Y-98714461D01*
X136081192Y-98753204D01*
X136196796Y-98868808D01*
X136335225Y-98955789D01*
X136489539Y-99009786D01*
X136489542Y-99009786D01*
X136489544Y-99009787D01*
X136651996Y-99028091D01*
X136652000Y-99028091D01*
X136652004Y-99028091D01*
X136814455Y-99009787D01*
X136814456Y-99009786D01*
X136814461Y-99009786D01*
X136968775Y-98955789D01*
X137107204Y-98868808D01*
X137222808Y-98753204D01*
X137309789Y-98614775D01*
X137363786Y-98460461D01*
X137365214Y-98447789D01*
X137382091Y-98298003D01*
X137382091Y-98297997D01*
X137363196Y-98130300D01*
X137375250Y-98061478D01*
X137422599Y-98010098D01*
X137490210Y-97992474D01*
X137500300Y-97993196D01*
X137664573Y-98011705D01*
X137728986Y-98038771D01*
X137767730Y-98093969D01*
X137772211Y-98106775D01*
X137772212Y-98106777D01*
X137822610Y-98186984D01*
X137859192Y-98245204D01*
X137974796Y-98360808D01*
X138113225Y-98447789D01*
X138267539Y-98501786D01*
X138267542Y-98501786D01*
X138267544Y-98501787D01*
X138429996Y-98520091D01*
X138430000Y-98520091D01*
X138430004Y-98520091D01*
X138592455Y-98501787D01*
X138592456Y-98501786D01*
X138592461Y-98501786D01*
X138746775Y-98447789D01*
X138885204Y-98360808D01*
X139000808Y-98245204D01*
X139087789Y-98106775D01*
X139109756Y-98043996D01*
X140493909Y-98043996D01*
X140493909Y-98044003D01*
X140512212Y-98206455D01*
X140566210Y-98360774D01*
X140584288Y-98389544D01*
X140653192Y-98499204D01*
X140768796Y-98614808D01*
X140907225Y-98701789D01*
X141061539Y-98755786D01*
X141061542Y-98755786D01*
X141061544Y-98755787D01*
X141158092Y-98766665D01*
X141222506Y-98793731D01*
X141262061Y-98851326D01*
X141264199Y-98921163D01*
X141228242Y-98981069D01*
X141219257Y-98987941D01*
X141219424Y-98988151D01*
X141213977Y-98992494D01*
X141098374Y-99108097D01*
X141011392Y-99246527D01*
X140957394Y-99400846D01*
X140939091Y-99563298D01*
X140939091Y-99563305D01*
X140957394Y-99725757D01*
X141011392Y-99880076D01*
X141056253Y-99951471D01*
X141098374Y-100018506D01*
X141213978Y-100134110D01*
X141352407Y-100221091D01*
X141506721Y-100275088D01*
X141506724Y-100275088D01*
X141506726Y-100275089D01*
X141669178Y-100293393D01*
X141669182Y-100293393D01*
X141669186Y-100293393D01*
X141831637Y-100275089D01*
X141831638Y-100275088D01*
X141831643Y-100275088D01*
X141985957Y-100221091D01*
X142124386Y-100134110D01*
X142239990Y-100018506D01*
X142307233Y-99911488D01*
X142359567Y-99865199D01*
X142428620Y-99854550D01*
X142492468Y-99882926D01*
X142530841Y-99941315D01*
X142535446Y-99991344D01*
X142525909Y-100075994D01*
X142525909Y-100076003D01*
X142544212Y-100238455D01*
X142598210Y-100392774D01*
X142660848Y-100492461D01*
X142685192Y-100531204D01*
X142800796Y-100646808D01*
X142939225Y-100733789D01*
X143093539Y-100787786D01*
X143093542Y-100787786D01*
X143093544Y-100787787D01*
X143255996Y-100806091D01*
X143256000Y-100806091D01*
X143256004Y-100806091D01*
X143418455Y-100787787D01*
X143418456Y-100787786D01*
X143418461Y-100787786D01*
X143572775Y-100733789D01*
X143711204Y-100646808D01*
X143826808Y-100531204D01*
X143913789Y-100392775D01*
X143967786Y-100238461D01*
X143971677Y-100203930D01*
X143972781Y-100194135D01*
X145715500Y-100194135D01*
X145715500Y-101989870D01*
X145715501Y-101989876D01*
X145721908Y-102049483D01*
X145772202Y-102184328D01*
X145772206Y-102184335D01*
X145858452Y-102299544D01*
X145858455Y-102299547D01*
X145973664Y-102385793D01*
X145973671Y-102385797D01*
X146108517Y-102436091D01*
X146108516Y-102436091D01*
X146115444Y-102436835D01*
X146168127Y-102442500D01*
X147963872Y-102442499D01*
X148023483Y-102436091D01*
X148158331Y-102385796D01*
X148273546Y-102299546D01*
X148359796Y-102184331D01*
X148408810Y-102052916D01*
X148450681Y-101996984D01*
X148516145Y-101972566D01*
X148584418Y-101987417D01*
X148612673Y-102008569D01*
X148734599Y-102130495D01*
X148831384Y-102198265D01*
X148928165Y-102266032D01*
X148928167Y-102266033D01*
X148928170Y-102266035D01*
X149142337Y-102365903D01*
X149142343Y-102365904D01*
X149142344Y-102365905D01*
X149192489Y-102379341D01*
X149370592Y-102427063D01*
X149547034Y-102442500D01*
X149605999Y-102447659D01*
X149606000Y-102447659D01*
X149606001Y-102447659D01*
X149664966Y-102442500D01*
X149841408Y-102427063D01*
X150069663Y-102365903D01*
X150283830Y-102266035D01*
X150477401Y-102130495D01*
X150644495Y-101963401D01*
X150774425Y-101777842D01*
X150829002Y-101734217D01*
X150898500Y-101727023D01*
X150960855Y-101758546D01*
X150977575Y-101777842D01*
X151107501Y-101963396D01*
X151107506Y-101963402D01*
X151274597Y-102130493D01*
X151274603Y-102130498D01*
X151345204Y-102179933D01*
X151388829Y-102234509D01*
X151396023Y-102304008D01*
X151364500Y-102366363D01*
X151304271Y-102401777D01*
X151287966Y-102404728D01*
X151221544Y-102412212D01*
X151067225Y-102466210D01*
X150928795Y-102553192D01*
X150813192Y-102668795D01*
X150726210Y-102807225D01*
X150672212Y-102961544D01*
X150653909Y-103123996D01*
X150653909Y-103124003D01*
X150672212Y-103286455D01*
X150726210Y-103440774D01*
X150788844Y-103540455D01*
X150813192Y-103579204D01*
X150928796Y-103694808D01*
X151067225Y-103781789D01*
X151095106Y-103791545D01*
X151151882Y-103832265D01*
X151177631Y-103897218D01*
X151164176Y-103965780D01*
X151141835Y-103996267D01*
X151107506Y-104030596D01*
X150977575Y-104216158D01*
X150922998Y-104259783D01*
X150853500Y-104266977D01*
X150791145Y-104235454D01*
X150774425Y-104216158D01*
X150644494Y-104030597D01*
X150477402Y-103863506D01*
X150477395Y-103863501D01*
X150283834Y-103727967D01*
X150283830Y-103727965D01*
X150283828Y-103727964D01*
X150069663Y-103628097D01*
X150069659Y-103628096D01*
X150069655Y-103628094D01*
X149841413Y-103566938D01*
X149841403Y-103566936D01*
X149606001Y-103546341D01*
X149605999Y-103546341D01*
X149370596Y-103566936D01*
X149370586Y-103566938D01*
X149142344Y-103628094D01*
X149142335Y-103628098D01*
X148928171Y-103727964D01*
X148928169Y-103727965D01*
X148734600Y-103863503D01*
X148612673Y-103985430D01*
X148551350Y-104018914D01*
X148481658Y-104013930D01*
X148425725Y-103972058D01*
X148408810Y-103941081D01*
X148359797Y-103809671D01*
X148359793Y-103809664D01*
X148273547Y-103694455D01*
X148273544Y-103694452D01*
X148158335Y-103608206D01*
X148158328Y-103608202D01*
X148023482Y-103557908D01*
X148023483Y-103557908D01*
X147963883Y-103551501D01*
X147963881Y-103551500D01*
X147963873Y-103551500D01*
X147963864Y-103551500D01*
X146168129Y-103551500D01*
X146168123Y-103551501D01*
X146108516Y-103557908D01*
X145973671Y-103608202D01*
X145973664Y-103608206D01*
X145858455Y-103694452D01*
X145858452Y-103694455D01*
X145772206Y-103809664D01*
X145772202Y-103809671D01*
X145721908Y-103944517D01*
X145715501Y-104004116D01*
X145715500Y-104004135D01*
X145715500Y-105799870D01*
X145715501Y-105799876D01*
X145721908Y-105859483D01*
X145772202Y-105994328D01*
X145772206Y-105994335D01*
X145858452Y-106109544D01*
X145858455Y-106109547D01*
X145973664Y-106195793D01*
X145973671Y-106195797D01*
X146108517Y-106246091D01*
X146108516Y-106246091D01*
X146115444Y-106246835D01*
X146168127Y-106252500D01*
X147963872Y-106252499D01*
X148023483Y-106246091D01*
X148158331Y-106195796D01*
X148273546Y-106109546D01*
X148359796Y-105994331D01*
X148408810Y-105862916D01*
X148450681Y-105806984D01*
X148516145Y-105782566D01*
X148584418Y-105797417D01*
X148612673Y-105818569D01*
X148734599Y-105940495D01*
X148831384Y-106008265D01*
X148928165Y-106076032D01*
X148928167Y-106076033D01*
X148928170Y-106076035D01*
X149142337Y-106175903D01*
X149370592Y-106237063D01*
X149547034Y-106252500D01*
X149605999Y-106257659D01*
X149606000Y-106257659D01*
X149606001Y-106257659D01*
X149664966Y-106252500D01*
X149841408Y-106237063D01*
X150069663Y-106175903D01*
X150283830Y-106076035D01*
X150477401Y-105940495D01*
X150644495Y-105773401D01*
X150774425Y-105587842D01*
X150829002Y-105544217D01*
X150898500Y-105537023D01*
X150960855Y-105568546D01*
X150977575Y-105587842D01*
X151107500Y-105773395D01*
X151107505Y-105773401D01*
X151274599Y-105940495D01*
X151371384Y-106008265D01*
X151468165Y-106076032D01*
X151468167Y-106076033D01*
X151468170Y-106076035D01*
X151682337Y-106175903D01*
X151910592Y-106237063D01*
X152087034Y-106252500D01*
X152145999Y-106257659D01*
X152146000Y-106257659D01*
X152146001Y-106257659D01*
X152204966Y-106252500D01*
X152381408Y-106237063D01*
X152609663Y-106175903D01*
X152618042Y-106171996D01*
X155338907Y-106171996D01*
X155338907Y-106172003D01*
X155357210Y-106334455D01*
X155357211Y-106334460D01*
X155357212Y-106334461D01*
X155364377Y-106354939D01*
X155411208Y-106488774D01*
X155473842Y-106588455D01*
X155498190Y-106627204D01*
X155613794Y-106742808D01*
X155752223Y-106829789D01*
X155906537Y-106883786D01*
X155906540Y-106883786D01*
X155906542Y-106883787D01*
X156068994Y-106902091D01*
X156068998Y-106902091D01*
X156069002Y-106902091D01*
X156231453Y-106883787D01*
X156231454Y-106883786D01*
X156231459Y-106883786D01*
X156385773Y-106829789D01*
X156524202Y-106742808D01*
X156639806Y-106627204D01*
X156726787Y-106488775D01*
X156780784Y-106334461D01*
X156780785Y-106334455D01*
X156799089Y-106172003D01*
X156799089Y-106171996D01*
X156780785Y-106009544D01*
X156780784Y-106009542D01*
X156780784Y-106009539D01*
X156726787Y-105855225D01*
X156639806Y-105716796D01*
X156524202Y-105601192D01*
X156490205Y-105579830D01*
X156385772Y-105514210D01*
X156231453Y-105460212D01*
X156069002Y-105441909D01*
X156068994Y-105441909D01*
X155906542Y-105460212D01*
X155752223Y-105514210D01*
X155613793Y-105601192D01*
X155498190Y-105716795D01*
X155411208Y-105855225D01*
X155357210Y-106009544D01*
X155338907Y-106171996D01*
X152618042Y-106171996D01*
X152823830Y-106076035D01*
X153017401Y-105940495D01*
X153184495Y-105773401D01*
X153320035Y-105579830D01*
X153419903Y-105365663D01*
X153481063Y-105137408D01*
X153501659Y-104902000D01*
X153501659Y-104901996D01*
X157003909Y-104901996D01*
X157003909Y-104902003D01*
X157022212Y-105064455D01*
X157076210Y-105218774D01*
X157076211Y-105218775D01*
X157163192Y-105357204D01*
X157278796Y-105472808D01*
X157417225Y-105559789D01*
X157571539Y-105613786D01*
X157571542Y-105613786D01*
X157571544Y-105613787D01*
X157733996Y-105632091D01*
X157734000Y-105632091D01*
X157734004Y-105632091D01*
X157896455Y-105613787D01*
X157896456Y-105613786D01*
X157896461Y-105613786D01*
X158050775Y-105559789D01*
X158189204Y-105472808D01*
X158304808Y-105357204D01*
X158391789Y-105218775D01*
X158445786Y-105064461D01*
X158447214Y-105051789D01*
X158464091Y-104902003D01*
X158464091Y-104901996D01*
X158445787Y-104739544D01*
X158445786Y-104739542D01*
X158445786Y-104739539D01*
X158391789Y-104585225D01*
X158304808Y-104446796D01*
X158189204Y-104331192D01*
X158123312Y-104289789D01*
X158050774Y-104244210D01*
X157896455Y-104190212D01*
X157734004Y-104171909D01*
X157733996Y-104171909D01*
X157571544Y-104190212D01*
X157417225Y-104244210D01*
X157278795Y-104331192D01*
X157163192Y-104446795D01*
X157076210Y-104585225D01*
X157022212Y-104739544D01*
X157003909Y-104901996D01*
X153501659Y-104901996D01*
X153481063Y-104666592D01*
X153419903Y-104438337D01*
X153320035Y-104224171D01*
X153317576Y-104220658D01*
X153184494Y-104030597D01*
X153017402Y-103863506D01*
X153017395Y-103863501D01*
X152823834Y-103727967D01*
X152823830Y-103727965D01*
X152823828Y-103727964D01*
X152609663Y-103628097D01*
X152609659Y-103628096D01*
X152609655Y-103628094D01*
X152381413Y-103566938D01*
X152381403Y-103566936D01*
X152167965Y-103548262D01*
X152102896Y-103522809D01*
X152061918Y-103466218D01*
X152058040Y-103396456D01*
X152061726Y-103383798D01*
X152095786Y-103286461D01*
X152099782Y-103250996D01*
X152101696Y-103234009D01*
X166142825Y-103234009D01*
X166142825Y-103365990D01*
X166156459Y-103469539D01*
X166163270Y-103521274D01*
X166197423Y-103648735D01*
X166197428Y-103648751D01*
X166257357Y-103793433D01*
X166257364Y-103793447D01*
X166266727Y-103809664D01*
X166323345Y-103907729D01*
X166323350Y-103907735D01*
X166323351Y-103907737D01*
X166418694Y-104031991D01*
X166418700Y-104031998D01*
X166512001Y-104125299D01*
X166512007Y-104125304D01*
X166636271Y-104220655D01*
X166750555Y-104286637D01*
X166750560Y-104286639D01*
X166750566Y-104286642D01*
X166895248Y-104346571D01*
X166895254Y-104346572D01*
X166895264Y-104346577D01*
X167022726Y-104380730D01*
X167178017Y-104401175D01*
X167178024Y-104401175D01*
X167309976Y-104401175D01*
X167309983Y-104401175D01*
X167465274Y-104380730D01*
X167592736Y-104346577D01*
X167592748Y-104346571D01*
X167592751Y-104346571D01*
X167737433Y-104286642D01*
X167737433Y-104286641D01*
X167737445Y-104286637D01*
X167851729Y-104220655D01*
X167975993Y-104125304D01*
X168069304Y-104031993D01*
X168164655Y-103907729D01*
X168230637Y-103793445D01*
X168266773Y-103706204D01*
X168290571Y-103648751D01*
X168290571Y-103648748D01*
X168290577Y-103648736D01*
X168324730Y-103521274D01*
X168345175Y-103365983D01*
X168345175Y-103234017D01*
X168324730Y-103078726D01*
X168290577Y-102951264D01*
X168290572Y-102951254D01*
X168290571Y-102951248D01*
X168230642Y-102806566D01*
X168230639Y-102806560D01*
X168230637Y-102806555D01*
X168164655Y-102692271D01*
X168130615Y-102647909D01*
X168069305Y-102568008D01*
X168069299Y-102568001D01*
X167975998Y-102474700D01*
X167975991Y-102474694D01*
X167851737Y-102379351D01*
X167851735Y-102379350D01*
X167851729Y-102379345D01*
X167737445Y-102313363D01*
X167737433Y-102313357D01*
X167592751Y-102253428D01*
X167592739Y-102253424D01*
X167592736Y-102253423D01*
X167465274Y-102219270D01*
X167439317Y-102215852D01*
X167309990Y-102198825D01*
X167309983Y-102198825D01*
X167178017Y-102198825D01*
X167178009Y-102198825D01*
X167030206Y-102218285D01*
X167022726Y-102219270D01*
X166965853Y-102234509D01*
X166895264Y-102253423D01*
X166895248Y-102253428D01*
X166750566Y-102313357D01*
X166750552Y-102313364D01*
X166636277Y-102379341D01*
X166636262Y-102379351D01*
X166512008Y-102474694D01*
X166512001Y-102474700D01*
X166418700Y-102568001D01*
X166418694Y-102568008D01*
X166323351Y-102692262D01*
X166323341Y-102692277D01*
X166257364Y-102806552D01*
X166257357Y-102806566D01*
X166197428Y-102951248D01*
X166197423Y-102951264D01*
X166164594Y-103073787D01*
X166163271Y-103078723D01*
X166163269Y-103078734D01*
X166142825Y-103234009D01*
X152101696Y-103234009D01*
X152114091Y-103124003D01*
X152114091Y-103123996D01*
X152095787Y-102961544D01*
X152095786Y-102961542D01*
X152095786Y-102961539D01*
X152041789Y-102807225D01*
X151954808Y-102668796D01*
X151935039Y-102649027D01*
X151901554Y-102587704D01*
X151906538Y-102518012D01*
X151948410Y-102462079D01*
X152013874Y-102437662D01*
X152033518Y-102437817D01*
X152146000Y-102447659D01*
X152146001Y-102447659D01*
X152204966Y-102442500D01*
X152381408Y-102427063D01*
X152609663Y-102365903D01*
X152823830Y-102266035D01*
X153017401Y-102130495D01*
X153184495Y-101963401D01*
X153261101Y-101853996D01*
X153701909Y-101853996D01*
X153701909Y-101854003D01*
X153720212Y-102016455D01*
X153774210Y-102170774D01*
X153804683Y-102219271D01*
X153861192Y-102309204D01*
X153976796Y-102424808D01*
X154115225Y-102511789D01*
X154269539Y-102565786D01*
X154269542Y-102565786D01*
X154269544Y-102565787D01*
X154431996Y-102584091D01*
X154432000Y-102584091D01*
X154432004Y-102584091D01*
X154594455Y-102565787D01*
X154594456Y-102565786D01*
X154594461Y-102565786D01*
X154748775Y-102511789D01*
X154887204Y-102424808D01*
X155002808Y-102309204D01*
X155089789Y-102170775D01*
X155143786Y-102016461D01*
X155143787Y-102016455D01*
X155162091Y-101854003D01*
X155162091Y-101853996D01*
X155143787Y-101691544D01*
X155143786Y-101691542D01*
X155143786Y-101691539D01*
X155089789Y-101537225D01*
X155002808Y-101398796D01*
X154887204Y-101283192D01*
X154841479Y-101254461D01*
X154748774Y-101196210D01*
X154594455Y-101142212D01*
X154432004Y-101123909D01*
X154431996Y-101123909D01*
X154269544Y-101142212D01*
X154115225Y-101196210D01*
X153976795Y-101283192D01*
X153861192Y-101398795D01*
X153774210Y-101537225D01*
X153720212Y-101691544D01*
X153701909Y-101853996D01*
X153261101Y-101853996D01*
X153320035Y-101769830D01*
X153419903Y-101555663D01*
X153481063Y-101327408D01*
X153501659Y-101092000D01*
X153498556Y-101056539D01*
X153497539Y-101044918D01*
X153481063Y-100856592D01*
X153419903Y-100628337D01*
X153320035Y-100414171D01*
X153314425Y-100406158D01*
X153184494Y-100220597D01*
X153017402Y-100053506D01*
X153017395Y-100053501D01*
X152823834Y-99917967D01*
X152823830Y-99917965D01*
X152801729Y-99907659D01*
X152609663Y-99818097D01*
X152609659Y-99818096D01*
X152609655Y-99818094D01*
X152381413Y-99756938D01*
X152381403Y-99756936D01*
X152146001Y-99736341D01*
X152145999Y-99736341D01*
X151910596Y-99756936D01*
X151910586Y-99756938D01*
X151682344Y-99818094D01*
X151682335Y-99818098D01*
X151468171Y-99917964D01*
X151468169Y-99917965D01*
X151274597Y-100053505D01*
X151107505Y-100220597D01*
X150977575Y-100406158D01*
X150922998Y-100449783D01*
X150853500Y-100456977D01*
X150791145Y-100425454D01*
X150774425Y-100406158D01*
X150644494Y-100220597D01*
X150477402Y-100053506D01*
X150477395Y-100053501D01*
X150283834Y-99917967D01*
X150283830Y-99917965D01*
X150261729Y-99907659D01*
X150069663Y-99818097D01*
X150069659Y-99818096D01*
X150069655Y-99818094D01*
X149841413Y-99756938D01*
X149841403Y-99756936D01*
X149606001Y-99736341D01*
X149605999Y-99736341D01*
X149370596Y-99756936D01*
X149370586Y-99756938D01*
X149142344Y-99818094D01*
X149142335Y-99818098D01*
X148928171Y-99917964D01*
X148928169Y-99917965D01*
X148734600Y-100053503D01*
X148612673Y-100175430D01*
X148551350Y-100208914D01*
X148481658Y-100203930D01*
X148425725Y-100162058D01*
X148408810Y-100131081D01*
X148359797Y-99999671D01*
X148359793Y-99999664D01*
X148273547Y-99884455D01*
X148273544Y-99884452D01*
X148158335Y-99798206D01*
X148158328Y-99798202D01*
X148023482Y-99747908D01*
X148023483Y-99747908D01*
X147963883Y-99741501D01*
X147963881Y-99741500D01*
X147963873Y-99741500D01*
X147963864Y-99741500D01*
X146168129Y-99741500D01*
X146168123Y-99741501D01*
X146108516Y-99747908D01*
X145973671Y-99798202D01*
X145973664Y-99798206D01*
X145858455Y-99884452D01*
X145858452Y-99884455D01*
X145772206Y-99999664D01*
X145772202Y-99999671D01*
X145721908Y-100134517D01*
X145715501Y-100194116D01*
X145715500Y-100194135D01*
X143972781Y-100194135D01*
X143986091Y-100076003D01*
X143986091Y-100075996D01*
X143967787Y-99913544D01*
X143967786Y-99913542D01*
X143967786Y-99913539D01*
X143913789Y-99759225D01*
X143826808Y-99620796D01*
X143711204Y-99505192D01*
X143572774Y-99418210D01*
X143418455Y-99364212D01*
X143256004Y-99345909D01*
X143255996Y-99345909D01*
X143093544Y-99364212D01*
X142939225Y-99418210D01*
X142800795Y-99505192D01*
X142685192Y-99620795D01*
X142685190Y-99620798D01*
X142617948Y-99727812D01*
X142565613Y-99774103D01*
X142496560Y-99784750D01*
X142432712Y-99756375D01*
X142394340Y-99697985D01*
X142389735Y-99647955D01*
X142399273Y-99563304D01*
X142399273Y-99563298D01*
X142380969Y-99400846D01*
X142380968Y-99400844D01*
X142380968Y-99400841D01*
X142326971Y-99246527D01*
X142239990Y-99108098D01*
X142191888Y-99059996D01*
X144049909Y-99059996D01*
X144049909Y-99060003D01*
X144068212Y-99222455D01*
X144122210Y-99376774D01*
X144137336Y-99400846D01*
X144209192Y-99515204D01*
X144324796Y-99630808D01*
X144463225Y-99717789D01*
X144617539Y-99771786D01*
X144617542Y-99771786D01*
X144617544Y-99771787D01*
X144779996Y-99790091D01*
X144780000Y-99790091D01*
X144780004Y-99790091D01*
X144942455Y-99771787D01*
X144942456Y-99771786D01*
X144942461Y-99771786D01*
X145096775Y-99717789D01*
X145235204Y-99630808D01*
X145350808Y-99515204D01*
X145437789Y-99376775D01*
X145491786Y-99222461D01*
X145491787Y-99222455D01*
X145510091Y-99060003D01*
X145510091Y-99059996D01*
X145491787Y-98897544D01*
X145491786Y-98897542D01*
X145491786Y-98897539D01*
X145437789Y-98743225D01*
X145350808Y-98604796D01*
X145235204Y-98489192D01*
X145189479Y-98460461D01*
X145096774Y-98402210D01*
X144942455Y-98348212D01*
X144780004Y-98329909D01*
X144779996Y-98329909D01*
X144617544Y-98348212D01*
X144463225Y-98402210D01*
X144324795Y-98489192D01*
X144209192Y-98604795D01*
X144122210Y-98743225D01*
X144068212Y-98897544D01*
X144049909Y-99059996D01*
X142191888Y-99059996D01*
X142124386Y-98992494D01*
X142025770Y-98930529D01*
X141985956Y-98905512D01*
X141831637Y-98851514D01*
X141735088Y-98840636D01*
X141670674Y-98813569D01*
X141631119Y-98755974D01*
X141628982Y-98686137D01*
X141664940Y-98626231D01*
X141673926Y-98619361D01*
X141673758Y-98619151D01*
X141679198Y-98614811D01*
X141679204Y-98614808D01*
X141794808Y-98499204D01*
X141881789Y-98360775D01*
X141935786Y-98206461D01*
X141935787Y-98206455D01*
X141954091Y-98044003D01*
X141954091Y-98043996D01*
X141935787Y-97881544D01*
X141935786Y-97881542D01*
X141935786Y-97881539D01*
X141881789Y-97727225D01*
X141794808Y-97588796D01*
X141679204Y-97473192D01*
X141633479Y-97444461D01*
X141540774Y-97386210D01*
X141386455Y-97332212D01*
X141224004Y-97313909D01*
X141223996Y-97313909D01*
X141061544Y-97332212D01*
X140907225Y-97386210D01*
X140768795Y-97473192D01*
X140653192Y-97588795D01*
X140566210Y-97727225D01*
X140512212Y-97881544D01*
X140493909Y-98043996D01*
X139109756Y-98043996D01*
X139141786Y-97952461D01*
X139144693Y-97926664D01*
X139160091Y-97790003D01*
X139160091Y-97789996D01*
X139141787Y-97627544D01*
X139141786Y-97627542D01*
X139141786Y-97627539D01*
X139087789Y-97473225D01*
X139000808Y-97334796D01*
X138885204Y-97219192D01*
X138746775Y-97132211D01*
X138604474Y-97082417D01*
X138547699Y-97041696D01*
X138521952Y-96976743D01*
X138535408Y-96908181D01*
X138540437Y-96899403D01*
X138550492Y-96883401D01*
X138579789Y-96836775D01*
X138633786Y-96682461D01*
X138638595Y-96639783D01*
X138652091Y-96520003D01*
X138652091Y-96519997D01*
X138637301Y-96388736D01*
X138649355Y-96319914D01*
X138672834Y-96287177D01*
X138746808Y-96213204D01*
X138833789Y-96074775D01*
X138855756Y-96011996D01*
X141255909Y-96011996D01*
X141255909Y-96012003D01*
X141274212Y-96174455D01*
X141328210Y-96328774D01*
X141390848Y-96428461D01*
X141415192Y-96467204D01*
X141530796Y-96582808D01*
X141669225Y-96669789D01*
X141823539Y-96723786D01*
X141823542Y-96723786D01*
X141823544Y-96723787D01*
X141985996Y-96742091D01*
X141986000Y-96742091D01*
X141986004Y-96742091D01*
X142148455Y-96723787D01*
X142148456Y-96723786D01*
X142148461Y-96723786D01*
X142302775Y-96669789D01*
X142441204Y-96582808D01*
X142556808Y-96467204D01*
X142583581Y-96424595D01*
X142635915Y-96378305D01*
X142704968Y-96367657D01*
X142768817Y-96396032D01*
X142805616Y-96449614D01*
X142852210Y-96582774D01*
X142932901Y-96711192D01*
X142939192Y-96721204D01*
X143054796Y-96836808D01*
X143193225Y-96923789D01*
X143347539Y-96977786D01*
X143347542Y-96977786D01*
X143347544Y-96977787D01*
X143509996Y-96996091D01*
X143510000Y-96996091D01*
X143510002Y-96996091D01*
X143583272Y-96987835D01*
X143641263Y-96981301D01*
X143710085Y-96993355D01*
X143742828Y-97016840D01*
X143816796Y-97090808D01*
X143955225Y-97177789D01*
X144109539Y-97231786D01*
X144109542Y-97231786D01*
X144109544Y-97231787D01*
X144271996Y-97250091D01*
X144272000Y-97250091D01*
X144272004Y-97250091D01*
X144434455Y-97231787D01*
X144434456Y-97231786D01*
X144434461Y-97231786D01*
X144588775Y-97177789D01*
X144727204Y-97090808D01*
X144842808Y-96975204D01*
X144929789Y-96836775D01*
X144983786Y-96682461D01*
X144988595Y-96639783D01*
X145002091Y-96520003D01*
X145002091Y-96519996D01*
X144986783Y-96384135D01*
X145715500Y-96384135D01*
X145715500Y-98179870D01*
X145715501Y-98179876D01*
X145721908Y-98239483D01*
X145772202Y-98374328D01*
X145772206Y-98374335D01*
X145858452Y-98489544D01*
X145858455Y-98489547D01*
X145973664Y-98575793D01*
X145973671Y-98575797D01*
X146108517Y-98626091D01*
X146108516Y-98626091D01*
X146115444Y-98626835D01*
X146168127Y-98632500D01*
X147963872Y-98632499D01*
X148023483Y-98626091D01*
X148158331Y-98575796D01*
X148273546Y-98489546D01*
X148359796Y-98374331D01*
X148408810Y-98242916D01*
X148450681Y-98186984D01*
X148516145Y-98162566D01*
X148584418Y-98177417D01*
X148612673Y-98198569D01*
X148734599Y-98320495D01*
X148831384Y-98388265D01*
X148928165Y-98456032D01*
X148928167Y-98456033D01*
X148928170Y-98456035D01*
X149142337Y-98555903D01*
X149370592Y-98617063D01*
X149547034Y-98632500D01*
X149605999Y-98637659D01*
X149606000Y-98637659D01*
X149606001Y-98637659D01*
X149664966Y-98632500D01*
X149841408Y-98617063D01*
X150069663Y-98555903D01*
X150283830Y-98456035D01*
X150477401Y-98320495D01*
X150644495Y-98153401D01*
X150774425Y-97967842D01*
X150829002Y-97924217D01*
X150898500Y-97917023D01*
X150960855Y-97948546D01*
X150977575Y-97967842D01*
X151107500Y-98153395D01*
X151107505Y-98153401D01*
X151274599Y-98320495D01*
X151371384Y-98388265D01*
X151468165Y-98456032D01*
X151468167Y-98456033D01*
X151468170Y-98456035D01*
X151682337Y-98555903D01*
X151910592Y-98617063D01*
X152087034Y-98632500D01*
X152145999Y-98637659D01*
X152146000Y-98637659D01*
X152146001Y-98637659D01*
X152204966Y-98632500D01*
X152381408Y-98617063D01*
X152609663Y-98555903D01*
X152618042Y-98551996D01*
X157511909Y-98551996D01*
X157511909Y-98552003D01*
X157530212Y-98714455D01*
X157584211Y-98868777D01*
X157623012Y-98930529D01*
X157642012Y-98997766D01*
X157623012Y-99062471D01*
X157584211Y-99124222D01*
X157530212Y-99278544D01*
X157511909Y-99440996D01*
X157511909Y-99441003D01*
X157530212Y-99603455D01*
X157584211Y-99757777D01*
X157623012Y-99819529D01*
X157642012Y-99886766D01*
X157623012Y-99951471D01*
X157584211Y-100013222D01*
X157530212Y-100167544D01*
X157511909Y-100329996D01*
X157511909Y-100330003D01*
X157530212Y-100492455D01*
X157584211Y-100646777D01*
X157623012Y-100708529D01*
X157642012Y-100775766D01*
X157623012Y-100840471D01*
X157584211Y-100902222D01*
X157530212Y-101056544D01*
X157511909Y-101218996D01*
X157511909Y-101219003D01*
X157530212Y-101381455D01*
X157584210Y-101535774D01*
X157596708Y-101555664D01*
X157671192Y-101674204D01*
X157786796Y-101789808D01*
X157925225Y-101876789D01*
X158079539Y-101930786D01*
X158079542Y-101930786D01*
X158079544Y-101930787D01*
X158241996Y-101949091D01*
X158242000Y-101949091D01*
X158242004Y-101949091D01*
X158404455Y-101930787D01*
X158404456Y-101930786D01*
X158404461Y-101930786D01*
X158558775Y-101876789D01*
X158697204Y-101789808D01*
X158812808Y-101674204D01*
X158899789Y-101535775D01*
X158953786Y-101381461D01*
X158953787Y-101381455D01*
X158972091Y-101219003D01*
X158972091Y-101218996D01*
X158953787Y-101056542D01*
X158909348Y-100929544D01*
X158899789Y-100902225D01*
X158860985Y-100840469D01*
X158841985Y-100773237D01*
X158860985Y-100708530D01*
X158899789Y-100646775D01*
X158953786Y-100492461D01*
X158953786Y-100492459D01*
X158953787Y-100492457D01*
X158972091Y-100330003D01*
X158972091Y-100329996D01*
X158953787Y-100167542D01*
X158921755Y-100076000D01*
X158899789Y-100013225D01*
X158860985Y-99951469D01*
X158841985Y-99884237D01*
X158860985Y-99819530D01*
X158899789Y-99757775D01*
X158953786Y-99603461D01*
X158953786Y-99603459D01*
X158953787Y-99603457D01*
X158972091Y-99441003D01*
X158972091Y-99440996D01*
X158953787Y-99278542D01*
X158899789Y-99124226D01*
X158899789Y-99124225D01*
X158860985Y-99062469D01*
X158841985Y-98995237D01*
X158860985Y-98930530D01*
X158899789Y-98868775D01*
X158953786Y-98714461D01*
X158953786Y-98714459D01*
X158953787Y-98714457D01*
X158972091Y-98552003D01*
X158972091Y-98551996D01*
X158953787Y-98389544D01*
X158953786Y-98389542D01*
X158953786Y-98389539D01*
X158899789Y-98235225D01*
X158812808Y-98096796D01*
X158697204Y-97981192D01*
X158651479Y-97952461D01*
X158558774Y-97894210D01*
X158404455Y-97840212D01*
X158242004Y-97821909D01*
X158241996Y-97821909D01*
X158079544Y-97840212D01*
X157925225Y-97894210D01*
X157786795Y-97981192D01*
X157671192Y-98096795D01*
X157584210Y-98235225D01*
X157530212Y-98389544D01*
X157511909Y-98551996D01*
X152618042Y-98551996D01*
X152823830Y-98456035D01*
X153017401Y-98320495D01*
X153184495Y-98153401D01*
X153320035Y-97959830D01*
X153419903Y-97745663D01*
X153481063Y-97517408D01*
X153501659Y-97282000D01*
X153499690Y-97259500D01*
X153492772Y-97180425D01*
X153481063Y-97046592D01*
X153419903Y-96818337D01*
X153320035Y-96604171D01*
X153314425Y-96596158D01*
X153184494Y-96410597D01*
X153017402Y-96243506D01*
X153017395Y-96243501D01*
X152823834Y-96107967D01*
X152823830Y-96107965D01*
X152752654Y-96074775D01*
X152609663Y-96008097D01*
X152609659Y-96008096D01*
X152609655Y-96008094D01*
X152381413Y-95946938D01*
X152381403Y-95946936D01*
X152146001Y-95926341D01*
X152145999Y-95926341D01*
X151910596Y-95946936D01*
X151910586Y-95946938D01*
X151682344Y-96008094D01*
X151682335Y-96008098D01*
X151468171Y-96107964D01*
X151468169Y-96107965D01*
X151274597Y-96243505D01*
X151107505Y-96410597D01*
X150977575Y-96596158D01*
X150922998Y-96639783D01*
X150853500Y-96646977D01*
X150791145Y-96615454D01*
X150774425Y-96596158D01*
X150644494Y-96410597D01*
X150477402Y-96243506D01*
X150477395Y-96243501D01*
X150283834Y-96107967D01*
X150283830Y-96107965D01*
X150212654Y-96074775D01*
X150069663Y-96008097D01*
X150069659Y-96008096D01*
X150069655Y-96008094D01*
X149841413Y-95946938D01*
X149841403Y-95946936D01*
X149606001Y-95926341D01*
X149605999Y-95926341D01*
X149370596Y-95946936D01*
X149370586Y-95946938D01*
X149142344Y-96008094D01*
X149142335Y-96008098D01*
X148928171Y-96107964D01*
X148928169Y-96107965D01*
X148734600Y-96243503D01*
X148612673Y-96365430D01*
X148551350Y-96398914D01*
X148481658Y-96393930D01*
X148425725Y-96352058D01*
X148408810Y-96321081D01*
X148359797Y-96189671D01*
X148359793Y-96189664D01*
X148273547Y-96074455D01*
X148273544Y-96074452D01*
X148158335Y-95988206D01*
X148158328Y-95988202D01*
X148023482Y-95937908D01*
X148023483Y-95937908D01*
X147963883Y-95931501D01*
X147963881Y-95931500D01*
X147963873Y-95931500D01*
X147963864Y-95931500D01*
X146168129Y-95931500D01*
X146168123Y-95931501D01*
X146108516Y-95937908D01*
X145973671Y-95988202D01*
X145973664Y-95988206D01*
X145858455Y-96074452D01*
X145858452Y-96074455D01*
X145772206Y-96189664D01*
X145772202Y-96189671D01*
X145721908Y-96324517D01*
X145715501Y-96384116D01*
X145715500Y-96384135D01*
X144986783Y-96384135D01*
X144983787Y-96357544D01*
X144983786Y-96357542D01*
X144983786Y-96357539D01*
X144929789Y-96203225D01*
X144842808Y-96064796D01*
X144727204Y-95949192D01*
X144699049Y-95931501D01*
X144588774Y-95862210D01*
X144434455Y-95808212D01*
X144272004Y-95789909D01*
X144271996Y-95789909D01*
X144140735Y-95804698D01*
X144071913Y-95792643D01*
X144039171Y-95769159D01*
X143965204Y-95695192D01*
X143828021Y-95608994D01*
X143781730Y-95556659D01*
X143771082Y-95487605D01*
X143799457Y-95423757D01*
X143828021Y-95399006D01*
X143965204Y-95312808D01*
X144044003Y-95234009D01*
X166142825Y-95234009D01*
X166142825Y-95365990D01*
X166152731Y-95441225D01*
X166163270Y-95521274D01*
X166197423Y-95648735D01*
X166197428Y-95648751D01*
X166257357Y-95793433D01*
X166257364Y-95793447D01*
X166267383Y-95810800D01*
X166323345Y-95907729D01*
X166323350Y-95907735D01*
X166323351Y-95907737D01*
X166418694Y-96031991D01*
X166418700Y-96031998D01*
X166512001Y-96125299D01*
X166512007Y-96125304D01*
X166636271Y-96220655D01*
X166750555Y-96286637D01*
X166750560Y-96286639D01*
X166750566Y-96286642D01*
X166895248Y-96346571D01*
X166895254Y-96346572D01*
X166895264Y-96346577D01*
X167022726Y-96380730D01*
X167178017Y-96401175D01*
X167178024Y-96401175D01*
X167309976Y-96401175D01*
X167309983Y-96401175D01*
X167465274Y-96380730D01*
X167592736Y-96346577D01*
X167592748Y-96346571D01*
X167592751Y-96346571D01*
X167737433Y-96286642D01*
X167737433Y-96286641D01*
X167737445Y-96286637D01*
X167851729Y-96220655D01*
X167975993Y-96125304D01*
X168069304Y-96031993D01*
X168164655Y-95907729D01*
X168230637Y-95793445D01*
X168240697Y-95769159D01*
X168290571Y-95648751D01*
X168290571Y-95648748D01*
X168290577Y-95648736D01*
X168324730Y-95521274D01*
X168345175Y-95365983D01*
X168345175Y-95234017D01*
X168324730Y-95078726D01*
X168290577Y-94951264D01*
X168290572Y-94951254D01*
X168290571Y-94951248D01*
X168230642Y-94806566D01*
X168230639Y-94806560D01*
X168230637Y-94806555D01*
X168164655Y-94692271D01*
X168069304Y-94568007D01*
X168069299Y-94568001D01*
X167975998Y-94474700D01*
X167975991Y-94474694D01*
X167851737Y-94379351D01*
X167851735Y-94379350D01*
X167851729Y-94379345D01*
X167737445Y-94313363D01*
X167737433Y-94313357D01*
X167592751Y-94253428D01*
X167592739Y-94253424D01*
X167592736Y-94253423D01*
X167465274Y-94219270D01*
X167439317Y-94215852D01*
X167309990Y-94198825D01*
X167309983Y-94198825D01*
X167178017Y-94198825D01*
X167178009Y-94198825D01*
X167030206Y-94218285D01*
X167022726Y-94219270D01*
X166895264Y-94253423D01*
X166895248Y-94253428D01*
X166750566Y-94313357D01*
X166750552Y-94313364D01*
X166636277Y-94379341D01*
X166636262Y-94379351D01*
X166512008Y-94474694D01*
X166512001Y-94474700D01*
X166418700Y-94568001D01*
X166418694Y-94568008D01*
X166323351Y-94692262D01*
X166323341Y-94692277D01*
X166257364Y-94806552D01*
X166257357Y-94806566D01*
X166197428Y-94951248D01*
X166197423Y-94951264D01*
X166171982Y-95046214D01*
X166163271Y-95078723D01*
X166163269Y-95078734D01*
X166142825Y-95234009D01*
X144044003Y-95234009D01*
X144080808Y-95197204D01*
X144167789Y-95058775D01*
X144221786Y-94904461D01*
X144227170Y-94856681D01*
X144240091Y-94742003D01*
X144240091Y-94741996D01*
X144221787Y-94579544D01*
X144221786Y-94579542D01*
X144221786Y-94579539D01*
X144167789Y-94425225D01*
X144080808Y-94286796D01*
X143965204Y-94171192D01*
X143826774Y-94084210D01*
X143672455Y-94030212D01*
X143510004Y-94011909D01*
X143509996Y-94011909D01*
X143347544Y-94030212D01*
X143193225Y-94084210D01*
X143054795Y-94171192D01*
X142939192Y-94286795D01*
X142852210Y-94425225D01*
X142798212Y-94579544D01*
X142779909Y-94741996D01*
X142779909Y-94742003D01*
X142798212Y-94904455D01*
X142852210Y-95058774D01*
X142939192Y-95197204D01*
X143054797Y-95312809D01*
X143191979Y-95399007D01*
X143238269Y-95451341D01*
X143248917Y-95520395D01*
X143220542Y-95584243D01*
X143191979Y-95608993D01*
X143054797Y-95695190D01*
X142939192Y-95810795D01*
X142939188Y-95810800D01*
X142912417Y-95853405D01*
X142860082Y-95899695D01*
X142791028Y-95910342D01*
X142727180Y-95881965D01*
X142690384Y-95828387D01*
X142643789Y-95695225D01*
X142556808Y-95556796D01*
X142441204Y-95441192D01*
X142302774Y-95354210D01*
X142148455Y-95300212D01*
X141986004Y-95281909D01*
X141985996Y-95281909D01*
X141823544Y-95300212D01*
X141669225Y-95354210D01*
X141530795Y-95441192D01*
X141415192Y-95556795D01*
X141328210Y-95695225D01*
X141274212Y-95849544D01*
X141255909Y-96011996D01*
X138855756Y-96011996D01*
X138887786Y-95920461D01*
X138889221Y-95907729D01*
X138906091Y-95758003D01*
X138906091Y-95757996D01*
X138887787Y-95595544D01*
X138887786Y-95595542D01*
X138887786Y-95595539D01*
X138833789Y-95441225D01*
X138746808Y-95302796D01*
X138631204Y-95187192D01*
X138557052Y-95140599D01*
X138492774Y-95100210D01*
X138338455Y-95046212D01*
X138176004Y-95027909D01*
X138175996Y-95027909D01*
X138013544Y-95046212D01*
X137859225Y-95100210D01*
X137720795Y-95187192D01*
X137605192Y-95302795D01*
X137518210Y-95441225D01*
X137464212Y-95595544D01*
X137445909Y-95757996D01*
X137445909Y-95758003D01*
X137460698Y-95889264D01*
X137448643Y-95958086D01*
X137425160Y-95990828D01*
X137351191Y-96064797D01*
X137264210Y-96203225D01*
X137210212Y-96357544D01*
X137191909Y-96519996D01*
X137191909Y-96520003D01*
X137206698Y-96651264D01*
X137194643Y-96720086D01*
X137171160Y-96752828D01*
X137097191Y-96826797D01*
X137010210Y-96965225D01*
X136956212Y-97119544D01*
X136937909Y-97281996D01*
X136937909Y-97282003D01*
X136956803Y-97449700D01*
X136944748Y-97518522D01*
X136897399Y-97569901D01*
X136829789Y-97587525D01*
X136819700Y-97586803D01*
X136721587Y-97575749D01*
X136657173Y-97548683D01*
X136617618Y-97491088D01*
X136612250Y-97466411D01*
X136601787Y-97373545D01*
X136601786Y-97373543D01*
X136601786Y-97373539D01*
X136547789Y-97219225D01*
X136460808Y-97080796D01*
X136345204Y-96965192D01*
X136240502Y-96899403D01*
X136206774Y-96878210D01*
X136052455Y-96824212D01*
X135890004Y-96805909D01*
X135889996Y-96805909D01*
X135727544Y-96824212D01*
X135573225Y-96878210D01*
X135434795Y-96965192D01*
X135319192Y-97080795D01*
X135232210Y-97219225D01*
X135178212Y-97373544D01*
X135159909Y-97535996D01*
X122305892Y-97535996D01*
X122283402Y-97513506D01*
X122283396Y-97513501D01*
X122097842Y-97383575D01*
X122054217Y-97328998D01*
X122047023Y-97259500D01*
X122078546Y-97197145D01*
X122097842Y-97180425D01*
X122120026Y-97164891D01*
X122283401Y-97050495D01*
X122450495Y-96883401D01*
X122586035Y-96689830D01*
X122685903Y-96475663D01*
X122747063Y-96247408D01*
X122767659Y-96012000D01*
X122747063Y-95776592D01*
X122685903Y-95548337D01*
X122586035Y-95334171D01*
X122571077Y-95312809D01*
X122450496Y-95140600D01*
X122410106Y-95100210D01*
X122328567Y-95018671D01*
X122295084Y-94957351D01*
X122300068Y-94887659D01*
X122341939Y-94831725D01*
X122372915Y-94814810D01*
X122504331Y-94765796D01*
X122619546Y-94679546D01*
X122705796Y-94564331D01*
X122756091Y-94429483D01*
X122762500Y-94369873D01*
X122762500Y-93725996D01*
X146589909Y-93725996D01*
X146589909Y-93726003D01*
X146608212Y-93888455D01*
X146662210Y-94042774D01*
X146662211Y-94042775D01*
X146749192Y-94181204D01*
X146864796Y-94296808D01*
X147003225Y-94383789D01*
X147157539Y-94437786D01*
X147157542Y-94437786D01*
X147157544Y-94437787D01*
X147319996Y-94456091D01*
X147320000Y-94456091D01*
X147320004Y-94456091D01*
X147482455Y-94437787D01*
X147482456Y-94437786D01*
X147482461Y-94437786D01*
X147636775Y-94383789D01*
X147775204Y-94296808D01*
X147890808Y-94181204D01*
X147977789Y-94042775D01*
X148031786Y-93888461D01*
X148050091Y-93726000D01*
X148050091Y-93725996D01*
X150145909Y-93725996D01*
X150145909Y-93726003D01*
X150164212Y-93888455D01*
X150218210Y-94042774D01*
X150218211Y-94042775D01*
X150305192Y-94181204D01*
X150420796Y-94296808D01*
X150559225Y-94383789D01*
X150713539Y-94437786D01*
X150713542Y-94437786D01*
X150713544Y-94437787D01*
X150875996Y-94456091D01*
X150876000Y-94456091D01*
X150876004Y-94456091D01*
X151038455Y-94437787D01*
X151038456Y-94437786D01*
X151038461Y-94437786D01*
X151192775Y-94383789D01*
X151331204Y-94296808D01*
X151446808Y-94181204D01*
X151533789Y-94042775D01*
X151587786Y-93888461D01*
X151606091Y-93726000D01*
X151587786Y-93563539D01*
X151533789Y-93409225D01*
X151446808Y-93270796D01*
X151331204Y-93155192D01*
X151192774Y-93068210D01*
X151038455Y-93014212D01*
X150876004Y-92995909D01*
X150875996Y-92995909D01*
X150713544Y-93014212D01*
X150559225Y-93068210D01*
X150420795Y-93155192D01*
X150305192Y-93270795D01*
X150218210Y-93409225D01*
X150164212Y-93563544D01*
X150145909Y-93725996D01*
X148050091Y-93725996D01*
X148031786Y-93563539D01*
X147977789Y-93409225D01*
X147890808Y-93270796D01*
X147775204Y-93155192D01*
X147636774Y-93068210D01*
X147482455Y-93014212D01*
X147320004Y-92995909D01*
X147319996Y-92995909D01*
X147157544Y-93014212D01*
X147003225Y-93068210D01*
X146864795Y-93155192D01*
X146749192Y-93270795D01*
X146662210Y-93409225D01*
X146608212Y-93563544D01*
X146589909Y-93725996D01*
X122762500Y-93725996D01*
X122762499Y-92574128D01*
X122756091Y-92514517D01*
X122705796Y-92379669D01*
X122705795Y-92379668D01*
X122705793Y-92379664D01*
X122619547Y-92264455D01*
X122619544Y-92264452D01*
X122504335Y-92178206D01*
X122504328Y-92178202D01*
X122369482Y-92127908D01*
X122369483Y-92127908D01*
X122309883Y-92121501D01*
X122309881Y-92121500D01*
X122309873Y-92121500D01*
X122309864Y-92121500D01*
X120514129Y-92121500D01*
X120514123Y-92121501D01*
X120454516Y-92127908D01*
X120319671Y-92178202D01*
X120319664Y-92178206D01*
X120204455Y-92264452D01*
X120204452Y-92264455D01*
X120118206Y-92379664D01*
X120118202Y-92379671D01*
X120067908Y-92514517D01*
X120061501Y-92574116D01*
X120061501Y-92574123D01*
X120061500Y-92574135D01*
X120061500Y-94369870D01*
X120061501Y-94369876D01*
X120067908Y-94429483D01*
X120118202Y-94564328D01*
X120118206Y-94564335D01*
X120204452Y-94679544D01*
X120204455Y-94679547D01*
X120319664Y-94765793D01*
X120319671Y-94765797D01*
X120451081Y-94814810D01*
X120507015Y-94856681D01*
X120531432Y-94922145D01*
X120516580Y-94990418D01*
X120495430Y-95018673D01*
X120373503Y-95140600D01*
X120237965Y-95334169D01*
X120237964Y-95334171D01*
X120138098Y-95548335D01*
X120138094Y-95548344D01*
X120076938Y-95776586D01*
X120076936Y-95776596D01*
X120056341Y-96011999D01*
X119118500Y-96011999D01*
X119118500Y-90677996D01*
X124416435Y-90677996D01*
X124416435Y-90678003D01*
X124436630Y-90857249D01*
X124436631Y-90857254D01*
X124496211Y-91027523D01*
X124535769Y-91090478D01*
X124592184Y-91180262D01*
X124719738Y-91307816D01*
X124872478Y-91403789D01*
X124975952Y-91439996D01*
X125042745Y-91463368D01*
X125042750Y-91463369D01*
X125221996Y-91483565D01*
X125222000Y-91483565D01*
X125222004Y-91483565D01*
X125401249Y-91463369D01*
X125401252Y-91463368D01*
X125401255Y-91463368D01*
X125468048Y-91439996D01*
X126194435Y-91439996D01*
X126194435Y-91440003D01*
X126214630Y-91619249D01*
X126214631Y-91619254D01*
X126274211Y-91789523D01*
X126291335Y-91816775D01*
X126370184Y-91942262D01*
X126497738Y-92069816D01*
X126650478Y-92165789D01*
X126685964Y-92178206D01*
X126820745Y-92225368D01*
X126820750Y-92225369D01*
X126999996Y-92245565D01*
X127000000Y-92245565D01*
X127000004Y-92245565D01*
X127179249Y-92225369D01*
X127179252Y-92225368D01*
X127179255Y-92225368D01*
X127246048Y-92201996D01*
X143287909Y-92201996D01*
X143287909Y-92202003D01*
X143306212Y-92364455D01*
X143360210Y-92518774D01*
X143394992Y-92574129D01*
X143447192Y-92657204D01*
X143562796Y-92772808D01*
X143701225Y-92859789D01*
X143855539Y-92913786D01*
X143855542Y-92913786D01*
X143855544Y-92913787D01*
X144017996Y-92932091D01*
X144018000Y-92932091D01*
X144018004Y-92932091D01*
X144180455Y-92913787D01*
X144180456Y-92913786D01*
X144180461Y-92913786D01*
X144334775Y-92859789D01*
X144473204Y-92772808D01*
X144588808Y-92657204D01*
X144675789Y-92518775D01*
X144729786Y-92364461D01*
X144741054Y-92264454D01*
X144748091Y-92202003D01*
X144748091Y-92201996D01*
X144729787Y-92039544D01*
X144729786Y-92039542D01*
X144729786Y-92039539D01*
X144675789Y-91885225D01*
X144588808Y-91746796D01*
X144473204Y-91631192D01*
X144334774Y-91544210D01*
X144180455Y-91490212D01*
X144018004Y-91471909D01*
X144017996Y-91471909D01*
X143855544Y-91490212D01*
X143701225Y-91544210D01*
X143562795Y-91631192D01*
X143447192Y-91746795D01*
X143447190Y-91746798D01*
X143373937Y-91863378D01*
X143362334Y-91873640D01*
X143362382Y-91878313D01*
X143360097Y-91885548D01*
X143306212Y-92039544D01*
X143287909Y-92201996D01*
X127246048Y-92201996D01*
X127349522Y-92165789D01*
X127502262Y-92069816D01*
X127629816Y-91942262D01*
X127725789Y-91789522D01*
X127785368Y-91619255D01*
X127785369Y-91619249D01*
X127805565Y-91440003D01*
X127805565Y-91439996D01*
X127785369Y-91260750D01*
X127785368Y-91260745D01*
X127759215Y-91186003D01*
X127759213Y-91185996D01*
X128301909Y-91185996D01*
X128301909Y-91186003D01*
X128320212Y-91348455D01*
X128374210Y-91502774D01*
X128374211Y-91502775D01*
X128461192Y-91641204D01*
X128576796Y-91756808D01*
X128715225Y-91843789D01*
X128869539Y-91897786D01*
X128869542Y-91897786D01*
X128869544Y-91897787D01*
X129031996Y-91916091D01*
X129032000Y-91916091D01*
X129032004Y-91916091D01*
X129194455Y-91897787D01*
X129194456Y-91897786D01*
X129194461Y-91897786D01*
X129348775Y-91843789D01*
X129487204Y-91756808D01*
X129602808Y-91641204D01*
X129689789Y-91502775D01*
X129743786Y-91348461D01*
X129748366Y-91307815D01*
X129762091Y-91186003D01*
X129762091Y-91185996D01*
X135413909Y-91185996D01*
X135413909Y-91186003D01*
X135432212Y-91348455D01*
X135486210Y-91502774D01*
X135486211Y-91502775D01*
X135573192Y-91641204D01*
X135688796Y-91756808D01*
X135827225Y-91843789D01*
X135981539Y-91897786D01*
X135981542Y-91897786D01*
X135981544Y-91897787D01*
X136143996Y-91916091D01*
X136144000Y-91916091D01*
X136144004Y-91916091D01*
X136306455Y-91897787D01*
X136306456Y-91897786D01*
X136306461Y-91897786D01*
X136460775Y-91843789D01*
X136599204Y-91756808D01*
X136599204Y-91756807D01*
X136605100Y-91753103D01*
X136606507Y-91755342D01*
X136659970Y-91733493D01*
X136728670Y-91746223D01*
X136777635Y-91790871D01*
X136843192Y-91895204D01*
X136958796Y-92010808D01*
X137097225Y-92097789D01*
X137251539Y-92151786D01*
X137251542Y-92151786D01*
X137251544Y-92151787D01*
X137413996Y-92170091D01*
X137414000Y-92170091D01*
X137414004Y-92170091D01*
X137576455Y-92151787D01*
X137576456Y-92151786D01*
X137576461Y-92151786D01*
X137730775Y-92097789D01*
X137869204Y-92010808D01*
X137943174Y-91936837D01*
X138004493Y-91903355D01*
X138044735Y-91901301D01*
X138062965Y-91903355D01*
X138175997Y-91916091D01*
X138176000Y-91916091D01*
X138176004Y-91916091D01*
X138338455Y-91897787D01*
X138338456Y-91897786D01*
X138338461Y-91897786D01*
X138492775Y-91843789D01*
X138631204Y-91756808D01*
X138746808Y-91641204D01*
X138833789Y-91502775D01*
X138855756Y-91439996D01*
X141763909Y-91439996D01*
X141763909Y-91440003D01*
X141782212Y-91602455D01*
X141782213Y-91602460D01*
X141782214Y-91602461D01*
X141789379Y-91622939D01*
X141836210Y-91756774D01*
X141890886Y-91843789D01*
X141923192Y-91895204D01*
X142038796Y-92010808D01*
X142177225Y-92097789D01*
X142331539Y-92151786D01*
X142331542Y-92151786D01*
X142331544Y-92151787D01*
X142493996Y-92170091D01*
X142494000Y-92170091D01*
X142494004Y-92170091D01*
X142656455Y-92151787D01*
X142656456Y-92151786D01*
X142656461Y-92151786D01*
X142810775Y-92097789D01*
X142949204Y-92010808D01*
X143064808Y-91895204D01*
X143138062Y-91778620D01*
X143149664Y-91768358D01*
X143149617Y-91763684D01*
X143151895Y-91756471D01*
X143205786Y-91602461D01*
X143212349Y-91544211D01*
X143224091Y-91440003D01*
X143224091Y-91439996D01*
X143205787Y-91277544D01*
X143205786Y-91277542D01*
X143205786Y-91277539D01*
X143173754Y-91185996D01*
X152431909Y-91185996D01*
X152431909Y-91186003D01*
X152450212Y-91348455D01*
X152504210Y-91502774D01*
X152504211Y-91502775D01*
X152591192Y-91641204D01*
X152706796Y-91756808D01*
X152845225Y-91843789D01*
X152999539Y-91897786D01*
X152999542Y-91897786D01*
X152999544Y-91897787D01*
X153161996Y-91916091D01*
X153162000Y-91916091D01*
X153162004Y-91916091D01*
X153324455Y-91897787D01*
X153324456Y-91897786D01*
X153324461Y-91897786D01*
X153478775Y-91843789D01*
X153617204Y-91756808D01*
X153732808Y-91641204D01*
X153819789Y-91502775D01*
X153820761Y-91499996D01*
X157959909Y-91499996D01*
X157959909Y-91500003D01*
X157978212Y-91662455D01*
X158032210Y-91816774D01*
X158107653Y-91936840D01*
X158119192Y-91955204D01*
X158234796Y-92070808D01*
X158373225Y-92157789D01*
X158527539Y-92211786D01*
X158527542Y-92211786D01*
X158527544Y-92211787D01*
X158689996Y-92230091D01*
X158690000Y-92230091D01*
X158690004Y-92230091D01*
X158852455Y-92211787D01*
X158852456Y-92211786D01*
X158852461Y-92211786D01*
X159006775Y-92157789D01*
X159145204Y-92070808D01*
X159260808Y-91955204D01*
X159347789Y-91816775D01*
X159401786Y-91662461D01*
X159404292Y-91640219D01*
X159420091Y-91500003D01*
X159420091Y-91499996D01*
X159401787Y-91337544D01*
X159401786Y-91337542D01*
X159401786Y-91337539D01*
X159347789Y-91183225D01*
X159260808Y-91044796D01*
X159145204Y-90929192D01*
X159086833Y-90892515D01*
X159006774Y-90842210D01*
X158852455Y-90788212D01*
X158690004Y-90769909D01*
X158689996Y-90769909D01*
X158527544Y-90788212D01*
X158373225Y-90842210D01*
X158234795Y-90929192D01*
X158119192Y-91044795D01*
X158032210Y-91183225D01*
X157978212Y-91337544D01*
X157959909Y-91499996D01*
X153820761Y-91499996D01*
X153873786Y-91348461D01*
X153878366Y-91307815D01*
X153892091Y-91186003D01*
X153892091Y-91185996D01*
X153873787Y-91023544D01*
X153873786Y-91023542D01*
X153873786Y-91023539D01*
X153819789Y-90869225D01*
X153732808Y-90730796D01*
X153680008Y-90677996D01*
X164115909Y-90677996D01*
X164115909Y-90678003D01*
X164134212Y-90840455D01*
X164134213Y-90840460D01*
X164134214Y-90840461D01*
X164141379Y-90860939D01*
X164188210Y-90994774D01*
X164206288Y-91023544D01*
X164275192Y-91133204D01*
X164390796Y-91248808D01*
X164529225Y-91335789D01*
X164683539Y-91389786D01*
X164683542Y-91389786D01*
X164683544Y-91389787D01*
X164845996Y-91408091D01*
X164846000Y-91408091D01*
X164846004Y-91408091D01*
X165008455Y-91389787D01*
X165008456Y-91389786D01*
X165008461Y-91389786D01*
X165162775Y-91335789D01*
X165301204Y-91248808D01*
X165416808Y-91133204D01*
X165503789Y-90994775D01*
X165557786Y-90840461D01*
X165558387Y-90835127D01*
X165576091Y-90678003D01*
X165576091Y-90677996D01*
X165557787Y-90515544D01*
X165557786Y-90515542D01*
X165557786Y-90515539D01*
X165503789Y-90361225D01*
X165416808Y-90222796D01*
X165301204Y-90107192D01*
X165207294Y-90048184D01*
X165162774Y-90020210D01*
X165008455Y-89966212D01*
X164846004Y-89947909D01*
X164845996Y-89947909D01*
X164683544Y-89966212D01*
X164529225Y-90020210D01*
X164390795Y-90107192D01*
X164275192Y-90222795D01*
X164188210Y-90361225D01*
X164134212Y-90515544D01*
X164115909Y-90677996D01*
X153680008Y-90677996D01*
X153617204Y-90615192D01*
X153617202Y-90615191D01*
X153478774Y-90528210D01*
X153324455Y-90474212D01*
X153162004Y-90455909D01*
X153161996Y-90455909D01*
X152999544Y-90474212D01*
X152845225Y-90528210D01*
X152706795Y-90615192D01*
X152591192Y-90730795D01*
X152504210Y-90869225D01*
X152450212Y-91023544D01*
X152431909Y-91185996D01*
X143173754Y-91185996D01*
X143151789Y-91123225D01*
X143064808Y-90984796D01*
X142949204Y-90869192D01*
X142810774Y-90782210D01*
X142656455Y-90728212D01*
X142494004Y-90709909D01*
X142493996Y-90709909D01*
X142331544Y-90728212D01*
X142177225Y-90782210D01*
X142038795Y-90869192D01*
X141923192Y-90984795D01*
X141836210Y-91123225D01*
X141782212Y-91277544D01*
X141763909Y-91439996D01*
X138855756Y-91439996D01*
X138887786Y-91348461D01*
X138892366Y-91307815D01*
X138906091Y-91186003D01*
X138906091Y-91185996D01*
X138887787Y-91023544D01*
X138887786Y-91023542D01*
X138887786Y-91023539D01*
X138833789Y-90869225D01*
X138746808Y-90730796D01*
X138631204Y-90615192D01*
X138631202Y-90615191D01*
X138492774Y-90528210D01*
X138338455Y-90474212D01*
X138176004Y-90455909D01*
X138175996Y-90455909D01*
X138013544Y-90474212D01*
X137859225Y-90528210D01*
X137720797Y-90615191D01*
X137646828Y-90689160D01*
X137585504Y-90722644D01*
X137545264Y-90724698D01*
X137414004Y-90709909D01*
X137413996Y-90709909D01*
X137251544Y-90728212D01*
X137097225Y-90782210D01*
X136952900Y-90872897D01*
X136951500Y-90870669D01*
X136897943Y-90892515D01*
X136829252Y-90879736D01*
X136780364Y-90835128D01*
X136714808Y-90730796D01*
X136599204Y-90615192D01*
X136599202Y-90615191D01*
X136460774Y-90528210D01*
X136306455Y-90474212D01*
X136144004Y-90455909D01*
X136143996Y-90455909D01*
X135981544Y-90474212D01*
X135827225Y-90528210D01*
X135688795Y-90615192D01*
X135573192Y-90730795D01*
X135486210Y-90869225D01*
X135432212Y-91023544D01*
X135413909Y-91185996D01*
X129762091Y-91185996D01*
X129743787Y-91023544D01*
X129743786Y-91023542D01*
X129743786Y-91023539D01*
X129689789Y-90869225D01*
X129602808Y-90730796D01*
X129487204Y-90615192D01*
X129487202Y-90615191D01*
X129348774Y-90528210D01*
X129194455Y-90474212D01*
X129032004Y-90455909D01*
X129031996Y-90455909D01*
X128869544Y-90474212D01*
X128715225Y-90528210D01*
X128576795Y-90615192D01*
X128461192Y-90730795D01*
X128374210Y-90869225D01*
X128320212Y-91023544D01*
X128301909Y-91185996D01*
X127759213Y-91185996D01*
X127725789Y-91090478D01*
X127697084Y-91044795D01*
X127660003Y-90985780D01*
X127629816Y-90937738D01*
X127502262Y-90810184D01*
X127467294Y-90788212D01*
X127349523Y-90714211D01*
X127179254Y-90654631D01*
X127179249Y-90654630D01*
X127000004Y-90634435D01*
X126999996Y-90634435D01*
X126820750Y-90654630D01*
X126820745Y-90654631D01*
X126650476Y-90714211D01*
X126497737Y-90810184D01*
X126370184Y-90937737D01*
X126274211Y-91090476D01*
X126214631Y-91260745D01*
X126214630Y-91260750D01*
X126194435Y-91439996D01*
X125468048Y-91439996D01*
X125571522Y-91403789D01*
X125724262Y-91307816D01*
X125851816Y-91180262D01*
X125947789Y-91027522D01*
X126007368Y-90857255D01*
X126009063Y-90842210D01*
X126027565Y-90678003D01*
X126027565Y-90677996D01*
X126007369Y-90498750D01*
X126007368Y-90498745D01*
X125998784Y-90474214D01*
X125947789Y-90328478D01*
X125851816Y-90175738D01*
X125724262Y-90048184D01*
X125571523Y-89952211D01*
X125401254Y-89892631D01*
X125401249Y-89892630D01*
X125222004Y-89872435D01*
X125221996Y-89872435D01*
X125042750Y-89892630D01*
X125042745Y-89892631D01*
X124872476Y-89952211D01*
X124719737Y-90048184D01*
X124592184Y-90175737D01*
X124496211Y-90328476D01*
X124436631Y-90498745D01*
X124436630Y-90498750D01*
X124416435Y-90677996D01*
X119118500Y-90677996D01*
X119118500Y-88203670D01*
X119138185Y-88136631D01*
X119190989Y-88090876D01*
X119260147Y-88080932D01*
X119323703Y-88109957D01*
X119349885Y-88141667D01*
X119356197Y-88152600D01*
X119356202Y-88152607D01*
X119356205Y-88152612D01*
X119356206Y-88152614D01*
X119591083Y-88482452D01*
X119591092Y-88482462D01*
X119591093Y-88482464D01*
X119856280Y-88788507D01*
X120149358Y-89067956D01*
X120467672Y-89318281D01*
X120808340Y-89537215D01*
X121168276Y-89722775D01*
X121168281Y-89722777D01*
X121168283Y-89722778D01*
X121355444Y-89797706D01*
X121544221Y-89873281D01*
X121544229Y-89873283D01*
X121544231Y-89873284D01*
X121610118Y-89892630D01*
X121932770Y-89987369D01*
X122103165Y-90020210D01*
X122248307Y-90048184D01*
X122330405Y-90064007D01*
X122733524Y-90102500D01*
X122733530Y-90102500D01*
X123138470Y-90102500D01*
X123138476Y-90102500D01*
X123541595Y-90064007D01*
X123939230Y-89987369D01*
X124327779Y-89873281D01*
X124703724Y-89722775D01*
X125063660Y-89537215D01*
X125404328Y-89318281D01*
X125613233Y-89153996D01*
X139985909Y-89153996D01*
X139985909Y-89154003D01*
X140004212Y-89316455D01*
X140058210Y-89470774D01*
X140058211Y-89470775D01*
X140145192Y-89609204D01*
X140260796Y-89724808D01*
X140399225Y-89811789D01*
X140553539Y-89865786D01*
X140553542Y-89865786D01*
X140553544Y-89865787D01*
X140715996Y-89884091D01*
X140716000Y-89884091D01*
X140716004Y-89884091D01*
X140878455Y-89865787D01*
X140878456Y-89865786D01*
X140878461Y-89865786D01*
X141032775Y-89811789D01*
X141171204Y-89724808D01*
X141286808Y-89609204D01*
X141373789Y-89470775D01*
X141427786Y-89316461D01*
X141427787Y-89316455D01*
X141446091Y-89154003D01*
X141446091Y-89153996D01*
X154971909Y-89153996D01*
X154971909Y-89154003D01*
X154990212Y-89316455D01*
X155044210Y-89470774D01*
X155044211Y-89470775D01*
X155131192Y-89609204D01*
X155246796Y-89724808D01*
X155385225Y-89811789D01*
X155539539Y-89865786D01*
X155539542Y-89865786D01*
X155539544Y-89865787D01*
X155701996Y-89884091D01*
X155702000Y-89884091D01*
X155702004Y-89884091D01*
X155864455Y-89865787D01*
X155864456Y-89865786D01*
X155864461Y-89865786D01*
X156018775Y-89811789D01*
X156157204Y-89724808D01*
X156157204Y-89724807D01*
X156163100Y-89721103D01*
X156164507Y-89723342D01*
X156217970Y-89701493D01*
X156286670Y-89714223D01*
X156335635Y-89758871D01*
X156401192Y-89863204D01*
X156516796Y-89978808D01*
X156655225Y-90065789D01*
X156809539Y-90119786D01*
X156809542Y-90119786D01*
X156809544Y-90119787D01*
X156971996Y-90138091D01*
X156972000Y-90138091D01*
X156972004Y-90138091D01*
X157134455Y-90119787D01*
X157134456Y-90119786D01*
X157134461Y-90119786D01*
X157288775Y-90065789D01*
X157427204Y-89978808D01*
X157542808Y-89863204D01*
X157629789Y-89724775D01*
X157683786Y-89570461D01*
X157702091Y-89408000D01*
X157691982Y-89318281D01*
X157683787Y-89245544D01*
X157683786Y-89245542D01*
X157683786Y-89245539D01*
X157629789Y-89091225D01*
X157542808Y-88952796D01*
X157427204Y-88837192D01*
X157349723Y-88788507D01*
X157288774Y-88750210D01*
X157134455Y-88696212D01*
X156972004Y-88677909D01*
X156971996Y-88677909D01*
X156809544Y-88696212D01*
X156655225Y-88750210D01*
X156510900Y-88840897D01*
X156509500Y-88838669D01*
X156455943Y-88860515D01*
X156387252Y-88847736D01*
X156338364Y-88803128D01*
X156272808Y-88698796D01*
X156157204Y-88583192D01*
X156036705Y-88507477D01*
X156018774Y-88496210D01*
X155864455Y-88442212D01*
X155702004Y-88423909D01*
X155701996Y-88423909D01*
X155539544Y-88442212D01*
X155385225Y-88496210D01*
X155246795Y-88583192D01*
X155131192Y-88698795D01*
X155044210Y-88837225D01*
X154990212Y-88991544D01*
X154971909Y-89153996D01*
X141446091Y-89153996D01*
X141427787Y-88991544D01*
X141427786Y-88991542D01*
X141427786Y-88991539D01*
X141373789Y-88837225D01*
X141286808Y-88698796D01*
X141171204Y-88583192D01*
X141050705Y-88507477D01*
X141032774Y-88496210D01*
X140878455Y-88442212D01*
X140716004Y-88423909D01*
X140715996Y-88423909D01*
X140553544Y-88442212D01*
X140399225Y-88496210D01*
X140260795Y-88583192D01*
X140145192Y-88698795D01*
X140058210Y-88837225D01*
X140004212Y-88991544D01*
X139985909Y-89153996D01*
X125613233Y-89153996D01*
X125722642Y-89067956D01*
X126015720Y-88788507D01*
X126280907Y-88482464D01*
X126300625Y-88454775D01*
X126515793Y-88152614D01*
X126515799Y-88152606D01*
X126515800Y-88152603D01*
X126515803Y-88152600D01*
X126718279Y-87801900D01*
X126796785Y-87629996D01*
X132111909Y-87629996D01*
X132111909Y-87630003D01*
X132130212Y-87792455D01*
X132184210Y-87946774D01*
X132238886Y-88033789D01*
X132271192Y-88085204D01*
X132386796Y-88200808D01*
X132525225Y-88287789D01*
X132679539Y-88341786D01*
X132679542Y-88341786D01*
X132679544Y-88341787D01*
X132841996Y-88360091D01*
X132842000Y-88360091D01*
X132842004Y-88360091D01*
X133004455Y-88341787D01*
X133004456Y-88341786D01*
X133004461Y-88341786D01*
X133158775Y-88287789D01*
X133297204Y-88200808D01*
X133360016Y-88137996D01*
X145065909Y-88137996D01*
X145065909Y-88138003D01*
X145084212Y-88300455D01*
X145138210Y-88454774D01*
X145171326Y-88507477D01*
X145225192Y-88593204D01*
X145340796Y-88708808D01*
X145479225Y-88795789D01*
X145633539Y-88849786D01*
X145633542Y-88849786D01*
X145633544Y-88849787D01*
X145795996Y-88868091D01*
X145796000Y-88868091D01*
X145796004Y-88868091D01*
X145958455Y-88849787D01*
X145958456Y-88849786D01*
X145958461Y-88849786D01*
X146112775Y-88795789D01*
X146251204Y-88708808D01*
X146366808Y-88593204D01*
X146453789Y-88454775D01*
X146507786Y-88300461D01*
X146518692Y-88203670D01*
X146526091Y-88138003D01*
X146526091Y-88137996D01*
X146507787Y-87975544D01*
X146507786Y-87975542D01*
X146507786Y-87975539D01*
X146453789Y-87821225D01*
X146366808Y-87682796D01*
X146251204Y-87567192D01*
X146220644Y-87547990D01*
X146112774Y-87480210D01*
X145958455Y-87426212D01*
X145796004Y-87407909D01*
X145795996Y-87407909D01*
X145633544Y-87426212D01*
X145479225Y-87480210D01*
X145340795Y-87567192D01*
X145225192Y-87682795D01*
X145138210Y-87821225D01*
X145084212Y-87975544D01*
X145065909Y-88137996D01*
X133360016Y-88137996D01*
X133412808Y-88085204D01*
X133499789Y-87946775D01*
X133553786Y-87792461D01*
X133553787Y-87792455D01*
X133572091Y-87630003D01*
X133572091Y-87629996D01*
X133553787Y-87467544D01*
X133553786Y-87467542D01*
X133553786Y-87467539D01*
X133521754Y-87375996D01*
X135921909Y-87375996D01*
X135921909Y-87376003D01*
X135940212Y-87538455D01*
X135940213Y-87538460D01*
X135940214Y-87538461D01*
X135941564Y-87542318D01*
X135994210Y-87692774D01*
X135994211Y-87692775D01*
X136081192Y-87831204D01*
X136196796Y-87946808D01*
X136335225Y-88033789D01*
X136489539Y-88087786D01*
X136489542Y-88087786D01*
X136489544Y-88087787D01*
X136651996Y-88106091D01*
X136652000Y-88106091D01*
X136652004Y-88106091D01*
X136814455Y-88087787D01*
X136814456Y-88087786D01*
X136814461Y-88087786D01*
X136968775Y-88033789D01*
X137107204Y-87946808D01*
X137222808Y-87831204D01*
X137309789Y-87692775D01*
X137363786Y-87538461D01*
X137367582Y-87504772D01*
X137382091Y-87376003D01*
X137382091Y-87375996D01*
X137363787Y-87213544D01*
X137363786Y-87213542D01*
X137363786Y-87213539D01*
X137309789Y-87059225D01*
X137222808Y-86920796D01*
X137107204Y-86805192D01*
X137077103Y-86786278D01*
X136968774Y-86718210D01*
X136814455Y-86664212D01*
X136652004Y-86645909D01*
X136651996Y-86645909D01*
X136489544Y-86664212D01*
X136335225Y-86718210D01*
X136196795Y-86805192D01*
X136081192Y-86920795D01*
X135994210Y-87059225D01*
X135940212Y-87213544D01*
X135921909Y-87375996D01*
X133521754Y-87375996D01*
X133499789Y-87313225D01*
X133412808Y-87174796D01*
X133297204Y-87059192D01*
X133276510Y-87046189D01*
X133158774Y-86972210D01*
X133004455Y-86918212D01*
X132842004Y-86899909D01*
X132841996Y-86899909D01*
X132679544Y-86918212D01*
X132525225Y-86972210D01*
X132386795Y-87059192D01*
X132271192Y-87174795D01*
X132184210Y-87313225D01*
X132130212Y-87467544D01*
X132111909Y-87629996D01*
X126796785Y-87629996D01*
X126886503Y-87433543D01*
X126886505Y-87433536D01*
X126886507Y-87433533D01*
X127018946Y-87050874D01*
X127018946Y-87050871D01*
X127018950Y-87050862D01*
X127114421Y-86657325D01*
X127172052Y-86256494D01*
X127191320Y-85852000D01*
X127191320Y-85851996D01*
X134651909Y-85851996D01*
X134651909Y-85852003D01*
X134670212Y-86014455D01*
X134724210Y-86168774D01*
X134724211Y-86168775D01*
X134811192Y-86307204D01*
X134926796Y-86422808D01*
X135065225Y-86509789D01*
X135219539Y-86563786D01*
X135219542Y-86563786D01*
X135219544Y-86563787D01*
X135381996Y-86582091D01*
X135382000Y-86582091D01*
X135382004Y-86582091D01*
X135544455Y-86563787D01*
X135544456Y-86563786D01*
X135544461Y-86563786D01*
X135698775Y-86509789D01*
X135837204Y-86422808D01*
X135952808Y-86307204D01*
X136035682Y-86175312D01*
X139790702Y-86175312D01*
X139790702Y-86175319D01*
X139809005Y-86337771D01*
X139863003Y-86492090D01*
X139908053Y-86563786D01*
X139949985Y-86630520D01*
X140065589Y-86746124D01*
X140204018Y-86833105D01*
X140358332Y-86887102D01*
X140358335Y-86887102D01*
X140358337Y-86887103D01*
X140520789Y-86905407D01*
X140520793Y-86905407D01*
X140520797Y-86905407D01*
X140683248Y-86887103D01*
X140683249Y-86887102D01*
X140683254Y-86887102D01*
X140837568Y-86833105D01*
X140975997Y-86746124D01*
X141034091Y-86688030D01*
X151596500Y-86688030D01*
X151596500Y-87794969D01*
X151636868Y-87997912D01*
X151636870Y-87997920D01*
X151705295Y-88163113D01*
X151716059Y-88189098D01*
X151725796Y-88203670D01*
X151831024Y-88361157D01*
X151977342Y-88507475D01*
X151977345Y-88507477D01*
X152149402Y-88622441D01*
X152340580Y-88701630D01*
X152543530Y-88741999D01*
X152543534Y-88742000D01*
X152543535Y-88742000D01*
X152750466Y-88742000D01*
X152750467Y-88741999D01*
X152953420Y-88701630D01*
X153144598Y-88622441D01*
X153316655Y-88507477D01*
X153462977Y-88361155D01*
X153577941Y-88189098D01*
X153657130Y-87997920D01*
X153697500Y-87794965D01*
X153697500Y-87660784D01*
X153717185Y-87593745D01*
X153769989Y-87547990D01*
X153839147Y-87538046D01*
X153858119Y-87542315D01*
X153894767Y-87553647D01*
X153894770Y-87553647D01*
X153894772Y-87553648D01*
X153894781Y-87553650D01*
X153980205Y-87567178D01*
X154002923Y-87570777D01*
X154017211Y-87572831D01*
X154017219Y-87572830D01*
X154017221Y-87572831D01*
X154113121Y-87571461D01*
X154161077Y-87570777D01*
X154269233Y-87553647D01*
X154283459Y-87551185D01*
X154419649Y-87504774D01*
X154517218Y-87455060D01*
X154529985Y-87448323D01*
X154645167Y-87362098D01*
X154722598Y-87284667D01*
X154732660Y-87274315D01*
X154815560Y-87156718D01*
X154865274Y-87059149D01*
X154871644Y-87046192D01*
X154914147Y-86908733D01*
X154914147Y-86908729D01*
X154914150Y-86908718D01*
X154931276Y-86800581D01*
X154931278Y-86800572D01*
X154933331Y-86786289D01*
X154931481Y-86656721D01*
X159010668Y-86656721D01*
X159012722Y-86800572D01*
X159012723Y-86800582D01*
X159029841Y-86908664D01*
X159029853Y-86908732D01*
X159029853Y-86908733D01*
X159032315Y-86922959D01*
X159075902Y-87050863D01*
X159078727Y-87059151D01*
X159128441Y-87156721D01*
X159134591Y-87168376D01*
X159135177Y-87169485D01*
X159221402Y-87284667D01*
X159298833Y-87362098D01*
X159309185Y-87372160D01*
X159426782Y-87455060D01*
X159524351Y-87504774D01*
X159537308Y-87511144D01*
X159666805Y-87551185D01*
X159674767Y-87553647D01*
X159674781Y-87553650D01*
X159760205Y-87567178D01*
X159782923Y-87570777D01*
X159797211Y-87572831D01*
X159797219Y-87572830D01*
X159797221Y-87572831D01*
X159893121Y-87571461D01*
X159941077Y-87570777D01*
X160049233Y-87553647D01*
X160063459Y-87551185D01*
X160082503Y-87544694D01*
X160152307Y-87541703D01*
X160212649Y-87576925D01*
X160244369Y-87639179D01*
X160246500Y-87662067D01*
X160246500Y-87794969D01*
X160286868Y-87997912D01*
X160286870Y-87997920D01*
X160355295Y-88163113D01*
X160366059Y-88189098D01*
X160375796Y-88203670D01*
X160481024Y-88361157D01*
X160627342Y-88507475D01*
X160627345Y-88507477D01*
X160799402Y-88622441D01*
X160990580Y-88701630D01*
X161193530Y-88741999D01*
X161193534Y-88742000D01*
X161193535Y-88742000D01*
X161400466Y-88742000D01*
X161400467Y-88741999D01*
X161603420Y-88701630D01*
X161794598Y-88622441D01*
X161966655Y-88507477D01*
X162112977Y-88361155D01*
X162227941Y-88189098D01*
X162307130Y-87997920D01*
X162347500Y-87794965D01*
X162347500Y-86688035D01*
X162307130Y-86485080D01*
X162227941Y-86293902D01*
X162112977Y-86121845D01*
X162112975Y-86121842D01*
X161966657Y-85975524D01*
X161841376Y-85891815D01*
X161794598Y-85860559D01*
X161789726Y-85858541D01*
X161603420Y-85781370D01*
X161603412Y-85781368D01*
X161400469Y-85741000D01*
X161400465Y-85741000D01*
X161193535Y-85741000D01*
X161193530Y-85741000D01*
X160990587Y-85781368D01*
X160990579Y-85781370D01*
X160799403Y-85860558D01*
X160627344Y-85975523D01*
X160557373Y-86045494D01*
X160496049Y-86078978D01*
X160426358Y-86073993D01*
X160398246Y-86059160D01*
X160396532Y-86057952D01*
X160297218Y-85987940D01*
X160199649Y-85938226D01*
X160186692Y-85931856D01*
X160186689Y-85931855D01*
X160049232Y-85889352D01*
X160049218Y-85889349D01*
X159941081Y-85872223D01*
X159926795Y-85870169D01*
X159926778Y-85870168D01*
X159782927Y-85872222D01*
X159782917Y-85872223D01*
X159674835Y-85889341D01*
X159660540Y-85891815D01*
X159524348Y-85938227D01*
X159426778Y-85987941D01*
X159414016Y-85994676D01*
X159298834Y-86080901D01*
X159298830Y-86080904D01*
X159221388Y-86158347D01*
X159211340Y-86168685D01*
X159128442Y-86286278D01*
X159128440Y-86286281D01*
X159078730Y-86383842D01*
X159072355Y-86396810D01*
X159029852Y-86534267D01*
X159029849Y-86534281D01*
X159012723Y-86642418D01*
X159010669Y-86656704D01*
X159010668Y-86656721D01*
X154931481Y-86656721D01*
X154931277Y-86642423D01*
X154928234Y-86623210D01*
X154914158Y-86534335D01*
X154914149Y-86534281D01*
X154914147Y-86534267D01*
X154911685Y-86520041D01*
X154865274Y-86383851D01*
X154815560Y-86286282D01*
X154815558Y-86286278D01*
X154814389Y-86284064D01*
X154808823Y-86273515D01*
X154722598Y-86158333D01*
X154645167Y-86080902D01*
X154634815Y-86070840D01*
X154517218Y-85987940D01*
X154419649Y-85938226D01*
X154406692Y-85931856D01*
X154406689Y-85931855D01*
X154269232Y-85889352D01*
X154269218Y-85889349D01*
X154161081Y-85872223D01*
X154146795Y-85870169D01*
X154146778Y-85870168D01*
X154002927Y-85872222D01*
X154002917Y-85872223D01*
X153894835Y-85889341D01*
X153880540Y-85891815D01*
X153744348Y-85938227D01*
X153646778Y-85987941D01*
X153634015Y-85994676D01*
X153634011Y-85994679D01*
X153549489Y-86057952D01*
X153484025Y-86082369D01*
X153415752Y-86067517D01*
X153387500Y-86046368D01*
X153316655Y-85975523D01*
X153144598Y-85860559D01*
X153139726Y-85858541D01*
X152953420Y-85781370D01*
X152953412Y-85781368D01*
X152750469Y-85741000D01*
X152750465Y-85741000D01*
X152543535Y-85741000D01*
X152543530Y-85741000D01*
X152340587Y-85781368D01*
X152340579Y-85781370D01*
X152149403Y-85860558D01*
X151977342Y-85975524D01*
X151831024Y-86121842D01*
X151716058Y-86293903D01*
X151636870Y-86485079D01*
X151636868Y-86485087D01*
X151596500Y-86688030D01*
X141034091Y-86688030D01*
X141091601Y-86630520D01*
X141178582Y-86492091D01*
X141232579Y-86337777D01*
X141236024Y-86307204D01*
X141250884Y-86175319D01*
X141250884Y-86175312D01*
X141232580Y-86012860D01*
X141232579Y-86012858D01*
X141232579Y-86012855D01*
X141178582Y-85858541D01*
X141091601Y-85720112D01*
X140975997Y-85604508D01*
X140837567Y-85517526D01*
X140683248Y-85463528D01*
X140520797Y-85445225D01*
X140520789Y-85445225D01*
X140358337Y-85463528D01*
X140204018Y-85517526D01*
X140065588Y-85604508D01*
X139949985Y-85720111D01*
X139863003Y-85858541D01*
X139809005Y-86012860D01*
X139790702Y-86175312D01*
X136035682Y-86175312D01*
X136039789Y-86168775D01*
X136093786Y-86014461D01*
X136093787Y-86014455D01*
X136112091Y-85852003D01*
X136112091Y-85851996D01*
X136093787Y-85689544D01*
X136093786Y-85689542D01*
X136093786Y-85689539D01*
X136039789Y-85535225D01*
X135952808Y-85396796D01*
X135837204Y-85281192D01*
X135743733Y-85222460D01*
X135698774Y-85194210D01*
X135544455Y-85140212D01*
X135382004Y-85121909D01*
X135381996Y-85121909D01*
X135219544Y-85140212D01*
X135065225Y-85194210D01*
X134926795Y-85281192D01*
X134811192Y-85396795D01*
X134724210Y-85535225D01*
X134670212Y-85689544D01*
X134651909Y-85851996D01*
X127191320Y-85851996D01*
X127172052Y-85447506D01*
X127114421Y-85046675D01*
X127018950Y-84653138D01*
X127016056Y-84644775D01*
X126906418Y-84327996D01*
X128301909Y-84327996D01*
X128301909Y-84328003D01*
X128320212Y-84490455D01*
X128374210Y-84644774D01*
X128461192Y-84783204D01*
X128576796Y-84898808D01*
X128715225Y-84985789D01*
X128869539Y-85039786D01*
X128869542Y-85039786D01*
X128869544Y-85039787D01*
X129031996Y-85058091D01*
X129032000Y-85058091D01*
X129032004Y-85058091D01*
X129194455Y-85039787D01*
X129194456Y-85039786D01*
X129194461Y-85039786D01*
X129348775Y-84985789D01*
X129487204Y-84898808D01*
X129602808Y-84783204D01*
X129689789Y-84644775D01*
X129743786Y-84490461D01*
X129761404Y-84334092D01*
X129788470Y-84269680D01*
X129846065Y-84230125D01*
X129915902Y-84227987D01*
X129975808Y-84263944D01*
X129981566Y-84270658D01*
X129985190Y-84275202D01*
X129985192Y-84275204D01*
X130100796Y-84390808D01*
X130239225Y-84477789D01*
X130393539Y-84531786D01*
X130393542Y-84531786D01*
X130393544Y-84531787D01*
X130555996Y-84550091D01*
X130556000Y-84550091D01*
X130556004Y-84550091D01*
X130718455Y-84531787D01*
X130718456Y-84531786D01*
X130718461Y-84531786D01*
X130872775Y-84477789D01*
X131011204Y-84390808D01*
X131126808Y-84275204D01*
X131213789Y-84136775D01*
X131267786Y-83982461D01*
X131267787Y-83982455D01*
X131286091Y-83820003D01*
X131286091Y-83819996D01*
X131267787Y-83657544D01*
X131267786Y-83657542D01*
X131267786Y-83657539D01*
X131213789Y-83503225D01*
X131126808Y-83364796D01*
X131011204Y-83249192D01*
X130872774Y-83162210D01*
X130718455Y-83108212D01*
X130556004Y-83089909D01*
X130555996Y-83089909D01*
X130393544Y-83108212D01*
X130239225Y-83162210D01*
X130100795Y-83249192D01*
X129985192Y-83364795D01*
X129898210Y-83503225D01*
X129844212Y-83657544D01*
X129826595Y-83813906D01*
X129799528Y-83878320D01*
X129741934Y-83917875D01*
X129672097Y-83920012D01*
X129612190Y-83884054D01*
X129606432Y-83877340D01*
X129602807Y-83872795D01*
X129487204Y-83757192D01*
X129348774Y-83670210D01*
X129194455Y-83616212D01*
X129032004Y-83597909D01*
X129031996Y-83597909D01*
X128869544Y-83616212D01*
X128715225Y-83670210D01*
X128576795Y-83757192D01*
X128461192Y-83872795D01*
X128374210Y-84011225D01*
X128320212Y-84165544D01*
X128301909Y-84327996D01*
X126906418Y-84327996D01*
X126886507Y-84270466D01*
X126886505Y-84270462D01*
X126883528Y-84263944D01*
X126718279Y-83902100D01*
X126701360Y-83872796D01*
X126515799Y-83551393D01*
X126515793Y-83551385D01*
X126280916Y-83221547D01*
X126280905Y-83221534D01*
X126015720Y-82915493D01*
X125722642Y-82636044D01*
X125404328Y-82385719D01*
X125213086Y-82262815D01*
X125167332Y-82210012D01*
X125157388Y-82140853D01*
X125186413Y-82077297D01*
X125245191Y-82039523D01*
X125280126Y-82034500D01*
X151569765Y-82034500D01*
X151636804Y-82054185D01*
G37*
%TD.AperFunction*%
%TD*%
M02*
