%TF.GenerationSoftware,KiCad,Pcbnew,8.0.4*%
%TF.CreationDate,2025-08-25T15:50:40-04:00*%
%TF.ProjectId,zephyrus_fc,7a657068-7972-4757-935f-66632e6b6963,V1.0*%
%TF.SameCoordinates,Original*%
%TF.FileFunction,Copper,L4,Bot*%
%TF.FilePolarity,Positive*%
%FSLAX46Y46*%
G04 Gerber Fmt 4.6, Leading zero omitted, Abs format (unit mm)*
G04 Created by KiCad (PCBNEW 8.0.4) date 2025-08-25 15:50:40*
%MOMM*%
%LPD*%
G01*
G04 APERTURE LIST*
%TA.AperFunction,ComponentPad*%
%ADD10R,1.700000X1.700000*%
%TD*%
%TA.AperFunction,ComponentPad*%
%ADD11O,1.700000X1.700000*%
%TD*%
%TA.AperFunction,ComponentPad*%
%ADD12O,2.000000X1.100000*%
%TD*%
%TA.AperFunction,ComponentPad*%
%ADD13O,1.800000X1.200000*%
%TD*%
%TA.AperFunction,ViaPad*%
%ADD14C,0.600000*%
%TD*%
%TA.AperFunction,ViaPad*%
%ADD15C,0.450000*%
%TD*%
%TA.AperFunction,Conductor*%
%ADD16C,0.200000*%
%TD*%
%TA.AperFunction,Conductor*%
%ADD17C,0.400000*%
%TD*%
G04 APERTURE END LIST*
D10*
%TO.P,J5,1,Pin_1*%
%TO.N,GND*%
X192024000Y-63852000D03*
D11*
%TO.P,J5,2,Pin_2*%
%TO.N,+5V*%
X189484000Y-63852000D03*
%TO.P,J5,3,Pin_3*%
%TO.N,/PC6*%
X186944000Y-63852000D03*
%TD*%
D10*
%TO.P,J4,1,Pin_1*%
%TO.N,GND*%
X182372000Y-68482000D03*
D11*
%TO.P,J4,2,Pin_2*%
%TO.N,+5V*%
X179832000Y-68482000D03*
%TO.P,J4,3,Pin_3*%
%TO.N,/PA8*%
X177292000Y-68482000D03*
%TD*%
D10*
%TO.P,J14,1,Pin_1*%
%TO.N,GND*%
X192024000Y-86614000D03*
D11*
%TO.P,J14,2,Pin_2*%
%TO.N,+5V*%
X189484000Y-86614000D03*
%TD*%
D10*
%TO.P,J8,1,Pin_1*%
%TO.N,GND*%
X192024000Y-77802000D03*
D11*
%TO.P,J8,2,Pin_2*%
%TO.N,+5V*%
X189484000Y-77802000D03*
%TO.P,J8,3,Pin_3*%
%TO.N,/IBUS_RX*%
X186944000Y-77802000D03*
%TD*%
D10*
%TO.P,J13,1,Pin_1*%
%TO.N,GND*%
X123190000Y-64008000D03*
D11*
%TO.P,J13,2,Pin_2*%
%TO.N,/PD3*%
X123190000Y-66548000D03*
%TO.P,J13,3,Pin_3*%
%TO.N,/PD4*%
X123190000Y-69088000D03*
%TO.P,J13,4,Pin_4*%
%TO.N,/PD5*%
X123190000Y-71628000D03*
%TO.P,J13,5,Pin_5*%
%TO.N,/PD6*%
X123190000Y-74168000D03*
%TO.P,J13,6,Pin_6*%
%TO.N,+5V*%
X123190000Y-76708000D03*
%TD*%
D10*
%TO.P,J12,1,Pin_1*%
%TO.N,GND*%
X119380000Y-64008000D03*
D11*
%TO.P,J12,2,Pin_2*%
%TO.N,/I2C1_SDA*%
X119380000Y-66548000D03*
%TO.P,J12,3,Pin_3*%
%TO.N,/I2C1_SCL*%
X119380000Y-69088000D03*
%TO.P,J12,4,Pin_4*%
%TO.N,/PE0*%
X119380000Y-71628000D03*
%TO.P,J12,5,Pin_5*%
%TO.N,/PE1*%
X119380000Y-74168000D03*
%TO.P,J12,6,Pin_6*%
%TO.N,+5V*%
X119380000Y-76708000D03*
%TD*%
D10*
%TO.P,J6,1,Pin_1*%
%TO.N,GND*%
X192024000Y-68502000D03*
D11*
%TO.P,J6,2,Pin_2*%
%TO.N,+5V*%
X189484000Y-68502000D03*
%TO.P,J6,3,Pin_3*%
%TO.N,/PC7*%
X186944000Y-68502000D03*
%TD*%
D10*
%TO.P,J11,1,Pin_1*%
%TO.N,+3.3V*%
X123952000Y-57912000D03*
D11*
%TO.P,J11,2,Pin_2*%
%TO.N,GND*%
X123952000Y-55372000D03*
%TO.P,J11,3,Pin_3*%
%TO.N,+3.3V*%
X126492000Y-57912000D03*
%TO.P,J11,4,Pin_4*%
%TO.N,GND*%
X126492000Y-55372000D03*
%TO.P,J11,5,Pin_5*%
%TO.N,+3.3V*%
X129032000Y-57912000D03*
%TO.P,J11,6,Pin_6*%
%TO.N,GND*%
X129032000Y-55372000D03*
%TO.P,J11,7,Pin_7*%
%TO.N,+3.3V*%
X131572000Y-57912000D03*
%TO.P,J11,8,Pin_8*%
%TO.N,GND*%
X131572000Y-55372000D03*
%TD*%
D12*
%TO.P,USB1,13,SHELL*%
%TO.N,GND*%
X109610000Y-70852000D03*
D13*
X105410000Y-70852000D03*
D12*
%TO.P,USB1,14,SHELL*%
X109610000Y-79502000D03*
D13*
X105410000Y-79502000D03*
%TD*%
D10*
%TO.P,J17,1,Pin_1*%
%TO.N,GND*%
X185166000Y-85852000D03*
D11*
%TO.P,J17,2,Pin_2*%
%TO.N,+5V*%
X185166000Y-83312000D03*
%TD*%
D10*
%TO.P,J7,1,Pin_1*%
%TO.N,GND*%
X192024000Y-73152000D03*
D11*
%TO.P,J7,2,Pin_2*%
%TO.N,+5V*%
X189484000Y-73152000D03*
%TO.P,J7,3,Pin_3*%
%TO.N,/PA9*%
X186944000Y-73152000D03*
%TD*%
D10*
%TO.P,J9,1,Pin_1*%
%TO.N,/PE2*%
X183642000Y-55372000D03*
D11*
%TO.P,J9,2,Pin_2*%
%TO.N,/INT_BMP*%
X183642000Y-57912000D03*
%TO.P,J9,3,Pin_3*%
%TO.N,/PE4*%
X181102000Y-55372000D03*
%TO.P,J9,4,Pin_4*%
%TO.N,/PE5*%
X181102000Y-57912000D03*
%TO.P,J9,5,Pin_5*%
%TO.N,/PE6*%
X178562000Y-55372000D03*
%TO.P,J9,6,Pin_6*%
%TO.N,/PC13*%
X178562000Y-57912000D03*
%TO.P,J9,7,Pin_7*%
%TO.N,/PC14*%
X176022000Y-55372000D03*
%TO.P,J9,8,Pin_8*%
%TO.N,/PC15*%
X176022000Y-57912000D03*
%TO.P,J9,9,Pin_9*%
%TO.N,/PC0*%
X173482000Y-55372000D03*
%TO.P,J9,10,Pin_10*%
%TO.N,/PC1*%
X173482000Y-57912000D03*
%TO.P,J9,11,Pin_11*%
%TO.N,/PC2*%
X170942000Y-55372000D03*
%TO.P,J9,12,Pin_12*%
%TO.N,/PC3*%
X170942000Y-57912000D03*
%TO.P,J9,13,Pin_13*%
%TO.N,/PA0*%
X168402000Y-55372000D03*
%TO.P,J9,14,Pin_14*%
%TO.N,/IBUS_RX*%
X168402000Y-57912000D03*
%TO.P,J9,15,Pin_15*%
%TO.N,/PA2*%
X165862000Y-55372000D03*
%TO.P,J9,16,Pin_16*%
%TO.N,/PA3*%
X165862000Y-57912000D03*
%TO.P,J9,17,Pin_17*%
%TO.N,/INT1_BMI*%
X163322000Y-55372000D03*
%TO.P,J9,18,Pin_18*%
%TO.N,/PA5*%
X163322000Y-57912000D03*
%TO.P,J9,19,Pin_19*%
%TO.N,/PA6*%
X160782000Y-55372000D03*
%TO.P,J9,20,Pin_20*%
%TO.N,/PA7*%
X160782000Y-57912000D03*
%TO.P,J9,21,Pin_21*%
%TO.N,/I2C1_SCL*%
X158242000Y-55372000D03*
%TO.P,J9,22,Pin_22*%
%TO.N,/I2C1_SDA*%
X158242000Y-57912000D03*
%TO.P,J9,23,Pin_23*%
%TO.N,/PE0*%
X155702000Y-55372000D03*
%TO.P,J9,24,Pin_24*%
%TO.N,/PE1*%
X155702000Y-57912000D03*
%TO.P,J9,25,Pin_25*%
%TO.N,/PC4*%
X153162000Y-55372000D03*
%TO.P,J9,26,Pin_26*%
%TO.N,/PC5*%
X153162000Y-57912000D03*
%TO.P,J9,27,Pin_27*%
%TO.N,/INT3_BMI*%
X150622000Y-55372000D03*
%TO.P,J9,28,Pin_28*%
%TO.N,/PB1*%
X150622000Y-57912000D03*
%TO.P,J9,29,Pin_29*%
%TO.N,/PB2*%
X148082000Y-55372000D03*
%TO.P,J9,30,Pin_30*%
%TO.N,/PE7*%
X148082000Y-57912000D03*
%TO.P,J9,31,Pin_31*%
%TO.N,/PE8*%
X145542000Y-55372000D03*
%TO.P,J9,32,Pin_32*%
%TO.N,/PE9*%
X145542000Y-57912000D03*
%TO.P,J9,33,Pin_33*%
%TO.N,/PE10*%
X143002000Y-55372000D03*
%TO.P,J9,34,Pin_34*%
%TO.N,/PE11*%
X143002000Y-57912000D03*
%TO.P,J9,35,Pin_35*%
%TO.N,/PE12*%
X140462000Y-55372000D03*
%TO.P,J9,36,Pin_36*%
%TO.N,/PE13*%
X140462000Y-57912000D03*
%TO.P,J9,37,Pin_37*%
%TO.N,/PE14*%
X137922000Y-55372000D03*
%TO.P,J9,38,Pin_38*%
%TO.N,/PE15*%
X137922000Y-57912000D03*
%TO.P,J9,39,Pin_39*%
%TO.N,/I2C2_SCL*%
X135382000Y-55372000D03*
%TO.P,J9,40,Pin_40*%
%TO.N,/I2C2_SDA*%
X135382000Y-57912000D03*
%TD*%
D10*
%TO.P,J2,1,Pin_1*%
%TO.N,GND*%
X192024000Y-82296000D03*
D11*
%TO.P,J2,2,Pin_2*%
%TO.N,+5V*%
X189484000Y-82296000D03*
%TD*%
D10*
%TO.P,J3,1,Pin_1*%
%TO.N,GND*%
X182372000Y-63832000D03*
D11*
%TO.P,J3,2,Pin_2*%
%TO.N,+5V*%
X179832000Y-63832000D03*
%TO.P,J3,3,Pin_3*%
%TO.N,/PB6*%
X177292000Y-63832000D03*
%TD*%
D10*
%TO.P,J15,1,Pin_1*%
%TO.N,GND*%
X130556000Y-64008000D03*
D11*
%TO.P,J15,2,Pin_2*%
%TO.N,/I2C2_SDA*%
X130556000Y-66548000D03*
%TO.P,J15,3,Pin_3*%
%TO.N,/I2C2_SCL*%
X130556000Y-69088000D03*
%TO.P,J15,4,Pin_4*%
%TO.N,+5V*%
X130556000Y-71628000D03*
%TD*%
D10*
%TO.P,J16,1,Pin_1*%
%TO.N,GND*%
X126844000Y-64008000D03*
D11*
%TO.P,J16,2,Pin_2*%
%TO.N,/I2C4_SDA*%
X126844000Y-66548000D03*
%TO.P,J16,3,Pin_3*%
%TO.N,/I2C4_SCL*%
X126844000Y-69088000D03*
%TO.P,J16,4,Pin_4*%
%TO.N,+5V*%
X126844000Y-71628000D03*
%TD*%
D10*
%TO.P,J10,1,Pin_1*%
%TO.N,/PB7*%
X162052000Y-92456000D03*
D11*
%TO.P,J10,2,Pin_2*%
%TO.N,/PB6*%
X162052000Y-94996000D03*
%TO.P,J10,3,Pin_3*%
%TO.N,/PB5*%
X159512000Y-92456000D03*
%TO.P,J10,4,Pin_4*%
%TO.N,/PB4*%
X159512000Y-94996000D03*
%TO.P,J10,5,Pin_5*%
%TO.N,/PB3*%
X156972000Y-92456000D03*
%TO.P,J10,6,Pin_6*%
%TO.N,/PD7*%
X156972000Y-94996000D03*
%TO.P,J10,7,Pin_7*%
%TO.N,/PD6*%
X154432000Y-92456000D03*
%TO.P,J10,8,Pin_8*%
%TO.N,/PD5*%
X154432000Y-94996000D03*
%TO.P,J10,9,Pin_9*%
%TO.N,/PD4*%
X151892000Y-92456000D03*
%TO.P,J10,10,Pin_10*%
%TO.N,/PD3*%
X151892000Y-94996000D03*
%TO.P,J10,11,Pin_11*%
%TO.N,/PD2*%
X149352000Y-92456000D03*
%TO.P,J10,12,Pin_12*%
%TO.N,/PD1*%
X149352000Y-94996000D03*
%TO.P,J10,13,Pin_13*%
%TO.N,/PD0*%
X146812000Y-92456000D03*
%TO.P,J10,14,Pin_14*%
%TO.N,/PC12*%
X146812000Y-94996000D03*
%TO.P,J10,15,Pin_15*%
%TO.N,/PC11*%
X144272000Y-92456000D03*
%TO.P,J10,16,Pin_16*%
%TO.N,/PC10*%
X144272000Y-94996000D03*
%TO.P,J10,17,Pin_17*%
%TO.N,/PA15*%
X141732000Y-92456000D03*
%TO.P,J10,18,Pin_18*%
%TO.N,/PA14*%
X141732000Y-94996000D03*
%TO.P,J10,19,Pin_19*%
%TO.N,/PA13*%
X139192000Y-92456000D03*
%TO.P,J10,20,Pin_20*%
%TO.N,unconnected-(J10-Pin_20-Pad20)*%
X139192000Y-94996000D03*
%TO.P,J10,21,Pin_21*%
%TO.N,unconnected-(J10-Pin_21-Pad21)*%
X136652000Y-92456000D03*
%TO.P,J10,22,Pin_22*%
%TO.N,/PA10*%
X136652000Y-94996000D03*
%TO.P,J10,23,Pin_23*%
%TO.N,/PA9*%
X134112000Y-92456000D03*
%TO.P,J10,24,Pin_24*%
%TO.N,/PA8*%
X134112000Y-94996000D03*
%TO.P,J10,25,Pin_25*%
%TO.N,/PC9*%
X131572000Y-92456000D03*
%TO.P,J10,26,Pin_26*%
%TO.N,/PC8*%
X131572000Y-94996000D03*
%TO.P,J10,27,Pin_27*%
%TO.N,/PC7*%
X129032000Y-92456000D03*
%TO.P,J10,28,Pin_28*%
%TO.N,/PC6*%
X129032000Y-94996000D03*
%TO.P,J10,29,Pin_29*%
%TO.N,/PD15*%
X126492000Y-92456000D03*
%TO.P,J10,30,Pin_30*%
%TO.N,/PD14*%
X126492000Y-94996000D03*
%TO.P,J10,31,Pin_31*%
%TO.N,/I2C4_SDA*%
X123952000Y-92456000D03*
%TO.P,J10,32,Pin_32*%
%TO.N,/I2C4_SCL*%
X123952000Y-94996000D03*
%TO.P,J10,33,Pin_33*%
%TO.N,/PD11*%
X121412000Y-92456000D03*
%TO.P,J10,34,Pin_34*%
%TO.N,/PD10*%
X121412000Y-94996000D03*
%TO.P,J10,35,Pin_35*%
%TO.N,/PD9*%
X118872000Y-92456000D03*
%TO.P,J10,36,Pin_36*%
%TO.N,/INT_ICM*%
X118872000Y-94996000D03*
%TO.P,J10,37,Pin_37*%
%TO.N,/PB15*%
X116332000Y-92456000D03*
%TO.P,J10,38,Pin_38*%
%TO.N,/PB14*%
X116332000Y-94996000D03*
%TO.P,J10,39,Pin_39*%
%TO.N,/PB13*%
X113792000Y-92456000D03*
%TO.P,J10,40,Pin_40*%
%TO.N,/PB12*%
X113792000Y-94996000D03*
%TD*%
D10*
%TO.P,J1,1,Pin_1*%
%TO.N,/PA14*%
X172212000Y-73152000D03*
D11*
%TO.P,J1,2,Pin_2*%
%TO.N,/PA13*%
X174752000Y-73152000D03*
%TO.P,J1,3,Pin_3*%
%TO.N,GND*%
X177292000Y-73152000D03*
%TO.P,J1,4,Pin_4*%
%TO.N,+3.3V*%
X179832000Y-73152000D03*
%TO.P,J1,5,Pin_5*%
%TO.N,/boot0*%
X182372000Y-73152000D03*
%TD*%
D14*
%TO.N,GND*%
X132842000Y-64008000D03*
X157734000Y-73406000D03*
X159230000Y-69088000D03*
X180340000Y-91694000D03*
X160020000Y-82296000D03*
X154592000Y-82496000D03*
X109062365Y-67316544D03*
X154432000Y-60960000D03*
D15*
X158266000Y-76682000D03*
X158266000Y-79476000D03*
X153162000Y-83854000D03*
D14*
X167132000Y-91694000D03*
D15*
X159917000Y-78587000D03*
X104392000Y-85344000D03*
D14*
X165862000Y-83312000D03*
X114142365Y-61982544D03*
D15*
X179324000Y-78740000D03*
D14*
X180594000Y-83566000D03*
X172212000Y-77310890D03*
D15*
X135394000Y-80250000D03*
D14*
X157099000Y-61595000D03*
D15*
X153162000Y-67004000D03*
X161314000Y-71602000D03*
D14*
X159766000Y-60935466D03*
D15*
X140560193Y-64292000D03*
D14*
%TO.N,+3.3V*%
X133858000Y-64008000D03*
D15*
X110742000Y-85344000D03*
D14*
X107126091Y-65024000D03*
X156210000Y-63754000D03*
X108492368Y-65030544D03*
D15*
X139446000Y-66040000D03*
D14*
X173116471Y-77310890D03*
X160274000Y-63246000D03*
D15*
X112776000Y-56896000D03*
X162052000Y-85953000D03*
D14*
X160274000Y-80518000D03*
D15*
X151892000Y-73660000D03*
X156996000Y-79984000D03*
D14*
X107792365Y-65030544D03*
D15*
X154456000Y-66268000D03*
X150876000Y-84074000D03*
D14*
X137210000Y-81534000D03*
X157988000Y-69088000D03*
%TO.N,/PA15*%
X140970000Y-81280000D03*
X166878000Y-80010000D03*
%TO.N,/PC8*%
X168910000Y-80010000D03*
X141224000Y-76200000D03*
%TO.N,/PC9*%
X140462000Y-76504000D03*
X167894000Y-80010000D03*
%TO.N,/PC10*%
X143256000Y-79664000D03*
X175768000Y-80010000D03*
D15*
%TO.N,/boot0*%
X162306000Y-90170000D03*
X165862000Y-89408000D03*
D14*
%TO.N,/PD2*%
X143510000Y-81026000D03*
X173482000Y-80010000D03*
%TO.N,/PC11*%
X174498000Y-80010000D03*
X142469822Y-80264000D03*
%TO.N,/PC12*%
X142748000Y-81280000D03*
X171196000Y-80010000D03*
D15*
%TO.N,/PA14*%
X177292000Y-77978000D03*
X164338000Y-91186000D03*
%TO.N,/PA13*%
X164592000Y-94234000D03*
X139700000Y-81788000D03*
%TO.N,/PC6*%
X162052000Y-69342000D03*
X172974000Y-65024000D03*
X149352000Y-70612000D03*
%TO.N,/PC7*%
X169164000Y-69342000D03*
X161798000Y-70104000D03*
X149606000Y-71374000D03*
%TO.N,/PA9*%
X170688000Y-67310000D03*
X163576000Y-67564000D03*
X151384000Y-70866000D03*
%TO.N,/PD4*%
X144780000Y-77978000D03*
%TO.N,/PE4*%
X151130000Y-80264000D03*
D14*
X157226000Y-84074000D03*
%TO.N,/PA11*%
X136789499Y-78504000D03*
X112236485Y-75215515D03*
D15*
%TO.N,/PE1*%
X148082000Y-77724000D03*
X150622000Y-76200000D03*
X140335000Y-78105000D03*
D14*
%TO.N,/INT_BMP*%
X157988000Y-84582000D03*
D15*
X151638000Y-81026000D03*
%TO.N,/PE5*%
X151130000Y-79248000D03*
D14*
X156010541Y-84215068D03*
D15*
%TO.N,/PD3*%
X144018000Y-78994000D03*
%TO.N,/PD6*%
X143256000Y-77978000D03*
%TO.N,/PC0*%
X152954000Y-74214000D03*
D14*
%TO.N,/PE6*%
X155194000Y-84582000D03*
D15*
X151638000Y-78486000D03*
%TO.N,/PC15*%
X152654000Y-75692000D03*
D14*
%TO.N,/PC5*%
X155702000Y-61214000D03*
X149352000Y-68834000D03*
%TO.N,/PB14*%
X138430000Y-67172178D03*
X140378265Y-69512265D03*
%TO.N,/PA5*%
X151182000Y-65532000D03*
X158242000Y-63754000D03*
%TO.N,/PA12*%
X111506000Y-76454000D03*
X137414000Y-79004000D03*
D15*
%TO.N,/PC14*%
X152146000Y-76708000D03*
%TO.N,/PE2*%
X152654000Y-81153000D03*
%TO.N,/IBUS_RX*%
X183642000Y-60960000D03*
X184658000Y-66294000D03*
X170688000Y-60706000D03*
%TO.N,/PD5*%
X143002000Y-78753756D03*
%TO.N,/PC13*%
X151892000Y-77470000D03*
D14*
%TO.N,+5V*%
X138430000Y-87376000D03*
X107188000Y-78486000D03*
X139954000Y-87630000D03*
D15*
%TO.N,/PE0*%
X149860000Y-76962000D03*
X140462000Y-78994000D03*
X146812000Y-77470000D03*
%TO.N,/PC1*%
X152908000Y-73152000D03*
D14*
%TO.N,/PC4*%
X150884938Y-69239444D03*
X154169375Y-63270002D03*
%TO.N,/INT3_BMI*%
X154818000Y-63754000D03*
X150070735Y-69385265D03*
D15*
%TO.N,/I2C1_SCL*%
X150114000Y-74676000D03*
%TO.N,/I2C1_SDA*%
X151130000Y-74676000D03*
X133350000Y-59690000D03*
%TO.N,/I2C4_SCL*%
X140462000Y-72390000D03*
%TO.N,/I2C4_SDA*%
X141224000Y-71628000D03*
%TD*%
D16*
%TO.N,/PA15*%
X159087483Y-87376000D02*
X147066000Y-87376000D01*
X166878000Y-80010000D02*
X166453483Y-80010000D01*
X147066000Y-87376000D02*
X140970000Y-81280000D01*
X166453483Y-80010000D02*
X159087483Y-87376000D01*
%TO.N,/PC8*%
X147314380Y-86776356D02*
X158839103Y-86776356D01*
X142240000Y-79645293D02*
X141869822Y-80015471D01*
X166505281Y-79110178D02*
X168010178Y-79110178D01*
X158839103Y-86776356D02*
X166505281Y-79110178D01*
X141869822Y-80753293D02*
X142148000Y-81031471D01*
X141224000Y-76200000D02*
X141224000Y-76841988D01*
X142240000Y-78415768D02*
X142240000Y-79645293D01*
X142148000Y-81031471D02*
X142148000Y-81609976D01*
X142148000Y-81609976D02*
X147314380Y-86776356D01*
X141686178Y-77304166D02*
X141686178Y-77861946D01*
X141224000Y-76841988D02*
X141686178Y-77304166D01*
X141869822Y-80015471D02*
X141869822Y-80753293D01*
X141686178Y-77861946D02*
X142240000Y-78415768D01*
X168010178Y-79110178D02*
X168910000Y-80010000D01*
%TO.N,/PC9*%
X167294000Y-79410000D02*
X167894000Y-80010000D01*
X140462000Y-76504000D02*
X141386356Y-77428356D01*
X166629471Y-79410000D02*
X167294000Y-79410000D01*
X141570000Y-79891281D02*
X141570000Y-80877483D01*
X141848178Y-81734166D02*
X147190190Y-87076178D01*
X141848178Y-81155661D02*
X141848178Y-81734166D01*
X147190190Y-87076178D02*
X158963293Y-87076178D01*
X141940178Y-78539958D02*
X141940178Y-79521103D01*
X141386356Y-77986136D02*
X141940178Y-78539958D01*
X158963293Y-87076178D02*
X166629471Y-79410000D01*
X141386356Y-77428356D02*
X141386356Y-77986136D01*
X141940178Y-79521103D02*
X141570000Y-79891281D01*
X141570000Y-80877483D02*
X141848178Y-81155661D01*
%TO.N,/PC10*%
X144228719Y-79964178D02*
X145171822Y-80907281D01*
X143256000Y-79664000D02*
X143556178Y-79964178D01*
X166008521Y-77910890D02*
X173668890Y-77910890D01*
X145171822Y-82937750D02*
X147811140Y-85577068D01*
X143556178Y-79964178D02*
X144228719Y-79964178D01*
X145171822Y-80907281D02*
X145171822Y-82937750D01*
X173668890Y-77910890D02*
X175768000Y-80010000D01*
X158342343Y-85577068D02*
X166008521Y-77910890D01*
X147811140Y-85577068D02*
X158342343Y-85577068D01*
%TO.N,/boot0*%
X162306000Y-90170000D02*
X163068000Y-89408000D01*
X163068000Y-89408000D02*
X165862000Y-89408000D01*
%TO.N,/PD2*%
X166256901Y-78510534D02*
X171982534Y-78510534D01*
X143510000Y-82123952D02*
X147562760Y-86176712D01*
X147562760Y-86176712D02*
X158590723Y-86176712D01*
X158590723Y-86176712D02*
X166256901Y-78510534D01*
X171982534Y-78510534D02*
X173482000Y-80010000D01*
X143510000Y-81026000D02*
X143510000Y-82123952D01*
%TO.N,/PC11*%
X158466533Y-85876890D02*
X147686950Y-85876890D01*
X172698712Y-78210712D02*
X166132711Y-78210712D01*
X144104529Y-80264000D02*
X142469822Y-80264000D01*
X144872000Y-83061940D02*
X144872000Y-81031471D01*
X147686950Y-85876890D02*
X144872000Y-83061940D01*
X166132711Y-78210712D02*
X158466533Y-85876890D01*
X174498000Y-80010000D02*
X172698712Y-78210712D01*
X144872000Y-81031471D02*
X144104529Y-80264000D01*
%TO.N,/PC12*%
X171196000Y-80010000D02*
X169996356Y-78810356D01*
X142748000Y-81785964D02*
X142748000Y-81280000D01*
X169996356Y-78810356D02*
X166381091Y-78810356D01*
X147438570Y-86476534D02*
X142748000Y-81785964D01*
X166381091Y-78810356D02*
X158714913Y-86476534D01*
X158714913Y-86476534D02*
X147438570Y-86476534D01*
%TO.N,/PA14*%
X164338000Y-92470000D02*
X162962000Y-93846000D01*
X164338000Y-91186000D02*
X164338000Y-92470000D01*
X172212000Y-73152000D02*
X172466000Y-73152000D01*
X142882000Y-93846000D02*
X141732000Y-94996000D01*
X172466000Y-73152000D02*
X177292000Y-77978000D01*
X162962000Y-93846000D02*
X142882000Y-93846000D01*
%TO.N,/PA13*%
X139700000Y-81788000D02*
X139192000Y-82296000D01*
X162680000Y-96146000D02*
X141255654Y-96146000D01*
X141255654Y-96146000D02*
X140462000Y-95352346D01*
X164592000Y-94234000D02*
X162680000Y-96146000D01*
X140462000Y-93726000D02*
X139192000Y-92456000D01*
X140462000Y-95352346D02*
X140462000Y-93726000D01*
X139192000Y-82296000D02*
X139192000Y-92456000D01*
%TO.N,/PC6*%
X150114000Y-70612000D02*
X151130000Y-71628000D01*
X161290000Y-69342000D02*
X162052000Y-69342000D01*
X172974000Y-65024000D02*
X175006000Y-67056000D01*
X175006000Y-67056000D02*
X185166000Y-67056000D01*
X185166000Y-67056000D02*
X186944000Y-65278000D01*
X159004000Y-71628000D02*
X161290000Y-69342000D01*
X149352000Y-70612000D02*
X150114000Y-70612000D01*
X186944000Y-65278000D02*
X186944000Y-63852000D01*
X151130000Y-71628000D02*
X159004000Y-71628000D01*
%TO.N,/PC7*%
X158920012Y-72136000D02*
X160952012Y-70104000D01*
X176784000Y-70358000D02*
X185088000Y-70358000D01*
X151130000Y-72136000D02*
X158920012Y-72136000D01*
X150368000Y-71374000D02*
X151130000Y-72136000D01*
X160952012Y-70104000D02*
X161798000Y-70104000D01*
X185088000Y-70358000D02*
X186944000Y-68502000D01*
X169164000Y-69342000D02*
X175768000Y-69342000D01*
X149606000Y-71374000D02*
X150368000Y-71374000D01*
X175768000Y-69342000D02*
X176784000Y-70358000D01*
%TO.N,/PA9*%
X188094000Y-72002000D02*
X186944000Y-73152000D01*
X151638000Y-70612000D02*
X159595988Y-70612000D01*
X170688000Y-67310000D02*
X174160012Y-67310000D01*
X187420346Y-67352000D02*
X188094000Y-68025654D01*
X151384000Y-70866000D02*
X151638000Y-70612000D01*
X174160012Y-67310000D02*
X176908190Y-70058178D01*
X159595988Y-70612000D02*
X162643988Y-67564000D01*
X186467654Y-67352000D02*
X187420346Y-67352000D01*
X188094000Y-68025654D02*
X188094000Y-72002000D01*
X176908190Y-70058178D02*
X183761476Y-70058178D01*
X183761476Y-70058178D02*
X186467654Y-67352000D01*
X162643988Y-67564000D02*
X163576000Y-67564000D01*
%TO.N,/PD4*%
X124714000Y-73914000D02*
X124714000Y-70612000D01*
X143423400Y-74958356D02*
X125758356Y-74958356D01*
X144780000Y-76314956D02*
X143423400Y-74958356D01*
X124714000Y-70612000D02*
X123190000Y-69088000D01*
X144780000Y-77978000D02*
X144780000Y-76314956D01*
X125758356Y-74958356D02*
X124714000Y-73914000D01*
%TO.N,/PE4*%
X157226000Y-84074000D02*
X156718000Y-84074000D01*
X156455756Y-80264000D02*
X156755756Y-80564000D01*
X182252000Y-56522000D02*
X181102000Y-55372000D01*
X156718000Y-84074000D02*
X156210000Y-83566000D01*
X175622760Y-60261288D02*
X180379058Y-60261288D01*
X158846000Y-79716244D02*
X158846000Y-78618292D01*
X154118256Y-83566000D02*
X152802434Y-82250178D01*
X160045288Y-77419004D02*
X160045288Y-75838760D01*
X152802434Y-82250178D02*
X152041934Y-82250178D01*
X156210000Y-83566000D02*
X154118256Y-83566000D01*
X151058000Y-81266244D02*
X151058000Y-80336000D01*
X156755756Y-80564000D02*
X157998244Y-80564000D01*
X151130000Y-80264000D02*
X156455756Y-80264000D01*
X160045288Y-75838760D02*
X175622760Y-60261288D01*
X157998244Y-80564000D02*
X158846000Y-79716244D01*
X182252000Y-58388346D02*
X182252000Y-56522000D01*
X152041934Y-82250178D02*
X151058000Y-81266244D01*
X180379058Y-60261288D02*
X182252000Y-58388346D01*
X158846000Y-78618292D02*
X160045288Y-77419004D01*
X151058000Y-80336000D02*
X151130000Y-80264000D01*
%TO.N,/PA11*%
X136789499Y-78504000D02*
X113556000Y-78504000D01*
X112236485Y-77184485D02*
X112236485Y-75215515D01*
X113556000Y-78504000D02*
X112236485Y-77184485D01*
%TO.N,/PE1*%
X122713654Y-77858000D02*
X119380000Y-74524346D01*
X140335000Y-78105000D02*
X139192000Y-76962000D01*
X119380000Y-74524346D02*
X119380000Y-74168000D01*
X150622000Y-77020244D02*
X150622000Y-76200000D01*
X149918244Y-77724000D02*
X150622000Y-77020244D01*
X147619822Y-65994178D02*
X155702000Y-57912000D01*
X150622000Y-76200000D02*
X147619822Y-73197822D01*
X139192000Y-76962000D02*
X124562346Y-76962000D01*
X147619822Y-73197822D02*
X147619822Y-65994178D01*
X148082000Y-77724000D02*
X149918244Y-77724000D01*
X123666346Y-77858000D02*
X122713654Y-77858000D01*
X124562346Y-76962000D02*
X123666346Y-77858000D01*
%TO.N,/INT_BMP*%
X151638000Y-81026000D02*
X152100178Y-80563822D01*
X160497000Y-75811060D02*
X175746950Y-60561110D01*
X152100178Y-80563822D02*
X156331566Y-80563822D01*
X156331566Y-80563822D02*
X156631566Y-80863822D01*
X160497000Y-78827244D02*
X160497000Y-75811060D01*
X156631566Y-80863822D02*
X158460422Y-80863822D01*
X156155000Y-81733000D02*
X152345000Y-81733000D01*
X175746950Y-60561110D02*
X180992890Y-60561110D01*
X158460422Y-80863822D02*
X160497000Y-78827244D01*
X157988000Y-84582000D02*
X157988000Y-83566000D01*
X152345000Y-81733000D02*
X151638000Y-81026000D01*
X180992890Y-60561110D02*
X183642000Y-57912000D01*
X157988000Y-83566000D02*
X156155000Y-81733000D01*
%TO.N,/PE5*%
X155791756Y-78896000D02*
X158144280Y-78896000D01*
X153742000Y-83613756D02*
X152678244Y-82550000D01*
X150550000Y-81208000D02*
X150550000Y-79828000D01*
X156010541Y-84215068D02*
X155661295Y-83865822D01*
X150550000Y-79828000D02*
X151130000Y-79248000D01*
X153969822Y-83865822D02*
X153742000Y-83638000D01*
X179052534Y-59961466D02*
X181102000Y-57912000D01*
X153742000Y-83638000D02*
X153742000Y-83613756D01*
X159745466Y-77294814D02*
X159745466Y-75714570D01*
X152678244Y-82550000D02*
X151892000Y-82550000D01*
X155439756Y-79248000D02*
X155791756Y-78896000D01*
X159745466Y-75714570D02*
X175498570Y-59961466D01*
X151892000Y-82550000D02*
X150550000Y-81208000D01*
X158144280Y-78896000D02*
X159745466Y-77294814D01*
X151130000Y-79248000D02*
X155439756Y-79248000D01*
X155661295Y-83865822D02*
X153969822Y-83865822D01*
X175498570Y-59961466D02*
X179052534Y-59961466D01*
%TO.N,/PD3*%
X144018000Y-78994000D02*
X144454000Y-78558000D01*
X144454000Y-78558000D02*
X145020244Y-78558000D01*
X143547590Y-74658534D02*
X127254000Y-74658534D01*
X125694000Y-69052000D02*
X123190000Y-66548000D01*
X145360000Y-77737756D02*
X145079822Y-77457578D01*
X127254000Y-74658534D02*
X125694000Y-73098534D01*
X145079822Y-76190766D02*
X143547590Y-74658534D01*
X145360000Y-78218244D02*
X145360000Y-77737756D01*
X145079822Y-77457578D02*
X145079822Y-76190766D01*
X145020244Y-78558000D02*
X145360000Y-78218244D01*
X125694000Y-73098534D02*
X125694000Y-69052000D01*
%TO.N,/PD6*%
X142123822Y-75827281D02*
X141554719Y-75258178D01*
X124280178Y-75258178D02*
X123190000Y-74168000D01*
X142123822Y-76541810D02*
X142123822Y-75827281D01*
X143256000Y-77978000D02*
X142748000Y-77978000D01*
X142285822Y-76703810D02*
X142123822Y-76541810D01*
X141554719Y-75258178D02*
X124280178Y-75258178D01*
X142748000Y-77978000D02*
X142285822Y-77515822D01*
X142285822Y-77515822D02*
X142285822Y-76703810D01*
%TO.N,/PC0*%
X153162000Y-74422000D02*
X157673756Y-74422000D01*
X161073756Y-71022000D02*
X162290232Y-71022000D01*
X174632000Y-56522000D02*
X173482000Y-55372000D01*
X157673756Y-74422000D02*
X161073756Y-71022000D01*
X152954000Y-74214000D02*
X153162000Y-74422000D01*
X162290232Y-71022000D02*
X174632000Y-58680232D01*
X174632000Y-58680232D02*
X174632000Y-56522000D01*
%TO.N,/PE6*%
X159445644Y-77170624D02*
X159445644Y-75590380D01*
X177236368Y-59661644D02*
X177836012Y-59062000D01*
X159445644Y-75590380D02*
X175374380Y-59661644D01*
X151638000Y-78486000D02*
X151683822Y-78531822D01*
X179712000Y-58388346D02*
X179712000Y-56522000D01*
X155194000Y-84582000D02*
X153069756Y-84582000D01*
X179712000Y-56522000D02*
X178562000Y-55372000D01*
X175374380Y-59661644D02*
X177236368Y-59661644D01*
X179038346Y-59062000D02*
X179712000Y-58388346D01*
X153069756Y-84582000D02*
X150250178Y-81762422D01*
X150250178Y-79307578D02*
X151071756Y-78486000D01*
X151071756Y-78486000D02*
X151638000Y-78486000D01*
X158084446Y-78531822D02*
X159445644Y-77170624D01*
X177836012Y-59062000D02*
X179038346Y-59062000D01*
X150250178Y-81762422D02*
X150250178Y-79307578D01*
X151683822Y-78531822D02*
X158084446Y-78531822D01*
%TO.N,/PC15*%
X153162000Y-76200000D02*
X157734000Y-76200000D01*
X157734000Y-76200000D02*
X158546178Y-75387822D01*
X161554244Y-72182000D02*
X175824244Y-57912000D01*
X152654000Y-75692000D02*
X153162000Y-76200000D01*
X175824244Y-57912000D02*
X176022000Y-57912000D01*
X161554244Y-72209744D02*
X161554244Y-72182000D01*
X158546178Y-75387822D02*
X158546178Y-75217810D01*
X158546178Y-75217810D02*
X161554244Y-72209744D01*
%TO.N,/PC5*%
X155702000Y-61214000D02*
X154545820Y-62370180D01*
X154545820Y-62370180D02*
X152733291Y-62370180D01*
X152733291Y-62370180D02*
X149352000Y-65751471D01*
X149352000Y-65751471D02*
X149352000Y-68834000D01*
%TO.N,/PB14*%
X138430000Y-67172178D02*
X140378265Y-69120443D01*
X140378265Y-69120443D02*
X140378265Y-69512265D01*
%TO.N,/PA5*%
X157158002Y-62670002D02*
X158242000Y-63754000D01*
X153920846Y-62670002D02*
X157158002Y-62670002D01*
X151182000Y-65532000D02*
X151182000Y-65408848D01*
X151182000Y-65408848D02*
X153920846Y-62670002D01*
%TO.N,/PA12*%
X111506000Y-76454000D02*
X111506000Y-76962000D01*
X136540970Y-79104000D02*
X137314000Y-79104000D01*
X136240792Y-78803822D02*
X136540970Y-79104000D01*
X137314000Y-79104000D02*
X137414000Y-79004000D01*
X111506000Y-76962000D02*
X113347822Y-78803822D01*
X113347822Y-78803822D02*
X136240792Y-78803822D01*
%TO.N,/PC14*%
X175126000Y-59062000D02*
X176498346Y-59062000D01*
X176498346Y-59062000D02*
X177172000Y-58388346D01*
X158846000Y-75342000D02*
X175126000Y-59062000D01*
X158846000Y-76922244D02*
X158846000Y-75342000D01*
X152699822Y-77261822D02*
X158506422Y-77261822D01*
X158506422Y-77261822D02*
X158846000Y-76922244D01*
X177172000Y-56522000D02*
X176022000Y-55372000D01*
X152146000Y-76708000D02*
X152699822Y-77261822D01*
X177172000Y-58388346D02*
X177172000Y-56522000D01*
%TO.N,/PE2*%
X184792000Y-58388346D02*
X184792000Y-56522000D01*
X158468256Y-81280000D02*
X160796822Y-78951434D01*
X182319414Y-60860932D02*
X184792000Y-58388346D01*
X152781000Y-81280000D02*
X158468256Y-81280000D01*
X152654000Y-81153000D02*
X152781000Y-81280000D01*
X160796822Y-75935250D02*
X175871140Y-60860932D01*
X184792000Y-56522000D02*
X183642000Y-55372000D01*
X160796822Y-78951434D02*
X160796822Y-75935250D01*
X175871140Y-60860932D02*
X182319414Y-60860932D01*
%TO.N,/IBUS_RX*%
X170688000Y-60706000D02*
X169926000Y-59944000D01*
X184404000Y-66040000D02*
X184658000Y-66294000D01*
X169926000Y-59944000D02*
X169926000Y-59436000D01*
X169926000Y-59436000D02*
X168402000Y-57912000D01*
X183642000Y-60960000D02*
X184404000Y-61722000D01*
X184404000Y-61722000D02*
X184404000Y-66040000D01*
%TO.N,/PD5*%
X141986000Y-76828000D02*
X141824000Y-76666000D01*
X143002000Y-78753756D02*
X141986000Y-77737756D01*
X141986000Y-77737756D02*
X141986000Y-76828000D01*
X122953654Y-75558000D02*
X122040000Y-74644346D01*
X141430529Y-75558000D02*
X122953654Y-75558000D01*
X141824000Y-76666000D02*
X141824000Y-75951471D01*
X122040000Y-72778000D02*
X123190000Y-71628000D01*
X141824000Y-75951471D02*
X141430529Y-75558000D01*
X122040000Y-74644346D02*
X122040000Y-72778000D01*
%TO.N,/PC13*%
X151892000Y-77470000D02*
X152654000Y-78232000D01*
X159145822Y-75466190D02*
X175250190Y-59361822D01*
X177112178Y-59361822D02*
X178562000Y-57912000D01*
X159145822Y-77046434D02*
X159145822Y-75466190D01*
X157960256Y-78232000D02*
X159145822Y-77046434D01*
X175250190Y-59361822D02*
X177112178Y-59361822D01*
X152654000Y-78232000D02*
X157960256Y-78232000D01*
D17*
%TO.N,+5V*%
X115690497Y-87376000D02*
X138430000Y-87376000D01*
X140227000Y-87903000D02*
X180575000Y-87903000D01*
X180575000Y-87903000D02*
X185166000Y-83312000D01*
X107188000Y-78486000D02*
X107188000Y-78873503D01*
X107188000Y-78873503D02*
X115690497Y-87376000D01*
X139954000Y-87630000D02*
X140227000Y-87903000D01*
D16*
%TO.N,/PE0*%
X118230000Y-72778000D02*
X118230000Y-77184346D01*
X154552000Y-56522000D02*
X155702000Y-55372000D01*
X139313756Y-77904000D02*
X140403756Y-78994000D01*
X147701000Y-76581000D02*
X149479000Y-76581000D01*
X149860000Y-76962000D02*
X147320000Y-74422000D01*
X140403756Y-78994000D02*
X140462000Y-78994000D01*
X119249832Y-78204178D02*
X136171822Y-78204178D01*
X147320000Y-74422000D02*
X147320000Y-65869988D01*
X136171822Y-78204178D02*
X136472000Y-77904000D01*
X136472000Y-77904000D02*
X139313756Y-77904000D01*
X119380000Y-71628000D02*
X118230000Y-72778000D01*
X147320000Y-65869988D02*
X154552000Y-58637988D01*
X154552000Y-58637988D02*
X154552000Y-56522000D01*
X149479000Y-76581000D02*
X149860000Y-76962000D01*
X146812000Y-77470000D02*
X147701000Y-76581000D01*
X118230000Y-77184346D02*
X119249832Y-78204178D01*
%TO.N,/PC1*%
X160949566Y-70722178D02*
X159027744Y-72644000D01*
X162166042Y-70722178D02*
X160949566Y-70722178D01*
X153416000Y-72644000D02*
X152908000Y-73152000D01*
X173482000Y-57912000D02*
X173482000Y-59406220D01*
X159027744Y-72644000D02*
X153416000Y-72644000D01*
X173482000Y-59406220D02*
X162166042Y-70722178D01*
%TO.N,/PC4*%
X152582000Y-66366000D02*
X154169375Y-64778625D01*
X150884938Y-68571062D02*
X152582000Y-66874000D01*
X150884938Y-69239444D02*
X150884938Y-68571062D01*
X154169375Y-64778625D02*
X154169375Y-63270002D01*
X152582000Y-66874000D02*
X152582000Y-66366000D01*
%TO.N,/INT3_BMI*%
X153876000Y-66027756D02*
X154818000Y-65085756D01*
X150182230Y-69385265D02*
X150636409Y-69839444D01*
X153876000Y-67358000D02*
X153876000Y-66027756D01*
X150070735Y-69385265D02*
X150182230Y-69385265D01*
X150636409Y-69839444D02*
X151394556Y-69839444D01*
X151394556Y-69839444D02*
X153876000Y-67358000D01*
X154818000Y-65085756D02*
X154818000Y-63754000D01*
%TO.N,/I2C1_SCL*%
X156178346Y-59062000D02*
X156852000Y-58388346D01*
X134905654Y-54222000D02*
X157092000Y-54222000D01*
X119380000Y-69088000D02*
X118230000Y-67938000D01*
X157092000Y-54222000D02*
X158242000Y-55372000D01*
X150114000Y-74676000D02*
X147919644Y-72481644D01*
X156852000Y-56762000D02*
X158242000Y-55372000D01*
X134232000Y-54895654D02*
X134905654Y-54222000D01*
X156852000Y-58388346D02*
X156852000Y-56762000D01*
X147919644Y-66118368D02*
X154976012Y-59062000D01*
X132605654Y-59062000D02*
X134232000Y-57435654D01*
X147919644Y-72481644D02*
X147919644Y-66118368D01*
X154976012Y-59062000D02*
X156178346Y-59062000D01*
X118230000Y-62872000D02*
X122040000Y-59062000D01*
X118230000Y-67938000D02*
X118230000Y-62872000D01*
X134232000Y-57435654D02*
X134232000Y-54895654D01*
X122040000Y-59062000D02*
X132605654Y-59062000D01*
%TO.N,/I2C1_SDA*%
X125208000Y-59690000D02*
X133350000Y-59690000D01*
X148219466Y-66242558D02*
X155100202Y-59361822D01*
X151130000Y-74676000D02*
X148219466Y-71765466D01*
X148219466Y-71765466D02*
X148219466Y-66242558D01*
X122040000Y-62858000D02*
X125208000Y-59690000D01*
X119380000Y-66548000D02*
X122040000Y-63888000D01*
X156302536Y-59361822D02*
X157752358Y-57912000D01*
X157752358Y-57912000D02*
X158242000Y-57912000D01*
X155100202Y-59361822D02*
X156302536Y-59361822D01*
X122040000Y-63888000D02*
X122040000Y-62858000D01*
%TO.N,/I2C2_SDA*%
X135382000Y-63332529D02*
X135382000Y-57912000D01*
X130556000Y-66548000D02*
X132166529Y-66548000D01*
X132166529Y-66548000D02*
X135382000Y-63332529D01*
%TO.N,/I2C2_SCL*%
X136532000Y-63112000D02*
X136532000Y-56522000D01*
X136532000Y-56522000D02*
X135382000Y-55372000D01*
X130556000Y-69088000D02*
X136532000Y-63112000D01*
%TO.N,/I2C4_SCL*%
X126844000Y-69542346D02*
X126844000Y-69088000D01*
X140208000Y-71628000D02*
X132182346Y-71628000D01*
X140462000Y-71882000D02*
X140208000Y-71628000D01*
X131032346Y-72778000D02*
X130079654Y-72778000D01*
X130079654Y-72778000D02*
X126844000Y-69542346D01*
X140462000Y-72390000D02*
X140462000Y-71882000D01*
X132182346Y-71628000D02*
X131032346Y-72778000D01*
%TO.N,/I2C4_SDA*%
X126844000Y-67002346D02*
X126844000Y-66548000D01*
X130199654Y-70358000D02*
X126844000Y-67002346D01*
X139954000Y-70358000D02*
X130199654Y-70358000D01*
X141224000Y-71628000D02*
X139954000Y-70358000D01*
%TD*%
M02*
