%TF.GenerationSoftware,KiCad,Pcbnew,8.0.4*%
%TF.CreationDate,2024-11-29T22:22:18-05:00*%
%TF.ProjectId,SRSFC,53525346-432e-46b6-9963-61645f706362,V1.0*%
%TF.SameCoordinates,Original*%
%TF.FileFunction,Copper,L3,Inr*%
%TF.FilePolarity,Positive*%
%FSLAX46Y46*%
G04 Gerber Fmt 4.6, Leading zero omitted, Abs format (unit mm)*
G04 Created by KiCad (PCBNEW 8.0.4) date 2024-11-29 22:22:18*
%MOMM*%
%LPD*%
G01*
G04 APERTURE LIST*
%TA.AperFunction,ComponentPad*%
%ADD10R,1.700000X1.700000*%
%TD*%
%TA.AperFunction,ComponentPad*%
%ADD11O,1.700000X1.700000*%
%TD*%
%TA.AperFunction,ComponentPad*%
%ADD12O,1.100000X2.000000*%
%TD*%
%TA.AperFunction,ComponentPad*%
%ADD13O,1.200000X1.800000*%
%TD*%
%TA.AperFunction,ComponentPad*%
%ADD14C,7.500000*%
%TD*%
%TA.AperFunction,ViaPad*%
%ADD15C,0.450000*%
%TD*%
%TA.AperFunction,ViaPad*%
%ADD16C,0.600000*%
%TD*%
G04 APERTURE END LIST*
D10*
%TO.N,GND*%
%TO.C,J6*%
X147066000Y-101092000D03*
D11*
%TO.N,VCC*%
X149606000Y-101092000D03*
%TO.N,/servo_4*%
X152146000Y-101092000D03*
%TD*%
D10*
%TO.N,/SWCLK*%
%TO.C,J1*%
X134620000Y-112776000D03*
D11*
%TO.N,/SWDIO*%
X137160000Y-112776000D03*
%TO.N,GND*%
X139700000Y-112776000D03*
%TO.N,+3.3V*%
X142240000Y-112776000D03*
%TO.N,/boot0*%
X144780000Y-112776000D03*
%TD*%
D12*
%TO.N,GND*%
%TO.C,USB1*%
X161297000Y-87241500D03*
D13*
X161297000Y-83041500D03*
D12*
X152647000Y-87241500D03*
D13*
X152647000Y-83041500D03*
%TD*%
D10*
%TO.N,GND*%
%TO.C,J8*%
X121412000Y-93472000D03*
D11*
%TO.N,VCC*%
X121412000Y-96012000D03*
%TO.N,/IBUS_RX*%
X121412000Y-98552000D03*
%TD*%
D10*
%TO.N,GND*%
%TO.C,J3*%
X148590000Y-112776000D03*
D11*
%TO.N,VCC*%
X151130000Y-112776000D03*
%TO.N,/servo_1*%
X153670000Y-112776000D03*
%TD*%
D14*
%TO.N,N/C*%
%TO.C,H4*%
X166878000Y-110998000D03*
%TD*%
D10*
%TO.N,GND*%
%TO.C,J7*%
X147066000Y-97282000D03*
D11*
%TO.N,VCC*%
X149606000Y-97282000D03*
%TO.N,/servo_5*%
X152146000Y-97282000D03*
%TD*%
D10*
%TO.N,GND*%
%TO.C,J5*%
X147066000Y-104902000D03*
D11*
%TO.N,VCC*%
X149606000Y-104902000D03*
%TO.N,/servo_3*%
X152146000Y-104902000D03*
%TD*%
D10*
%TO.N,GND*%
%TO.C,J2*%
X157480000Y-112776000D03*
D11*
%TO.N,VCC*%
X160020000Y-112776000D03*
%TD*%
D14*
%TO.N,N/C*%
%TO.C,H3*%
X122936000Y-110998000D03*
%TD*%
D10*
%TO.N,GND*%
%TO.C,J4*%
X154955000Y-108966000D03*
D11*
%TO.N,VCC*%
X157495000Y-108966000D03*
%TO.N,/servo_2*%
X160035000Y-108966000D03*
%TD*%
D14*
%TO.N,N/C*%
%TO.C,H2*%
X166878000Y-85852000D03*
%TD*%
%TO.N,N/C*%
%TO.C,H1*%
X122936000Y-85852000D03*
%TD*%
D15*
%TO.N,GND*%
X136652000Y-87376000D03*
X158690000Y-91500000D03*
X135382000Y-85852000D03*
X141986000Y-96012000D03*
X150876000Y-93726000D03*
X153162000Y-91186000D03*
X147320000Y-93726000D03*
X121666000Y-101092000D03*
D16*
X125222000Y-90678000D03*
D15*
X127762000Y-112268000D03*
X135382000Y-107950000D03*
X121412000Y-103124000D03*
X142494000Y-91440000D03*
X132334000Y-109474000D03*
X137414000Y-107950000D03*
X164846000Y-90678000D03*
X129032000Y-84328000D03*
X143002000Y-102108000D03*
X144780000Y-99060000D03*
X129032000Y-91186000D03*
X144018000Y-92202000D03*
X145796000Y-88138000D03*
X140716000Y-89154000D03*
X132842000Y-87630000D03*
X165172000Y-106100000D03*
X154432000Y-101854000D03*
X140520793Y-86175316D03*
X130556000Y-83820000D03*
X157734000Y-104902000D03*
%TO.N,+3.3V*%
X131572000Y-113792000D03*
X135636000Y-87376000D03*
X134366000Y-85852000D03*
X121412000Y-104140000D03*
X141478000Y-93472000D03*
X149098000Y-89662000D03*
X141732000Y-90678000D03*
X143002000Y-92202000D03*
X142748000Y-98044000D03*
X135128000Y-109474000D03*
X138430000Y-107950000D03*
X128016000Y-91186000D03*
X154432000Y-99314000D03*
X145288000Y-101854000D03*
X141986000Y-85598000D03*
X148082000Y-85852000D03*
D16*
X122682000Y-90678000D03*
D15*
%TO.N,/servo_3*%
X135890000Y-97536000D03*
%TO.N,/servo_4*%
X136652000Y-98298000D03*
%TO.N,/SWCLK*%
X139954000Y-104394000D03*
X138078122Y-109122122D03*
X133350000Y-109474000D03*
X140716000Y-106426000D03*
%TO.N,/SWDIO*%
X136906000Y-110490000D03*
X136017000Y-103251000D03*
%TO.N,/boot0*%
X131064000Y-108204000D03*
%TO.N,/servo_5*%
X133858000Y-103378000D03*
X138430000Y-97790000D03*
X131826000Y-103124000D03*
%TO.N,/SDIO_D0*%
X139414250Y-108743750D03*
X133096000Y-106934000D03*
%TO.N,/SDIO_D3*%
X158242000Y-98552000D03*
X137922000Y-102616000D03*
%TO.N,/USB-*%
X134874000Y-102616000D03*
X156972000Y-89408000D03*
%TO.N,/USB+*%
X135890000Y-102362000D03*
X155702000Y-89154000D03*
%TO.N,/SPI_CS_LSM*%
X143256000Y-100076000D03*
X141224000Y-98044000D03*
%TO.N,/SPI_SCK_BMP*%
X143510000Y-94742000D03*
X138176000Y-91186000D03*
%TO.N,/SDIO_CMD*%
X137541000Y-101219000D03*
X158242000Y-101219000D03*
%TO.N,/SPI_MISO_BMP*%
X137414000Y-91440000D03*
X144272000Y-96520000D03*
%TO.N,/SDIO_SCK*%
X158242000Y-100330000D03*
X138684000Y-101854000D03*
%TO.N,/SPI_MOSI_BMP*%
X143510000Y-96266000D03*
X136144000Y-91186000D03*
%TO.N,/SD_CD*%
X143764000Y-103632000D03*
X151384000Y-103124000D03*
D16*
%TO.N,/IBUS_RX*%
X127000000Y-91440000D03*
D15*
%TO.N,/SDIO_D2*%
X137922000Y-103632000D03*
X158242000Y-99441000D03*
%TO.N,/SPI_MISO_LSM*%
X137922000Y-96520000D03*
X142240000Y-102362000D03*
%TO.N,/SPI_SCK_LSM*%
X141669182Y-99563302D03*
X137668000Y-97282000D03*
D16*
%TO.N,VCC*%
X123952000Y-106172000D03*
D15*
X156068998Y-106172000D03*
%TO.N,/servo_1*%
X138176000Y-95758000D03*
%TD*%
%TA.AperFunction,Conductor*%
%TO.N,GND*%
G36*
X151637365Y-82054185D02*
G01*
X151683120Y-82106989D01*
X151693064Y-82176147D01*
X151680811Y-82214795D01*
X151627591Y-82319242D01*
X151574085Y-82483915D01*
X151547000Y-82654928D01*
X151547000Y-82791500D01*
X152347000Y-82791500D01*
X152347000Y-83291500D01*
X151547000Y-83291500D01*
X151547000Y-83428071D01*
X151574085Y-83599084D01*
X151627591Y-83763757D01*
X151706195Y-83918024D01*
X151807967Y-84058102D01*
X151930397Y-84180532D01*
X152070475Y-84282304D01*
X152224744Y-84360908D01*
X152389415Y-84414414D01*
X152389414Y-84414414D01*
X152396999Y-84415615D01*
X152397000Y-84415614D01*
X152397000Y-83508488D01*
X152406940Y-83525705D01*
X152462795Y-83581560D01*
X152531204Y-83621056D01*
X152607504Y-83641500D01*
X152686496Y-83641500D01*
X152762796Y-83621056D01*
X152831205Y-83581560D01*
X152887060Y-83525705D01*
X152897000Y-83508488D01*
X152897000Y-84415615D01*
X152904584Y-84414414D01*
X153069255Y-84360908D01*
X153223524Y-84282304D01*
X153363602Y-84180532D01*
X153486032Y-84058102D01*
X153587804Y-83918024D01*
X153666408Y-83763757D01*
X153719914Y-83599084D01*
X153747000Y-83428071D01*
X153747000Y-83291500D01*
X152947000Y-83291500D01*
X152947000Y-82791500D01*
X153747000Y-82791500D01*
X153747000Y-82654928D01*
X153719914Y-82483915D01*
X153666408Y-82319242D01*
X153613189Y-82214795D01*
X153600293Y-82146126D01*
X153626569Y-82081385D01*
X153683676Y-82041128D01*
X153723674Y-82034500D01*
X160220326Y-82034500D01*
X160287365Y-82054185D01*
X160333120Y-82106989D01*
X160343064Y-82176147D01*
X160330811Y-82214795D01*
X160277591Y-82319242D01*
X160224085Y-82483915D01*
X160197000Y-82654928D01*
X160197000Y-82791500D01*
X160997000Y-82791500D01*
X160997000Y-83291500D01*
X160197000Y-83291500D01*
X160197000Y-83428071D01*
X160224085Y-83599084D01*
X160277591Y-83763757D01*
X160356195Y-83918024D01*
X160457967Y-84058102D01*
X160580397Y-84180532D01*
X160720475Y-84282304D01*
X160874744Y-84360908D01*
X161039415Y-84414414D01*
X161039414Y-84414414D01*
X161046999Y-84415615D01*
X161047000Y-84415614D01*
X161047000Y-83508488D01*
X161056940Y-83525705D01*
X161112795Y-83581560D01*
X161181204Y-83621056D01*
X161257504Y-83641500D01*
X161336496Y-83641500D01*
X161412796Y-83621056D01*
X161481205Y-83581560D01*
X161537060Y-83525705D01*
X161547000Y-83508488D01*
X161547000Y-84415615D01*
X161554584Y-84414414D01*
X161719255Y-84360908D01*
X161873524Y-84282304D01*
X162013602Y-84180532D01*
X162136032Y-84058102D01*
X162237804Y-83918024D01*
X162316408Y-83763757D01*
X162369914Y-83599084D01*
X162397000Y-83428071D01*
X162397000Y-83291500D01*
X161597000Y-83291500D01*
X161597000Y-82791500D01*
X162397000Y-82791500D01*
X162397000Y-82654928D01*
X162369914Y-82483915D01*
X162316408Y-82319242D01*
X162263189Y-82214795D01*
X162250293Y-82146126D01*
X162276569Y-82081385D01*
X162333676Y-82041128D01*
X162373674Y-82034500D01*
X164533874Y-82034500D01*
X164600913Y-82054185D01*
X164646668Y-82106989D01*
X164656612Y-82176147D01*
X164627587Y-82239703D01*
X164600913Y-82262816D01*
X164409683Y-82385711D01*
X164409676Y-82385716D01*
X164409672Y-82385719D01*
X164170044Y-82574164D01*
X164091359Y-82636043D01*
X164091357Y-82636044D01*
X163798283Y-82915490D01*
X163798281Y-82915492D01*
X163533094Y-83221534D01*
X163533083Y-83221547D01*
X163298206Y-83551385D01*
X163298200Y-83551393D01*
X163095725Y-83902091D01*
X163095717Y-83902107D01*
X162927494Y-84270462D01*
X162927492Y-84270466D01*
X162795053Y-84653125D01*
X162795050Y-84653136D01*
X162699579Y-85046673D01*
X162641948Y-85447501D01*
X162622680Y-85852000D01*
X162641948Y-86256498D01*
X162699579Y-86657326D01*
X162795050Y-87050863D01*
X162795053Y-87050874D01*
X162927492Y-87433533D01*
X162927494Y-87433537D01*
X163095717Y-87801892D01*
X163095725Y-87801908D01*
X163298200Y-88152606D01*
X163298206Y-88152614D01*
X163533083Y-88482452D01*
X163533092Y-88482462D01*
X163533093Y-88482464D01*
X163798280Y-88788507D01*
X164091358Y-89067956D01*
X164409672Y-89318281D01*
X164750340Y-89537215D01*
X165110276Y-89722775D01*
X165110281Y-89722777D01*
X165110283Y-89722778D01*
X165297444Y-89797706D01*
X165486221Y-89873281D01*
X165486229Y-89873283D01*
X165486231Y-89873284D01*
X165568240Y-89897364D01*
X165874770Y-89987369D01*
X166045165Y-90020210D01*
X166190307Y-90048184D01*
X166272405Y-90064007D01*
X166675524Y-90102500D01*
X166675530Y-90102500D01*
X167080470Y-90102500D01*
X167080476Y-90102500D01*
X167483595Y-90064007D01*
X167881230Y-89987369D01*
X168269779Y-89873281D01*
X168645724Y-89722775D01*
X169005660Y-89537215D01*
X169346328Y-89318281D01*
X169664642Y-89067956D01*
X169957720Y-88788507D01*
X170222907Y-88482464D01*
X170251571Y-88442212D01*
X170457793Y-88152614D01*
X170457794Y-88152612D01*
X170457803Y-88152600D01*
X170464113Y-88141669D01*
X170514679Y-88093455D01*
X170583286Y-88080231D01*
X170648151Y-88106199D01*
X170688680Y-88163113D01*
X170695500Y-88203670D01*
X170695500Y-108646329D01*
X170675815Y-108713368D01*
X170623011Y-108759123D01*
X170553853Y-108769067D01*
X170490297Y-108740042D01*
X170464115Y-108708334D01*
X170457803Y-108697400D01*
X170457798Y-108697393D01*
X170457793Y-108697384D01*
X170222916Y-108367547D01*
X170222905Y-108367534D01*
X169957720Y-108061493D01*
X169664642Y-107782044D01*
X169346328Y-107531719D01*
X169005660Y-107312785D01*
X168645724Y-107127225D01*
X168645723Y-107127224D01*
X168645720Y-107127223D01*
X168645716Y-107127221D01*
X168269780Y-106976719D01*
X168269768Y-106976715D01*
X167881235Y-106862632D01*
X167881218Y-106862628D01*
X167483610Y-106785995D01*
X167483598Y-106785993D01*
X167332225Y-106771539D01*
X167080476Y-106747500D01*
X166675524Y-106747500D01*
X166433652Y-106770595D01*
X166272401Y-106785993D01*
X166272389Y-106785995D01*
X165874781Y-106862628D01*
X165874764Y-106862632D01*
X165486231Y-106976715D01*
X165486219Y-106976719D01*
X165110283Y-107127221D01*
X165110279Y-107127223D01*
X164750343Y-107312783D01*
X164409683Y-107531711D01*
X164409676Y-107531716D01*
X164409672Y-107531719D01*
X164230470Y-107672645D01*
X164091359Y-107782043D01*
X164091357Y-107782044D01*
X163798283Y-108061490D01*
X163798281Y-108061492D01*
X163533094Y-108367534D01*
X163533083Y-108367547D01*
X163298206Y-108697385D01*
X163298200Y-108697393D01*
X163095725Y-109048091D01*
X163095717Y-109048107D01*
X162927494Y-109416462D01*
X162927492Y-109416466D01*
X162795053Y-109799125D01*
X162795050Y-109799136D01*
X162699579Y-110192673D01*
X162641948Y-110593501D01*
X162622680Y-110998000D01*
X162641948Y-111402498D01*
X162699579Y-111803326D01*
X162795050Y-112196863D01*
X162795053Y-112196874D01*
X162927492Y-112579533D01*
X162927494Y-112579537D01*
X163095717Y-112947892D01*
X163095725Y-112947908D01*
X163298200Y-113298606D01*
X163298206Y-113298614D01*
X163533083Y-113628452D01*
X163533092Y-113628462D01*
X163533093Y-113628464D01*
X163798280Y-113934507D01*
X164091358Y-114213956D01*
X164409672Y-114464281D01*
X164409683Y-114464288D01*
X164600913Y-114587184D01*
X164646668Y-114639988D01*
X164656612Y-114709147D01*
X164627587Y-114772703D01*
X164568809Y-114810477D01*
X164533874Y-114815500D01*
X125280126Y-114815500D01*
X125213087Y-114795815D01*
X125167332Y-114743011D01*
X125157388Y-114673853D01*
X125186413Y-114610297D01*
X125213087Y-114587184D01*
X125264791Y-114553956D01*
X125404328Y-114464281D01*
X125722642Y-114213956D01*
X126015720Y-113934507D01*
X126139206Y-113791996D01*
X130841909Y-113791996D01*
X130841909Y-113792003D01*
X130860212Y-113954455D01*
X130914210Y-114108774D01*
X130925348Y-114126500D01*
X131001192Y-114247204D01*
X131116796Y-114362808D01*
X131255225Y-114449789D01*
X131409539Y-114503786D01*
X131409542Y-114503786D01*
X131409544Y-114503787D01*
X131571996Y-114522091D01*
X131572000Y-114522091D01*
X131572004Y-114522091D01*
X131734455Y-114503787D01*
X131734456Y-114503786D01*
X131734461Y-114503786D01*
X131888775Y-114449789D01*
X132027204Y-114362808D01*
X132142808Y-114247204D01*
X132229789Y-114108775D01*
X132283786Y-113954461D01*
X132286034Y-113934509D01*
X132302091Y-113792003D01*
X132302091Y-113791996D01*
X132283787Y-113629544D01*
X132283786Y-113629542D01*
X132283786Y-113629539D01*
X132229789Y-113475225D01*
X132142808Y-113336796D01*
X132027204Y-113221192D01*
X131955439Y-113176099D01*
X131888774Y-113134210D01*
X131734455Y-113080212D01*
X131572004Y-113061909D01*
X131571996Y-113061909D01*
X131409544Y-113080212D01*
X131255225Y-113134210D01*
X131116795Y-113221192D01*
X131001192Y-113336795D01*
X130914210Y-113475225D01*
X130860212Y-113629544D01*
X130841909Y-113791996D01*
X126139206Y-113791996D01*
X126280907Y-113628464D01*
X126308693Y-113589445D01*
X126515793Y-113298614D01*
X126515799Y-113298606D01*
X126515800Y-113298603D01*
X126515803Y-113298600D01*
X126718279Y-112947900D01*
X126886503Y-112579543D01*
X126886505Y-112579536D01*
X126886507Y-112579533D01*
X127018946Y-112196874D01*
X127018946Y-112196871D01*
X127018950Y-112196862D01*
X127096272Y-111878135D01*
X133269500Y-111878135D01*
X133269500Y-113673870D01*
X133269501Y-113673876D01*
X133275908Y-113733483D01*
X133326202Y-113868328D01*
X133326206Y-113868335D01*
X133412452Y-113983544D01*
X133412455Y-113983547D01*
X133527664Y-114069793D01*
X133527671Y-114069797D01*
X133662517Y-114120091D01*
X133662516Y-114120091D01*
X133669444Y-114120835D01*
X133722127Y-114126500D01*
X135517872Y-114126499D01*
X135577483Y-114120091D01*
X135712331Y-114069796D01*
X135827546Y-113983546D01*
X135913796Y-113868331D01*
X135962810Y-113736916D01*
X136004681Y-113680984D01*
X136070145Y-113656566D01*
X136138418Y-113671417D01*
X136166673Y-113692569D01*
X136288599Y-113814495D01*
X136385384Y-113882265D01*
X136482165Y-113950032D01*
X136482167Y-113950033D01*
X136482170Y-113950035D01*
X136696337Y-114049903D01*
X136924592Y-114111063D01*
X137101034Y-114126500D01*
X137159999Y-114131659D01*
X137160000Y-114131659D01*
X137160001Y-114131659D01*
X137218966Y-114126500D01*
X137395408Y-114111063D01*
X137623663Y-114049903D01*
X137837830Y-113950035D01*
X138031401Y-113814495D01*
X138198495Y-113647401D01*
X138328730Y-113461405D01*
X138383307Y-113417781D01*
X138452805Y-113410587D01*
X138515160Y-113442110D01*
X138531879Y-113461405D01*
X138661890Y-113647078D01*
X138828917Y-113814105D01*
X139022421Y-113949600D01*
X139236507Y-114049429D01*
X139236516Y-114049433D01*
X139450000Y-114106634D01*
X139450000Y-113209012D01*
X139507007Y-113241925D01*
X139634174Y-113276000D01*
X139765826Y-113276000D01*
X139892993Y-113241925D01*
X139950000Y-113209012D01*
X139950000Y-114106633D01*
X140163483Y-114049433D01*
X140163492Y-114049429D01*
X140377578Y-113949600D01*
X140571082Y-113814105D01*
X140738105Y-113647082D01*
X140868119Y-113461405D01*
X140922696Y-113417781D01*
X140992195Y-113410588D01*
X141054549Y-113442110D01*
X141071269Y-113461405D01*
X141201505Y-113647401D01*
X141368599Y-113814495D01*
X141465384Y-113882265D01*
X141562165Y-113950032D01*
X141562167Y-113950033D01*
X141562170Y-113950035D01*
X141776337Y-114049903D01*
X142004592Y-114111063D01*
X142181034Y-114126500D01*
X142239999Y-114131659D01*
X142240000Y-114131659D01*
X142240001Y-114131659D01*
X142298966Y-114126500D01*
X142475408Y-114111063D01*
X142703663Y-114049903D01*
X142917830Y-113950035D01*
X143111401Y-113814495D01*
X143278495Y-113647401D01*
X143408425Y-113461842D01*
X143463002Y-113418217D01*
X143532500Y-113411023D01*
X143594855Y-113442546D01*
X143611575Y-113461842D01*
X143741500Y-113647395D01*
X143741505Y-113647401D01*
X143908599Y-113814495D01*
X144005384Y-113882265D01*
X144102165Y-113950032D01*
X144102167Y-113950033D01*
X144102170Y-113950035D01*
X144316337Y-114049903D01*
X144544592Y-114111063D01*
X144721034Y-114126500D01*
X144779999Y-114131659D01*
X144780000Y-114131659D01*
X144780001Y-114131659D01*
X144838966Y-114126500D01*
X145015408Y-114111063D01*
X145243663Y-114049903D01*
X145457830Y-113950035D01*
X145651401Y-113814495D01*
X145818495Y-113647401D01*
X145954035Y-113453830D01*
X146053903Y-113239663D01*
X146115063Y-113011408D01*
X146135659Y-112776000D01*
X146115063Y-112540592D01*
X146053903Y-112312337D01*
X145954035Y-112098171D01*
X145948731Y-112090595D01*
X145818494Y-111904597D01*
X145792052Y-111878155D01*
X147240000Y-111878155D01*
X147240000Y-112526000D01*
X148156988Y-112526000D01*
X148124075Y-112583007D01*
X148090000Y-112710174D01*
X148090000Y-112841826D01*
X148124075Y-112968993D01*
X148156988Y-113026000D01*
X147240000Y-113026000D01*
X147240000Y-113673844D01*
X147246401Y-113733372D01*
X147246403Y-113733379D01*
X147296645Y-113868086D01*
X147296649Y-113868093D01*
X147382809Y-113983187D01*
X147382812Y-113983190D01*
X147497906Y-114069350D01*
X147497913Y-114069354D01*
X147632620Y-114119596D01*
X147632627Y-114119598D01*
X147692155Y-114125999D01*
X147692172Y-114126000D01*
X148340000Y-114126000D01*
X148340000Y-113209012D01*
X148397007Y-113241925D01*
X148524174Y-113276000D01*
X148655826Y-113276000D01*
X148782993Y-113241925D01*
X148840000Y-113209012D01*
X148840000Y-114126000D01*
X149487828Y-114126000D01*
X149487844Y-114125999D01*
X149547372Y-114119598D01*
X149547379Y-114119596D01*
X149682086Y-114069354D01*
X149682093Y-114069350D01*
X149797187Y-113983190D01*
X149797190Y-113983187D01*
X149883350Y-113868093D01*
X149883354Y-113868086D01*
X149932422Y-113736529D01*
X149974293Y-113680595D01*
X150039757Y-113656178D01*
X150108030Y-113671030D01*
X150136285Y-113692181D01*
X150258599Y-113814495D01*
X150355384Y-113882265D01*
X150452165Y-113950032D01*
X150452167Y-113950033D01*
X150452170Y-113950035D01*
X150666337Y-114049903D01*
X150894592Y-114111063D01*
X151071034Y-114126500D01*
X151129999Y-114131659D01*
X151130000Y-114131659D01*
X151130001Y-114131659D01*
X151188966Y-114126500D01*
X151365408Y-114111063D01*
X151593663Y-114049903D01*
X151807830Y-113950035D01*
X152001401Y-113814495D01*
X152168495Y-113647401D01*
X152298425Y-113461842D01*
X152353002Y-113418217D01*
X152422500Y-113411023D01*
X152484855Y-113442546D01*
X152501575Y-113461842D01*
X152631500Y-113647395D01*
X152631505Y-113647401D01*
X152798599Y-113814495D01*
X152895384Y-113882265D01*
X152992165Y-113950032D01*
X152992167Y-113950033D01*
X152992170Y-113950035D01*
X153206337Y-114049903D01*
X153434592Y-114111063D01*
X153611034Y-114126500D01*
X153669999Y-114131659D01*
X153670000Y-114131659D01*
X153670001Y-114131659D01*
X153728966Y-114126500D01*
X153905408Y-114111063D01*
X154133663Y-114049903D01*
X154347830Y-113950035D01*
X154541401Y-113814495D01*
X154708495Y-113647401D01*
X154844035Y-113453830D01*
X154943903Y-113239663D01*
X155005063Y-113011408D01*
X155025659Y-112776000D01*
X155005063Y-112540592D01*
X154943903Y-112312337D01*
X154844035Y-112098171D01*
X154838731Y-112090595D01*
X154708494Y-111904597D01*
X154682052Y-111878155D01*
X156130000Y-111878155D01*
X156130000Y-112526000D01*
X157046988Y-112526000D01*
X157014075Y-112583007D01*
X156980000Y-112710174D01*
X156980000Y-112841826D01*
X157014075Y-112968993D01*
X157046988Y-113026000D01*
X156130000Y-113026000D01*
X156130000Y-113673844D01*
X156136401Y-113733372D01*
X156136403Y-113733379D01*
X156186645Y-113868086D01*
X156186649Y-113868093D01*
X156272809Y-113983187D01*
X156272812Y-113983190D01*
X156387906Y-114069350D01*
X156387913Y-114069354D01*
X156522620Y-114119596D01*
X156522627Y-114119598D01*
X156582155Y-114125999D01*
X156582172Y-114126000D01*
X157230000Y-114126000D01*
X157230000Y-113209012D01*
X157287007Y-113241925D01*
X157414174Y-113276000D01*
X157545826Y-113276000D01*
X157672993Y-113241925D01*
X157730000Y-113209012D01*
X157730000Y-114126000D01*
X158377828Y-114126000D01*
X158377844Y-114125999D01*
X158437372Y-114119598D01*
X158437379Y-114119596D01*
X158572086Y-114069354D01*
X158572093Y-114069350D01*
X158687187Y-113983190D01*
X158687190Y-113983187D01*
X158773350Y-113868093D01*
X158773354Y-113868086D01*
X158822422Y-113736529D01*
X158864293Y-113680595D01*
X158929757Y-113656178D01*
X158998030Y-113671030D01*
X159026285Y-113692181D01*
X159148599Y-113814495D01*
X159245384Y-113882265D01*
X159342165Y-113950032D01*
X159342167Y-113950033D01*
X159342170Y-113950035D01*
X159556337Y-114049903D01*
X159784592Y-114111063D01*
X159961034Y-114126500D01*
X160019999Y-114131659D01*
X160020000Y-114131659D01*
X160020001Y-114131659D01*
X160078966Y-114126500D01*
X160255408Y-114111063D01*
X160483663Y-114049903D01*
X160697830Y-113950035D01*
X160891401Y-113814495D01*
X161058495Y-113647401D01*
X161194035Y-113453830D01*
X161293903Y-113239663D01*
X161355063Y-113011408D01*
X161375659Y-112776000D01*
X161355063Y-112540592D01*
X161293903Y-112312337D01*
X161194035Y-112098171D01*
X161188731Y-112090595D01*
X161058494Y-111904597D01*
X160891402Y-111737506D01*
X160891395Y-111737501D01*
X160697834Y-111601967D01*
X160697830Y-111601965D01*
X160626727Y-111568809D01*
X160483663Y-111502097D01*
X160483659Y-111502096D01*
X160483655Y-111502094D01*
X160255413Y-111440938D01*
X160255403Y-111440936D01*
X160020001Y-111420341D01*
X160019999Y-111420341D01*
X159784596Y-111440936D01*
X159784586Y-111440938D01*
X159556344Y-111502094D01*
X159556335Y-111502098D01*
X159342171Y-111601964D01*
X159342169Y-111601965D01*
X159148600Y-111737503D01*
X159026284Y-111859819D01*
X158964961Y-111893303D01*
X158895269Y-111888319D01*
X158839336Y-111846447D01*
X158822421Y-111815470D01*
X158773354Y-111683913D01*
X158773350Y-111683906D01*
X158687190Y-111568812D01*
X158687187Y-111568809D01*
X158572093Y-111482649D01*
X158572086Y-111482645D01*
X158437379Y-111432403D01*
X158437372Y-111432401D01*
X158377844Y-111426000D01*
X157730000Y-111426000D01*
X157730000Y-112342988D01*
X157672993Y-112310075D01*
X157545826Y-112276000D01*
X157414174Y-112276000D01*
X157287007Y-112310075D01*
X157230000Y-112342988D01*
X157230000Y-111426000D01*
X156582155Y-111426000D01*
X156522627Y-111432401D01*
X156522620Y-111432403D01*
X156387913Y-111482645D01*
X156387906Y-111482649D01*
X156272812Y-111568809D01*
X156272809Y-111568812D01*
X156186649Y-111683906D01*
X156186645Y-111683913D01*
X156136403Y-111818620D01*
X156136401Y-111818627D01*
X156130000Y-111878155D01*
X154682052Y-111878155D01*
X154541402Y-111737506D01*
X154541395Y-111737501D01*
X154347834Y-111601967D01*
X154347830Y-111601965D01*
X154276727Y-111568809D01*
X154133663Y-111502097D01*
X154133659Y-111502096D01*
X154133655Y-111502094D01*
X153905413Y-111440938D01*
X153905403Y-111440936D01*
X153670001Y-111420341D01*
X153669999Y-111420341D01*
X153434596Y-111440936D01*
X153434586Y-111440938D01*
X153206344Y-111502094D01*
X153206335Y-111502098D01*
X152992171Y-111601964D01*
X152992169Y-111601965D01*
X152798597Y-111737505D01*
X152631505Y-111904597D01*
X152501575Y-112090158D01*
X152446998Y-112133783D01*
X152377500Y-112140977D01*
X152315145Y-112109454D01*
X152298425Y-112090158D01*
X152168494Y-111904597D01*
X152001402Y-111737506D01*
X152001395Y-111737501D01*
X151807834Y-111601967D01*
X151807830Y-111601965D01*
X151736727Y-111568809D01*
X151593663Y-111502097D01*
X151593659Y-111502096D01*
X151593655Y-111502094D01*
X151365413Y-111440938D01*
X151365403Y-111440936D01*
X151130001Y-111420341D01*
X151129999Y-111420341D01*
X150894596Y-111440936D01*
X150894586Y-111440938D01*
X150666344Y-111502094D01*
X150666335Y-111502098D01*
X150452171Y-111601964D01*
X150452169Y-111601965D01*
X150258600Y-111737503D01*
X150136284Y-111859819D01*
X150074961Y-111893303D01*
X150005269Y-111888319D01*
X149949336Y-111846447D01*
X149932421Y-111815470D01*
X149883354Y-111683913D01*
X149883350Y-111683906D01*
X149797190Y-111568812D01*
X149797187Y-111568809D01*
X149682093Y-111482649D01*
X149682086Y-111482645D01*
X149547379Y-111432403D01*
X149547372Y-111432401D01*
X149487844Y-111426000D01*
X148840000Y-111426000D01*
X148840000Y-112342988D01*
X148782993Y-112310075D01*
X148655826Y-112276000D01*
X148524174Y-112276000D01*
X148397007Y-112310075D01*
X148340000Y-112342988D01*
X148340000Y-111426000D01*
X147692155Y-111426000D01*
X147632627Y-111432401D01*
X147632620Y-111432403D01*
X147497913Y-111482645D01*
X147497906Y-111482649D01*
X147382812Y-111568809D01*
X147382809Y-111568812D01*
X147296649Y-111683906D01*
X147296645Y-111683913D01*
X147246403Y-111818620D01*
X147246401Y-111818627D01*
X147240000Y-111878155D01*
X145792052Y-111878155D01*
X145651402Y-111737506D01*
X145651395Y-111737501D01*
X145457834Y-111601967D01*
X145457830Y-111601965D01*
X145386727Y-111568809D01*
X145243663Y-111502097D01*
X145243659Y-111502096D01*
X145243655Y-111502094D01*
X145015413Y-111440938D01*
X145015403Y-111440936D01*
X144780001Y-111420341D01*
X144779999Y-111420341D01*
X144544596Y-111440936D01*
X144544586Y-111440938D01*
X144316344Y-111502094D01*
X144316335Y-111502098D01*
X144102171Y-111601964D01*
X144102169Y-111601965D01*
X143908597Y-111737505D01*
X143741505Y-111904597D01*
X143611575Y-112090158D01*
X143556998Y-112133783D01*
X143487500Y-112140977D01*
X143425145Y-112109454D01*
X143408425Y-112090158D01*
X143278494Y-111904597D01*
X143111402Y-111737506D01*
X143111395Y-111737501D01*
X142917834Y-111601967D01*
X142917830Y-111601965D01*
X142846727Y-111568809D01*
X142703663Y-111502097D01*
X142703659Y-111502096D01*
X142703655Y-111502094D01*
X142475413Y-111440938D01*
X142475403Y-111440936D01*
X142240001Y-111420341D01*
X142239999Y-111420341D01*
X142004596Y-111440936D01*
X142004586Y-111440938D01*
X141776344Y-111502094D01*
X141776335Y-111502098D01*
X141562171Y-111601964D01*
X141562169Y-111601965D01*
X141368597Y-111737505D01*
X141201508Y-111904594D01*
X141071269Y-112090595D01*
X141016692Y-112134219D01*
X140947193Y-112141412D01*
X140884839Y-112109890D01*
X140868119Y-112090594D01*
X140738113Y-111904926D01*
X140738108Y-111904920D01*
X140571082Y-111737894D01*
X140377578Y-111602399D01*
X140163492Y-111502570D01*
X140163486Y-111502567D01*
X139950000Y-111445364D01*
X139950000Y-112342988D01*
X139892993Y-112310075D01*
X139765826Y-112276000D01*
X139634174Y-112276000D01*
X139507007Y-112310075D01*
X139450000Y-112342988D01*
X139450000Y-111445364D01*
X139449999Y-111445364D01*
X139236513Y-111502567D01*
X139236507Y-111502570D01*
X139022422Y-111602399D01*
X139022420Y-111602400D01*
X138828926Y-111737886D01*
X138828920Y-111737891D01*
X138661891Y-111904920D01*
X138661890Y-111904922D01*
X138531880Y-112090595D01*
X138477303Y-112134219D01*
X138407804Y-112141412D01*
X138345450Y-112109890D01*
X138328730Y-112090594D01*
X138198494Y-111904597D01*
X138031402Y-111737506D01*
X138031395Y-111737501D01*
X137837834Y-111601967D01*
X137837830Y-111601965D01*
X137766727Y-111568809D01*
X137623663Y-111502097D01*
X137623659Y-111502096D01*
X137623655Y-111502094D01*
X137395413Y-111440938D01*
X137395403Y-111440936D01*
X137161217Y-111420447D01*
X137096149Y-111394994D01*
X137055170Y-111338403D01*
X137051292Y-111268641D01*
X137085746Y-111207857D01*
X137131068Y-111179878D01*
X137222775Y-111147789D01*
X137361204Y-111060808D01*
X137476808Y-110945204D01*
X137563789Y-110806775D01*
X137617786Y-110652461D01*
X137624429Y-110593506D01*
X137636091Y-110490003D01*
X137636091Y-110489996D01*
X137617787Y-110327544D01*
X137617786Y-110327542D01*
X137617786Y-110327539D01*
X137563789Y-110173225D01*
X137476808Y-110034796D01*
X137361204Y-109919192D01*
X137283863Y-109870595D01*
X137222774Y-109832210D01*
X137068455Y-109778212D01*
X136906004Y-109759909D01*
X136905996Y-109759909D01*
X136743544Y-109778212D01*
X136589225Y-109832210D01*
X136450795Y-109919192D01*
X136335192Y-110034795D01*
X136248210Y-110173225D01*
X136194212Y-110327544D01*
X136175909Y-110489996D01*
X136175909Y-110490003D01*
X136194212Y-110652455D01*
X136248210Y-110806774D01*
X136248211Y-110806775D01*
X136335192Y-110945204D01*
X136450796Y-111060808D01*
X136589225Y-111147789D01*
X136743539Y-111201786D01*
X136743542Y-111201786D01*
X136743544Y-111201787D01*
X136848075Y-111213565D01*
X136912489Y-111240631D01*
X136952045Y-111298226D01*
X136954182Y-111368063D01*
X136918224Y-111427970D01*
X136866285Y-111456560D01*
X136696344Y-111502094D01*
X136696335Y-111502098D01*
X136482171Y-111601964D01*
X136482169Y-111601965D01*
X136288600Y-111737503D01*
X136166673Y-111859430D01*
X136105350Y-111892914D01*
X136035658Y-111887930D01*
X135979725Y-111846058D01*
X135962810Y-111815081D01*
X135913797Y-111683671D01*
X135913793Y-111683664D01*
X135827547Y-111568455D01*
X135827544Y-111568452D01*
X135712335Y-111482206D01*
X135712328Y-111482202D01*
X135577482Y-111431908D01*
X135577483Y-111431908D01*
X135517883Y-111425501D01*
X135517881Y-111425500D01*
X135517873Y-111425500D01*
X135517864Y-111425500D01*
X133722129Y-111425500D01*
X133722123Y-111425501D01*
X133662516Y-111431908D01*
X133527671Y-111482202D01*
X133527664Y-111482206D01*
X133412455Y-111568452D01*
X133412452Y-111568455D01*
X133326206Y-111683664D01*
X133326202Y-111683671D01*
X133275908Y-111818517D01*
X133269501Y-111878116D01*
X133269500Y-111878135D01*
X127096272Y-111878135D01*
X127114421Y-111803325D01*
X127172052Y-111402494D01*
X127191320Y-110998000D01*
X127172052Y-110593506D01*
X127114421Y-110192675D01*
X127018950Y-109799138D01*
X127016056Y-109790775D01*
X126906418Y-109473996D01*
X132619909Y-109473996D01*
X132619909Y-109474003D01*
X132638212Y-109636455D01*
X132692210Y-109790774D01*
X132718246Y-109832210D01*
X132779192Y-109929204D01*
X132894796Y-110044808D01*
X133033225Y-110131789D01*
X133187539Y-110185786D01*
X133187542Y-110185786D01*
X133187544Y-110185787D01*
X133349996Y-110204091D01*
X133350000Y-110204091D01*
X133350004Y-110204091D01*
X133512455Y-110185787D01*
X133512456Y-110185786D01*
X133512461Y-110185786D01*
X133666775Y-110131789D01*
X133805204Y-110044808D01*
X133920808Y-109929204D01*
X134007789Y-109790775D01*
X134061786Y-109636461D01*
X134062227Y-109632546D01*
X134080091Y-109474003D01*
X134080091Y-109473996D01*
X134397909Y-109473996D01*
X134397909Y-109474003D01*
X134416212Y-109636455D01*
X134470210Y-109790774D01*
X134496246Y-109832210D01*
X134557192Y-109929204D01*
X134672796Y-110044808D01*
X134811225Y-110131789D01*
X134965539Y-110185786D01*
X134965542Y-110185786D01*
X134965544Y-110185787D01*
X135127996Y-110204091D01*
X135128000Y-110204091D01*
X135128004Y-110204091D01*
X135290455Y-110185787D01*
X135290456Y-110185786D01*
X135290461Y-110185786D01*
X135444775Y-110131789D01*
X135583204Y-110044808D01*
X135698808Y-109929204D01*
X135785789Y-109790775D01*
X135839786Y-109636461D01*
X135840227Y-109632546D01*
X135858091Y-109474003D01*
X135858091Y-109473996D01*
X135839787Y-109311544D01*
X135839786Y-109311542D01*
X135839786Y-109311539D01*
X135785789Y-109157225D01*
X135763730Y-109122118D01*
X137348031Y-109122118D01*
X137348031Y-109122125D01*
X137366334Y-109284577D01*
X137366335Y-109284582D01*
X137366336Y-109284583D01*
X137371188Y-109298448D01*
X137420332Y-109438896D01*
X137507314Y-109577326D01*
X137622918Y-109692930D01*
X137761347Y-109779911D01*
X137915661Y-109833908D01*
X137915664Y-109833908D01*
X137915666Y-109833909D01*
X138078118Y-109852213D01*
X138078122Y-109852213D01*
X138078126Y-109852213D01*
X138240577Y-109833909D01*
X138240578Y-109833908D01*
X138240583Y-109833908D01*
X138394897Y-109779911D01*
X138533326Y-109692930D01*
X138648930Y-109577326D01*
X138735911Y-109438897D01*
X138760888Y-109367516D01*
X138801608Y-109310741D01*
X138866560Y-109284993D01*
X138935122Y-109298448D01*
X138955243Y-109311525D01*
X138959045Y-109314557D01*
X138959046Y-109314558D01*
X139097475Y-109401539D01*
X139251789Y-109455536D01*
X139251792Y-109455536D01*
X139251794Y-109455537D01*
X139414246Y-109473841D01*
X139414250Y-109473841D01*
X139414254Y-109473841D01*
X139576705Y-109455537D01*
X139576706Y-109455536D01*
X139576711Y-109455536D01*
X139731025Y-109401539D01*
X139869454Y-109314558D01*
X139985058Y-109198954D01*
X140072039Y-109060525D01*
X140126036Y-108906211D01*
X140126376Y-108903192D01*
X140144341Y-108743753D01*
X140144341Y-108743746D01*
X140126037Y-108581294D01*
X140126036Y-108581292D01*
X140126036Y-108581289D01*
X140072039Y-108426975D01*
X139985058Y-108288546D01*
X139869454Y-108172942D01*
X139731024Y-108085960D01*
X139680140Y-108068155D01*
X153605000Y-108068155D01*
X153605000Y-108716000D01*
X154521988Y-108716000D01*
X154489075Y-108773007D01*
X154455000Y-108900174D01*
X154455000Y-109031826D01*
X154489075Y-109158993D01*
X154521988Y-109216000D01*
X153605000Y-109216000D01*
X153605000Y-109863844D01*
X153611401Y-109923372D01*
X153611403Y-109923379D01*
X153661645Y-110058086D01*
X153661649Y-110058093D01*
X153747809Y-110173187D01*
X153747812Y-110173190D01*
X153862906Y-110259350D01*
X153862913Y-110259354D01*
X153997620Y-110309596D01*
X153997627Y-110309598D01*
X154057155Y-110315999D01*
X154057172Y-110316000D01*
X154705000Y-110316000D01*
X154705000Y-109399012D01*
X154762007Y-109431925D01*
X154889174Y-109466000D01*
X155020826Y-109466000D01*
X155147993Y-109431925D01*
X155205000Y-109399012D01*
X155205000Y-110316000D01*
X155852828Y-110316000D01*
X155852844Y-110315999D01*
X155912372Y-110309598D01*
X155912379Y-110309596D01*
X156047086Y-110259354D01*
X156047093Y-110259350D01*
X156162187Y-110173190D01*
X156162190Y-110173187D01*
X156248350Y-110058093D01*
X156248354Y-110058086D01*
X156297422Y-109926529D01*
X156339293Y-109870595D01*
X156404757Y-109846178D01*
X156473030Y-109861030D01*
X156501285Y-109882181D01*
X156623599Y-110004495D01*
X156681172Y-110044808D01*
X156817165Y-110140032D01*
X156817167Y-110140033D01*
X156817170Y-110140035D01*
X157031337Y-110239903D01*
X157259592Y-110301063D01*
X157430319Y-110316000D01*
X157494999Y-110321659D01*
X157495000Y-110321659D01*
X157495001Y-110321659D01*
X157559681Y-110316000D01*
X157730408Y-110301063D01*
X157958663Y-110239903D01*
X158172830Y-110140035D01*
X158366401Y-110004495D01*
X158533495Y-109837401D01*
X158663425Y-109651842D01*
X158718002Y-109608217D01*
X158787500Y-109601023D01*
X158849855Y-109632546D01*
X158866575Y-109651842D01*
X158996500Y-109837395D01*
X158996505Y-109837401D01*
X159163599Y-110004495D01*
X159221172Y-110044808D01*
X159357165Y-110140032D01*
X159357167Y-110140033D01*
X159357170Y-110140035D01*
X159571337Y-110239903D01*
X159799592Y-110301063D01*
X159970319Y-110316000D01*
X160034999Y-110321659D01*
X160035000Y-110321659D01*
X160035001Y-110321659D01*
X160099681Y-110316000D01*
X160270408Y-110301063D01*
X160498663Y-110239903D01*
X160712830Y-110140035D01*
X160906401Y-110004495D01*
X161073495Y-109837401D01*
X161209035Y-109643830D01*
X161308903Y-109429663D01*
X161370063Y-109201408D01*
X161390659Y-108966000D01*
X161370063Y-108730592D01*
X161308903Y-108502337D01*
X161209035Y-108288171D01*
X161203425Y-108280158D01*
X161073494Y-108094597D01*
X160906402Y-107927506D01*
X160906395Y-107927501D01*
X160712834Y-107791967D01*
X160712830Y-107791965D01*
X160620254Y-107748796D01*
X160498663Y-107692097D01*
X160498659Y-107692096D01*
X160498655Y-107692094D01*
X160270413Y-107630938D01*
X160270403Y-107630936D01*
X160035001Y-107610341D01*
X160034999Y-107610341D01*
X159799596Y-107630936D01*
X159799586Y-107630938D01*
X159571344Y-107692094D01*
X159571335Y-107692098D01*
X159357171Y-107791964D01*
X159357169Y-107791965D01*
X159163597Y-107927505D01*
X158996505Y-108094597D01*
X158866575Y-108280158D01*
X158811998Y-108323783D01*
X158742500Y-108330977D01*
X158680145Y-108299454D01*
X158663425Y-108280158D01*
X158533494Y-108094597D01*
X158366402Y-107927506D01*
X158366395Y-107927501D01*
X158172834Y-107791967D01*
X158172830Y-107791965D01*
X158080254Y-107748796D01*
X157958663Y-107692097D01*
X157958659Y-107692096D01*
X157958655Y-107692094D01*
X157730413Y-107630938D01*
X157730403Y-107630936D01*
X157495001Y-107610341D01*
X157494999Y-107610341D01*
X157259596Y-107630936D01*
X157259586Y-107630938D01*
X157031344Y-107692094D01*
X157031335Y-107692098D01*
X156817171Y-107791964D01*
X156817169Y-107791965D01*
X156623600Y-107927503D01*
X156501284Y-108049819D01*
X156439961Y-108083303D01*
X156370269Y-108078319D01*
X156314336Y-108036447D01*
X156297421Y-108005470D01*
X156248354Y-107873913D01*
X156248350Y-107873906D01*
X156162190Y-107758812D01*
X156162187Y-107758809D01*
X156047093Y-107672649D01*
X156047086Y-107672645D01*
X155912379Y-107622403D01*
X155912372Y-107622401D01*
X155852844Y-107616000D01*
X155205000Y-107616000D01*
X155205000Y-108532988D01*
X155147993Y-108500075D01*
X155020826Y-108466000D01*
X154889174Y-108466000D01*
X154762007Y-108500075D01*
X154705000Y-108532988D01*
X154705000Y-107616000D01*
X154057155Y-107616000D01*
X153997627Y-107622401D01*
X153997620Y-107622403D01*
X153862913Y-107672645D01*
X153862906Y-107672649D01*
X153747812Y-107758809D01*
X153747809Y-107758812D01*
X153661649Y-107873906D01*
X153661645Y-107873913D01*
X153611403Y-108008620D01*
X153611401Y-108008627D01*
X153605000Y-108068155D01*
X139680140Y-108068155D01*
X139576705Y-108031962D01*
X139414254Y-108013659D01*
X139414246Y-108013659D01*
X139293579Y-108027254D01*
X139224757Y-108015199D01*
X139173378Y-107967850D01*
X139156476Y-107917917D01*
X139141787Y-107787544D01*
X139141786Y-107787542D01*
X139141786Y-107787539D01*
X139087789Y-107633225D01*
X139000808Y-107494796D01*
X138885204Y-107379192D01*
X138746774Y-107292210D01*
X138592455Y-107238212D01*
X138430004Y-107219909D01*
X138429996Y-107219909D01*
X138267544Y-107238212D01*
X138113225Y-107292210D01*
X137974795Y-107379192D01*
X137859192Y-107494795D01*
X137772210Y-107633225D01*
X137718212Y-107787544D01*
X137699909Y-107949996D01*
X137699909Y-107950003D01*
X137718212Y-108112455D01*
X137772210Y-108266774D01*
X137792160Y-108298524D01*
X137811160Y-108365761D01*
X137790792Y-108432596D01*
X137753139Y-108469489D01*
X137622920Y-108551312D01*
X137622917Y-108551314D01*
X137507314Y-108666917D01*
X137420332Y-108805347D01*
X137366334Y-108959666D01*
X137348031Y-109122118D01*
X135763730Y-109122118D01*
X135698808Y-109018796D01*
X135583204Y-108903192D01*
X135517312Y-108861789D01*
X135444774Y-108816210D01*
X135290455Y-108762212D01*
X135128004Y-108743909D01*
X135127996Y-108743909D01*
X134965544Y-108762212D01*
X134811225Y-108816210D01*
X134672795Y-108903192D01*
X134557192Y-109018795D01*
X134470210Y-109157225D01*
X134416212Y-109311544D01*
X134397909Y-109473996D01*
X134080091Y-109473996D01*
X134061787Y-109311544D01*
X134061786Y-109311542D01*
X134061786Y-109311539D01*
X134007789Y-109157225D01*
X133920808Y-109018796D01*
X133805204Y-108903192D01*
X133739312Y-108861789D01*
X133666774Y-108816210D01*
X133512455Y-108762212D01*
X133350004Y-108743909D01*
X133349996Y-108743909D01*
X133187544Y-108762212D01*
X133033225Y-108816210D01*
X132894795Y-108903192D01*
X132779192Y-109018795D01*
X132692210Y-109157225D01*
X132638212Y-109311544D01*
X132619909Y-109473996D01*
X126906418Y-109473996D01*
X126886507Y-109416466D01*
X126886505Y-109416462D01*
X126839966Y-109314557D01*
X126718279Y-109048100D01*
X126701360Y-109018796D01*
X126515799Y-108697393D01*
X126515793Y-108697385D01*
X126280916Y-108367547D01*
X126280905Y-108367534D01*
X126139199Y-108203996D01*
X130333909Y-108203996D01*
X130333909Y-108204003D01*
X130352212Y-108366455D01*
X130352213Y-108366460D01*
X130352214Y-108366461D01*
X130352590Y-108367536D01*
X130406210Y-108520774D01*
X130444238Y-108581294D01*
X130493192Y-108659204D01*
X130608796Y-108774808D01*
X130747225Y-108861789D01*
X130901539Y-108915786D01*
X130901542Y-108915786D01*
X130901544Y-108915787D01*
X131063996Y-108934091D01*
X131064000Y-108934091D01*
X131064004Y-108934091D01*
X131226455Y-108915787D01*
X131226456Y-108915786D01*
X131226461Y-108915786D01*
X131380775Y-108861789D01*
X131519204Y-108774808D01*
X131634808Y-108659204D01*
X131721789Y-108520775D01*
X131775786Y-108366461D01*
X131784565Y-108288545D01*
X131794091Y-108204003D01*
X131794091Y-108203996D01*
X131775787Y-108041544D01*
X131775786Y-108041542D01*
X131775786Y-108041539D01*
X131721789Y-107887225D01*
X131634808Y-107748796D01*
X131519204Y-107633192D01*
X131515614Y-107630936D01*
X131380774Y-107546210D01*
X131226455Y-107492212D01*
X131064004Y-107473909D01*
X131063996Y-107473909D01*
X130901544Y-107492212D01*
X130747225Y-107546210D01*
X130608795Y-107633192D01*
X130493192Y-107748795D01*
X130406210Y-107887225D01*
X130352212Y-108041544D01*
X130333909Y-108203996D01*
X126139199Y-108203996D01*
X126015720Y-108061493D01*
X125722642Y-107782044D01*
X125404328Y-107531719D01*
X125063660Y-107312785D01*
X124703724Y-107127225D01*
X124703723Y-107127224D01*
X124703720Y-107127223D01*
X124703716Y-107127221D01*
X124461132Y-107030105D01*
X124406210Y-106986914D01*
X124387895Y-106933996D01*
X132365909Y-106933996D01*
X132365909Y-106934003D01*
X132384212Y-107096455D01*
X132438210Y-107250774D01*
X132518901Y-107379192D01*
X132525192Y-107389204D01*
X132640796Y-107504808D01*
X132779225Y-107591789D01*
X132933539Y-107645786D01*
X132933542Y-107645786D01*
X132933544Y-107645787D01*
X133095996Y-107664091D01*
X133096000Y-107664091D01*
X133096004Y-107664091D01*
X133258455Y-107645787D01*
X133258456Y-107645786D01*
X133258461Y-107645786D01*
X133412775Y-107591789D01*
X133551204Y-107504808D01*
X133666808Y-107389204D01*
X133753789Y-107250775D01*
X133807786Y-107096461D01*
X133815263Y-107030105D01*
X133826091Y-106934003D01*
X133826091Y-106933996D01*
X133807787Y-106771544D01*
X133807786Y-106771542D01*
X133807786Y-106771539D01*
X133753789Y-106617225D01*
X133666808Y-106478796D01*
X133614008Y-106425996D01*
X139985909Y-106425996D01*
X139985909Y-106426003D01*
X140004212Y-106588455D01*
X140058210Y-106742774D01*
X140085367Y-106785993D01*
X140145192Y-106881204D01*
X140260796Y-106996808D01*
X140399225Y-107083789D01*
X140553539Y-107137786D01*
X140553542Y-107137786D01*
X140553544Y-107137787D01*
X140715996Y-107156091D01*
X140716000Y-107156091D01*
X140716004Y-107156091D01*
X140878455Y-107137787D01*
X140878456Y-107137786D01*
X140878461Y-107137786D01*
X141032775Y-107083789D01*
X141171204Y-106996808D01*
X141286808Y-106881204D01*
X141373789Y-106742775D01*
X141427786Y-106588461D01*
X141435328Y-106521523D01*
X141446091Y-106426003D01*
X141446091Y-106425996D01*
X141427787Y-106263544D01*
X141427786Y-106263542D01*
X141427786Y-106263539D01*
X141373789Y-106109225D01*
X141286808Y-105970796D01*
X141171204Y-105855192D01*
X141093863Y-105806595D01*
X141032774Y-105768210D01*
X140878455Y-105714212D01*
X140716004Y-105695909D01*
X140715996Y-105695909D01*
X140553544Y-105714212D01*
X140399225Y-105768210D01*
X140260795Y-105855192D01*
X140145192Y-105970795D01*
X140058210Y-106109225D01*
X140004212Y-106263544D01*
X139985909Y-106425996D01*
X133614008Y-106425996D01*
X133551204Y-106363192D01*
X133412774Y-106276210D01*
X133258455Y-106222212D01*
X133096004Y-106203909D01*
X133095996Y-106203909D01*
X132933544Y-106222212D01*
X132779225Y-106276210D01*
X132640795Y-106363192D01*
X132525192Y-106478795D01*
X132438210Y-106617225D01*
X132384212Y-106771544D01*
X132365909Y-106933996D01*
X124387895Y-106933996D01*
X124383358Y-106920887D01*
X124399831Y-106852987D01*
X124441247Y-106809993D01*
X124454262Y-106801816D01*
X124581816Y-106674262D01*
X124677789Y-106521522D01*
X124737368Y-106351255D01*
X124737369Y-106351249D01*
X124757565Y-106172003D01*
X124757565Y-106171996D01*
X124737369Y-105992750D01*
X124737368Y-105992745D01*
X124690699Y-105859372D01*
X124677789Y-105822478D01*
X124646952Y-105773402D01*
X124638582Y-105760080D01*
X124581816Y-105669738D01*
X124454262Y-105542184D01*
X124446048Y-105537023D01*
X124301523Y-105446211D01*
X124131254Y-105386631D01*
X124131249Y-105386630D01*
X123952004Y-105366435D01*
X123951996Y-105366435D01*
X123772750Y-105386630D01*
X123772745Y-105386631D01*
X123602476Y-105446211D01*
X123449737Y-105542184D01*
X123322184Y-105669737D01*
X123226211Y-105822476D01*
X123166631Y-105992745D01*
X123166630Y-105992750D01*
X123146435Y-106171996D01*
X123146435Y-106172003D01*
X123166630Y-106351249D01*
X123166631Y-106351254D01*
X123226211Y-106521523D01*
X123248909Y-106557646D01*
X123267909Y-106624883D01*
X123247541Y-106691718D01*
X123194273Y-106736932D01*
X123141428Y-106746843D01*
X123141428Y-106747500D01*
X123138476Y-106747500D01*
X122733524Y-106747500D01*
X122491652Y-106770595D01*
X122330401Y-106785993D01*
X122330389Y-106785995D01*
X121932781Y-106862628D01*
X121932764Y-106862632D01*
X121544231Y-106976715D01*
X121544219Y-106976719D01*
X121168283Y-107127221D01*
X121168279Y-107127223D01*
X120808343Y-107312783D01*
X120467683Y-107531711D01*
X120467676Y-107531716D01*
X120467672Y-107531719D01*
X120288470Y-107672645D01*
X120149359Y-107782043D01*
X120149357Y-107782044D01*
X119856283Y-108061490D01*
X119856281Y-108061492D01*
X119591094Y-108367534D01*
X119591083Y-108367547D01*
X119356206Y-108697384D01*
X119356197Y-108697400D01*
X119349884Y-108708333D01*
X119299317Y-108756546D01*
X119230710Y-108769767D01*
X119165846Y-108743798D01*
X119125319Y-108686883D01*
X119118500Y-108646329D01*
X119118500Y-104139996D01*
X120681909Y-104139996D01*
X120681909Y-104140003D01*
X120700212Y-104302455D01*
X120754210Y-104456774D01*
X120816844Y-104556455D01*
X120841192Y-104595204D01*
X120956796Y-104710808D01*
X121095225Y-104797789D01*
X121249539Y-104851786D01*
X121249542Y-104851786D01*
X121249544Y-104851787D01*
X121411996Y-104870091D01*
X121412000Y-104870091D01*
X121412004Y-104870091D01*
X121574455Y-104851787D01*
X121574456Y-104851786D01*
X121574461Y-104851786D01*
X121728775Y-104797789D01*
X121867204Y-104710808D01*
X121982808Y-104595204D01*
X122069789Y-104456775D01*
X122091756Y-104393996D01*
X139223909Y-104393996D01*
X139223909Y-104394003D01*
X139242212Y-104556455D01*
X139296210Y-104710774D01*
X139350886Y-104797789D01*
X139383192Y-104849204D01*
X139498796Y-104964808D01*
X139637225Y-105051789D01*
X139791539Y-105105786D01*
X139791542Y-105105786D01*
X139791544Y-105105787D01*
X139953996Y-105124091D01*
X139954000Y-105124091D01*
X139954004Y-105124091D01*
X140116455Y-105105787D01*
X140116456Y-105105786D01*
X140116461Y-105105786D01*
X140270775Y-105051789D01*
X140409204Y-104964808D01*
X140524808Y-104849204D01*
X140611789Y-104710775D01*
X140665786Y-104556461D01*
X140665787Y-104556455D01*
X140684091Y-104394003D01*
X140684091Y-104393996D01*
X140665787Y-104231544D01*
X140665786Y-104231542D01*
X140665786Y-104231539D01*
X140611789Y-104077225D01*
X140524808Y-103938796D01*
X140409204Y-103823192D01*
X140363479Y-103794461D01*
X140270774Y-103736210D01*
X140116455Y-103682212D01*
X139954004Y-103663909D01*
X139953996Y-103663909D01*
X139791544Y-103682212D01*
X139637225Y-103736210D01*
X139498795Y-103823192D01*
X139383192Y-103938795D01*
X139296210Y-104077225D01*
X139242212Y-104231544D01*
X139223909Y-104393996D01*
X122091756Y-104393996D01*
X122123786Y-104302461D01*
X122125214Y-104289789D01*
X122142091Y-104140003D01*
X122142091Y-104139996D01*
X122123787Y-103977544D01*
X122123786Y-103977542D01*
X122123786Y-103977539D01*
X122069789Y-103823225D01*
X121982808Y-103684796D01*
X121867204Y-103569192D01*
X121855963Y-103562129D01*
X121728774Y-103482210D01*
X121574455Y-103428212D01*
X121412004Y-103409909D01*
X121411996Y-103409909D01*
X121249544Y-103428212D01*
X121095225Y-103482210D01*
X120956795Y-103569192D01*
X120841192Y-103684795D01*
X120754210Y-103823225D01*
X120700212Y-103977544D01*
X120681909Y-104139996D01*
X119118500Y-104139996D01*
X119118500Y-103123996D01*
X131095909Y-103123996D01*
X131095909Y-103124003D01*
X131114212Y-103286455D01*
X131168210Y-103440774D01*
X131242121Y-103558401D01*
X131255192Y-103579204D01*
X131370796Y-103694808D01*
X131509225Y-103781789D01*
X131663539Y-103835786D01*
X131663542Y-103835786D01*
X131663544Y-103835787D01*
X131825996Y-103854091D01*
X131826000Y-103854091D01*
X131826004Y-103854091D01*
X131988455Y-103835787D01*
X131988456Y-103835786D01*
X131988461Y-103835786D01*
X132142775Y-103781789D01*
X132281204Y-103694808D01*
X132396808Y-103579204D01*
X132483789Y-103440775D01*
X132505756Y-103377996D01*
X133127909Y-103377996D01*
X133127909Y-103378003D01*
X133146212Y-103540455D01*
X133200210Y-103694774D01*
X133221067Y-103727967D01*
X133287192Y-103833204D01*
X133402796Y-103948808D01*
X133541225Y-104035789D01*
X133695539Y-104089786D01*
X133695542Y-104089786D01*
X133695544Y-104089787D01*
X133857996Y-104108091D01*
X133858000Y-104108091D01*
X133858004Y-104108091D01*
X134020455Y-104089787D01*
X134020456Y-104089786D01*
X134020461Y-104089786D01*
X134174775Y-104035789D01*
X134313204Y-103948808D01*
X134428808Y-103833204D01*
X134515789Y-103694775D01*
X134569786Y-103540461D01*
X134576350Y-103482210D01*
X134581342Y-103437901D01*
X134608408Y-103373487D01*
X134666003Y-103333932D01*
X134718444Y-103328564D01*
X134797647Y-103337488D01*
X134873998Y-103346091D01*
X134874000Y-103346091D01*
X134874004Y-103346091D01*
X135036455Y-103327787D01*
X135036456Y-103327786D01*
X135036461Y-103327786D01*
X135138968Y-103291916D01*
X135208744Y-103288354D01*
X135269372Y-103323083D01*
X135301599Y-103385076D01*
X135303141Y-103395072D01*
X135305212Y-103413455D01*
X135359210Y-103567774D01*
X135399564Y-103631996D01*
X135446192Y-103706204D01*
X135561796Y-103821808D01*
X135700225Y-103908789D01*
X135854539Y-103962786D01*
X135854542Y-103962786D01*
X135854544Y-103962787D01*
X136016996Y-103981091D01*
X136017000Y-103981091D01*
X136017004Y-103981091D01*
X136179455Y-103962787D01*
X136179456Y-103962786D01*
X136179461Y-103962786D01*
X136333775Y-103908789D01*
X136472204Y-103821808D01*
X136587808Y-103706204D01*
X136674789Y-103567775D01*
X136728786Y-103413461D01*
X136728787Y-103413455D01*
X136747091Y-103251003D01*
X136747091Y-103250996D01*
X136728787Y-103088544D01*
X136728786Y-103088542D01*
X136728786Y-103088539D01*
X136674789Y-102934225D01*
X136587808Y-102795796D01*
X136582922Y-102790910D01*
X136549437Y-102729587D01*
X136553561Y-102662277D01*
X136601786Y-102524461D01*
X136601786Y-102524459D01*
X136601787Y-102524457D01*
X136620091Y-102362003D01*
X136620091Y-102361996D01*
X136601787Y-102199544D01*
X136601786Y-102199542D01*
X136601786Y-102199539D01*
X136547789Y-102045225D01*
X136460808Y-101906796D01*
X136345204Y-101791192D01*
X136311207Y-101769830D01*
X136206774Y-101704210D01*
X136052455Y-101650212D01*
X135890004Y-101631909D01*
X135889996Y-101631909D01*
X135727544Y-101650212D01*
X135573225Y-101704210D01*
X135434795Y-101791192D01*
X135319194Y-101906793D01*
X135314851Y-101912240D01*
X135312652Y-101910486D01*
X135269785Y-101948367D01*
X135200726Y-101958982D01*
X135176226Y-101953120D01*
X135036455Y-101904212D01*
X134874004Y-101885909D01*
X134873996Y-101885909D01*
X134711544Y-101904212D01*
X134557225Y-101958210D01*
X134418795Y-102045192D01*
X134303192Y-102160795D01*
X134216210Y-102299225D01*
X134162212Y-102453544D01*
X134150657Y-102556099D01*
X134123590Y-102620513D01*
X134065995Y-102660068D01*
X134013554Y-102665435D01*
X133858004Y-102647909D01*
X133857996Y-102647909D01*
X133695544Y-102666212D01*
X133541225Y-102720210D01*
X133402795Y-102807192D01*
X133287192Y-102922795D01*
X133200210Y-103061225D01*
X133146212Y-103215544D01*
X133127909Y-103377996D01*
X132505756Y-103377996D01*
X132537786Y-103286461D01*
X132541782Y-103250996D01*
X132556091Y-103124003D01*
X132556091Y-103123996D01*
X132537787Y-102961544D01*
X132537786Y-102961542D01*
X132537786Y-102961539D01*
X132483789Y-102807225D01*
X132396808Y-102668796D01*
X132281204Y-102553192D01*
X132235473Y-102524457D01*
X132142774Y-102466210D01*
X131988455Y-102412212D01*
X131826004Y-102393909D01*
X131825996Y-102393909D01*
X131663544Y-102412212D01*
X131509225Y-102466210D01*
X131370795Y-102553192D01*
X131255192Y-102668795D01*
X131168210Y-102807225D01*
X131114212Y-102961544D01*
X131095909Y-103123996D01*
X119118500Y-103123996D01*
X119118500Y-101218996D01*
X136810909Y-101218996D01*
X136810909Y-101219003D01*
X136829212Y-101381455D01*
X136883210Y-101535774D01*
X136943616Y-101631909D01*
X136970192Y-101674204D01*
X137085796Y-101789808D01*
X137224225Y-101876789D01*
X137342399Y-101918140D01*
X137399174Y-101958861D01*
X137424922Y-102023813D01*
X137411466Y-102092375D01*
X137389126Y-102122861D01*
X137351192Y-102160795D01*
X137264210Y-102299225D01*
X137210212Y-102453544D01*
X137191909Y-102615996D01*
X137191909Y-102616003D01*
X137210212Y-102778455D01*
X137264210Y-102932774D01*
X137342913Y-103058028D01*
X137361913Y-103125264D01*
X137342913Y-103189972D01*
X137264210Y-103315225D01*
X137210212Y-103469544D01*
X137191909Y-103631996D01*
X137191909Y-103632003D01*
X137210212Y-103794455D01*
X137264210Y-103948774D01*
X137316504Y-104031998D01*
X137351192Y-104087204D01*
X137466796Y-104202808D01*
X137605225Y-104289789D01*
X137759539Y-104343786D01*
X137759542Y-104343786D01*
X137759544Y-104343787D01*
X137921996Y-104362091D01*
X137922000Y-104362091D01*
X137922004Y-104362091D01*
X138084455Y-104343787D01*
X138084456Y-104343786D01*
X138084461Y-104343786D01*
X138238775Y-104289789D01*
X138377204Y-104202808D01*
X138492808Y-104087204D01*
X138579789Y-103948775D01*
X138633786Y-103794461D01*
X138633787Y-103794455D01*
X138652091Y-103632003D01*
X138652091Y-103631996D01*
X143033909Y-103631996D01*
X143033909Y-103632003D01*
X143052212Y-103794455D01*
X143106210Y-103948774D01*
X143158504Y-104031998D01*
X143193192Y-104087204D01*
X143308796Y-104202808D01*
X143447225Y-104289789D01*
X143601539Y-104343786D01*
X143601542Y-104343786D01*
X143601544Y-104343787D01*
X143763996Y-104362091D01*
X143764000Y-104362091D01*
X143764004Y-104362091D01*
X143926455Y-104343787D01*
X143926456Y-104343786D01*
X143926461Y-104343786D01*
X144080775Y-104289789D01*
X144219204Y-104202808D01*
X144334808Y-104087204D01*
X144421789Y-103948775D01*
X144475786Y-103794461D01*
X144475787Y-103794455D01*
X144494091Y-103632003D01*
X144494091Y-103631996D01*
X144475787Y-103469544D01*
X144475786Y-103469542D01*
X144475786Y-103469539D01*
X144421789Y-103315225D01*
X144334808Y-103176796D01*
X144219204Y-103061192D01*
X144153312Y-103019789D01*
X144080774Y-102974210D01*
X143926455Y-102920212D01*
X143764004Y-102901909D01*
X143763996Y-102901909D01*
X143601544Y-102920212D01*
X143447225Y-102974210D01*
X143308795Y-103061192D01*
X143193192Y-103176795D01*
X143106210Y-103315225D01*
X143052212Y-103469544D01*
X143033909Y-103631996D01*
X138652091Y-103631996D01*
X138633787Y-103469544D01*
X138633786Y-103469542D01*
X138633786Y-103469539D01*
X138579789Y-103315225D01*
X138501086Y-103189971D01*
X138482086Y-103122736D01*
X138501087Y-103058028D01*
X138579789Y-102932775D01*
X138633786Y-102778461D01*
X138644250Y-102685587D01*
X138671316Y-102621174D01*
X138728910Y-102581618D01*
X138753585Y-102576250D01*
X138807902Y-102570130D01*
X138846454Y-102565787D01*
X138846454Y-102565786D01*
X138846461Y-102565786D01*
X139000775Y-102511789D01*
X139139204Y-102424808D01*
X139202016Y-102361996D01*
X141509909Y-102361996D01*
X141509909Y-102362003D01*
X141528212Y-102524455D01*
X141582210Y-102678774D01*
X141582211Y-102678775D01*
X141669192Y-102817204D01*
X141784796Y-102932808D01*
X141923225Y-103019789D01*
X142077539Y-103073786D01*
X142077542Y-103073786D01*
X142077544Y-103073787D01*
X142239996Y-103092091D01*
X142240000Y-103092091D01*
X142240004Y-103092091D01*
X142402455Y-103073787D01*
X142402456Y-103073786D01*
X142402461Y-103073786D01*
X142556775Y-103019789D01*
X142695204Y-102932808D01*
X142810808Y-102817204D01*
X142897789Y-102678775D01*
X142951786Y-102524461D01*
X142957393Y-102474700D01*
X142970091Y-102362003D01*
X142970091Y-102361996D01*
X142951787Y-102199544D01*
X142951786Y-102199542D01*
X142951786Y-102199539D01*
X142897789Y-102045225D01*
X142810808Y-101906796D01*
X142758008Y-101853996D01*
X144557909Y-101853996D01*
X144557909Y-101854003D01*
X144576212Y-102016455D01*
X144630210Y-102170774D01*
X144660683Y-102219271D01*
X144717192Y-102309204D01*
X144832796Y-102424808D01*
X144971225Y-102511789D01*
X145125539Y-102565786D01*
X145125542Y-102565786D01*
X145125544Y-102565787D01*
X145287996Y-102584091D01*
X145288000Y-102584091D01*
X145288004Y-102584091D01*
X145450455Y-102565787D01*
X145450456Y-102565786D01*
X145450461Y-102565786D01*
X145604775Y-102511789D01*
X145743204Y-102424808D01*
X145788560Y-102379451D01*
X145849881Y-102345967D01*
X145919572Y-102350951D01*
X145950550Y-102367866D01*
X145973906Y-102385350D01*
X145973913Y-102385354D01*
X146108620Y-102435596D01*
X146108627Y-102435598D01*
X146168155Y-102441999D01*
X146168172Y-102442000D01*
X146816000Y-102442000D01*
X146816000Y-101525012D01*
X146873007Y-101557925D01*
X147000174Y-101592000D01*
X147131826Y-101592000D01*
X147258993Y-101557925D01*
X147316000Y-101525012D01*
X147316000Y-102442000D01*
X147963828Y-102442000D01*
X147963844Y-102441999D01*
X148023372Y-102435598D01*
X148023379Y-102435596D01*
X148158086Y-102385354D01*
X148158093Y-102385350D01*
X148273187Y-102299190D01*
X148273190Y-102299187D01*
X148359350Y-102184093D01*
X148359354Y-102184086D01*
X148408422Y-102052529D01*
X148450293Y-101996595D01*
X148515757Y-101972178D01*
X148584030Y-101987030D01*
X148612285Y-102008181D01*
X148734599Y-102130495D01*
X148792125Y-102170775D01*
X148928165Y-102266032D01*
X148928167Y-102266033D01*
X148928170Y-102266035D01*
X149142337Y-102365903D01*
X149142343Y-102365904D01*
X149142344Y-102365905D01*
X149149663Y-102367866D01*
X149370592Y-102427063D01*
X149541319Y-102442000D01*
X149605999Y-102447659D01*
X149606000Y-102447659D01*
X149606001Y-102447659D01*
X149670681Y-102442000D01*
X149841408Y-102427063D01*
X150069663Y-102365903D01*
X150283830Y-102266035D01*
X150477401Y-102130495D01*
X150644495Y-101963401D01*
X150774425Y-101777842D01*
X150829002Y-101734217D01*
X150898500Y-101727023D01*
X150960855Y-101758546D01*
X150977575Y-101777842D01*
X151107501Y-101963396D01*
X151107506Y-101963402D01*
X151274597Y-102130493D01*
X151274603Y-102130498D01*
X151345204Y-102179933D01*
X151388829Y-102234509D01*
X151396023Y-102304008D01*
X151364500Y-102366363D01*
X151304271Y-102401777D01*
X151287966Y-102404728D01*
X151221544Y-102412212D01*
X151067225Y-102466210D01*
X150928795Y-102553192D01*
X150813192Y-102668795D01*
X150726210Y-102807225D01*
X150672212Y-102961544D01*
X150653909Y-103123996D01*
X150653909Y-103124003D01*
X150672212Y-103286455D01*
X150726210Y-103440774D01*
X150800121Y-103558401D01*
X150813192Y-103579204D01*
X150928796Y-103694808D01*
X151067225Y-103781789D01*
X151095106Y-103791545D01*
X151151882Y-103832265D01*
X151177631Y-103897218D01*
X151164176Y-103965780D01*
X151141835Y-103996267D01*
X151107506Y-104030596D01*
X150977575Y-104216158D01*
X150922998Y-104259783D01*
X150853500Y-104266977D01*
X150791145Y-104235454D01*
X150774425Y-104216158D01*
X150644494Y-104030597D01*
X150477402Y-103863506D01*
X150477395Y-103863501D01*
X150283834Y-103727967D01*
X150283830Y-103727965D01*
X150283828Y-103727964D01*
X150069663Y-103628097D01*
X150069659Y-103628096D01*
X150069655Y-103628094D01*
X149841413Y-103566938D01*
X149841403Y-103566936D01*
X149606001Y-103546341D01*
X149605999Y-103546341D01*
X149370596Y-103566936D01*
X149370586Y-103566938D01*
X149142344Y-103628094D01*
X149142335Y-103628098D01*
X148928171Y-103727964D01*
X148928169Y-103727965D01*
X148734600Y-103863503D01*
X148612284Y-103985819D01*
X148550961Y-104019303D01*
X148481269Y-104014319D01*
X148425336Y-103972447D01*
X148408421Y-103941470D01*
X148359354Y-103809913D01*
X148359350Y-103809906D01*
X148273190Y-103694812D01*
X148273187Y-103694809D01*
X148158093Y-103608649D01*
X148158086Y-103608645D01*
X148023379Y-103558403D01*
X148023372Y-103558401D01*
X147963844Y-103552000D01*
X147316000Y-103552000D01*
X147316000Y-104468988D01*
X147258993Y-104436075D01*
X147131826Y-104402000D01*
X147000174Y-104402000D01*
X146873007Y-104436075D01*
X146816000Y-104468988D01*
X146816000Y-103552000D01*
X146168155Y-103552000D01*
X146108627Y-103558401D01*
X146108620Y-103558403D01*
X145973913Y-103608645D01*
X145973906Y-103608649D01*
X145858812Y-103694809D01*
X145858809Y-103694812D01*
X145772649Y-103809906D01*
X145772645Y-103809913D01*
X145722403Y-103944620D01*
X145722401Y-103944627D01*
X145716000Y-104004155D01*
X145716000Y-104652000D01*
X146632988Y-104652000D01*
X146600075Y-104709007D01*
X146566000Y-104836174D01*
X146566000Y-104967826D01*
X146600075Y-105094993D01*
X146632988Y-105152000D01*
X145716000Y-105152000D01*
X145716000Y-105799844D01*
X145722401Y-105859372D01*
X145722403Y-105859379D01*
X145772645Y-105994086D01*
X145772649Y-105994093D01*
X145858809Y-106109187D01*
X145858812Y-106109190D01*
X145973906Y-106195350D01*
X145973913Y-106195354D01*
X146108620Y-106245596D01*
X146108627Y-106245598D01*
X146168155Y-106251999D01*
X146168172Y-106252000D01*
X146816000Y-106252000D01*
X146816000Y-105335012D01*
X146873007Y-105367925D01*
X147000174Y-105402000D01*
X147131826Y-105402000D01*
X147258993Y-105367925D01*
X147316000Y-105335012D01*
X147316000Y-106252000D01*
X147963828Y-106252000D01*
X147963844Y-106251999D01*
X148023372Y-106245598D01*
X148023379Y-106245596D01*
X148158086Y-106195354D01*
X148158093Y-106195350D01*
X148273187Y-106109190D01*
X148273190Y-106109187D01*
X148359350Y-105994093D01*
X148359354Y-105994086D01*
X148408422Y-105862529D01*
X148450293Y-105806595D01*
X148515757Y-105782178D01*
X148584030Y-105797030D01*
X148612285Y-105818181D01*
X148734599Y-105940495D01*
X148809220Y-105992745D01*
X148928165Y-106076032D01*
X148928167Y-106076033D01*
X148928170Y-106076035D01*
X149142337Y-106175903D01*
X149370592Y-106237063D01*
X149541319Y-106252000D01*
X149605999Y-106257659D01*
X149606000Y-106257659D01*
X149606001Y-106257659D01*
X149670681Y-106252000D01*
X149841408Y-106237063D01*
X150069663Y-106175903D01*
X150283830Y-106076035D01*
X150477401Y-105940495D01*
X150644495Y-105773401D01*
X150774425Y-105587842D01*
X150829002Y-105544217D01*
X150898500Y-105537023D01*
X150960855Y-105568546D01*
X150977575Y-105587842D01*
X151107500Y-105773395D01*
X151107505Y-105773401D01*
X151274599Y-105940495D01*
X151349220Y-105992745D01*
X151468165Y-106076032D01*
X151468167Y-106076033D01*
X151468170Y-106076035D01*
X151682337Y-106175903D01*
X151910592Y-106237063D01*
X152081319Y-106252000D01*
X152145999Y-106257659D01*
X152146000Y-106257659D01*
X152146001Y-106257659D01*
X152210681Y-106252000D01*
X152381408Y-106237063D01*
X152609663Y-106175903D01*
X152618042Y-106171996D01*
X155338907Y-106171996D01*
X155338907Y-106172003D01*
X155357210Y-106334455D01*
X155357211Y-106334460D01*
X155357212Y-106334461D01*
X155364377Y-106354939D01*
X155411208Y-106488774D01*
X155473842Y-106588455D01*
X155498190Y-106627204D01*
X155613794Y-106742808D01*
X155752223Y-106829789D01*
X155906537Y-106883786D01*
X155906540Y-106883786D01*
X155906542Y-106883787D01*
X156068994Y-106902091D01*
X156068998Y-106902091D01*
X156069002Y-106902091D01*
X156231453Y-106883787D01*
X156231454Y-106883786D01*
X156231459Y-106883786D01*
X156385773Y-106829789D01*
X156524202Y-106742808D01*
X156639806Y-106627204D01*
X156726787Y-106488775D01*
X156780784Y-106334461D01*
X156780785Y-106334455D01*
X156799089Y-106172003D01*
X156799089Y-106171996D01*
X156780785Y-106009544D01*
X156780784Y-106009542D01*
X156780784Y-106009539D01*
X156726787Y-105855225D01*
X156639806Y-105716796D01*
X156524202Y-105601192D01*
X156490205Y-105579830D01*
X156385772Y-105514210D01*
X156231453Y-105460212D01*
X156069002Y-105441909D01*
X156068994Y-105441909D01*
X155906542Y-105460212D01*
X155752223Y-105514210D01*
X155613793Y-105601192D01*
X155498190Y-105716795D01*
X155411208Y-105855225D01*
X155357210Y-106009544D01*
X155338907Y-106171996D01*
X152618042Y-106171996D01*
X152823830Y-106076035D01*
X153017401Y-105940495D01*
X153184495Y-105773401D01*
X153320035Y-105579830D01*
X153419903Y-105365663D01*
X153481063Y-105137408D01*
X153501659Y-104902000D01*
X153481063Y-104666592D01*
X153419903Y-104438337D01*
X153320035Y-104224171D01*
X153317576Y-104220658D01*
X153184494Y-104030597D01*
X153017402Y-103863506D01*
X153017395Y-103863501D01*
X152823834Y-103727967D01*
X152823830Y-103727965D01*
X152823828Y-103727964D01*
X152609663Y-103628097D01*
X152609659Y-103628096D01*
X152609655Y-103628094D01*
X152381413Y-103566938D01*
X152381403Y-103566936D01*
X152167965Y-103548262D01*
X152102896Y-103522809D01*
X152061918Y-103466218D01*
X152058040Y-103396456D01*
X152061726Y-103383798D01*
X152095786Y-103286461D01*
X152099782Y-103250996D01*
X152101696Y-103234009D01*
X166142825Y-103234009D01*
X166142825Y-103365990D01*
X166156459Y-103469539D01*
X166163270Y-103521274D01*
X166197423Y-103648735D01*
X166197428Y-103648751D01*
X166257357Y-103793433D01*
X166257364Y-103793447D01*
X166279776Y-103832265D01*
X166323345Y-103907729D01*
X166323350Y-103907735D01*
X166323351Y-103907737D01*
X166418694Y-104031991D01*
X166418700Y-104031998D01*
X166512001Y-104125299D01*
X166512007Y-104125304D01*
X166636271Y-104220655D01*
X166750555Y-104286637D01*
X166750560Y-104286639D01*
X166750566Y-104286642D01*
X166895248Y-104346571D01*
X166895254Y-104346572D01*
X166895264Y-104346577D01*
X167022726Y-104380730D01*
X167178017Y-104401175D01*
X167178024Y-104401175D01*
X167309976Y-104401175D01*
X167309983Y-104401175D01*
X167465274Y-104380730D01*
X167592736Y-104346577D01*
X167592748Y-104346571D01*
X167592751Y-104346571D01*
X167737433Y-104286642D01*
X167737433Y-104286641D01*
X167737445Y-104286637D01*
X167851729Y-104220655D01*
X167975993Y-104125304D01*
X168069304Y-104031993D01*
X168164655Y-103907729D01*
X168230637Y-103793445D01*
X168271493Y-103694809D01*
X168290571Y-103648751D01*
X168290571Y-103648748D01*
X168290577Y-103648736D01*
X168324730Y-103521274D01*
X168345175Y-103365983D01*
X168345175Y-103234017D01*
X168324730Y-103078726D01*
X168290577Y-102951264D01*
X168290572Y-102951254D01*
X168290571Y-102951248D01*
X168230642Y-102806566D01*
X168230639Y-102806560D01*
X168230637Y-102806555D01*
X168164655Y-102692271D01*
X168130615Y-102647909D01*
X168069305Y-102568008D01*
X168069299Y-102568001D01*
X167975998Y-102474700D01*
X167975991Y-102474694D01*
X167851737Y-102379351D01*
X167851735Y-102379350D01*
X167851729Y-102379345D01*
X167737445Y-102313363D01*
X167737433Y-102313357D01*
X167592751Y-102253428D01*
X167592739Y-102253424D01*
X167592736Y-102253423D01*
X167465274Y-102219270D01*
X167439317Y-102215852D01*
X167309990Y-102198825D01*
X167309983Y-102198825D01*
X167178017Y-102198825D01*
X167178009Y-102198825D01*
X167030206Y-102218285D01*
X167022726Y-102219270D01*
X166965853Y-102234509D01*
X166895264Y-102253423D01*
X166895248Y-102253428D01*
X166750566Y-102313357D01*
X166750552Y-102313364D01*
X166636277Y-102379341D01*
X166636262Y-102379351D01*
X166512008Y-102474694D01*
X166512001Y-102474700D01*
X166418700Y-102568001D01*
X166418694Y-102568008D01*
X166323351Y-102692262D01*
X166323341Y-102692277D01*
X166257364Y-102806552D01*
X166257357Y-102806566D01*
X166197428Y-102951248D01*
X166197423Y-102951264D01*
X166164594Y-103073787D01*
X166163271Y-103078723D01*
X166163269Y-103078734D01*
X166142825Y-103234009D01*
X152101696Y-103234009D01*
X152114091Y-103124003D01*
X152114091Y-103123996D01*
X152095787Y-102961544D01*
X152095786Y-102961542D01*
X152095786Y-102961539D01*
X152041789Y-102807225D01*
X151954808Y-102668796D01*
X151935039Y-102649027D01*
X151901554Y-102587704D01*
X151906538Y-102518012D01*
X151948410Y-102462079D01*
X152013874Y-102437662D01*
X152033518Y-102437817D01*
X152146000Y-102447659D01*
X152146001Y-102447659D01*
X152210681Y-102442000D01*
X152381408Y-102427063D01*
X152609663Y-102365903D01*
X152823830Y-102266035D01*
X153017401Y-102130495D01*
X153184495Y-101963401D01*
X153320035Y-101769830D01*
X153419903Y-101555663D01*
X153481063Y-101327408D01*
X153501659Y-101092000D01*
X153498556Y-101056539D01*
X153495900Y-101026174D01*
X153481063Y-100856592D01*
X153419903Y-100628337D01*
X153320035Y-100414171D01*
X153314425Y-100406158D01*
X153184494Y-100220597D01*
X153017402Y-100053506D01*
X153017395Y-100053501D01*
X152823834Y-99917967D01*
X152823830Y-99917965D01*
X152801729Y-99907659D01*
X152609663Y-99818097D01*
X152609659Y-99818096D01*
X152609655Y-99818094D01*
X152381413Y-99756938D01*
X152381403Y-99756936D01*
X152146001Y-99736341D01*
X152145999Y-99736341D01*
X151910596Y-99756936D01*
X151910586Y-99756938D01*
X151682344Y-99818094D01*
X151682335Y-99818098D01*
X151468171Y-99917964D01*
X151468169Y-99917965D01*
X151274597Y-100053505D01*
X151107505Y-100220597D01*
X150977575Y-100406158D01*
X150922998Y-100449783D01*
X150853500Y-100456977D01*
X150791145Y-100425454D01*
X150774425Y-100406158D01*
X150644494Y-100220597D01*
X150477402Y-100053506D01*
X150477395Y-100053501D01*
X150283834Y-99917967D01*
X150283830Y-99917965D01*
X150261729Y-99907659D01*
X150069663Y-99818097D01*
X150069659Y-99818096D01*
X150069655Y-99818094D01*
X149841413Y-99756938D01*
X149841403Y-99756936D01*
X149606001Y-99736341D01*
X149605999Y-99736341D01*
X149370596Y-99756936D01*
X149370586Y-99756938D01*
X149142344Y-99818094D01*
X149142335Y-99818098D01*
X148928171Y-99917964D01*
X148928169Y-99917965D01*
X148734600Y-100053503D01*
X148612284Y-100175819D01*
X148550961Y-100209303D01*
X148481269Y-100204319D01*
X148425336Y-100162447D01*
X148408421Y-100131470D01*
X148359354Y-99999913D01*
X148359350Y-99999906D01*
X148273190Y-99884812D01*
X148273187Y-99884809D01*
X148158093Y-99798649D01*
X148158086Y-99798645D01*
X148023379Y-99748403D01*
X148023372Y-99748401D01*
X147963844Y-99742000D01*
X147316000Y-99742000D01*
X147316000Y-100658988D01*
X147258993Y-100626075D01*
X147131826Y-100592000D01*
X147000174Y-100592000D01*
X146873007Y-100626075D01*
X146816000Y-100658988D01*
X146816000Y-99742000D01*
X146168155Y-99742000D01*
X146108627Y-99748401D01*
X146108620Y-99748403D01*
X145973913Y-99798645D01*
X145973906Y-99798649D01*
X145858812Y-99884809D01*
X145858809Y-99884812D01*
X145772649Y-99999906D01*
X145772645Y-99999913D01*
X145722403Y-100134620D01*
X145722401Y-100134627D01*
X145716000Y-100194155D01*
X145716000Y-100842000D01*
X146632988Y-100842000D01*
X146600075Y-100899007D01*
X146566000Y-101026174D01*
X146566000Y-101157826D01*
X146600075Y-101284993D01*
X146632988Y-101342000D01*
X145853374Y-101342000D01*
X145786335Y-101322315D01*
X145765693Y-101305681D01*
X145743204Y-101283192D01*
X145604774Y-101196210D01*
X145450455Y-101142212D01*
X145288004Y-101123909D01*
X145287996Y-101123909D01*
X145125544Y-101142212D01*
X144971225Y-101196210D01*
X144832795Y-101283192D01*
X144717192Y-101398795D01*
X144630210Y-101537225D01*
X144576212Y-101691544D01*
X144557909Y-101853996D01*
X142758008Y-101853996D01*
X142695204Y-101791192D01*
X142661207Y-101769830D01*
X142556774Y-101704210D01*
X142402455Y-101650212D01*
X142240004Y-101631909D01*
X142239996Y-101631909D01*
X142077544Y-101650212D01*
X141923225Y-101704210D01*
X141784795Y-101791192D01*
X141669192Y-101906795D01*
X141582210Y-102045225D01*
X141528212Y-102199544D01*
X141509909Y-102361996D01*
X139202016Y-102361996D01*
X139254808Y-102309204D01*
X139341789Y-102170775D01*
X139395786Y-102016461D01*
X139397471Y-102001507D01*
X139414091Y-101854003D01*
X139414091Y-101853996D01*
X139395787Y-101691544D01*
X139395786Y-101691542D01*
X139395786Y-101691539D01*
X139341789Y-101537225D01*
X139254808Y-101398796D01*
X139139204Y-101283192D01*
X139101470Y-101259482D01*
X139000774Y-101196210D01*
X138846455Y-101142212D01*
X138684004Y-101123909D01*
X138683996Y-101123909D01*
X138521543Y-101142212D01*
X138419031Y-101178082D01*
X138349252Y-101181643D01*
X138288625Y-101146913D01*
X138256399Y-101084920D01*
X138254858Y-101074923D01*
X138252787Y-101056544D01*
X138252786Y-101056542D01*
X138252786Y-101056539D01*
X138198789Y-100902225D01*
X138111808Y-100763796D01*
X137996204Y-100648192D01*
X137961005Y-100626075D01*
X137857774Y-100561210D01*
X137703455Y-100507212D01*
X137541004Y-100488909D01*
X137540996Y-100488909D01*
X137378544Y-100507212D01*
X137224225Y-100561210D01*
X137085795Y-100648192D01*
X136970192Y-100763795D01*
X136883210Y-100902225D01*
X136829212Y-101056544D01*
X136810909Y-101218996D01*
X119118500Y-101218996D01*
X119118500Y-96011999D01*
X120056341Y-96011999D01*
X120056341Y-96012000D01*
X120076936Y-96247403D01*
X120076938Y-96247413D01*
X120138094Y-96475655D01*
X120138096Y-96475659D01*
X120138097Y-96475663D01*
X120203283Y-96615454D01*
X120237965Y-96689830D01*
X120237967Y-96689834D01*
X120373501Y-96883395D01*
X120373506Y-96883402D01*
X120540597Y-97050493D01*
X120540603Y-97050498D01*
X120726158Y-97180425D01*
X120769783Y-97235002D01*
X120776977Y-97304500D01*
X120745454Y-97366855D01*
X120726158Y-97383575D01*
X120540597Y-97513505D01*
X120373505Y-97680597D01*
X120237965Y-97874169D01*
X120237964Y-97874171D01*
X120138098Y-98088335D01*
X120138094Y-98088344D01*
X120076938Y-98316586D01*
X120076936Y-98316596D01*
X120056341Y-98551999D01*
X120056341Y-98552000D01*
X120076936Y-98787403D01*
X120076938Y-98787413D01*
X120138094Y-99015655D01*
X120138096Y-99015659D01*
X120138097Y-99015663D01*
X120188721Y-99124226D01*
X120237965Y-99229830D01*
X120237967Y-99229834D01*
X120319244Y-99345909D01*
X120373505Y-99423401D01*
X120540599Y-99590495D01*
X120598125Y-99630775D01*
X120734165Y-99726032D01*
X120734167Y-99726033D01*
X120734170Y-99726035D01*
X120948337Y-99825903D01*
X121176592Y-99887063D01*
X121364918Y-99903539D01*
X121411999Y-99907659D01*
X121412000Y-99907659D01*
X121412001Y-99907659D01*
X121451234Y-99904226D01*
X121647408Y-99887063D01*
X121875663Y-99825903D01*
X122089830Y-99726035D01*
X122283401Y-99590495D01*
X122450495Y-99423401D01*
X122586035Y-99229830D01*
X122685903Y-99015663D01*
X122747063Y-98787408D01*
X122767659Y-98552000D01*
X122747063Y-98316592D01*
X122685903Y-98088337D01*
X122586035Y-97874171D01*
X122582929Y-97869734D01*
X122450494Y-97680597D01*
X122305892Y-97535996D01*
X135159909Y-97535996D01*
X135159909Y-97536003D01*
X135178212Y-97698455D01*
X135232210Y-97852774D01*
X135250288Y-97881544D01*
X135319192Y-97991204D01*
X135434796Y-98106808D01*
X135573225Y-98193789D01*
X135727539Y-98247786D01*
X135727543Y-98247786D01*
X135727545Y-98247787D01*
X135786655Y-98254446D01*
X135820411Y-98258250D01*
X135884826Y-98285316D01*
X135924381Y-98342910D01*
X135929749Y-98367587D01*
X135940212Y-98460455D01*
X135994210Y-98614774D01*
X136056848Y-98714461D01*
X136081192Y-98753204D01*
X136196796Y-98868808D01*
X136335225Y-98955789D01*
X136489539Y-99009786D01*
X136489542Y-99009786D01*
X136489544Y-99009787D01*
X136651996Y-99028091D01*
X136652000Y-99028091D01*
X136652004Y-99028091D01*
X136814455Y-99009787D01*
X136814456Y-99009786D01*
X136814461Y-99009786D01*
X136968775Y-98955789D01*
X137107204Y-98868808D01*
X137222808Y-98753204D01*
X137309789Y-98614775D01*
X137363786Y-98460461D01*
X137365214Y-98447789D01*
X137382091Y-98298003D01*
X137382091Y-98297997D01*
X137363196Y-98130300D01*
X137375250Y-98061478D01*
X137422599Y-98010098D01*
X137490210Y-97992474D01*
X137500300Y-97993196D01*
X137664573Y-98011705D01*
X137728986Y-98038771D01*
X137767730Y-98093969D01*
X137772211Y-98106775D01*
X137772212Y-98106777D01*
X137801504Y-98153395D01*
X137859192Y-98245204D01*
X137974796Y-98360808D01*
X138113225Y-98447789D01*
X138267539Y-98501786D01*
X138267542Y-98501786D01*
X138267544Y-98501787D01*
X138429996Y-98520091D01*
X138430000Y-98520091D01*
X138430004Y-98520091D01*
X138592455Y-98501787D01*
X138592456Y-98501786D01*
X138592461Y-98501786D01*
X138746775Y-98447789D01*
X138885204Y-98360808D01*
X139000808Y-98245204D01*
X139087789Y-98106775D01*
X139109756Y-98043996D01*
X140493909Y-98043996D01*
X140493909Y-98044003D01*
X140512212Y-98206455D01*
X140566210Y-98360774D01*
X140584288Y-98389544D01*
X140653192Y-98499204D01*
X140768796Y-98614808D01*
X140907225Y-98701789D01*
X141061539Y-98755786D01*
X141061542Y-98755786D01*
X141061544Y-98755787D01*
X141158092Y-98766665D01*
X141222506Y-98793731D01*
X141262061Y-98851326D01*
X141264199Y-98921163D01*
X141228242Y-98981069D01*
X141219257Y-98987941D01*
X141219424Y-98988151D01*
X141213977Y-98992494D01*
X141098374Y-99108097D01*
X141011392Y-99246527D01*
X140957394Y-99400846D01*
X140939091Y-99563298D01*
X140939091Y-99563305D01*
X140957394Y-99725757D01*
X141011392Y-99880076D01*
X141056253Y-99951471D01*
X141098374Y-100018506D01*
X141213978Y-100134110D01*
X141352407Y-100221091D01*
X141506721Y-100275088D01*
X141506724Y-100275088D01*
X141506726Y-100275089D01*
X141669178Y-100293393D01*
X141669182Y-100293393D01*
X141669186Y-100293393D01*
X141831637Y-100275089D01*
X141831638Y-100275088D01*
X141831643Y-100275088D01*
X141985957Y-100221091D01*
X142124386Y-100134110D01*
X142239990Y-100018506D01*
X142307233Y-99911488D01*
X142359567Y-99865199D01*
X142428620Y-99854550D01*
X142492468Y-99882926D01*
X142530841Y-99941315D01*
X142535446Y-99991344D01*
X142525909Y-100075994D01*
X142525909Y-100076003D01*
X142544212Y-100238455D01*
X142598210Y-100392774D01*
X142660848Y-100492461D01*
X142685192Y-100531204D01*
X142800796Y-100646808D01*
X142939225Y-100733789D01*
X143093539Y-100787786D01*
X143093542Y-100787786D01*
X143093544Y-100787787D01*
X143255996Y-100806091D01*
X143256000Y-100806091D01*
X143256004Y-100806091D01*
X143418455Y-100787787D01*
X143418456Y-100787786D01*
X143418461Y-100787786D01*
X143572775Y-100733789D01*
X143711204Y-100646808D01*
X143826808Y-100531204D01*
X143913789Y-100392775D01*
X143967786Y-100238461D01*
X143969799Y-100220597D01*
X143986091Y-100076003D01*
X143986091Y-100075996D01*
X143967787Y-99913544D01*
X143967786Y-99913542D01*
X143967786Y-99913539D01*
X143913789Y-99759225D01*
X143826808Y-99620796D01*
X143711204Y-99505192D01*
X143665479Y-99476461D01*
X143572774Y-99418210D01*
X143418455Y-99364212D01*
X143256004Y-99345909D01*
X143255996Y-99345909D01*
X143093544Y-99364212D01*
X142939225Y-99418210D01*
X142800795Y-99505192D01*
X142685192Y-99620795D01*
X142685190Y-99620798D01*
X142617948Y-99727812D01*
X142565613Y-99774103D01*
X142496560Y-99784750D01*
X142432712Y-99756375D01*
X142394340Y-99697985D01*
X142389735Y-99647955D01*
X142399273Y-99563304D01*
X142399273Y-99563298D01*
X142380969Y-99400846D01*
X142380968Y-99400844D01*
X142380968Y-99400841D01*
X142350580Y-99313996D01*
X153701909Y-99313996D01*
X153701909Y-99314003D01*
X153720212Y-99476455D01*
X153774210Y-99630774D01*
X153848121Y-99748401D01*
X153861192Y-99769204D01*
X153976796Y-99884808D01*
X154115225Y-99971789D01*
X154269539Y-100025786D01*
X154269542Y-100025786D01*
X154269544Y-100025787D01*
X154431996Y-100044091D01*
X154432000Y-100044091D01*
X154432004Y-100044091D01*
X154594455Y-100025787D01*
X154594456Y-100025786D01*
X154594461Y-100025786D01*
X154748775Y-99971789D01*
X154887204Y-99884808D01*
X155002808Y-99769204D01*
X155089789Y-99630775D01*
X155143786Y-99476461D01*
X155147782Y-99440996D01*
X155162091Y-99314003D01*
X155162091Y-99313996D01*
X155143787Y-99151544D01*
X155143786Y-99151542D01*
X155143786Y-99151539D01*
X155089789Y-98997225D01*
X155002808Y-98858796D01*
X154887204Y-98743192D01*
X154841473Y-98714457D01*
X154748774Y-98656210D01*
X154594455Y-98602212D01*
X154432004Y-98583909D01*
X154431996Y-98583909D01*
X154269544Y-98602212D01*
X154115225Y-98656210D01*
X153976795Y-98743192D01*
X153861192Y-98858795D01*
X153774210Y-98997225D01*
X153720212Y-99151544D01*
X153701909Y-99313996D01*
X142350580Y-99313996D01*
X142326971Y-99246527D01*
X142239990Y-99108098D01*
X142124386Y-98992494D01*
X142025770Y-98930529D01*
X141985956Y-98905512D01*
X141831637Y-98851514D01*
X141735088Y-98840636D01*
X141670674Y-98813569D01*
X141631119Y-98755974D01*
X141628982Y-98686137D01*
X141664940Y-98626231D01*
X141673926Y-98619361D01*
X141673758Y-98619151D01*
X141679198Y-98614811D01*
X141679204Y-98614808D01*
X141794808Y-98499204D01*
X141881006Y-98362020D01*
X141933341Y-98315730D01*
X142002395Y-98305082D01*
X142066243Y-98333457D01*
X142090993Y-98362020D01*
X142177192Y-98499204D01*
X142292796Y-98614808D01*
X142431225Y-98701789D01*
X142585539Y-98755786D01*
X142585542Y-98755786D01*
X142585544Y-98755787D01*
X142747996Y-98774091D01*
X142748000Y-98774091D01*
X142748004Y-98774091D01*
X142910455Y-98755787D01*
X142910456Y-98755786D01*
X142910461Y-98755786D01*
X143064775Y-98701789D01*
X143203204Y-98614808D01*
X143318808Y-98499204D01*
X143405789Y-98360775D01*
X143459786Y-98206461D01*
X143461214Y-98193789D01*
X143478091Y-98044003D01*
X143478091Y-98043996D01*
X143459787Y-97881544D01*
X143459786Y-97881542D01*
X143459786Y-97881539D01*
X143405789Y-97727225D01*
X143318808Y-97588796D01*
X143203204Y-97473192D01*
X143157479Y-97444461D01*
X143064774Y-97386210D01*
X142910455Y-97332212D01*
X142748004Y-97313909D01*
X142747996Y-97313909D01*
X142585544Y-97332212D01*
X142431225Y-97386210D01*
X142292795Y-97473192D01*
X142177190Y-97588797D01*
X142090993Y-97725979D01*
X142038659Y-97772269D01*
X141969605Y-97782917D01*
X141905757Y-97754542D01*
X141881007Y-97725979D01*
X141794809Y-97588797D01*
X141679204Y-97473192D01*
X141540774Y-97386210D01*
X141386455Y-97332212D01*
X141224004Y-97313909D01*
X141223996Y-97313909D01*
X141061544Y-97332212D01*
X140907225Y-97386210D01*
X140768795Y-97473192D01*
X140653192Y-97588795D01*
X140566210Y-97727225D01*
X140512212Y-97881544D01*
X140493909Y-98043996D01*
X139109756Y-98043996D01*
X139141786Y-97952461D01*
X139143214Y-97939789D01*
X139160091Y-97790003D01*
X139160091Y-97789996D01*
X139141787Y-97627544D01*
X139141786Y-97627542D01*
X139141786Y-97627539D01*
X139087789Y-97473225D01*
X139000808Y-97334796D01*
X138885204Y-97219192D01*
X138746775Y-97132211D01*
X138604474Y-97082417D01*
X138547699Y-97041696D01*
X138521952Y-96976743D01*
X138535408Y-96908181D01*
X138540437Y-96899403D01*
X138550492Y-96883401D01*
X138579789Y-96836775D01*
X138633786Y-96682461D01*
X138641336Y-96615454D01*
X138652091Y-96520003D01*
X138652091Y-96519997D01*
X138637301Y-96388736D01*
X138649355Y-96319914D01*
X138672834Y-96287177D01*
X138746808Y-96213204D01*
X138833789Y-96074775D01*
X138887786Y-95920461D01*
X138889221Y-95907729D01*
X138906091Y-95758003D01*
X138906091Y-95757996D01*
X138887787Y-95595544D01*
X138887786Y-95595542D01*
X138887786Y-95595539D01*
X138833789Y-95441225D01*
X138746808Y-95302796D01*
X138631204Y-95187192D01*
X138557052Y-95140599D01*
X138492774Y-95100210D01*
X138338455Y-95046212D01*
X138176004Y-95027909D01*
X138175996Y-95027909D01*
X138013544Y-95046212D01*
X137859225Y-95100210D01*
X137720795Y-95187192D01*
X137605192Y-95302795D01*
X137518210Y-95441225D01*
X137464212Y-95595544D01*
X137445909Y-95757996D01*
X137445909Y-95758003D01*
X137460698Y-95889264D01*
X137448643Y-95958086D01*
X137425160Y-95990828D01*
X137351191Y-96064797D01*
X137264210Y-96203225D01*
X137210212Y-96357544D01*
X137191909Y-96519996D01*
X137191909Y-96520003D01*
X137206698Y-96651264D01*
X137194643Y-96720086D01*
X137171160Y-96752828D01*
X137097191Y-96826797D01*
X137010210Y-96965225D01*
X136956212Y-97119544D01*
X136937909Y-97281996D01*
X136937909Y-97282003D01*
X136956803Y-97449700D01*
X136944748Y-97518522D01*
X136897399Y-97569901D01*
X136829789Y-97587525D01*
X136819700Y-97586803D01*
X136721587Y-97575749D01*
X136657173Y-97548683D01*
X136617618Y-97491088D01*
X136612250Y-97466411D01*
X136601787Y-97373545D01*
X136601786Y-97373543D01*
X136601786Y-97373539D01*
X136547789Y-97219225D01*
X136460808Y-97080796D01*
X136345204Y-96965192D01*
X136240502Y-96899403D01*
X136206774Y-96878210D01*
X136052455Y-96824212D01*
X135890004Y-96805909D01*
X135889996Y-96805909D01*
X135727544Y-96824212D01*
X135573225Y-96878210D01*
X135434795Y-96965192D01*
X135319192Y-97080795D01*
X135232210Y-97219225D01*
X135178212Y-97373544D01*
X135159909Y-97535996D01*
X122305892Y-97535996D01*
X122283402Y-97513506D01*
X122283396Y-97513501D01*
X122097842Y-97383575D01*
X122054217Y-97328998D01*
X122047023Y-97259500D01*
X122078546Y-97197145D01*
X122097842Y-97180425D01*
X122120026Y-97164891D01*
X122283401Y-97050495D01*
X122450495Y-96883401D01*
X122586035Y-96689830D01*
X122685903Y-96475663D01*
X122747063Y-96247408D01*
X122767659Y-96012000D01*
X122747063Y-95776592D01*
X122685903Y-95548337D01*
X122586035Y-95334171D01*
X122571077Y-95312809D01*
X122450496Y-95140600D01*
X122410106Y-95100210D01*
X122328179Y-95018283D01*
X122294696Y-94956963D01*
X122299680Y-94887271D01*
X122341551Y-94831337D01*
X122372529Y-94814422D01*
X122504086Y-94765354D01*
X122504093Y-94765350D01*
X122535290Y-94741996D01*
X142779909Y-94741996D01*
X142779909Y-94742003D01*
X142798212Y-94904455D01*
X142852210Y-95058774D01*
X142939192Y-95197204D01*
X143054797Y-95312809D01*
X143191979Y-95399007D01*
X143238269Y-95451341D01*
X143248917Y-95520395D01*
X143220542Y-95584243D01*
X143191979Y-95608993D01*
X143054797Y-95695190D01*
X142939192Y-95810795D01*
X142852210Y-95949225D01*
X142798212Y-96103544D01*
X142779909Y-96265996D01*
X142779909Y-96266003D01*
X142798212Y-96428455D01*
X142852210Y-96582774D01*
X142932901Y-96711192D01*
X142939192Y-96721204D01*
X143054796Y-96836808D01*
X143193225Y-96923789D01*
X143347539Y-96977786D01*
X143347542Y-96977786D01*
X143347544Y-96977787D01*
X143509996Y-96996091D01*
X143510000Y-96996091D01*
X143510002Y-96996091D01*
X143583272Y-96987835D01*
X143641263Y-96981301D01*
X143710085Y-96993355D01*
X143742828Y-97016840D01*
X143816796Y-97090808D01*
X143955225Y-97177789D01*
X144109539Y-97231786D01*
X144109542Y-97231786D01*
X144109544Y-97231787D01*
X144271996Y-97250091D01*
X144272000Y-97250091D01*
X144272004Y-97250091D01*
X144434455Y-97231787D01*
X144434456Y-97231786D01*
X144434461Y-97231786D01*
X144588775Y-97177789D01*
X144727204Y-97090808D01*
X144842808Y-96975204D01*
X144929789Y-96836775D01*
X144983786Y-96682461D01*
X144991336Y-96615454D01*
X145002091Y-96520003D01*
X145002091Y-96519996D01*
X144986785Y-96384155D01*
X145716000Y-96384155D01*
X145716000Y-97032000D01*
X146632988Y-97032000D01*
X146600075Y-97089007D01*
X146566000Y-97216174D01*
X146566000Y-97347826D01*
X146600075Y-97474993D01*
X146632988Y-97532000D01*
X145716000Y-97532000D01*
X145716000Y-98179844D01*
X145722401Y-98239372D01*
X145722403Y-98239379D01*
X145772645Y-98374086D01*
X145772649Y-98374093D01*
X145858809Y-98489187D01*
X145858812Y-98489190D01*
X145973906Y-98575350D01*
X145973913Y-98575354D01*
X146108620Y-98625596D01*
X146108627Y-98625598D01*
X146168155Y-98631999D01*
X146168172Y-98632000D01*
X146816000Y-98632000D01*
X146816000Y-97715012D01*
X146873007Y-97747925D01*
X147000174Y-97782000D01*
X147131826Y-97782000D01*
X147258993Y-97747925D01*
X147316000Y-97715012D01*
X147316000Y-98632000D01*
X147963828Y-98632000D01*
X147963844Y-98631999D01*
X148023372Y-98625598D01*
X148023379Y-98625596D01*
X148158086Y-98575354D01*
X148158093Y-98575350D01*
X148273187Y-98489190D01*
X148273190Y-98489187D01*
X148359350Y-98374093D01*
X148359354Y-98374086D01*
X148408422Y-98242529D01*
X148450293Y-98186595D01*
X148515757Y-98162178D01*
X148584030Y-98177030D01*
X148612285Y-98198181D01*
X148734599Y-98320495D01*
X148811135Y-98374086D01*
X148928165Y-98456032D01*
X148928167Y-98456033D01*
X148928170Y-98456035D01*
X149142337Y-98555903D01*
X149370592Y-98617063D01*
X149541319Y-98632000D01*
X149605999Y-98637659D01*
X149606000Y-98637659D01*
X149606001Y-98637659D01*
X149670681Y-98632000D01*
X149841408Y-98617063D01*
X150069663Y-98555903D01*
X150283830Y-98456035D01*
X150477401Y-98320495D01*
X150644495Y-98153401D01*
X150774425Y-97967842D01*
X150829002Y-97924217D01*
X150898500Y-97917023D01*
X150960855Y-97948546D01*
X150977575Y-97967842D01*
X151107500Y-98153395D01*
X151107505Y-98153401D01*
X151274599Y-98320495D01*
X151351135Y-98374086D01*
X151468165Y-98456032D01*
X151468167Y-98456033D01*
X151468170Y-98456035D01*
X151682337Y-98555903D01*
X151910592Y-98617063D01*
X152081319Y-98632000D01*
X152145999Y-98637659D01*
X152146000Y-98637659D01*
X152146001Y-98637659D01*
X152210681Y-98632000D01*
X152381408Y-98617063D01*
X152609663Y-98555903D01*
X152618042Y-98551996D01*
X157511909Y-98551996D01*
X157511909Y-98552003D01*
X157530212Y-98714455D01*
X157584211Y-98868777D01*
X157623012Y-98930529D01*
X157642012Y-98997766D01*
X157623012Y-99062471D01*
X157584211Y-99124222D01*
X157530212Y-99278544D01*
X157511909Y-99440996D01*
X157511909Y-99441003D01*
X157530212Y-99603455D01*
X157584211Y-99757777D01*
X157623012Y-99819529D01*
X157642012Y-99886766D01*
X157623012Y-99951471D01*
X157584211Y-100013222D01*
X157530212Y-100167544D01*
X157511909Y-100329996D01*
X157511909Y-100330003D01*
X157530212Y-100492455D01*
X157584211Y-100646777D01*
X157623012Y-100708529D01*
X157642012Y-100775766D01*
X157623012Y-100840471D01*
X157584211Y-100902222D01*
X157530212Y-101056544D01*
X157511909Y-101218996D01*
X157511909Y-101219003D01*
X157530212Y-101381455D01*
X157584210Y-101535774D01*
X157644616Y-101631909D01*
X157671192Y-101674204D01*
X157786796Y-101789808D01*
X157925225Y-101876789D01*
X158079539Y-101930786D01*
X158079542Y-101930786D01*
X158079544Y-101930787D01*
X158241996Y-101949091D01*
X158242000Y-101949091D01*
X158242004Y-101949091D01*
X158404455Y-101930787D01*
X158404456Y-101930786D01*
X158404461Y-101930786D01*
X158558775Y-101876789D01*
X158697204Y-101789808D01*
X158812808Y-101674204D01*
X158899789Y-101535775D01*
X158953786Y-101381461D01*
X158953787Y-101381455D01*
X158972091Y-101219003D01*
X158972091Y-101218996D01*
X158953787Y-101056542D01*
X158899789Y-100902226D01*
X158899789Y-100902225D01*
X158860985Y-100840469D01*
X158841985Y-100773237D01*
X158860985Y-100708530D01*
X158899789Y-100646775D01*
X158953786Y-100492461D01*
X158953786Y-100492459D01*
X158953787Y-100492457D01*
X158972091Y-100330003D01*
X158972091Y-100329996D01*
X158953787Y-100167542D01*
X158952004Y-100162447D01*
X158899789Y-100013225D01*
X158860985Y-99951469D01*
X158841985Y-99884237D01*
X158860985Y-99819530D01*
X158899789Y-99757775D01*
X158953786Y-99603461D01*
X158953786Y-99603459D01*
X158953787Y-99603457D01*
X158972091Y-99441003D01*
X158972091Y-99440996D01*
X158953787Y-99278542D01*
X158909348Y-99151544D01*
X158899789Y-99124225D01*
X158860985Y-99062469D01*
X158841985Y-98995237D01*
X158860985Y-98930530D01*
X158899789Y-98868775D01*
X158953786Y-98714461D01*
X158953786Y-98714459D01*
X158953787Y-98714457D01*
X158972091Y-98552003D01*
X158972091Y-98551996D01*
X158953787Y-98389544D01*
X158953786Y-98389542D01*
X158953786Y-98389539D01*
X158899789Y-98235225D01*
X158812808Y-98096796D01*
X158697204Y-97981192D01*
X158651479Y-97952461D01*
X158558774Y-97894210D01*
X158404455Y-97840212D01*
X158242004Y-97821909D01*
X158241996Y-97821909D01*
X158079544Y-97840212D01*
X157925225Y-97894210D01*
X157786795Y-97981192D01*
X157671192Y-98096795D01*
X157584210Y-98235225D01*
X157530212Y-98389544D01*
X157511909Y-98551996D01*
X152618042Y-98551996D01*
X152823830Y-98456035D01*
X153017401Y-98320495D01*
X153184495Y-98153401D01*
X153320035Y-97959830D01*
X153419903Y-97745663D01*
X153481063Y-97517408D01*
X153501659Y-97282000D01*
X153499690Y-97259500D01*
X153492772Y-97180425D01*
X153481063Y-97046592D01*
X153419903Y-96818337D01*
X153320035Y-96604171D01*
X153314425Y-96596158D01*
X153184494Y-96410597D01*
X153017402Y-96243506D01*
X153017395Y-96243501D01*
X152823834Y-96107967D01*
X152823830Y-96107965D01*
X152752654Y-96074775D01*
X152609663Y-96008097D01*
X152609659Y-96008096D01*
X152609655Y-96008094D01*
X152381413Y-95946938D01*
X152381403Y-95946936D01*
X152146001Y-95926341D01*
X152145999Y-95926341D01*
X151910596Y-95946936D01*
X151910586Y-95946938D01*
X151682344Y-96008094D01*
X151682335Y-96008098D01*
X151468171Y-96107964D01*
X151468169Y-96107965D01*
X151274597Y-96243505D01*
X151107505Y-96410597D01*
X150977575Y-96596158D01*
X150922998Y-96639783D01*
X150853500Y-96646977D01*
X150791145Y-96615454D01*
X150774425Y-96596158D01*
X150644494Y-96410597D01*
X150477402Y-96243506D01*
X150477395Y-96243501D01*
X150283834Y-96107967D01*
X150283830Y-96107965D01*
X150212654Y-96074775D01*
X150069663Y-96008097D01*
X150069659Y-96008096D01*
X150069655Y-96008094D01*
X149841413Y-95946938D01*
X149841403Y-95946936D01*
X149606001Y-95926341D01*
X149605999Y-95926341D01*
X149370596Y-95946936D01*
X149370586Y-95946938D01*
X149142344Y-96008094D01*
X149142335Y-96008098D01*
X148928171Y-96107964D01*
X148928169Y-96107965D01*
X148734600Y-96243503D01*
X148612284Y-96365819D01*
X148550961Y-96399303D01*
X148481269Y-96394319D01*
X148425336Y-96352447D01*
X148408421Y-96321470D01*
X148359354Y-96189913D01*
X148359350Y-96189906D01*
X148273190Y-96074812D01*
X148273187Y-96074809D01*
X148158093Y-95988649D01*
X148158086Y-95988645D01*
X148023379Y-95938403D01*
X148023372Y-95938401D01*
X147963844Y-95932000D01*
X147316000Y-95932000D01*
X147316000Y-96848988D01*
X147258993Y-96816075D01*
X147131826Y-96782000D01*
X147000174Y-96782000D01*
X146873007Y-96816075D01*
X146816000Y-96848988D01*
X146816000Y-95932000D01*
X146168155Y-95932000D01*
X146108627Y-95938401D01*
X146108620Y-95938403D01*
X145973913Y-95988645D01*
X145973906Y-95988649D01*
X145858812Y-96074809D01*
X145858809Y-96074812D01*
X145772649Y-96189906D01*
X145772645Y-96189913D01*
X145722403Y-96324620D01*
X145722401Y-96324627D01*
X145716000Y-96384155D01*
X144986785Y-96384155D01*
X144983787Y-96357544D01*
X144983786Y-96357542D01*
X144983786Y-96357539D01*
X144929789Y-96203225D01*
X144842808Y-96064796D01*
X144727204Y-95949192D01*
X144721078Y-95945343D01*
X144588774Y-95862210D01*
X144434455Y-95808212D01*
X144272004Y-95789909D01*
X144271996Y-95789909D01*
X144140735Y-95804698D01*
X144071913Y-95792643D01*
X144039171Y-95769159D01*
X143965204Y-95695192D01*
X143828021Y-95608994D01*
X143781730Y-95556659D01*
X143771082Y-95487605D01*
X143799457Y-95423757D01*
X143828021Y-95399006D01*
X143965204Y-95312808D01*
X144044003Y-95234009D01*
X166142825Y-95234009D01*
X166142825Y-95365990D01*
X166150431Y-95423757D01*
X166163270Y-95521274D01*
X166197423Y-95648735D01*
X166197428Y-95648751D01*
X166257357Y-95793433D01*
X166257364Y-95793447D01*
X166270916Y-95816920D01*
X166323345Y-95907729D01*
X166323350Y-95907735D01*
X166323351Y-95907737D01*
X166418694Y-96031991D01*
X166418700Y-96031998D01*
X166512001Y-96125299D01*
X166512007Y-96125304D01*
X166636271Y-96220655D01*
X166750555Y-96286637D01*
X166750560Y-96286639D01*
X166750566Y-96286642D01*
X166895248Y-96346571D01*
X166895254Y-96346572D01*
X166895264Y-96346577D01*
X167022726Y-96380730D01*
X167178017Y-96401175D01*
X167178024Y-96401175D01*
X167309976Y-96401175D01*
X167309983Y-96401175D01*
X167465274Y-96380730D01*
X167592736Y-96346577D01*
X167592748Y-96346571D01*
X167592751Y-96346571D01*
X167737433Y-96286642D01*
X167737433Y-96286641D01*
X167737445Y-96286637D01*
X167851729Y-96220655D01*
X167975993Y-96125304D01*
X168069304Y-96031993D01*
X168164655Y-95907729D01*
X168230637Y-95793445D01*
X168240697Y-95769159D01*
X168290571Y-95648751D01*
X168290571Y-95648748D01*
X168290577Y-95648736D01*
X168324730Y-95521274D01*
X168345175Y-95365983D01*
X168345175Y-95234017D01*
X168324730Y-95078726D01*
X168290577Y-94951264D01*
X168290572Y-94951254D01*
X168290571Y-94951248D01*
X168230642Y-94806566D01*
X168230639Y-94806560D01*
X168230637Y-94806555D01*
X168164655Y-94692271D01*
X168069304Y-94568007D01*
X168069299Y-94568001D01*
X167975998Y-94474700D01*
X167975991Y-94474694D01*
X167851737Y-94379351D01*
X167851735Y-94379350D01*
X167851729Y-94379345D01*
X167737445Y-94313363D01*
X167737433Y-94313357D01*
X167592751Y-94253428D01*
X167592739Y-94253424D01*
X167592736Y-94253423D01*
X167465274Y-94219270D01*
X167439317Y-94215852D01*
X167309990Y-94198825D01*
X167309983Y-94198825D01*
X167178017Y-94198825D01*
X167178009Y-94198825D01*
X167030206Y-94218285D01*
X167022726Y-94219270D01*
X166895264Y-94253423D01*
X166895248Y-94253428D01*
X166750566Y-94313357D01*
X166750552Y-94313364D01*
X166636277Y-94379341D01*
X166636262Y-94379351D01*
X166512008Y-94474694D01*
X166512001Y-94474700D01*
X166418700Y-94568001D01*
X166418694Y-94568008D01*
X166323351Y-94692262D01*
X166323341Y-94692277D01*
X166257364Y-94806552D01*
X166257357Y-94806566D01*
X166197428Y-94951248D01*
X166197423Y-94951264D01*
X166171982Y-95046214D01*
X166163271Y-95078723D01*
X166163269Y-95078734D01*
X166142825Y-95234009D01*
X144044003Y-95234009D01*
X144080808Y-95197204D01*
X144167789Y-95058775D01*
X144221786Y-94904461D01*
X144223723Y-94887271D01*
X144240091Y-94742003D01*
X144240091Y-94741996D01*
X144221787Y-94579544D01*
X144221786Y-94579542D01*
X144221786Y-94579539D01*
X144167789Y-94425225D01*
X144080808Y-94286796D01*
X143965204Y-94171192D01*
X143899312Y-94129789D01*
X143826774Y-94084210D01*
X143672455Y-94030212D01*
X143510004Y-94011909D01*
X143509996Y-94011909D01*
X143347544Y-94030212D01*
X143193225Y-94084210D01*
X143054795Y-94171192D01*
X142939192Y-94286795D01*
X142852210Y-94425225D01*
X142798212Y-94579544D01*
X142779909Y-94741996D01*
X122535290Y-94741996D01*
X122619187Y-94679190D01*
X122619190Y-94679187D01*
X122705350Y-94564093D01*
X122705354Y-94564086D01*
X122755596Y-94429379D01*
X122755598Y-94429372D01*
X122761999Y-94369844D01*
X122762000Y-94369827D01*
X122762000Y-93722000D01*
X121845012Y-93722000D01*
X121877925Y-93664993D01*
X121912000Y-93537826D01*
X121912000Y-93471996D01*
X140747909Y-93471996D01*
X140747909Y-93472003D01*
X140766212Y-93634455D01*
X140820210Y-93788774D01*
X140820211Y-93788775D01*
X140907192Y-93927204D01*
X141022796Y-94042808D01*
X141161225Y-94129789D01*
X141315539Y-94183786D01*
X141315542Y-94183786D01*
X141315544Y-94183787D01*
X141477996Y-94202091D01*
X141478000Y-94202091D01*
X141478004Y-94202091D01*
X141640455Y-94183787D01*
X141640456Y-94183786D01*
X141640461Y-94183786D01*
X141794775Y-94129789D01*
X141933204Y-94042808D01*
X142048808Y-93927204D01*
X142135789Y-93788775D01*
X142189786Y-93634461D01*
X142189787Y-93634455D01*
X142208091Y-93472003D01*
X142208091Y-93471996D01*
X142189787Y-93309544D01*
X142189786Y-93309542D01*
X142189786Y-93309539D01*
X142135789Y-93155225D01*
X142048808Y-93016796D01*
X141933204Y-92901192D01*
X141867312Y-92859789D01*
X141794774Y-92814210D01*
X141640455Y-92760212D01*
X141478004Y-92741909D01*
X141477996Y-92741909D01*
X141315544Y-92760212D01*
X141161225Y-92814210D01*
X141022795Y-92901192D01*
X140907192Y-93016795D01*
X140820210Y-93155225D01*
X140766212Y-93309544D01*
X140747909Y-93471996D01*
X121912000Y-93471996D01*
X121912000Y-93406174D01*
X121877925Y-93279007D01*
X121845012Y-93222000D01*
X122762000Y-93222000D01*
X122762000Y-92574172D01*
X122761999Y-92574155D01*
X122755598Y-92514627D01*
X122755596Y-92514620D01*
X122705354Y-92379913D01*
X122705350Y-92379906D01*
X122619190Y-92264812D01*
X122619187Y-92264809D01*
X122504093Y-92178649D01*
X122504086Y-92178645D01*
X122369379Y-92128403D01*
X122369372Y-92128401D01*
X122309844Y-92122000D01*
X121662000Y-92122000D01*
X121662000Y-93038988D01*
X121604993Y-93006075D01*
X121477826Y-92972000D01*
X121346174Y-92972000D01*
X121219007Y-93006075D01*
X121162000Y-93038988D01*
X121162000Y-92122000D01*
X120514155Y-92122000D01*
X120454627Y-92128401D01*
X120454620Y-92128403D01*
X120319913Y-92178645D01*
X120319906Y-92178649D01*
X120204812Y-92264809D01*
X120204809Y-92264812D01*
X120118649Y-92379906D01*
X120118645Y-92379913D01*
X120068403Y-92514620D01*
X120068401Y-92514627D01*
X120062000Y-92574155D01*
X120062000Y-93222000D01*
X120978988Y-93222000D01*
X120946075Y-93279007D01*
X120912000Y-93406174D01*
X120912000Y-93537826D01*
X120946075Y-93664993D01*
X120978988Y-93722000D01*
X120062000Y-93722000D01*
X120062000Y-94369844D01*
X120068401Y-94429372D01*
X120068403Y-94429379D01*
X120118645Y-94564086D01*
X120118649Y-94564093D01*
X120204809Y-94679187D01*
X120204812Y-94679190D01*
X120319906Y-94765350D01*
X120319913Y-94765354D01*
X120451470Y-94814421D01*
X120507403Y-94856292D01*
X120531821Y-94921756D01*
X120516970Y-94990029D01*
X120495819Y-95018284D01*
X120373503Y-95140600D01*
X120237965Y-95334169D01*
X120237964Y-95334171D01*
X120138098Y-95548335D01*
X120138094Y-95548344D01*
X120076938Y-95776586D01*
X120076936Y-95776596D01*
X120056341Y-96011999D01*
X119118500Y-96011999D01*
X119118500Y-88203670D01*
X119138185Y-88136631D01*
X119190989Y-88090876D01*
X119260147Y-88080932D01*
X119323703Y-88109957D01*
X119349885Y-88141667D01*
X119356197Y-88152600D01*
X119356202Y-88152607D01*
X119356205Y-88152612D01*
X119356206Y-88152614D01*
X119591083Y-88482452D01*
X119591092Y-88482462D01*
X119591093Y-88482464D01*
X119856280Y-88788507D01*
X120149358Y-89067956D01*
X120467672Y-89318281D01*
X120808340Y-89537215D01*
X121168276Y-89722775D01*
X121168281Y-89722777D01*
X121168283Y-89722778D01*
X121355444Y-89797706D01*
X121544221Y-89873281D01*
X121544229Y-89873283D01*
X121544231Y-89873284D01*
X121603041Y-89890552D01*
X121932770Y-89987369D01*
X121966921Y-89993951D01*
X122029022Y-90025966D01*
X122063958Y-90086474D01*
X122060635Y-90156265D01*
X122048448Y-90181682D01*
X121956211Y-90328476D01*
X121896631Y-90498745D01*
X121896630Y-90498750D01*
X121876435Y-90677996D01*
X121876435Y-90678003D01*
X121896630Y-90857249D01*
X121896631Y-90857254D01*
X121956211Y-91027523D01*
X121995769Y-91090478D01*
X122052184Y-91180262D01*
X122179738Y-91307816D01*
X122332478Y-91403789D01*
X122435952Y-91439996D01*
X122502745Y-91463368D01*
X122502750Y-91463369D01*
X122681996Y-91483565D01*
X122682000Y-91483565D01*
X122682004Y-91483565D01*
X122861249Y-91463369D01*
X122861252Y-91463368D01*
X122861255Y-91463368D01*
X122928048Y-91439996D01*
X126194435Y-91439996D01*
X126194435Y-91440003D01*
X126214630Y-91619249D01*
X126214631Y-91619254D01*
X126274211Y-91789523D01*
X126275059Y-91790872D01*
X126370184Y-91942262D01*
X126497738Y-92069816D01*
X126650478Y-92165789D01*
X126687230Y-92178649D01*
X126820745Y-92225368D01*
X126820750Y-92225369D01*
X126999996Y-92245565D01*
X127000000Y-92245565D01*
X127000004Y-92245565D01*
X127179249Y-92225369D01*
X127179252Y-92225368D01*
X127179255Y-92225368D01*
X127246048Y-92201996D01*
X142271909Y-92201996D01*
X142271909Y-92202003D01*
X142290212Y-92364455D01*
X142344210Y-92518774D01*
X142379019Y-92574172D01*
X142431192Y-92657204D01*
X142546796Y-92772808D01*
X142685225Y-92859789D01*
X142839539Y-92913786D01*
X142839542Y-92913786D01*
X142839544Y-92913787D01*
X143001996Y-92932091D01*
X143002000Y-92932091D01*
X143002004Y-92932091D01*
X143164455Y-92913787D01*
X143164456Y-92913786D01*
X143164461Y-92913786D01*
X143318775Y-92859789D01*
X143457204Y-92772808D01*
X143572808Y-92657204D01*
X143659789Y-92518775D01*
X143713786Y-92364461D01*
X143725014Y-92264809D01*
X143732091Y-92202003D01*
X143732091Y-92201996D01*
X143713787Y-92039544D01*
X143713786Y-92039542D01*
X143713786Y-92039539D01*
X143659789Y-91885225D01*
X143572808Y-91746796D01*
X143457204Y-91631192D01*
X143318774Y-91544210D01*
X143164455Y-91490212D01*
X143002004Y-91471909D01*
X143001996Y-91471909D01*
X142839544Y-91490212D01*
X142685225Y-91544210D01*
X142546795Y-91631192D01*
X142431192Y-91746795D01*
X142344210Y-91885225D01*
X142290212Y-92039544D01*
X142271909Y-92201996D01*
X127246048Y-92201996D01*
X127349522Y-92165789D01*
X127502262Y-92069816D01*
X127629816Y-91942262D01*
X127640436Y-91925359D01*
X127692769Y-91879067D01*
X127761822Y-91868417D01*
X127786385Y-91874287D01*
X127817642Y-91885225D01*
X127853542Y-91897787D01*
X128015996Y-91916091D01*
X128016000Y-91916091D01*
X128016004Y-91916091D01*
X128178455Y-91897787D01*
X128178456Y-91897786D01*
X128178461Y-91897786D01*
X128332775Y-91843789D01*
X128471204Y-91756808D01*
X128586808Y-91641204D01*
X128673789Y-91502775D01*
X128727786Y-91348461D01*
X128737669Y-91260750D01*
X128746091Y-91186003D01*
X128746091Y-91185996D01*
X135413909Y-91185996D01*
X135413909Y-91186003D01*
X135432212Y-91348455D01*
X135486210Y-91502774D01*
X135486211Y-91502775D01*
X135573192Y-91641204D01*
X135688796Y-91756808D01*
X135827225Y-91843789D01*
X135981539Y-91897786D01*
X135981542Y-91897786D01*
X135981544Y-91897787D01*
X136143996Y-91916091D01*
X136144000Y-91916091D01*
X136144004Y-91916091D01*
X136306455Y-91897787D01*
X136306456Y-91897786D01*
X136306461Y-91897786D01*
X136460775Y-91843789D01*
X136599204Y-91756808D01*
X136599204Y-91756807D01*
X136605100Y-91753103D01*
X136606507Y-91755342D01*
X136659970Y-91733493D01*
X136728670Y-91746223D01*
X136777635Y-91790871D01*
X136843192Y-91895204D01*
X136958796Y-92010808D01*
X137097225Y-92097789D01*
X137251539Y-92151786D01*
X137251542Y-92151786D01*
X137251544Y-92151787D01*
X137413996Y-92170091D01*
X137414000Y-92170091D01*
X137414004Y-92170091D01*
X137576455Y-92151787D01*
X137576456Y-92151786D01*
X137576461Y-92151786D01*
X137730775Y-92097789D01*
X137869204Y-92010808D01*
X137943174Y-91936837D01*
X138004493Y-91903355D01*
X138044735Y-91901301D01*
X138062965Y-91903355D01*
X138175997Y-91916091D01*
X138176000Y-91916091D01*
X138176004Y-91916091D01*
X138338455Y-91897787D01*
X138338456Y-91897786D01*
X138338461Y-91897786D01*
X138492775Y-91843789D01*
X138631204Y-91756808D01*
X138746808Y-91641204D01*
X138833789Y-91502775D01*
X138887786Y-91348461D01*
X138897669Y-91260750D01*
X138906091Y-91186003D01*
X138906091Y-91185996D01*
X138887787Y-91023544D01*
X138887786Y-91023542D01*
X138887786Y-91023539D01*
X138833789Y-90869225D01*
X138746808Y-90730796D01*
X138694008Y-90677996D01*
X141001909Y-90677996D01*
X141001909Y-90678003D01*
X141020212Y-90840455D01*
X141020213Y-90840460D01*
X141020214Y-90840461D01*
X141027379Y-90860939D01*
X141074210Y-90994774D01*
X141092288Y-91023544D01*
X141161192Y-91133204D01*
X141276796Y-91248808D01*
X141415225Y-91335789D01*
X141569539Y-91389786D01*
X141569542Y-91389786D01*
X141569544Y-91389787D01*
X141731996Y-91408091D01*
X141732000Y-91408091D01*
X141732004Y-91408091D01*
X141894455Y-91389787D01*
X141894456Y-91389786D01*
X141894461Y-91389786D01*
X142048775Y-91335789D01*
X142187204Y-91248808D01*
X142302808Y-91133204D01*
X142389789Y-90994775D01*
X142443786Y-90840461D01*
X142444387Y-90835127D01*
X142462091Y-90678003D01*
X142462091Y-90677996D01*
X142443787Y-90515544D01*
X142443786Y-90515542D01*
X142443786Y-90515539D01*
X142389789Y-90361225D01*
X142302808Y-90222796D01*
X142187204Y-90107192D01*
X142179737Y-90102500D01*
X142048774Y-90020210D01*
X141894455Y-89966212D01*
X141732004Y-89947909D01*
X141731996Y-89947909D01*
X141569544Y-89966212D01*
X141415225Y-90020210D01*
X141276795Y-90107192D01*
X141161192Y-90222795D01*
X141074210Y-90361225D01*
X141020212Y-90515544D01*
X141001909Y-90677996D01*
X138694008Y-90677996D01*
X138631204Y-90615192D01*
X138631202Y-90615191D01*
X138492774Y-90528210D01*
X138338455Y-90474212D01*
X138176004Y-90455909D01*
X138175996Y-90455909D01*
X138013544Y-90474212D01*
X137859225Y-90528210D01*
X137720797Y-90615191D01*
X137646828Y-90689160D01*
X137585504Y-90722644D01*
X137545264Y-90724698D01*
X137414004Y-90709909D01*
X137413996Y-90709909D01*
X137251544Y-90728212D01*
X137097225Y-90782210D01*
X136952900Y-90872897D01*
X136951500Y-90870669D01*
X136897943Y-90892515D01*
X136829252Y-90879736D01*
X136780364Y-90835128D01*
X136714808Y-90730796D01*
X136599204Y-90615192D01*
X136599202Y-90615191D01*
X136460774Y-90528210D01*
X136306455Y-90474212D01*
X136144004Y-90455909D01*
X136143996Y-90455909D01*
X135981544Y-90474212D01*
X135827225Y-90528210D01*
X135688795Y-90615192D01*
X135573192Y-90730795D01*
X135486210Y-90869225D01*
X135432212Y-91023544D01*
X135413909Y-91185996D01*
X128746091Y-91185996D01*
X128727787Y-91023544D01*
X128727786Y-91023542D01*
X128727786Y-91023539D01*
X128673789Y-90869225D01*
X128586808Y-90730796D01*
X128471204Y-90615192D01*
X128471202Y-90615191D01*
X128332774Y-90528210D01*
X128178455Y-90474212D01*
X128016004Y-90455909D01*
X128015996Y-90455909D01*
X127853544Y-90474212D01*
X127699225Y-90528210D01*
X127560797Y-90615191D01*
X127487502Y-90688486D01*
X127426178Y-90721970D01*
X127356487Y-90716985D01*
X127352061Y-90715098D01*
X127179262Y-90654633D01*
X127179249Y-90654630D01*
X127000004Y-90634435D01*
X126999996Y-90634435D01*
X126820750Y-90654630D01*
X126820745Y-90654631D01*
X126650476Y-90714211D01*
X126497737Y-90810184D01*
X126370184Y-90937737D01*
X126274211Y-91090476D01*
X126214631Y-91260745D01*
X126214630Y-91260750D01*
X126194435Y-91439996D01*
X122928048Y-91439996D01*
X123031522Y-91403789D01*
X123184262Y-91307816D01*
X123311816Y-91180262D01*
X123407789Y-91027522D01*
X123467368Y-90857255D01*
X123467369Y-90857249D01*
X123487565Y-90678003D01*
X123487565Y-90677996D01*
X123467369Y-90498750D01*
X123467368Y-90498745D01*
X123407788Y-90328475D01*
X123365593Y-90261324D01*
X123346592Y-90194087D01*
X123366959Y-90127252D01*
X123420227Y-90082038D01*
X123458795Y-90071913D01*
X123541595Y-90064007D01*
X123939230Y-89987369D01*
X124327779Y-89873281D01*
X124703724Y-89722775D01*
X124821619Y-89661996D01*
X148367909Y-89661996D01*
X148367909Y-89662003D01*
X148386212Y-89824455D01*
X148440210Y-89978774D01*
X148483824Y-90048184D01*
X148527192Y-90117204D01*
X148642796Y-90232808D01*
X148781225Y-90319789D01*
X148935539Y-90373786D01*
X148935542Y-90373786D01*
X148935544Y-90373787D01*
X149097996Y-90392091D01*
X149098000Y-90392091D01*
X149098004Y-90392091D01*
X149260455Y-90373787D01*
X149260456Y-90373786D01*
X149260461Y-90373786D01*
X149414775Y-90319789D01*
X149553204Y-90232808D01*
X149668808Y-90117204D01*
X149755789Y-89978775D01*
X149809786Y-89824461D01*
X149817176Y-89758872D01*
X149828091Y-89662003D01*
X149828091Y-89661996D01*
X149809787Y-89499544D01*
X149809786Y-89499542D01*
X149809786Y-89499539D01*
X149755789Y-89345225D01*
X149668808Y-89206796D01*
X149616008Y-89153996D01*
X154971909Y-89153996D01*
X154971909Y-89154003D01*
X154990212Y-89316455D01*
X155044210Y-89470774D01*
X155062288Y-89499544D01*
X155131192Y-89609204D01*
X155246796Y-89724808D01*
X155385225Y-89811789D01*
X155539539Y-89865786D01*
X155539542Y-89865786D01*
X155539544Y-89865787D01*
X155701996Y-89884091D01*
X155702000Y-89884091D01*
X155702004Y-89884091D01*
X155864455Y-89865787D01*
X155864456Y-89865786D01*
X155864461Y-89865786D01*
X156018775Y-89811789D01*
X156157204Y-89724808D01*
X156157204Y-89724807D01*
X156163100Y-89721103D01*
X156164507Y-89723342D01*
X156217970Y-89701493D01*
X156286670Y-89714223D01*
X156335635Y-89758871D01*
X156401192Y-89863204D01*
X156516796Y-89978808D01*
X156655225Y-90065789D01*
X156809539Y-90119786D01*
X156809542Y-90119786D01*
X156809544Y-90119787D01*
X156971996Y-90138091D01*
X156972000Y-90138091D01*
X156972004Y-90138091D01*
X157134455Y-90119787D01*
X157134456Y-90119786D01*
X157134461Y-90119786D01*
X157288775Y-90065789D01*
X157427204Y-89978808D01*
X157542808Y-89863204D01*
X157629789Y-89724775D01*
X157683786Y-89570461D01*
X157687532Y-89537215D01*
X157702091Y-89408003D01*
X157702091Y-89407996D01*
X157683787Y-89245544D01*
X157683786Y-89245542D01*
X157683786Y-89245539D01*
X157629789Y-89091225D01*
X157542808Y-88952796D01*
X157427204Y-88837192D01*
X157349723Y-88788507D01*
X157288774Y-88750210D01*
X157148564Y-88701149D01*
X157134461Y-88696214D01*
X157134460Y-88696213D01*
X157134455Y-88696212D01*
X156972004Y-88677909D01*
X156971996Y-88677909D01*
X156809544Y-88696212D01*
X156655225Y-88750210D01*
X156510900Y-88840897D01*
X156509500Y-88838669D01*
X156455943Y-88860515D01*
X156387252Y-88847736D01*
X156338364Y-88803128D01*
X156272808Y-88698796D01*
X156157204Y-88583192D01*
X156018774Y-88496210D01*
X155864455Y-88442212D01*
X155702004Y-88423909D01*
X155701996Y-88423909D01*
X155539544Y-88442212D01*
X155385225Y-88496210D01*
X155246795Y-88583192D01*
X155131192Y-88698795D01*
X155044210Y-88837225D01*
X154990212Y-88991544D01*
X154971909Y-89153996D01*
X149616008Y-89153996D01*
X149553204Y-89091192D01*
X149516223Y-89067955D01*
X149414774Y-89004210D01*
X149260455Y-88950212D01*
X149098004Y-88931909D01*
X149097996Y-88931909D01*
X148935544Y-88950212D01*
X148781225Y-89004210D01*
X148642795Y-89091192D01*
X148527192Y-89206795D01*
X148440210Y-89345225D01*
X148386212Y-89499544D01*
X148367909Y-89661996D01*
X124821619Y-89661996D01*
X125063660Y-89537215D01*
X125404328Y-89318281D01*
X125722642Y-89067956D01*
X126015720Y-88788507D01*
X126280907Y-88482464D01*
X126309571Y-88442212D01*
X126515793Y-88152614D01*
X126515799Y-88152606D01*
X126515800Y-88152603D01*
X126515803Y-88152600D01*
X126718279Y-87801900D01*
X126886503Y-87433543D01*
X126886505Y-87433536D01*
X126886507Y-87433533D01*
X126906421Y-87375996D01*
X134905909Y-87375996D01*
X134905909Y-87376003D01*
X134924212Y-87538455D01*
X134924213Y-87538460D01*
X134924214Y-87538461D01*
X134929528Y-87553647D01*
X134978210Y-87692774D01*
X135065192Y-87831204D01*
X135180796Y-87946808D01*
X135319225Y-88033789D01*
X135473539Y-88087786D01*
X135473542Y-88087786D01*
X135473544Y-88087787D01*
X135635996Y-88106091D01*
X135636000Y-88106091D01*
X135636004Y-88106091D01*
X135798455Y-88087787D01*
X135798456Y-88087786D01*
X135798461Y-88087786D01*
X135952775Y-88033789D01*
X136091204Y-87946808D01*
X136206808Y-87831204D01*
X136293789Y-87692775D01*
X136347786Y-87538461D01*
X136347787Y-87538455D01*
X136366091Y-87376003D01*
X136366091Y-87375996D01*
X136347787Y-87213544D01*
X136347786Y-87213542D01*
X136347786Y-87213539D01*
X136293789Y-87059225D01*
X136206808Y-86920796D01*
X136091204Y-86805192D01*
X136006556Y-86752004D01*
X135952774Y-86718210D01*
X135866664Y-86688079D01*
X151597000Y-86688079D01*
X151597000Y-86991500D01*
X152347000Y-86991500D01*
X152347000Y-87491500D01*
X151597000Y-87491500D01*
X151597000Y-87794920D01*
X151637348Y-87997766D01*
X151637350Y-87997774D01*
X151716500Y-88188858D01*
X151716505Y-88188868D01*
X151831410Y-88360835D01*
X151831413Y-88360839D01*
X151977660Y-88507086D01*
X151977664Y-88507089D01*
X152149631Y-88621994D01*
X152149641Y-88621999D01*
X152340723Y-88701148D01*
X152340725Y-88701149D01*
X152397000Y-88712342D01*
X152397000Y-87858488D01*
X152406940Y-87875705D01*
X152462795Y-87931560D01*
X152531204Y-87971056D01*
X152607504Y-87991500D01*
X152686496Y-87991500D01*
X152762796Y-87971056D01*
X152831205Y-87931560D01*
X152887060Y-87875705D01*
X152897000Y-87858488D01*
X152897000Y-88712342D01*
X152953274Y-88701149D01*
X152953276Y-88701148D01*
X153144358Y-88621999D01*
X153144368Y-88621994D01*
X153316335Y-88507089D01*
X153316339Y-88507086D01*
X153462586Y-88360839D01*
X153462589Y-88360835D01*
X153577494Y-88188868D01*
X153577499Y-88188858D01*
X153656649Y-87997774D01*
X153656651Y-87997766D01*
X153696999Y-87794920D01*
X153697000Y-87794917D01*
X153697000Y-87660629D01*
X153716685Y-87593590D01*
X153769489Y-87547835D01*
X153838647Y-87537891D01*
X153857623Y-87542162D01*
X153894767Y-87553647D01*
X153894770Y-87553647D01*
X153894781Y-87553650D01*
X153980205Y-87567178D01*
X154002923Y-87570777D01*
X154017211Y-87572831D01*
X154017219Y-87572830D01*
X154017221Y-87572831D01*
X154113121Y-87571461D01*
X154161077Y-87570777D01*
X154269233Y-87553647D01*
X154283459Y-87551185D01*
X154419649Y-87504774D01*
X154517218Y-87455060D01*
X154529985Y-87448323D01*
X154645167Y-87362098D01*
X154722598Y-87284667D01*
X154732660Y-87274315D01*
X154815560Y-87156718D01*
X154865274Y-87059149D01*
X154871644Y-87046192D01*
X154914147Y-86908733D01*
X154914147Y-86908729D01*
X154914150Y-86908718D01*
X154931276Y-86800581D01*
X154931278Y-86800572D01*
X154933331Y-86786289D01*
X154931481Y-86656721D01*
X159010668Y-86656721D01*
X159012722Y-86800572D01*
X159012723Y-86800582D01*
X159029841Y-86908664D01*
X159029853Y-86908732D01*
X159029853Y-86908733D01*
X159032315Y-86922959D01*
X159075902Y-87050863D01*
X159078727Y-87059151D01*
X159128441Y-87156721D01*
X159134591Y-87168376D01*
X159135177Y-87169485D01*
X159221402Y-87284667D01*
X159298833Y-87362098D01*
X159309185Y-87372160D01*
X159426782Y-87455060D01*
X159524351Y-87504774D01*
X159537308Y-87511144D01*
X159666805Y-87551185D01*
X159674767Y-87553647D01*
X159674781Y-87553650D01*
X159760205Y-87567178D01*
X159782923Y-87570777D01*
X159797211Y-87572831D01*
X159797219Y-87572830D01*
X159797221Y-87572831D01*
X159893121Y-87571461D01*
X159941077Y-87570777D01*
X160049233Y-87553647D01*
X160063459Y-87551185D01*
X160083002Y-87544524D01*
X160152804Y-87541531D01*
X160213147Y-87576752D01*
X160244869Y-87639005D01*
X160247000Y-87661896D01*
X160247000Y-87794920D01*
X160287348Y-87997766D01*
X160287350Y-87997774D01*
X160366500Y-88188858D01*
X160366505Y-88188868D01*
X160481410Y-88360835D01*
X160481413Y-88360839D01*
X160627660Y-88507086D01*
X160627664Y-88507089D01*
X160799631Y-88621994D01*
X160799641Y-88621999D01*
X160990723Y-88701148D01*
X160990725Y-88701149D01*
X161047000Y-88712342D01*
X161047000Y-87858488D01*
X161056940Y-87875705D01*
X161112795Y-87931560D01*
X161181204Y-87971056D01*
X161257504Y-87991500D01*
X161336496Y-87991500D01*
X161412796Y-87971056D01*
X161481205Y-87931560D01*
X161537060Y-87875705D01*
X161547000Y-87858488D01*
X161547000Y-88712342D01*
X161603274Y-88701149D01*
X161603276Y-88701148D01*
X161794358Y-88621999D01*
X161794368Y-88621994D01*
X161966335Y-88507089D01*
X161966339Y-88507086D01*
X162112586Y-88360839D01*
X162112589Y-88360835D01*
X162227494Y-88188868D01*
X162227499Y-88188858D01*
X162306649Y-87997774D01*
X162306651Y-87997766D01*
X162346999Y-87794920D01*
X162347000Y-87794917D01*
X162347000Y-87491500D01*
X161597000Y-87491500D01*
X161597000Y-86991500D01*
X162347000Y-86991500D01*
X162347000Y-86688083D01*
X162346999Y-86688079D01*
X162306651Y-86485233D01*
X162306649Y-86485225D01*
X162227499Y-86294141D01*
X162227494Y-86294131D01*
X162112589Y-86122164D01*
X162112586Y-86122160D01*
X161966339Y-85975913D01*
X161966335Y-85975910D01*
X161794368Y-85861005D01*
X161794358Y-85861000D01*
X161603272Y-85781849D01*
X161603267Y-85781847D01*
X161547000Y-85770655D01*
X161547000Y-86624511D01*
X161537060Y-86607295D01*
X161481205Y-86551440D01*
X161412796Y-86511944D01*
X161336496Y-86491500D01*
X161257504Y-86491500D01*
X161181204Y-86511944D01*
X161112795Y-86551440D01*
X161056940Y-86607295D01*
X161047000Y-86624511D01*
X161047000Y-85770656D01*
X161046999Y-85770655D01*
X160990732Y-85781847D01*
X160990727Y-85781849D01*
X160799641Y-85861000D01*
X160799631Y-85861005D01*
X160627664Y-85975910D01*
X160557788Y-86045786D01*
X160496464Y-86079270D01*
X160426773Y-86074285D01*
X160398665Y-86059455D01*
X160297218Y-85987940D01*
X160199649Y-85938226D01*
X160186692Y-85931856D01*
X160186689Y-85931855D01*
X160049232Y-85889352D01*
X160049218Y-85889349D01*
X159941081Y-85872223D01*
X159926795Y-85870169D01*
X159926778Y-85870168D01*
X159782927Y-85872222D01*
X159782917Y-85872223D01*
X159674835Y-85889341D01*
X159660540Y-85891815D01*
X159524348Y-85938227D01*
X159426778Y-85987941D01*
X159414016Y-85994676D01*
X159298834Y-86080901D01*
X159298830Y-86080904D01*
X159221388Y-86158347D01*
X159211340Y-86168685D01*
X159128442Y-86286278D01*
X159128440Y-86286281D01*
X159078730Y-86383842D01*
X159072355Y-86396810D01*
X159029852Y-86534267D01*
X159029849Y-86534281D01*
X159012723Y-86642418D01*
X159010669Y-86656704D01*
X159010668Y-86656721D01*
X154931481Y-86656721D01*
X154931277Y-86642423D01*
X154925713Y-86607295D01*
X154914158Y-86534335D01*
X154914149Y-86534281D01*
X154914147Y-86534267D01*
X154911685Y-86520041D01*
X154865274Y-86383851D01*
X154815560Y-86286282D01*
X154815558Y-86286278D01*
X154814389Y-86284064D01*
X154808823Y-86273515D01*
X154722598Y-86158333D01*
X154645167Y-86080902D01*
X154634815Y-86070840D01*
X154517218Y-85987940D01*
X154419649Y-85938226D01*
X154406692Y-85931856D01*
X154406689Y-85931855D01*
X154269232Y-85889352D01*
X154269218Y-85889349D01*
X154161081Y-85872223D01*
X154146795Y-85870169D01*
X154146778Y-85870168D01*
X154002927Y-85872222D01*
X154002917Y-85872223D01*
X153894835Y-85889341D01*
X153880540Y-85891815D01*
X153744348Y-85938227D01*
X153646778Y-85987941D01*
X153634015Y-85994676D01*
X153634011Y-85994679D01*
X153549085Y-86058254D01*
X153483621Y-86082671D01*
X153415348Y-86067819D01*
X153387094Y-86046668D01*
X153316339Y-85975913D01*
X153316335Y-85975910D01*
X153144368Y-85861005D01*
X153144358Y-85861000D01*
X152953272Y-85781849D01*
X152953267Y-85781847D01*
X152897000Y-85770655D01*
X152897000Y-86624511D01*
X152887060Y-86607295D01*
X152831205Y-86551440D01*
X152762796Y-86511944D01*
X152686496Y-86491500D01*
X152607504Y-86491500D01*
X152531204Y-86511944D01*
X152462795Y-86551440D01*
X152406940Y-86607295D01*
X152397000Y-86624511D01*
X152397000Y-85770656D01*
X152396999Y-85770655D01*
X152340732Y-85781847D01*
X152340727Y-85781849D01*
X152149641Y-85861000D01*
X152149631Y-85861005D01*
X151977664Y-85975910D01*
X151977660Y-85975913D01*
X151831413Y-86122160D01*
X151831410Y-86122164D01*
X151716505Y-86294131D01*
X151716500Y-86294141D01*
X151637350Y-86485225D01*
X151637348Y-86485233D01*
X151597000Y-86688079D01*
X135866664Y-86688079D01*
X135798455Y-86664212D01*
X135636004Y-86645909D01*
X135635996Y-86645909D01*
X135473544Y-86664212D01*
X135319225Y-86718210D01*
X135180795Y-86805192D01*
X135065192Y-86920795D01*
X134978210Y-87059225D01*
X134924212Y-87213544D01*
X134905909Y-87375996D01*
X126906421Y-87375996D01*
X127018946Y-87050874D01*
X127018946Y-87050871D01*
X127018950Y-87050862D01*
X127114421Y-86657325D01*
X127172052Y-86256494D01*
X127191320Y-85852000D01*
X127191320Y-85851996D01*
X133635909Y-85851996D01*
X133635909Y-85852003D01*
X133654212Y-86014455D01*
X133708210Y-86168774D01*
X133762886Y-86255789D01*
X133795192Y-86307204D01*
X133910796Y-86422808D01*
X134049225Y-86509789D01*
X134203539Y-86563786D01*
X134203542Y-86563786D01*
X134203544Y-86563787D01*
X134365996Y-86582091D01*
X134366000Y-86582091D01*
X134366004Y-86582091D01*
X134528455Y-86563787D01*
X134528456Y-86563786D01*
X134528461Y-86563786D01*
X134682775Y-86509789D01*
X134821204Y-86422808D01*
X134936808Y-86307204D01*
X135023789Y-86168775D01*
X135077786Y-86014461D01*
X135080015Y-85994677D01*
X135096091Y-85852003D01*
X135096091Y-85851996D01*
X135077787Y-85689544D01*
X135077786Y-85689542D01*
X135077786Y-85689539D01*
X135045754Y-85597996D01*
X141255909Y-85597996D01*
X141255909Y-85598003D01*
X141274212Y-85760455D01*
X141328210Y-85914774D01*
X141374183Y-85987939D01*
X141415192Y-86053204D01*
X141530796Y-86168808D01*
X141669225Y-86255789D01*
X141823539Y-86309786D01*
X141823542Y-86309786D01*
X141823544Y-86309787D01*
X141985996Y-86328091D01*
X141986000Y-86328091D01*
X141986004Y-86328091D01*
X142148455Y-86309787D01*
X142148456Y-86309786D01*
X142148461Y-86309786D01*
X142302775Y-86255789D01*
X142441204Y-86168808D01*
X142556808Y-86053204D01*
X142643789Y-85914775D01*
X142665756Y-85851996D01*
X147351909Y-85851996D01*
X147351909Y-85852003D01*
X147370212Y-86014455D01*
X147424210Y-86168774D01*
X147478886Y-86255789D01*
X147511192Y-86307204D01*
X147626796Y-86422808D01*
X147765225Y-86509789D01*
X147919539Y-86563786D01*
X147919542Y-86563786D01*
X147919544Y-86563787D01*
X148081996Y-86582091D01*
X148082000Y-86582091D01*
X148082004Y-86582091D01*
X148244455Y-86563787D01*
X148244456Y-86563786D01*
X148244461Y-86563786D01*
X148398775Y-86509789D01*
X148537204Y-86422808D01*
X148652808Y-86307204D01*
X148739789Y-86168775D01*
X148793786Y-86014461D01*
X148796015Y-85994677D01*
X148812091Y-85852003D01*
X148812091Y-85851996D01*
X148793787Y-85689544D01*
X148793786Y-85689542D01*
X148793786Y-85689539D01*
X148739789Y-85535225D01*
X148652808Y-85396796D01*
X148537204Y-85281192D01*
X148443733Y-85222460D01*
X148398774Y-85194210D01*
X148244455Y-85140212D01*
X148082004Y-85121909D01*
X148081996Y-85121909D01*
X147919544Y-85140212D01*
X147765225Y-85194210D01*
X147626795Y-85281192D01*
X147511192Y-85396795D01*
X147424210Y-85535225D01*
X147370212Y-85689544D01*
X147351909Y-85851996D01*
X142665756Y-85851996D01*
X142697786Y-85760461D01*
X142697787Y-85760455D01*
X142716091Y-85598003D01*
X142716091Y-85597996D01*
X142697787Y-85435544D01*
X142697786Y-85435542D01*
X142697786Y-85435539D01*
X142643789Y-85281225D01*
X142556808Y-85142796D01*
X142441204Y-85027192D01*
X142302774Y-84940210D01*
X142148455Y-84886212D01*
X141986004Y-84867909D01*
X141985996Y-84867909D01*
X141823544Y-84886212D01*
X141669225Y-84940210D01*
X141530795Y-85027192D01*
X141415192Y-85142795D01*
X141328210Y-85281225D01*
X141274212Y-85435544D01*
X141255909Y-85597996D01*
X135045754Y-85597996D01*
X135023789Y-85535225D01*
X134936808Y-85396796D01*
X134821204Y-85281192D01*
X134727733Y-85222460D01*
X134682774Y-85194210D01*
X134528455Y-85140212D01*
X134366004Y-85121909D01*
X134365996Y-85121909D01*
X134203544Y-85140212D01*
X134049225Y-85194210D01*
X133910795Y-85281192D01*
X133795192Y-85396795D01*
X133708210Y-85535225D01*
X133654212Y-85689544D01*
X133635909Y-85851996D01*
X127191320Y-85851996D01*
X127172052Y-85447506D01*
X127114421Y-85046675D01*
X127018950Y-84653138D01*
X126936743Y-84415615D01*
X126886507Y-84270466D01*
X126886505Y-84270462D01*
X126718282Y-83902107D01*
X126718279Y-83902100D01*
X126558263Y-83624944D01*
X126515799Y-83551393D01*
X126515793Y-83551385D01*
X126280916Y-83221547D01*
X126280905Y-83221534D01*
X126015720Y-82915493D01*
X125722642Y-82636044D01*
X125404328Y-82385719D01*
X125213086Y-82262815D01*
X125167332Y-82210012D01*
X125157388Y-82140853D01*
X125186413Y-82077297D01*
X125245191Y-82039523D01*
X125280126Y-82034500D01*
X151570326Y-82034500D01*
X151637365Y-82054185D01*
G37*
%TD.AperFunction*%
%TD*%
M02*
