M48
; DRILL file {KiCad 8.0.4} date 2024-11-29T22:22:18-0500
; FORMAT={-:-/ absolute / inch / decimal}
; #@! TF.CreationDate,2024-11-29T22:22:18-05:00
; #@! TF.GenerationSoftware,Kicad,Pcbnew,8.0.4
; #@! TF.FileFunction,Plated,1,4,PTH
FMAT,2
INCH
; #@! TA.AperFunction,Plated,PTH,ViaDrill
T1C0.0118
; #@! TA.AperFunction,Plated,PTH,ComponentDrill
T2C0.0236
; #@! TA.AperFunction,Plated,PTH,ComponentDrill
T3C0.0394
; #@! TA.AperFunction,Plated,PTH,ComponentDrill
T4C0.1693
%
G90
G05
T1
X4.78Y-4.06
X4.78Y-4.1
X4.79Y-3.98
X4.83Y-3.57
X4.88Y-4.18
X4.93Y-3.57
X5.0Y-3.6
X5.03Y-4.42
X5.04Y-3.59
X5.08Y-3.32
X5.08Y-3.59
X5.14Y-3.3
X5.16Y-4.26
X5.18Y-4.48
X5.19Y-4.06
X5.21Y-4.31
X5.23Y-3.45
X5.24Y-4.21
X5.25Y-4.31
X5.27Y-4.07
X5.29Y-3.38
X5.31Y-4.04
X5.32Y-4.31
X5.33Y-3.38
X5.33Y-4.25
X5.34Y-3.44
X5.35Y-3.84
X5.35Y-4.03
X5.355Y-4.065
X5.36Y-3.59
X5.38Y-3.44
X5.38Y-3.87
X5.39Y-4.35
X5.41Y-3.6
X5.41Y-4.25
X5.415Y-3.985
X5.42Y-3.83
X5.43Y-3.8
X5.43Y-4.04
X5.43Y-4.08
X5.4361Y-4.2961
X5.44Y-3.59
X5.44Y-3.77
X5.45Y-3.85
X5.45Y-4.25
X5.46Y-4.01
X5.4887Y-4.2812
X5.51Y-4.11
X5.5323Y-3.3927
X5.54Y-3.51
X5.54Y-4.19
X5.56Y-3.86
X5.57Y-3.68
X5.5775Y-3.9198
X5.58Y-3.57
X5.59Y-3.37
X5.59Y-3.78
X5.6Y-4.03
X5.61Y-3.6
X5.62Y-3.86
X5.63Y-3.63
X5.63Y-4.02
X5.64Y-3.94
X5.65Y-3.73
X5.65Y-3.79
X5.66Y-4.08
X5.67Y-3.63
X5.68Y-3.8
X5.7Y-3.9
X5.72Y-4.01
X5.74Y-3.47
X5.8Y-3.69
X5.83Y-3.38
X5.87Y-3.53
X5.94Y-3.69
X5.96Y-4.06
X6.03Y-3.59
X6.08Y-3.91
X6.08Y-4.01
X6.13Y-3.51
X6.1444Y-4.18
X6.18Y-3.52
X6.21Y-4.13
X6.23Y-3.88
X6.23Y-3.915
X6.23Y-3.95
X6.23Y-3.985
X6.2476Y-3.6024
X6.49Y-3.57
X6.5028Y-4.1772
T3
X4.78Y-3.68
X4.78Y-3.78
X4.78Y-3.88
X5.3Y-4.44
X5.4Y-4.44
X5.5Y-4.44
X5.6Y-4.44
X5.7Y-4.44
X5.79Y-3.83
X5.79Y-3.98
X5.79Y-4.13
X5.85Y-4.44
X5.89Y-3.83
X5.89Y-3.98
X5.89Y-4.13
X5.95Y-4.44
X5.99Y-3.83
X5.99Y-3.98
X5.99Y-4.13
X6.05Y-4.44
X6.1006Y-4.29
X6.2Y-4.44
X6.2006Y-4.29
X6.3Y-4.44
X6.3006Y-4.29
T4
X4.84Y-3.38
X4.84Y-4.37
X6.57Y-3.38
X6.57Y-4.37
T2
G00X6.0097Y-3.2812
M15
G01X6.0097Y-3.2575
M16
G05
G00X6.0097Y-3.4524
M15
G01X6.0097Y-3.417
M16
G05
G00X6.3503Y-3.2812
M15
G01X6.3503Y-3.2575
M16
G05
G00X6.3503Y-3.4524
M15
G01X6.3503Y-3.417
M16
G05
M30
