%TF.GenerationSoftware,KiCad,Pcbnew,8.0.4*%
%TF.CreationDate,2024-11-29T22:22:18-05:00*%
%TF.ProjectId,SRSFC,53525346-432e-46b6-9963-61645f706362,V1.0*%
%TF.SameCoordinates,Original*%
%TF.FileFunction,Paste,Top*%
%TF.FilePolarity,Positive*%
%FSLAX46Y46*%
G04 Gerber Fmt 4.6, Leading zero omitted, Abs format (unit mm)*
G04 Created by KiCad (PCBNEW 8.0.4) date 2024-11-29 22:22:18*
%MOMM*%
%LPD*%
G01*
G04 APERTURE LIST*
G04 Aperture macros list*
%AMRoundRect*
0 Rectangle with rounded corners*
0 $1 Rounding radius*
0 $2 $3 $4 $5 $6 $7 $8 $9 X,Y pos of 4 corners*
0 Add a 4 corners polygon primitive as box body*
4,1,4,$2,$3,$4,$5,$6,$7,$8,$9,$2,$3,0*
0 Add four circle primitives for the rounded corners*
1,1,$1+$1,$2,$3*
1,1,$1+$1,$4,$5*
1,1,$1+$1,$6,$7*
1,1,$1+$1,$8,$9*
0 Add four rect primitives between the rounded corners*
20,1,$1+$1,$2,$3,$4,$5,0*
20,1,$1+$1,$4,$5,$6,$7,0*
20,1,$1+$1,$6,$7,$8,$9,0*
20,1,$1+$1,$8,$9,$2,$3,0*%
G04 Aperture macros list end*
%ADD10C,0.000000*%
%ADD11RoundRect,0.140000X0.140000X0.170000X-0.140000X0.170000X-0.140000X-0.170000X0.140000X-0.170000X0*%
%ADD12RoundRect,0.140000X-0.140000X-0.170000X0.140000X-0.170000X0.140000X0.170000X-0.140000X0.170000X0*%
%ADD13R,0.980000X2.470000*%
%ADD14R,3.600000X2.470000*%
%ADD15R,0.280000X1.500000*%
%ADD16R,1.500000X0.280000*%
%ADD17RoundRect,0.135000X-0.135000X-0.185000X0.135000X-0.185000X0.135000X0.185000X-0.135000X0.185000X0*%
%ADD18R,0.550000X1.100000*%
%ADD19R,0.300000X1.100000*%
%ADD20RoundRect,0.135000X-0.185000X0.135000X-0.185000X-0.135000X0.185000X-0.135000X0.185000X0.135000X0*%
%ADD21RoundRect,0.140000X0.170000X-0.140000X0.170000X0.140000X-0.170000X0.140000X-0.170000X-0.140000X0*%
%ADD22RoundRect,0.135000X0.185000X-0.135000X0.185000X0.135000X-0.185000X0.135000X-0.185000X-0.135000X0*%
%ADD23RoundRect,0.140000X-0.170000X0.140000X-0.170000X-0.140000X0.170000X-0.140000X0.170000X0.140000X0*%
%ADD24R,0.280000X0.500000*%
%ADD25R,0.500000X0.280000*%
%ADD26RoundRect,0.218750X0.256250X-0.218750X0.256250X0.218750X-0.256250X0.218750X-0.256250X-0.218750X0*%
%ADD27RoundRect,0.135000X0.135000X0.185000X-0.135000X0.185000X-0.135000X-0.185000X0.135000X-0.185000X0*%
%ADD28R,1.600000X0.700000*%
%ADD29R,1.500000X1.200000*%
%ADD30R,2.200000X1.200000*%
%ADD31R,1.500000X1.600000*%
%ADD32R,0.500000X0.300000*%
%ADD33R,0.300000X0.500000*%
%ADD34R,1.400000X1.200000*%
%ADD35R,1.360000X1.230000*%
G04 APERTURE END LIST*
D10*
%TO.C,USB1*%
G36*
X154072000Y-88341500D02*
G01*
X153472000Y-88341500D01*
X153472000Y-87241500D01*
X154072000Y-87241500D01*
X154072000Y-88341500D01*
G37*
G36*
X154872000Y-88341500D02*
G01*
X154272000Y-88341500D01*
X154272000Y-87241500D01*
X154872000Y-87241500D01*
X154872000Y-88341500D01*
G37*
G36*
X155372000Y-88341500D02*
G01*
X155072000Y-88341500D01*
X155072000Y-87241500D01*
X155372000Y-87241500D01*
X155372000Y-88341500D01*
G37*
G36*
X155872000Y-88341500D02*
G01*
X155572000Y-88341500D01*
X155572000Y-87241500D01*
X155872000Y-87241500D01*
X155872000Y-88341500D01*
G37*
G36*
X156372000Y-88341500D02*
G01*
X156072000Y-88341500D01*
X156072000Y-87241500D01*
X156372000Y-87241500D01*
X156372000Y-88341500D01*
G37*
G36*
X156872000Y-88341500D02*
G01*
X156572000Y-88341500D01*
X156572000Y-87241500D01*
X156872000Y-87241500D01*
X156872000Y-88341500D01*
G37*
G36*
X157372000Y-88341500D02*
G01*
X157072000Y-88341500D01*
X157072000Y-87241500D01*
X157372000Y-87241500D01*
X157372000Y-88341500D01*
G37*
G36*
X157872000Y-88341500D02*
G01*
X157572000Y-88341500D01*
X157572000Y-87241500D01*
X157872000Y-87241500D01*
X157872000Y-88341500D01*
G37*
G36*
X158372000Y-88341500D02*
G01*
X158072000Y-88341500D01*
X158072000Y-87241500D01*
X158372000Y-87241500D01*
X158372000Y-88341500D01*
G37*
G36*
X158872000Y-88341500D02*
G01*
X158572000Y-88341500D01*
X158572000Y-87241500D01*
X158872000Y-87241500D01*
X158872000Y-88341500D01*
G37*
G36*
X159672000Y-88341500D02*
G01*
X159072000Y-88341500D01*
X159072000Y-87241500D01*
X159672000Y-87241500D01*
X159672000Y-88341500D01*
G37*
G36*
X160472000Y-88341500D02*
G01*
X159872000Y-88341500D01*
X159872000Y-87241500D01*
X160472000Y-87241500D01*
X160472000Y-88341500D01*
G37*
G36*
X152692000Y-86243500D02*
G01*
X152721500Y-86246500D01*
X152751000Y-86250500D01*
X152780500Y-86256500D01*
X152809500Y-86264000D01*
X152838000Y-86273000D01*
X152866000Y-86283000D01*
X152894000Y-86294500D01*
X152921000Y-86307500D01*
X152947000Y-86322000D01*
X152972500Y-86337500D01*
X152997500Y-86354500D01*
X153021000Y-86372500D01*
X153044000Y-86392000D01*
X153066000Y-86412000D01*
X153087000Y-86433500D01*
X153106500Y-86456000D01*
X153125500Y-86479500D01*
X153142500Y-86503500D01*
X153159000Y-86529000D01*
X153174000Y-86554500D01*
X153187500Y-86581500D01*
X153200000Y-86608500D01*
X153211000Y-86636500D01*
X153220500Y-86665000D01*
X153228500Y-86693500D01*
X153235000Y-86722500D01*
X153240500Y-86752000D01*
X153244000Y-86782000D01*
X153246500Y-86811500D01*
X153247000Y-86841500D01*
X153247000Y-87641500D01*
X153246500Y-87671500D01*
X153244000Y-87701500D01*
X153240500Y-87731000D01*
X153235000Y-87760500D01*
X153228500Y-87789500D01*
X153220500Y-87818500D01*
X153211000Y-87847000D01*
X153200000Y-87874500D01*
X153187500Y-87902000D01*
X153174000Y-87928500D01*
X153159000Y-87954500D01*
X153142500Y-87979500D01*
X153125500Y-88004000D01*
X153106500Y-88027500D01*
X153087000Y-88049500D01*
X153066000Y-88071000D01*
X153044000Y-88091500D01*
X153021000Y-88110500D01*
X152997500Y-88129000D01*
X152972500Y-88145500D01*
X152947000Y-88161000D01*
X152921000Y-88175500D01*
X152894000Y-88188500D01*
X152866000Y-88200000D01*
X152838000Y-88210500D01*
X152809500Y-88219000D01*
X152780500Y-88226500D01*
X152751000Y-88232500D01*
X152721500Y-88237000D01*
X152692000Y-88240000D01*
X152662000Y-88241500D01*
X152632000Y-88241500D01*
X152602000Y-88240000D01*
X152572500Y-88237000D01*
X152543000Y-88232500D01*
X152513500Y-88226500D01*
X152484500Y-88219000D01*
X152456000Y-88210500D01*
X152428000Y-88200000D01*
X152400500Y-88188500D01*
X152373500Y-88175500D01*
X152347000Y-88161000D01*
X152321500Y-88145500D01*
X152297000Y-88129000D01*
X152273000Y-88110500D01*
X152250000Y-88091500D01*
X152228000Y-88071000D01*
X152207000Y-88049500D01*
X152187500Y-88027500D01*
X152168500Y-88004000D01*
X152151500Y-87979500D01*
X152135000Y-87954500D01*
X152120000Y-87928500D01*
X152106500Y-87902000D01*
X152094000Y-87874500D01*
X152083000Y-87847000D01*
X152073500Y-87818500D01*
X152065500Y-87789500D01*
X152059000Y-87760500D01*
X152053500Y-87731000D01*
X152050000Y-87701500D01*
X152048000Y-87671500D01*
X152047000Y-87641500D01*
X152047000Y-86841500D01*
X152048000Y-86811500D01*
X152050000Y-86782000D01*
X152053500Y-86752000D01*
X152059000Y-86722500D01*
X152065500Y-86693500D01*
X152073500Y-86665000D01*
X152083000Y-86636500D01*
X152094000Y-86608500D01*
X152106500Y-86581500D01*
X152120000Y-86554500D01*
X152135000Y-86529000D01*
X152151500Y-86503500D01*
X152168500Y-86479500D01*
X152187500Y-86456000D01*
X152207000Y-86433500D01*
X152228000Y-86412000D01*
X152250000Y-86392000D01*
X152273000Y-86372500D01*
X152297000Y-86354500D01*
X152321500Y-86337500D01*
X152347000Y-86322000D01*
X152373500Y-86307500D01*
X152400500Y-86294500D01*
X152428000Y-86283000D01*
X152456000Y-86273000D01*
X152484500Y-86264000D01*
X152513500Y-86256500D01*
X152543000Y-86250500D01*
X152572500Y-86246500D01*
X152602000Y-86243500D01*
X152632000Y-86242000D01*
X152662000Y-86242000D01*
X152692000Y-86243500D01*
G37*
G36*
X152692000Y-82293000D02*
G01*
X152721500Y-82296000D01*
X152751000Y-82300500D01*
X152780500Y-82306500D01*
X152809500Y-82314000D01*
X152838000Y-82322500D01*
X152866000Y-82333000D01*
X152894000Y-82344500D01*
X152921000Y-82357500D01*
X152947000Y-82372000D01*
X152972500Y-82387500D01*
X152997500Y-82404500D01*
X153021000Y-82422500D01*
X153044000Y-82441500D01*
X153066000Y-82462000D01*
X153087000Y-82483500D01*
X153106500Y-82506000D01*
X153125500Y-82529000D01*
X153142500Y-82553500D01*
X153159000Y-82578500D01*
X153174000Y-82604500D01*
X153187500Y-82631000D01*
X153200000Y-82658500D01*
X153211000Y-82686500D01*
X153220500Y-82714500D01*
X153228500Y-82743500D01*
X153235000Y-82772500D01*
X153240500Y-82802000D01*
X153244000Y-82831500D01*
X153246500Y-82861500D01*
X153247000Y-82891500D01*
X153247000Y-83191500D01*
X153246500Y-83221500D01*
X153244000Y-83251000D01*
X153240500Y-83281000D01*
X153235000Y-83310500D01*
X153228500Y-83339500D01*
X153220500Y-83368500D01*
X153211000Y-83396500D01*
X153200000Y-83424500D01*
X153187500Y-83452000D01*
X153174000Y-83478500D01*
X153159000Y-83504500D01*
X153142500Y-83529500D01*
X153125500Y-83553500D01*
X153106500Y-83577000D01*
X153087000Y-83599500D01*
X153066000Y-83621000D01*
X153044000Y-83641500D01*
X153021000Y-83660500D01*
X152997500Y-83678500D01*
X152972500Y-83695500D01*
X152947000Y-83711000D01*
X152921000Y-83725500D01*
X152894000Y-83738500D01*
X152866000Y-83750000D01*
X152838000Y-83760000D01*
X152809500Y-83769000D01*
X152780500Y-83776500D01*
X152751000Y-83782500D01*
X152721500Y-83787000D01*
X152692000Y-83790000D01*
X152662000Y-83791500D01*
X152632000Y-83791500D01*
X152602000Y-83790000D01*
X152572500Y-83787000D01*
X152543000Y-83782500D01*
X152513500Y-83776500D01*
X152484500Y-83769000D01*
X152456000Y-83760000D01*
X152428000Y-83750000D01*
X152400500Y-83738500D01*
X152373500Y-83725500D01*
X152347000Y-83711000D01*
X152321500Y-83695500D01*
X152297000Y-83678500D01*
X152273000Y-83660500D01*
X152250000Y-83641500D01*
X152228000Y-83621000D01*
X152207000Y-83599500D01*
X152187500Y-83577000D01*
X152168500Y-83553500D01*
X152151500Y-83529500D01*
X152135000Y-83504500D01*
X152120000Y-83478500D01*
X152106500Y-83452000D01*
X152094000Y-83424500D01*
X152083000Y-83396500D01*
X152073500Y-83368500D01*
X152065500Y-83339500D01*
X152059000Y-83310500D01*
X152053500Y-83281000D01*
X152050000Y-83251000D01*
X152048000Y-83221500D01*
X152047000Y-83191500D01*
X152047000Y-82891500D01*
X152048000Y-82861500D01*
X152050000Y-82831500D01*
X152053500Y-82802000D01*
X152059000Y-82772500D01*
X152065500Y-82743500D01*
X152073500Y-82714500D01*
X152083000Y-82686500D01*
X152094000Y-82658500D01*
X152106500Y-82631000D01*
X152120000Y-82604500D01*
X152135000Y-82578500D01*
X152151500Y-82553500D01*
X152168500Y-82529000D01*
X152187500Y-82506000D01*
X152207000Y-82483500D01*
X152228000Y-82462000D01*
X152250000Y-82441500D01*
X152273000Y-82422500D01*
X152297000Y-82404500D01*
X152321500Y-82387500D01*
X152347000Y-82372000D01*
X152373500Y-82357500D01*
X152400500Y-82344500D01*
X152428000Y-82333000D01*
X152456000Y-82322500D01*
X152484500Y-82314000D01*
X152513500Y-82306500D01*
X152543000Y-82300500D01*
X152572500Y-82296000D01*
X152602000Y-82293000D01*
X152632000Y-82291500D01*
X152662000Y-82291500D01*
X152692000Y-82293000D01*
G37*
G36*
X161342000Y-82293000D02*
G01*
X161371500Y-82296000D01*
X161401000Y-82300500D01*
X161430500Y-82306500D01*
X161459500Y-82314000D01*
X161488000Y-82322500D01*
X161516000Y-82333000D01*
X161543500Y-82344500D01*
X161570500Y-82357500D01*
X161597000Y-82372000D01*
X161622500Y-82387500D01*
X161647000Y-82404500D01*
X161671000Y-82422500D01*
X161694000Y-82441500D01*
X161716000Y-82462000D01*
X161737000Y-82483500D01*
X161756500Y-82506000D01*
X161775500Y-82529000D01*
X161792500Y-82553500D01*
X161809000Y-82578500D01*
X161824000Y-82604500D01*
X161837500Y-82631000D01*
X161850000Y-82658500D01*
X161861000Y-82686500D01*
X161870500Y-82714500D01*
X161878500Y-82743500D01*
X161885000Y-82772500D01*
X161890500Y-82802000D01*
X161894000Y-82831500D01*
X161896000Y-82861500D01*
X161897000Y-82891500D01*
X161897000Y-83191500D01*
X161896000Y-83221500D01*
X161894000Y-83251000D01*
X161890500Y-83281000D01*
X161885000Y-83310500D01*
X161878500Y-83339500D01*
X161870500Y-83368500D01*
X161861000Y-83396500D01*
X161850000Y-83424500D01*
X161837500Y-83452000D01*
X161824000Y-83478500D01*
X161809000Y-83504500D01*
X161792500Y-83529500D01*
X161775500Y-83553500D01*
X161756500Y-83577000D01*
X161737000Y-83599500D01*
X161716000Y-83621000D01*
X161694000Y-83641500D01*
X161671000Y-83660500D01*
X161647000Y-83678500D01*
X161622500Y-83695500D01*
X161597000Y-83711000D01*
X161570500Y-83725500D01*
X161543500Y-83738500D01*
X161516000Y-83750000D01*
X161488000Y-83760000D01*
X161459500Y-83769000D01*
X161430500Y-83776500D01*
X161401000Y-83782500D01*
X161371500Y-83787000D01*
X161342000Y-83790000D01*
X161312000Y-83791500D01*
X161282000Y-83791500D01*
X161252000Y-83790000D01*
X161222500Y-83787000D01*
X161193000Y-83782500D01*
X161163500Y-83776500D01*
X161134500Y-83769000D01*
X161106000Y-83760000D01*
X161078000Y-83750000D01*
X161050000Y-83738500D01*
X161023000Y-83725500D01*
X160997000Y-83711000D01*
X160971500Y-83695500D01*
X160946500Y-83678500D01*
X160923000Y-83660500D01*
X160900000Y-83641500D01*
X160878000Y-83621000D01*
X160857000Y-83599500D01*
X160837500Y-83577000D01*
X160818500Y-83553500D01*
X160801500Y-83529500D01*
X160785000Y-83504500D01*
X160770000Y-83478500D01*
X160756500Y-83452000D01*
X160744000Y-83424500D01*
X160733000Y-83396500D01*
X160723500Y-83368500D01*
X160715500Y-83339500D01*
X160709000Y-83310500D01*
X160703500Y-83281000D01*
X160700000Y-83251000D01*
X160697500Y-83221500D01*
X160697000Y-83191500D01*
X160697000Y-82891500D01*
X160697500Y-82861500D01*
X160700000Y-82831500D01*
X160703500Y-82802000D01*
X160709000Y-82772500D01*
X160715500Y-82743500D01*
X160723500Y-82714500D01*
X160733000Y-82686500D01*
X160744000Y-82658500D01*
X160756500Y-82631000D01*
X160770000Y-82604500D01*
X160785000Y-82578500D01*
X160801500Y-82553500D01*
X160818500Y-82529000D01*
X160837500Y-82506000D01*
X160857000Y-82483500D01*
X160878000Y-82462000D01*
X160900000Y-82441500D01*
X160923000Y-82422500D01*
X160946500Y-82404500D01*
X160971500Y-82387500D01*
X160997000Y-82372000D01*
X161023000Y-82357500D01*
X161050000Y-82344500D01*
X161078000Y-82333000D01*
X161106000Y-82322500D01*
X161134500Y-82314000D01*
X161163500Y-82306500D01*
X161193000Y-82300500D01*
X161222500Y-82296000D01*
X161252000Y-82293000D01*
X161282000Y-82291500D01*
X161312000Y-82291500D01*
X161342000Y-82293000D01*
G37*
G36*
X161342000Y-86243500D02*
G01*
X161371500Y-86246500D01*
X161401000Y-86250500D01*
X161430500Y-86256500D01*
X161459500Y-86264000D01*
X161488000Y-86273000D01*
X161516000Y-86283000D01*
X161543500Y-86294500D01*
X161570500Y-86307500D01*
X161597000Y-86322000D01*
X161622500Y-86337500D01*
X161647000Y-86354500D01*
X161671000Y-86372500D01*
X161694000Y-86392000D01*
X161716000Y-86412000D01*
X161737000Y-86433500D01*
X161756500Y-86456000D01*
X161775500Y-86479500D01*
X161792500Y-86503500D01*
X161809000Y-86529000D01*
X161824000Y-86554500D01*
X161837500Y-86581500D01*
X161850000Y-86608500D01*
X161861000Y-86636500D01*
X161870500Y-86665000D01*
X161878500Y-86693500D01*
X161885000Y-86722500D01*
X161890500Y-86752000D01*
X161894000Y-86782000D01*
X161896000Y-86811500D01*
X161897000Y-86841500D01*
X161897000Y-87641500D01*
X161896000Y-87671500D01*
X161894000Y-87701500D01*
X161890500Y-87731000D01*
X161885000Y-87760500D01*
X161878500Y-87789500D01*
X161870500Y-87818500D01*
X161861000Y-87847000D01*
X161850000Y-87874500D01*
X161837500Y-87902000D01*
X161824000Y-87928500D01*
X161809000Y-87954500D01*
X161792500Y-87979500D01*
X161775500Y-88004000D01*
X161756500Y-88027500D01*
X161737000Y-88049500D01*
X161716000Y-88071000D01*
X161694000Y-88091500D01*
X161671000Y-88110500D01*
X161647000Y-88129000D01*
X161622500Y-88145500D01*
X161597000Y-88161000D01*
X161570500Y-88175500D01*
X161543500Y-88188500D01*
X161516000Y-88200000D01*
X161488000Y-88210500D01*
X161459500Y-88219000D01*
X161430500Y-88226500D01*
X161401000Y-88232500D01*
X161371500Y-88237000D01*
X161342000Y-88240000D01*
X161312000Y-88241500D01*
X161282000Y-88241500D01*
X161252000Y-88240000D01*
X161222500Y-88237000D01*
X161193000Y-88232500D01*
X161163500Y-88226500D01*
X161134500Y-88219000D01*
X161106000Y-88210500D01*
X161078000Y-88200000D01*
X161050000Y-88188500D01*
X161023000Y-88175500D01*
X160997000Y-88161000D01*
X160971500Y-88145500D01*
X160946500Y-88129000D01*
X160923000Y-88110500D01*
X160900000Y-88091500D01*
X160878000Y-88071000D01*
X160857000Y-88049500D01*
X160837500Y-88027500D01*
X160818500Y-88004000D01*
X160801500Y-87979500D01*
X160785000Y-87954500D01*
X160770000Y-87928500D01*
X160756500Y-87902000D01*
X160744000Y-87874500D01*
X160733000Y-87847000D01*
X160723500Y-87818500D01*
X160715500Y-87789500D01*
X160709000Y-87760500D01*
X160703500Y-87731000D01*
X160700000Y-87701500D01*
X160697500Y-87671500D01*
X160697000Y-87641500D01*
X160697000Y-86841500D01*
X160697500Y-86811500D01*
X160700000Y-86782000D01*
X160703500Y-86752000D01*
X160709000Y-86722500D01*
X160715500Y-86693500D01*
X160723500Y-86665000D01*
X160733000Y-86636500D01*
X160744000Y-86608500D01*
X160756500Y-86581500D01*
X160770000Y-86554500D01*
X160785000Y-86529000D01*
X160801500Y-86503500D01*
X160818500Y-86479500D01*
X160837500Y-86456000D01*
X160857000Y-86433500D01*
X160878000Y-86412000D01*
X160900000Y-86392000D01*
X160923000Y-86372500D01*
X160946500Y-86354500D01*
X160971500Y-86337500D01*
X160997000Y-86322000D01*
X161023000Y-86307500D01*
X161050000Y-86294500D01*
X161078000Y-86283000D01*
X161106000Y-86273000D01*
X161134500Y-86264000D01*
X161163500Y-86256500D01*
X161193000Y-86250500D01*
X161222500Y-86246500D01*
X161252000Y-86243500D01*
X161282000Y-86242000D01*
X161312000Y-86242000D01*
X161342000Y-86243500D01*
G37*
%TD*%
D11*
%TO.C,C1*%
X139926000Y-89154000D03*
X138966000Y-89154000D03*
%TD*%
D12*
%TO.C,C28*%
X143058000Y-92964000D03*
X144018000Y-92964000D03*
%TD*%
D13*
%TO.C,U5*%
X145782000Y-89957000D03*
X148082000Y-89957000D03*
X150382000Y-89957000D03*
D14*
X148082000Y-84287000D03*
%TD*%
D15*
%TO.C,U1*%
X138080000Y-89890000D03*
X137580000Y-89890000D03*
X137080000Y-89890000D03*
X136580000Y-89890000D03*
X136080000Y-89890000D03*
X135580000Y-89890000D03*
X135080000Y-89890000D03*
X134580000Y-89890000D03*
X134080000Y-89890000D03*
X133580000Y-89890000D03*
X133080000Y-89890000D03*
X132580000Y-89890000D03*
X132080000Y-89890000D03*
X131580000Y-89890000D03*
X131080000Y-89890000D03*
X130580000Y-89890000D03*
X130080000Y-89890000D03*
X129580000Y-89890000D03*
X129080000Y-89890000D03*
X128580000Y-89890000D03*
X128080000Y-89890000D03*
X127580000Y-89890000D03*
X127080000Y-89890000D03*
X126580000Y-89890000D03*
X126080000Y-89890000D03*
D16*
X124180000Y-91790000D03*
X124180000Y-92290000D03*
X124180000Y-92790000D03*
X124180000Y-93290000D03*
X124180000Y-93790000D03*
X124180000Y-94290000D03*
X124180000Y-94790000D03*
X124180000Y-95290000D03*
X124180000Y-95790000D03*
X124180000Y-96290000D03*
X124180000Y-96790000D03*
X124180000Y-97290000D03*
X124180000Y-97790000D03*
X124180000Y-98290000D03*
X124180000Y-98790000D03*
X124180000Y-99290000D03*
X124180000Y-99790000D03*
X124180000Y-100290000D03*
X124180000Y-100790000D03*
X124180000Y-101290000D03*
X124180000Y-101790000D03*
X124180000Y-102290000D03*
X124180000Y-102790000D03*
X124180000Y-103290000D03*
X124180000Y-103790000D03*
D15*
X126080000Y-105690000D03*
X126580000Y-105690000D03*
X127080000Y-105690000D03*
X127580000Y-105690000D03*
X128080000Y-105690000D03*
X128580000Y-105690000D03*
X129080000Y-105690000D03*
X129580000Y-105690000D03*
X130080000Y-105690000D03*
X130580000Y-105690000D03*
X131080000Y-105690000D03*
X131580000Y-105690000D03*
X132080000Y-105690000D03*
X132580000Y-105690000D03*
X133080000Y-105690000D03*
X133580000Y-105690000D03*
X134080000Y-105690000D03*
X134580000Y-105690000D03*
X135080000Y-105690000D03*
X135580000Y-105690000D03*
X136080000Y-105690000D03*
X136580000Y-105690000D03*
X137080000Y-105690000D03*
X137580000Y-105690000D03*
X138080000Y-105690000D03*
D16*
X139980000Y-103790000D03*
X139980000Y-103290000D03*
X139980000Y-102790000D03*
X139980000Y-102290000D03*
X139980000Y-101790000D03*
X139980000Y-101290000D03*
X139980000Y-100790000D03*
X139980000Y-100290000D03*
X139980000Y-99790000D03*
X139980000Y-99290000D03*
X139980000Y-98790000D03*
X139980000Y-98290000D03*
X139980000Y-97790000D03*
X139980000Y-97290000D03*
X139980000Y-96790000D03*
X139980000Y-96290000D03*
X139980000Y-95790000D03*
X139980000Y-95290000D03*
X139980000Y-94790000D03*
X139980000Y-94290000D03*
X139980000Y-93790000D03*
X139980000Y-93290000D03*
X139980000Y-92790000D03*
X139980000Y-92290000D03*
X139980000Y-91790000D03*
%TD*%
D17*
%TO.C,R5*%
X132334000Y-110236000D03*
X133354000Y-110236000D03*
%TD*%
D18*
%TO.C,USB1*%
X160172000Y-87791500D03*
X159372000Y-87791500D03*
D19*
X158722000Y-87791500D03*
X158222000Y-87791500D03*
X157722000Y-87791500D03*
X157222000Y-87791500D03*
X156722000Y-87791500D03*
X156222000Y-87791500D03*
X155722000Y-87791500D03*
X155222000Y-87791500D03*
D18*
X154572000Y-87791500D03*
X153772000Y-87791500D03*
%TD*%
D11*
%TO.C,C11*%
X136624000Y-88138000D03*
X135664000Y-88138000D03*
%TD*%
D12*
%TO.C,C2*%
X134422000Y-84582000D03*
X135382000Y-84582000D03*
%TD*%
D20*
%TO.C,R4*%
X155194000Y-90170000D03*
X155194000Y-91190000D03*
%TD*%
D11*
%TO.C,C5*%
X131036000Y-88392000D03*
X130076000Y-88392000D03*
%TD*%
D21*
%TO.C,C10*%
X122428000Y-102080000D03*
X122428000Y-101120000D03*
%TD*%
D22*
%TO.C,R1*%
X127762000Y-111508000D03*
X127762000Y-110488000D03*
%TD*%
D23*
%TO.C,C22*%
X147320000Y-91976000D03*
X147320000Y-92936000D03*
%TD*%
D20*
%TO.C,R3*%
X153924000Y-90166000D03*
X153924000Y-91186000D03*
%TD*%
D12*
%TO.C,C8*%
X123472000Y-90678000D03*
X124432000Y-90678000D03*
%TD*%
D11*
%TO.C,C26*%
X141732000Y-110236000D03*
X140772000Y-110236000D03*
%TD*%
%TO.C,C4*%
X135326000Y-86614000D03*
X134366000Y-86614000D03*
%TD*%
D23*
%TO.C,C24*%
X149860000Y-91976000D03*
X149860000Y-92936000D03*
%TD*%
D21*
%TO.C,C3*%
X129032000Y-86332000D03*
X129032000Y-85372000D03*
%TD*%
D12*
%TO.C,C7*%
X128044000Y-88392000D03*
X129004000Y-88392000D03*
%TD*%
D11*
%TO.C,C13*%
X138374000Y-107188000D03*
X137414000Y-107188000D03*
%TD*%
D20*
%TO.C,R2*%
X141986000Y-83818000D03*
X141986000Y-84838000D03*
%TD*%
D21*
%TO.C,C6*%
X122174000Y-104112000D03*
X122174000Y-103152000D03*
%TD*%
D23*
%TO.C,C25*%
X151130000Y-91976000D03*
X151130000Y-92936000D03*
%TD*%
D21*
%TO.C,C27*%
X154432000Y-101036000D03*
X154432000Y-100076000D03*
%TD*%
D24*
%TO.C,U2*%
X142518000Y-101410000D03*
X143018000Y-101410000D03*
X143518000Y-101410000D03*
X144018000Y-101410000D03*
D25*
X144193000Y-100735000D03*
X144193000Y-100235000D03*
X144193000Y-99735000D03*
D24*
X144018000Y-99060000D03*
X143518000Y-99060000D03*
X143018000Y-99060000D03*
X142518000Y-99060000D03*
D25*
X142343000Y-99735000D03*
X142343000Y-100235000D03*
X142343000Y-100735000D03*
%TD*%
D12*
%TO.C,C15*%
X143792000Y-98044000D03*
X144752000Y-98044000D03*
%TD*%
%TO.C,C16*%
X143792000Y-102616000D03*
X144752000Y-102616000D03*
%TD*%
D23*
%TO.C,C14*%
X141732000Y-91468000D03*
X141732000Y-92428000D03*
%TD*%
D11*
%TO.C,C12*%
X136370000Y-107188000D03*
X135410000Y-107188000D03*
%TD*%
D26*
%TO.C,D1*%
X140462000Y-85115500D03*
X140462000Y-83540500D03*
%TD*%
D27*
%TO.C,R6*%
X136144000Y-110236000D03*
X135124000Y-110236000D03*
%TD*%
D28*
%TO.C,CARD1*%
X156244000Y-96100000D03*
X156244000Y-97200000D03*
X156244000Y-98300000D03*
X156244000Y-99400000D03*
X156244000Y-100500000D03*
X156244000Y-101600000D03*
X156244000Y-102700000D03*
X156244000Y-103800000D03*
D29*
X157244000Y-106100000D03*
D30*
X166844000Y-106100000D03*
X166844000Y-90600000D03*
D31*
X157244000Y-91500000D03*
D28*
X156244000Y-104900000D03*
%TD*%
D32*
%TO.C,U6*%
X142530000Y-94488000D03*
X142530000Y-94988000D03*
D33*
X142901000Y-95607000D03*
X143401000Y-95607000D03*
X143901000Y-95607000D03*
D32*
X144272000Y-94988000D03*
X144272000Y-94488000D03*
D33*
X143901000Y-93869000D03*
X143401000Y-93869000D03*
X142901000Y-93869000D03*
%TD*%
D34*
%TO.C,X1*%
X130642000Y-86614000D03*
X132842000Y-86614000D03*
X132842000Y-84864000D03*
X130642000Y-84864000D03*
%TD*%
D35*
%TO.C,SW1*%
X130048000Y-113437000D03*
X130048000Y-109067000D03*
%TD*%
D12*
%TO.C,C9*%
X133604000Y-88138000D03*
X134564000Y-88138000D03*
%TD*%
D23*
%TO.C,C17*%
X141478000Y-94262000D03*
X141478000Y-95222000D03*
%TD*%
%TO.C,C23*%
X148590000Y-91976000D03*
X148590000Y-92936000D03*
%TD*%
M02*
