%TF.GenerationSoftware,KiCad,Pcbnew,8.0.4*%
%TF.CreationDate,2025-08-25T15:50:40-04:00*%
%TF.ProjectId,zephyrus_fc,7a657068-7972-4757-935f-66632e6b6963,V1.0*%
%TF.SameCoordinates,Original*%
%TF.FileFunction,Copper,L1,Top*%
%TF.FilePolarity,Positive*%
%FSLAX46Y46*%
G04 Gerber Fmt 4.6, Leading zero omitted, Abs format (unit mm)*
G04 Created by KiCad (PCBNEW 8.0.4) date 2025-08-25 15:50:40*
%MOMM*%
%LPD*%
G01*
G04 APERTURE LIST*
G04 Aperture macros list*
%AMRoundRect*
0 Rectangle with rounded corners*
0 $1 Rounding radius*
0 $2 $3 $4 $5 $6 $7 $8 $9 X,Y pos of 4 corners*
0 Add a 4 corners polygon primitive as box body*
4,1,4,$2,$3,$4,$5,$6,$7,$8,$9,$2,$3,0*
0 Add four circle primitives for the rounded corners*
1,1,$1+$1,$2,$3*
1,1,$1+$1,$4,$5*
1,1,$1+$1,$6,$7*
1,1,$1+$1,$8,$9*
0 Add four rect primitives between the rounded corners*
20,1,$1+$1,$2,$3,$4,$5,0*
20,1,$1+$1,$4,$5,$6,$7,0*
20,1,$1+$1,$6,$7,$8,$9,0*
20,1,$1+$1,$8,$9,$2,$3,0*%
G04 Aperture macros list end*
%TA.AperFunction,SMDPad,CuDef*%
%ADD10RoundRect,0.140000X-0.170000X0.140000X-0.170000X-0.140000X0.170000X-0.140000X0.170000X0.140000X0*%
%TD*%
%TA.AperFunction,SMDPad,CuDef*%
%ADD11R,0.300000X0.500000*%
%TD*%
%TA.AperFunction,SMDPad,CuDef*%
%ADD12R,0.500000X0.300000*%
%TD*%
%TA.AperFunction,SMDPad,CuDef*%
%ADD13RoundRect,0.140000X-0.140000X-0.170000X0.140000X-0.170000X0.140000X0.170000X-0.140000X0.170000X0*%
%TD*%
%TA.AperFunction,SMDPad,CuDef*%
%ADD14RoundRect,0.140000X0.140000X0.170000X-0.140000X0.170000X-0.140000X-0.170000X0.140000X-0.170000X0*%
%TD*%
%TA.AperFunction,ComponentPad*%
%ADD15R,1.700000X1.700000*%
%TD*%
%TA.AperFunction,ComponentPad*%
%ADD16O,1.700000X1.700000*%
%TD*%
%TA.AperFunction,SMDPad,CuDef*%
%ADD17R,1.360000X1.230000*%
%TD*%
%TA.AperFunction,SMDPad,CuDef*%
%ADD18R,1.500000X0.280000*%
%TD*%
%TA.AperFunction,SMDPad,CuDef*%
%ADD19R,0.280000X1.500000*%
%TD*%
%TA.AperFunction,SMDPad,CuDef*%
%ADD20R,0.250000X0.800000*%
%TD*%
%TA.AperFunction,SMDPad,CuDef*%
%ADD21R,0.800000X0.250000*%
%TD*%
%TA.AperFunction,SMDPad,CuDef*%
%ADD22RoundRect,0.135000X-0.185000X0.135000X-0.185000X-0.135000X0.185000X-0.135000X0.185000X0.135000X0*%
%TD*%
%TA.AperFunction,SMDPad,CuDef*%
%ADD23RoundRect,0.135000X-0.135000X-0.185000X0.135000X-0.185000X0.135000X0.185000X-0.135000X0.185000X0*%
%TD*%
%TA.AperFunction,SMDPad,CuDef*%
%ADD24R,1.100000X0.550000*%
%TD*%
%TA.AperFunction,SMDPad,CuDef*%
%ADD25R,1.100000X0.300000*%
%TD*%
%TA.AperFunction,ComponentPad*%
%ADD26O,2.000000X1.100000*%
%TD*%
%TA.AperFunction,ComponentPad*%
%ADD27O,1.800000X1.200000*%
%TD*%
%TA.AperFunction,SMDPad,CuDef*%
%ADD28RoundRect,0.140000X0.170000X-0.140000X0.170000X0.140000X-0.170000X0.140000X-0.170000X-0.140000X0*%
%TD*%
%TA.AperFunction,SMDPad,CuDef*%
%ADD29R,0.675000X0.280000*%
%TD*%
%TA.AperFunction,SMDPad,CuDef*%
%ADD30R,0.280000X0.675000*%
%TD*%
%TA.AperFunction,SMDPad,CuDef*%
%ADD31R,0.700000X1.600000*%
%TD*%
%TA.AperFunction,SMDPad,CuDef*%
%ADD32R,1.200000X1.500000*%
%TD*%
%TA.AperFunction,SMDPad,CuDef*%
%ADD33R,1.200000X2.200000*%
%TD*%
%TA.AperFunction,SMDPad,CuDef*%
%ADD34R,1.600000X1.500000*%
%TD*%
%TA.AperFunction,SMDPad,CuDef*%
%ADD35RoundRect,0.135000X0.135000X0.185000X-0.135000X0.185000X-0.135000X-0.185000X0.135000X-0.185000X0*%
%TD*%
%TA.AperFunction,SMDPad,CuDef*%
%ADD36RoundRect,0.218750X-0.218750X-0.256250X0.218750X-0.256250X0.218750X0.256250X-0.218750X0.256250X0*%
%TD*%
%TA.AperFunction,SMDPad,CuDef*%
%ADD37R,2.470000X0.980000*%
%TD*%
%TA.AperFunction,SMDPad,CuDef*%
%ADD38R,2.470000X3.600000*%
%TD*%
%TA.AperFunction,SMDPad,CuDef*%
%ADD39R,1.200000X1.400000*%
%TD*%
%TA.AperFunction,ViaPad*%
%ADD40C,0.600000*%
%TD*%
%TA.AperFunction,ViaPad*%
%ADD41C,0.450000*%
%TD*%
%TA.AperFunction,Conductor*%
%ADD42C,0.200000*%
%TD*%
%TA.AperFunction,Conductor*%
%ADD43C,0.400000*%
%TD*%
%TA.AperFunction,Conductor*%
%ADD44C,0.800000*%
%TD*%
G04 APERTURE END LIST*
D10*
%TO.P,C15,1*%
%TO.N,GND*%
X160274000Y-61496000D03*
%TO.P,C15,2*%
%TO.N,+3.3V*%
X160274000Y-62456000D03*
%TD*%
D11*
%TO.P,U6,1,VDDIO*%
%TO.N,+3.3V*%
X156861000Y-81425000D03*
%TO.P,U6,2,SCK*%
%TO.N,/PE2*%
X156361000Y-81425000D03*
D12*
%TO.P,U6,3,VSS*%
%TO.N,GND*%
X155742000Y-81796000D03*
%TO.P,U6,4,SDI*%
%TO.N,/PE6*%
X155742000Y-82296000D03*
%TO.P,U6,5,SDO*%
%TO.N,/PE5*%
X155742000Y-82796000D03*
D11*
%TO.P,U6,6,CSB*%
%TO.N,/PE4*%
X156361000Y-83167000D03*
%TO.P,U6,7,INT*%
%TO.N,/INT_BMP*%
X156861000Y-83167000D03*
D12*
%TO.P,U6,8,VSS*%
%TO.N,GND*%
X157480000Y-82796000D03*
%TO.P,U6,9,VSS*%
X157480000Y-82296000D03*
%TO.P,U6,10,VDD*%
%TO.N,+3.3V*%
X157480000Y-81796000D03*
%TD*%
D13*
%TO.P,C19,1*%
%TO.N,GND*%
X132898000Y-66294000D03*
%TO.P,C19,2*%
%TO.N,+3.3V*%
X133858000Y-66294000D03*
%TD*%
D14*
%TO.P,C18,1*%
%TO.N,+3.3V*%
X133858000Y-65024000D03*
%TO.P,C18,2*%
%TO.N,GND*%
X132898000Y-65024000D03*
%TD*%
D13*
%TO.P,C20,1*%
%TO.N,GND*%
X132898000Y-67564000D03*
%TO.P,C20,2*%
%TO.N,+3.3V*%
X133858000Y-67564000D03*
%TD*%
%TO.P,C9,1*%
%TO.N,+3.3V*%
X156516000Y-76682000D03*
%TO.P,C9,2*%
%TO.N,GND*%
X157476000Y-76682000D03*
%TD*%
D15*
%TO.P,J5,1,Pin_1*%
%TO.N,GND*%
X192024000Y-63852000D03*
D16*
%TO.P,J5,2,Pin_2*%
%TO.N,+5V*%
X189484000Y-63852000D03*
%TO.P,J5,3,Pin_3*%
%TO.N,/PC6*%
X186944000Y-63852000D03*
%TD*%
D15*
%TO.P,J4,1,Pin_1*%
%TO.N,GND*%
X182372000Y-68482000D03*
D16*
%TO.P,J4,2,Pin_2*%
%TO.N,+5V*%
X179832000Y-68482000D03*
%TO.P,J4,3,Pin_3*%
%TO.N,/PA8*%
X177292000Y-68482000D03*
%TD*%
D15*
%TO.P,J14,1,Pin_1*%
%TO.N,GND*%
X192024000Y-86614000D03*
D16*
%TO.P,J14,2,Pin_2*%
%TO.N,+5V*%
X189484000Y-86614000D03*
%TD*%
D17*
%TO.P,SW1,1,1*%
%TO.N,+3.3V*%
X162306000Y-84683000D03*
%TO.P,SW1,2,2*%
%TO.N,/boot0*%
X162306000Y-89053000D03*
%TD*%
D13*
%TO.P,C27,1*%
%TO.N,GND*%
X171732000Y-78994000D03*
%TO.P,C27,2*%
%TO.N,+3.3V*%
X172692000Y-78994000D03*
%TD*%
D15*
%TO.P,J8,1,Pin_1*%
%TO.N,GND*%
X192024000Y-77802000D03*
D16*
%TO.P,J8,2,Pin_2*%
%TO.N,+5V*%
X189484000Y-77802000D03*
%TO.P,J8,3,Pin_3*%
%TO.N,/IBUS_RX*%
X186944000Y-77802000D03*
%TD*%
D13*
%TO.P,C24,1*%
%TO.N,+5V*%
X113126365Y-62998544D03*
%TO.P,C24,2*%
%TO.N,GND*%
X114086365Y-62998544D03*
%TD*%
D15*
%TO.P,J13,1,Pin_1*%
%TO.N,GND*%
X123190000Y-64008000D03*
D16*
%TO.P,J13,2,Pin_2*%
%TO.N,/PD3*%
X123190000Y-66548000D03*
%TO.P,J13,3,Pin_3*%
%TO.N,/PD4*%
X123190000Y-69088000D03*
%TO.P,J13,4,Pin_4*%
%TO.N,/PD5*%
X123190000Y-71628000D03*
%TO.P,J13,5,Pin_5*%
%TO.N,/PD6*%
X123190000Y-74168000D03*
%TO.P,J13,6,Pin_6*%
%TO.N,+5V*%
X123190000Y-76708000D03*
%TD*%
D13*
%TO.P,C17,1*%
%TO.N,+3.3V*%
X158552000Y-81534000D03*
%TO.P,C17,2*%
%TO.N,GND*%
X159512000Y-81534000D03*
%TD*%
D18*
%TO.P,U1,1,PE2*%
%TO.N,/PE2*%
X154482000Y-80904000D03*
%TO.P,U1,2,PE3*%
%TO.N,/INT_BMP*%
X154482000Y-80404000D03*
%TO.P,U1,3,PE4*%
%TO.N,/PE4*%
X154482000Y-79904000D03*
%TO.P,U1,4,PE5*%
%TO.N,/PE5*%
X154482000Y-79404000D03*
%TO.P,U1,5,PE6*%
%TO.N,/PE6*%
X154482000Y-78904000D03*
%TO.P,U1,6,VBAT*%
%TO.N,+3.3V*%
X154482000Y-78404000D03*
%TO.P,U1,7,PC13*%
%TO.N,/PC13*%
X154482000Y-77904000D03*
%TO.P,U1,8,PC14-OSC32_IN*%
%TO.N,/PC14*%
X154482000Y-77404000D03*
%TO.P,U1,9,PC15-OSC32_OUT*%
%TO.N,/PC15*%
X154482000Y-76904000D03*
%TO.P,U1,10,VSS*%
%TO.N,GND*%
X154482000Y-76404000D03*
%TO.P,U1,11,VDD*%
%TO.N,+3.3V*%
X154482000Y-75904000D03*
%TO.P,U1,12,PH0-OSC_IN*%
%TO.N,/osc_in*%
X154482000Y-75404000D03*
%TO.P,U1,13,PH1-OSC_OUT*%
%TO.N,/osc_out*%
X154482000Y-74904000D03*
%TO.P,U1,14,NRST*%
%TO.N,/nrst*%
X154482000Y-74404000D03*
%TO.P,U1,15,PC0*%
%TO.N,/PC0*%
X154482000Y-73904000D03*
%TO.P,U1,16,PC1*%
%TO.N,/PC1*%
X154482000Y-73404000D03*
%TO.P,U1,17,PC2_C*%
%TO.N,/PC2*%
X154482000Y-72904000D03*
%TO.P,U1,18,PC3_C*%
%TO.N,/PC3*%
X154482000Y-72404000D03*
%TO.P,U1,19,VSSA*%
%TO.N,GND*%
X154482000Y-71904000D03*
%TO.P,U1,20,VREF+*%
%TO.N,+3.3V*%
X154482000Y-71404000D03*
%TO.P,U1,21,VDDA*%
X154482000Y-70904000D03*
%TO.P,U1,22,PA0*%
%TO.N,/PA0*%
X154482000Y-70404000D03*
%TO.P,U1,23,PA1*%
%TO.N,/IBUS_RX*%
X154482000Y-69904000D03*
%TO.P,U1,24,PA2*%
%TO.N,/PA2*%
X154482000Y-69404000D03*
%TO.P,U1,25,PA3*%
%TO.N,/PA3*%
X154482000Y-68904000D03*
D19*
%TO.P,U1,26,VSS*%
%TO.N,GND*%
X152582000Y-67004000D03*
%TO.P,U1,27,VDD*%
%TO.N,+3.3V*%
X152082000Y-67004000D03*
%TO.P,U1,28,PA4*%
%TO.N,/INT1_BMI*%
X151582000Y-67004000D03*
%TO.P,U1,29,PA5*%
%TO.N,/PA5*%
X151082000Y-67004000D03*
%TO.P,U1,30,PA6*%
%TO.N,/PA6*%
X150582000Y-67004000D03*
%TO.P,U1,31,PA7*%
%TO.N,/PA7*%
X150082000Y-67004000D03*
%TO.P,U1,32,PC4*%
%TO.N,/PC4*%
X149582000Y-67004000D03*
%TO.P,U1,33,PC5*%
%TO.N,/PC5*%
X149082000Y-67004000D03*
%TO.P,U1,34,PB0*%
%TO.N,/INT3_BMI*%
X148582000Y-67004000D03*
%TO.P,U1,35,PB1*%
%TO.N,/PB1*%
X148082000Y-67004000D03*
%TO.P,U1,36,PB2*%
%TO.N,/PB2*%
X147582000Y-67004000D03*
%TO.P,U1,37,PE7*%
%TO.N,/PE7*%
X147082000Y-67004000D03*
%TO.P,U1,38,PE8*%
%TO.N,/PE8*%
X146582000Y-67004000D03*
%TO.P,U1,39,PE9*%
%TO.N,/PE9*%
X146082000Y-67004000D03*
%TO.P,U1,40,PE10*%
%TO.N,/PE10*%
X145582000Y-67004000D03*
%TO.P,U1,41,PE11*%
%TO.N,/PE11*%
X145082000Y-67004000D03*
%TO.P,U1,42,PE12*%
%TO.N,/PE12*%
X144582000Y-67004000D03*
%TO.P,U1,43,PE13*%
%TO.N,/PE13*%
X144082000Y-67004000D03*
%TO.P,U1,44,PE14*%
%TO.N,/PE14*%
X143582000Y-67004000D03*
%TO.P,U1,45,PE15*%
%TO.N,/PE15*%
X143082000Y-67004000D03*
%TO.P,U1,46,PB10*%
%TO.N,/I2C2_SCL*%
X142582000Y-67004000D03*
%TO.P,U1,47,PB11*%
%TO.N,/I2C2_SDA*%
X142082000Y-67004000D03*
%TO.P,U1,48,VCAP*%
%TO.N,Net-(C10-Pad1)*%
X141582000Y-67004000D03*
%TO.P,U1,49,VSS*%
%TO.N,GND*%
X141082000Y-67004000D03*
%TO.P,U1,50,VDD*%
%TO.N,+3.3V*%
X140582000Y-67004000D03*
D18*
%TO.P,U1,51,PB12*%
%TO.N,/PB12*%
X138682000Y-68904000D03*
%TO.P,U1,52,PB13*%
%TO.N,/PB13*%
X138682000Y-69404000D03*
%TO.P,U1,53,PB14*%
%TO.N,/PB14*%
X138682000Y-69904000D03*
%TO.P,U1,54,PB15*%
%TO.N,/PB15*%
X138682000Y-70404000D03*
%TO.P,U1,55,PD8*%
%TO.N,/INT_ICM*%
X138682000Y-70904000D03*
%TO.P,U1,56,PD9*%
%TO.N,/PD9*%
X138682000Y-71404000D03*
%TO.P,U1,57,PD10*%
%TO.N,/PD10*%
X138682000Y-71904000D03*
%TO.P,U1,58,PD11*%
%TO.N,/PD11*%
X138682000Y-72404000D03*
%TO.P,U1,59,PD12*%
%TO.N,/I2C4_SCL*%
X138682000Y-72904000D03*
%TO.P,U1,60,PD13*%
%TO.N,/I2C4_SDA*%
X138682000Y-73404000D03*
%TO.P,U1,61,PD14*%
%TO.N,/PD14*%
X138682000Y-73904000D03*
%TO.P,U1,62,PD15*%
%TO.N,/PD15*%
X138682000Y-74404000D03*
%TO.P,U1,63,PC6*%
%TO.N,/PC6*%
X138682000Y-74904000D03*
%TO.P,U1,64,PC7*%
%TO.N,/PC7*%
X138682000Y-75404000D03*
%TO.P,U1,65,PC8*%
%TO.N,/PC8*%
X138682000Y-75904000D03*
%TO.P,U1,66,PC9*%
%TO.N,/PC9*%
X138682000Y-76404000D03*
%TO.P,U1,67,PA8*%
%TO.N,/PA8*%
X138682000Y-76904000D03*
%TO.P,U1,68,PA9*%
%TO.N,/PA9*%
X138682000Y-77404000D03*
%TO.P,U1,69,PA10*%
%TO.N,/PA10*%
X138682000Y-77904000D03*
%TO.P,U1,70,PA11*%
%TO.N,/PA11*%
X138682000Y-78404000D03*
%TO.P,U1,71,PA12*%
%TO.N,/PA12*%
X138682000Y-78904000D03*
%TO.P,U1,72,PA13*%
%TO.N,/PA13*%
X138682000Y-79404000D03*
%TO.P,U1,73,VCAP*%
%TO.N,Net-(C12-Pad1)*%
X138682000Y-79904000D03*
%TO.P,U1,74,VSS*%
%TO.N,GND*%
X138682000Y-80404000D03*
%TO.P,U1,75,VDD*%
%TO.N,+3.3V*%
X138682000Y-80904000D03*
D19*
%TO.P,U1,76,PA14*%
%TO.N,/PA14*%
X140582000Y-82804000D03*
%TO.P,U1,77,PA15*%
%TO.N,/PA15*%
X141082000Y-82804000D03*
%TO.P,U1,78,PC10*%
%TO.N,/PC10*%
X141582000Y-82804000D03*
%TO.P,U1,79,PC11*%
%TO.N,/PC11*%
X142082000Y-82804000D03*
%TO.P,U1,80,PC12*%
%TO.N,/PC12*%
X142582000Y-82804000D03*
%TO.P,U1,81,PD0*%
%TO.N,/PD0*%
X143082000Y-82804000D03*
%TO.P,U1,82,PD1*%
%TO.N,/PD1*%
X143582000Y-82804000D03*
%TO.P,U1,83,PD2*%
%TO.N,/PD2*%
X144082000Y-82804000D03*
%TO.P,U1,84,PD3*%
%TO.N,/PD3*%
X144582000Y-82804000D03*
%TO.P,U1,85,PD4*%
%TO.N,/PD4*%
X145082000Y-82804000D03*
%TO.P,U1,86,PD5*%
%TO.N,/PD5*%
X145582000Y-82804000D03*
%TO.P,U1,87,PD6*%
%TO.N,/PD6*%
X146082000Y-82804000D03*
%TO.P,U1,88,PD7*%
%TO.N,/PD7*%
X146582000Y-82804000D03*
%TO.P,U1,89,PB3*%
%TO.N,/PB3*%
X147082000Y-82804000D03*
%TO.P,U1,90,PB4*%
%TO.N,/PB4*%
X147582000Y-82804000D03*
%TO.P,U1,91,PB5*%
%TO.N,/PB5*%
X148082000Y-82804000D03*
%TO.P,U1,92,PB6*%
%TO.N,/PB6*%
X148582000Y-82804000D03*
%TO.P,U1,93,PB7*%
%TO.N,/PB7*%
X149082000Y-82804000D03*
%TO.P,U1,94,BOOT0*%
%TO.N,/boot0*%
X149582000Y-82804000D03*
%TO.P,U1,95,PB8*%
%TO.N,/I2C1_SCL*%
X150082000Y-82804000D03*
%TO.P,U1,96,PB9*%
%TO.N,/I2C1_SDA*%
X150582000Y-82804000D03*
%TO.P,U1,97,PE0*%
%TO.N,/PE0*%
X151082000Y-82804000D03*
%TO.P,U1,98,PE1*%
%TO.N,/PE1*%
X151582000Y-82804000D03*
%TO.P,U1,99,VSS*%
%TO.N,GND*%
X152082000Y-82804000D03*
%TO.P,U1,100,VDD*%
%TO.N,+3.3V*%
X152582000Y-82804000D03*
%TD*%
D20*
%TO.P,U2,1,INT2*%
%TO.N,unconnected-(U2-INT2-Pad1)*%
X153718000Y-62370000D03*
%TO.P,U2,2,NC*%
%TO.N,GND*%
X154218000Y-62370000D03*
%TO.P,U2,3,VDD*%
%TO.N,+3.3V*%
X154718000Y-62370000D03*
%TO.P,U2,4,GNDA*%
%TO.N,GND*%
X155218000Y-62370000D03*
%TO.P,U2,5,CSB2*%
%TO.N,/PC5*%
X155718000Y-62370000D03*
%TO.P,U2,6,GNDIO*%
%TO.N,GND*%
X156218000Y-62370000D03*
%TO.P,U2,7,PS*%
X156718000Y-62370000D03*
D21*
%TO.P,U2,8,SCL/SCK*%
%TO.N,/PA5*%
X157131000Y-63570000D03*
D20*
%TO.P,U2,9,SDA/SDI*%
%TO.N,/PA7*%
X156718000Y-64770000D03*
%TO.P,U2,10,SDO2*%
%TO.N,/PA6*%
X156218000Y-64770000D03*
%TO.P,U2,11,VDDIO*%
%TO.N,+3.3V*%
X155718000Y-64770000D03*
%TO.P,U2,12,INT3*%
%TO.N,/INT3_BMI*%
X155218000Y-64770000D03*
%TO.P,U2,13,INT4*%
%TO.N,unconnected-(U2-INT4-Pad13)*%
X154718000Y-64770000D03*
%TO.P,U2,14,CSB1*%
%TO.N,/PC4*%
X154218000Y-64770000D03*
%TO.P,U2,15,SDO1*%
%TO.N,/PA6*%
X153718000Y-64770000D03*
D21*
%TO.P,U2,16,INT1*%
%TO.N,/INT1_BMI*%
X153301000Y-63570000D03*
%TD*%
D22*
%TO.P,R11,1*%
%TO.N,+3.3V*%
X119888000Y-57402000D03*
%TO.P,R11,2*%
%TO.N,/I2C2_SCL*%
X119888000Y-58422000D03*
%TD*%
D15*
%TO.P,J12,1,Pin_1*%
%TO.N,GND*%
X119380000Y-64008000D03*
D16*
%TO.P,J12,2,Pin_2*%
%TO.N,/I2C1_SDA*%
X119380000Y-66548000D03*
%TO.P,J12,3,Pin_3*%
%TO.N,/I2C1_SCL*%
X119380000Y-69088000D03*
%TO.P,J12,4,Pin_4*%
%TO.N,/PE0*%
X119380000Y-71628000D03*
%TO.P,J12,5,Pin_5*%
%TO.N,/PE1*%
X119380000Y-74168000D03*
%TO.P,J12,6,Pin_6*%
%TO.N,+5V*%
X119380000Y-76708000D03*
%TD*%
D23*
%TO.P,R2,1*%
%TO.N,Net-(D1-A)*%
X108708000Y-85344000D03*
%TO.P,R2,2*%
%TO.N,+3.3V*%
X109728000Y-85344000D03*
%TD*%
D22*
%TO.P,R8,1*%
%TO.N,+3.3V*%
X113538000Y-57404000D03*
%TO.P,R8,2*%
%TO.N,/I2C1_SDA*%
X113538000Y-58424000D03*
%TD*%
%TO.P,R13,1*%
%TO.N,+3.3V*%
X117348000Y-57402000D03*
%TO.P,R13,2*%
%TO.N,/I2C4_SCL*%
X117348000Y-58422000D03*
%TD*%
D15*
%TO.P,J6,1,Pin_1*%
%TO.N,GND*%
X192024000Y-68502000D03*
D16*
%TO.P,J6,2,Pin_2*%
%TO.N,+5V*%
X189484000Y-68502000D03*
%TO.P,J6,3,Pin_3*%
%TO.N,/PC7*%
X186944000Y-68502000D03*
%TD*%
D15*
%TO.P,J11,1,Pin_1*%
%TO.N,+3.3V*%
X123952000Y-57912000D03*
D16*
%TO.P,J11,2,Pin_2*%
%TO.N,GND*%
X123952000Y-55372000D03*
%TO.P,J11,3,Pin_3*%
%TO.N,+3.3V*%
X126492000Y-57912000D03*
%TO.P,J11,4,Pin_4*%
%TO.N,GND*%
X126492000Y-55372000D03*
%TO.P,J11,5,Pin_5*%
%TO.N,+3.3V*%
X129032000Y-57912000D03*
%TO.P,J11,6,Pin_6*%
%TO.N,GND*%
X129032000Y-55372000D03*
%TO.P,J11,7,Pin_7*%
%TO.N,+3.3V*%
X131572000Y-57912000D03*
%TO.P,J11,8,Pin_8*%
%TO.N,GND*%
X131572000Y-55372000D03*
%TD*%
D13*
%TO.P,C28,1*%
%TO.N,+3.3V*%
X158552000Y-82804000D03*
%TO.P,C28,2*%
%TO.N,GND*%
X159512000Y-82804000D03*
%TD*%
D24*
%TO.P,USB1,1,GND*%
%TO.N,GND*%
X110160000Y-71977000D03*
%TO.P,USB1,2,VBUS*%
%TO.N,+5V*%
X110160000Y-72777000D03*
D25*
%TO.P,USB1,3,SBU2*%
%TO.N,unconnected-(USB1-SBU2-Pad3)*%
X110160000Y-73427000D03*
%TO.P,USB1,4,CC1*%
%TO.N,Net-(USB1-CC1)*%
X110160000Y-73927000D03*
%TO.P,USB1,5,DN2*%
%TO.N,/PA11*%
X110160000Y-74427000D03*
%TO.P,USB1,6,DP1*%
%TO.N,/PA12*%
X110160000Y-74927000D03*
%TO.P,USB1,7,DN1*%
%TO.N,/PA11*%
X110160000Y-75427000D03*
%TO.P,USB1,8,DP2*%
%TO.N,/PA12*%
X110160000Y-75927000D03*
%TO.P,USB1,9,SBU1*%
%TO.N,unconnected-(USB1-SBU1-Pad9)*%
X110160000Y-76427000D03*
%TO.P,USB1,10,CC2*%
%TO.N,Net-(USB1-CC2)*%
X110160000Y-76927000D03*
D24*
%TO.P,USB1,11,VBUS*%
%TO.N,+5V*%
X110160000Y-77577000D03*
%TO.P,USB1,12,GND*%
%TO.N,GND*%
X110160000Y-78377000D03*
D26*
%TO.P,USB1,13,SHELL*%
X109610000Y-70852000D03*
D27*
X105410000Y-70852000D03*
D26*
%TO.P,USB1,14,SHELL*%
X109610000Y-79502000D03*
D27*
X105410000Y-79502000D03*
%TD*%
D15*
%TO.P,J17,1,Pin_1*%
%TO.N,GND*%
X185166000Y-85852000D03*
D16*
%TO.P,J17,2,Pin_2*%
%TO.N,+5V*%
X185166000Y-83312000D03*
%TD*%
D14*
%TO.P,C26,1*%
%TO.N,+3.3V*%
X179324000Y-75438000D03*
%TO.P,C26,2*%
%TO.N,GND*%
X178364000Y-75438000D03*
%TD*%
D22*
%TO.P,R12,1*%
%TO.N,+3.3V*%
X118618000Y-57402000D03*
%TO.P,R12,2*%
%TO.N,/I2C2_SDA*%
X118618000Y-58422000D03*
%TD*%
D15*
%TO.P,J7,1,Pin_1*%
%TO.N,GND*%
X192024000Y-73152000D03*
D16*
%TO.P,J7,2,Pin_2*%
%TO.N,+5V*%
X189484000Y-73152000D03*
%TO.P,J7,3,Pin_3*%
%TO.N,/PA9*%
X186944000Y-73152000D03*
%TD*%
D10*
%TO.P,C14,1*%
%TO.N,+3.3V*%
X153694000Y-82778000D03*
%TO.P,C14,2*%
%TO.N,GND*%
X153694000Y-83738000D03*
%TD*%
D23*
%TO.P,R6,1*%
%TO.N,/PA13*%
X178306000Y-76708000D03*
%TO.P,R6,2*%
%TO.N,+3.3V*%
X179326000Y-76708000D03*
%TD*%
D28*
%TO.P,C6,1*%
%TO.N,+3.3V*%
X139954000Y-65252000D03*
%TO.P,C6,2*%
%TO.N,GND*%
X139954000Y-64292000D03*
%TD*%
D15*
%TO.P,J9,1,Pin_1*%
%TO.N,/PE2*%
X183642000Y-55372000D03*
D16*
%TO.P,J9,2,Pin_2*%
%TO.N,/INT_BMP*%
X183642000Y-57912000D03*
%TO.P,J9,3,Pin_3*%
%TO.N,/PE4*%
X181102000Y-55372000D03*
%TO.P,J9,4,Pin_4*%
%TO.N,/PE5*%
X181102000Y-57912000D03*
%TO.P,J9,5,Pin_5*%
%TO.N,/PE6*%
X178562000Y-55372000D03*
%TO.P,J9,6,Pin_6*%
%TO.N,/PC13*%
X178562000Y-57912000D03*
%TO.P,J9,7,Pin_7*%
%TO.N,/PC14*%
X176022000Y-55372000D03*
%TO.P,J9,8,Pin_8*%
%TO.N,/PC15*%
X176022000Y-57912000D03*
%TO.P,J9,9,Pin_9*%
%TO.N,/PC0*%
X173482000Y-55372000D03*
%TO.P,J9,10,Pin_10*%
%TO.N,/PC1*%
X173482000Y-57912000D03*
%TO.P,J9,11,Pin_11*%
%TO.N,/PC2*%
X170942000Y-55372000D03*
%TO.P,J9,12,Pin_12*%
%TO.N,/PC3*%
X170942000Y-57912000D03*
%TO.P,J9,13,Pin_13*%
%TO.N,/PA0*%
X168402000Y-55372000D03*
%TO.P,J9,14,Pin_14*%
%TO.N,/IBUS_RX*%
X168402000Y-57912000D03*
%TO.P,J9,15,Pin_15*%
%TO.N,/PA2*%
X165862000Y-55372000D03*
%TO.P,J9,16,Pin_16*%
%TO.N,/PA3*%
X165862000Y-57912000D03*
%TO.P,J9,17,Pin_17*%
%TO.N,/INT1_BMI*%
X163322000Y-55372000D03*
%TO.P,J9,18,Pin_18*%
%TO.N,/PA5*%
X163322000Y-57912000D03*
%TO.P,J9,19,Pin_19*%
%TO.N,/PA6*%
X160782000Y-55372000D03*
%TO.P,J9,20,Pin_20*%
%TO.N,/PA7*%
X160782000Y-57912000D03*
%TO.P,J9,21,Pin_21*%
%TO.N,/I2C1_SCL*%
X158242000Y-55372000D03*
%TO.P,J9,22,Pin_22*%
%TO.N,/I2C1_SDA*%
X158242000Y-57912000D03*
%TO.P,J9,23,Pin_23*%
%TO.N,/PE0*%
X155702000Y-55372000D03*
%TO.P,J9,24,Pin_24*%
%TO.N,/PE1*%
X155702000Y-57912000D03*
%TO.P,J9,25,Pin_25*%
%TO.N,/PC4*%
X153162000Y-55372000D03*
%TO.P,J9,26,Pin_26*%
%TO.N,/PC5*%
X153162000Y-57912000D03*
%TO.P,J9,27,Pin_27*%
%TO.N,/INT3_BMI*%
X150622000Y-55372000D03*
%TO.P,J9,28,Pin_28*%
%TO.N,/PB1*%
X150622000Y-57912000D03*
%TO.P,J9,29,Pin_29*%
%TO.N,/PB2*%
X148082000Y-55372000D03*
%TO.P,J9,30,Pin_30*%
%TO.N,/PE7*%
X148082000Y-57912000D03*
%TO.P,J9,31,Pin_31*%
%TO.N,/PE8*%
X145542000Y-55372000D03*
%TO.P,J9,32,Pin_32*%
%TO.N,/PE9*%
X145542000Y-57912000D03*
%TO.P,J9,33,Pin_33*%
%TO.N,/PE10*%
X143002000Y-55372000D03*
%TO.P,J9,34,Pin_34*%
%TO.N,/PE11*%
X143002000Y-57912000D03*
%TO.P,J9,35,Pin_35*%
%TO.N,/PE12*%
X140462000Y-55372000D03*
%TO.P,J9,36,Pin_36*%
%TO.N,/PE13*%
X140462000Y-57912000D03*
%TO.P,J9,37,Pin_37*%
%TO.N,/PE14*%
X137922000Y-55372000D03*
%TO.P,J9,38,Pin_38*%
%TO.N,/PE15*%
X137922000Y-57912000D03*
%TO.P,J9,39,Pin_39*%
%TO.N,/I2C2_SCL*%
X135382000Y-55372000D03*
%TO.P,J9,40,Pin_40*%
%TO.N,/I2C2_SDA*%
X135382000Y-57912000D03*
%TD*%
D13*
%TO.P,C4,1*%
%TO.N,GND*%
X156516000Y-77952000D03*
%TO.P,C4,2*%
%TO.N,+3.3V*%
X157476000Y-77952000D03*
%TD*%
D15*
%TO.P,J2,1,Pin_1*%
%TO.N,GND*%
X192024000Y-82296000D03*
D16*
%TO.P,J2,2,Pin_2*%
%TO.N,+5V*%
X189484000Y-82296000D03*
%TD*%
D13*
%TO.P,C22,1*%
%TO.N,+3.3V*%
X113098365Y-65538544D03*
%TO.P,C22,2*%
%TO.N,GND*%
X114058365Y-65538544D03*
%TD*%
D28*
%TO.P,C10,1*%
%TO.N,Net-(C10-Pad1)*%
X141224000Y-65252000D03*
%TO.P,C10,2*%
%TO.N,GND*%
X141224000Y-64292000D03*
%TD*%
D29*
%TO.P,U3,1,AP_SDO/AP_AD0*%
%TO.N,/PB14*%
X137668000Y-66539500D03*
%TO.P,U3,2,RESV*%
%TO.N,unconnected-(U3-RESV-Pad2)*%
X137668000Y-66039500D03*
%TO.P,U3,3,RESV*%
%TO.N,unconnected-(U3-RESV-Pad3)*%
X137668000Y-65539500D03*
%TO.P,U3,4,INT1/INT*%
%TO.N,/INT_ICM*%
X137668000Y-65039500D03*
D30*
%TO.P,U3,5,VDDIO*%
%TO.N,+3.3V*%
X136906000Y-64777000D03*
%TO.P,U3,6,GND*%
%TO.N,GND*%
X136406000Y-64777000D03*
%TO.P,U3,7,RESV*%
X135906000Y-64777000D03*
D29*
%TO.P,U3,8,VDD*%
%TO.N,+3.3V*%
X135144000Y-65039500D03*
%TO.P,U3,9,INT2/FSYNC/CLKIN*%
%TO.N,GND*%
X135144000Y-65539500D03*
%TO.P,U3,10,RESV*%
%TO.N,unconnected-(U3-RESV-Pad10)*%
X135144000Y-66039500D03*
%TO.P,U3,11,RESV*%
%TO.N,unconnected-(U3-RESV-Pad11)*%
X135144000Y-66539500D03*
D30*
%TO.P,U3,12,AP_CS*%
%TO.N,/PB12*%
X135906000Y-66802000D03*
%TO.P,U3,13,AP_SCL/AP_SCLK*%
%TO.N,/PB13*%
X136406000Y-66802000D03*
%TO.P,U3,14,AP_SDA/AP_SDIO/AP_SDI*%
%TO.N,/PB15*%
X136906000Y-66802000D03*
%TD*%
D22*
%TO.P,R3,1*%
%TO.N,Net-(USB1-CC2)*%
X112284500Y-80008000D03*
%TO.P,R3,2*%
%TO.N,GND*%
X112284500Y-81028000D03*
%TD*%
D14*
%TO.P,C2,1*%
%TO.N,/osc_in*%
X161187000Y-77825000D03*
%TO.P,C2,2*%
%TO.N,GND*%
X160227000Y-77825000D03*
%TD*%
D13*
%TO.P,C25,1*%
%TO.N,+5V*%
X113126365Y-64268544D03*
%TO.P,C25,2*%
%TO.N,GND*%
X114086365Y-64268544D03*
%TD*%
D15*
%TO.P,J3,1,Pin_1*%
%TO.N,GND*%
X182372000Y-63832000D03*
D16*
%TO.P,J3,2,Pin_2*%
%TO.N,+5V*%
X179832000Y-63832000D03*
%TO.P,J3,3,Pin_3*%
%TO.N,/PB6*%
X177292000Y-63832000D03*
%TD*%
D10*
%TO.P,C16,1*%
%TO.N,GND*%
X159004000Y-61496000D03*
%TO.P,C16,2*%
%TO.N,+3.3V*%
X159004000Y-62456000D03*
%TD*%
D22*
%TO.P,R14,1*%
%TO.N,+3.3V*%
X116078000Y-57402000D03*
%TO.P,R14,2*%
%TO.N,/I2C4_SDA*%
X116078000Y-58422000D03*
%TD*%
D31*
%TO.P,CARD1,1,DAT2*%
%TO.N,/PC10*%
X175986000Y-81228500D03*
%TO.P,CARD1,2,CD/DAT3*%
%TO.N,/PC11*%
X174886000Y-81228500D03*
%TO.P,CARD1,3,CMD*%
%TO.N,/PD2*%
X173786000Y-81228500D03*
%TO.P,CARD1,4,VDD*%
%TO.N,+3.3V*%
X172686000Y-81228500D03*
%TO.P,CARD1,5,CLX*%
%TO.N,/PC12*%
X171586000Y-81228500D03*
%TO.P,CARD1,6,VSS*%
%TO.N,GND*%
X170486000Y-81228500D03*
%TO.P,CARD1,7,DAT0*%
%TO.N,/PC8*%
X169386000Y-81228500D03*
%TO.P,CARD1,8,DAT1*%
%TO.N,/PC9*%
X168286000Y-81228500D03*
D32*
%TO.P,CARD1,10,10*%
%TO.N,GND*%
X165986000Y-82228500D03*
D33*
%TO.P,CARD1,11,11*%
X165986000Y-91828500D03*
%TO.P,CARD1,12,12*%
X181486000Y-91828500D03*
D34*
%TO.P,CARD1,13,13*%
X180586000Y-82228500D03*
D31*
%TO.P,CARD1,CD,CD*%
%TO.N,/PA15*%
X167186000Y-81228500D03*
%TD*%
D35*
%TO.P,R5,1*%
%TO.N,GND*%
X179326000Y-77978000D03*
%TO.P,R5,2*%
%TO.N,/PA14*%
X178306000Y-77978000D03*
%TD*%
D36*
%TO.P,D1,1,K*%
%TO.N,GND*%
X105609000Y-85344000D03*
%TO.P,D1,2,A*%
%TO.N,Net-(D1-A)*%
X107184000Y-85344000D03*
%TD*%
D22*
%TO.P,R4,1*%
%TO.N,Net-(USB1-CC1)*%
X113554500Y-80006000D03*
%TO.P,R4,2*%
%TO.N,GND*%
X113554500Y-81026000D03*
%TD*%
%TO.P,R7,1*%
%TO.N,+3.3V*%
X114808000Y-57404000D03*
%TO.P,R7,2*%
%TO.N,/I2C1_SCL*%
X114808000Y-58424000D03*
%TD*%
D37*
%TO.P,U5,1,ADJ(GND)*%
%TO.N,GND*%
X110881365Y-67330544D03*
%TO.P,U5,2,VOUT(TAB)*%
%TO.N,+3.3V*%
X110881365Y-65030544D03*
%TO.P,U5,3,VIN*%
%TO.N,+5V*%
X110881365Y-62730544D03*
D38*
%TO.P,U5,4,TAB*%
%TO.N,+3.3V*%
X105211365Y-65030544D03*
%TD*%
D13*
%TO.P,C11,1*%
%TO.N,+3.3V*%
X156516000Y-79222000D03*
%TO.P,C11,2*%
%TO.N,GND*%
X157476000Y-79222000D03*
%TD*%
D15*
%TO.P,J15,1,Pin_1*%
%TO.N,GND*%
X130556000Y-64008000D03*
D16*
%TO.P,J15,2,Pin_2*%
%TO.N,/I2C2_SDA*%
X130556000Y-66548000D03*
%TO.P,J15,3,Pin_3*%
%TO.N,/I2C2_SCL*%
X130556000Y-69088000D03*
%TO.P,J15,4,Pin_4*%
%TO.N,+5V*%
X130556000Y-71628000D03*
%TD*%
D39*
%TO.P,X1,1,OSC1*%
%TO.N,/osc_out*%
X159917000Y-73974000D03*
%TO.P,X1,2,GND*%
%TO.N,GND*%
X159917000Y-76174000D03*
%TO.P,X1,3,OSC2*%
%TO.N,/osc_in*%
X161667000Y-76174000D03*
%TO.P,X1,4,GND*%
%TO.N,GND*%
X161667000Y-73974000D03*
%TD*%
D13*
%TO.P,C5,1*%
%TO.N,+3.3V*%
X157508000Y-69850000D03*
%TO.P,C5,2*%
%TO.N,GND*%
X158468000Y-69850000D03*
%TD*%
%TO.P,C23,1*%
%TO.N,+3.3V*%
X113098365Y-66808544D03*
%TO.P,C23,2*%
%TO.N,GND*%
X114058365Y-66808544D03*
%TD*%
D15*
%TO.P,J16,1,Pin_1*%
%TO.N,GND*%
X126844000Y-64008000D03*
D16*
%TO.P,J16,2,Pin_2*%
%TO.N,/I2C4_SDA*%
X126844000Y-66548000D03*
%TO.P,J16,3,Pin_3*%
%TO.N,/I2C4_SCL*%
X126844000Y-69088000D03*
%TO.P,J16,4,Pin_4*%
%TO.N,+5V*%
X126844000Y-71628000D03*
%TD*%
D13*
%TO.P,C7,1*%
%TO.N,+3.3V*%
X156464000Y-71120000D03*
%TO.P,C7,2*%
%TO.N,GND*%
X157424000Y-71120000D03*
%TD*%
D10*
%TO.P,C8,1*%
%TO.N,+3.3V*%
X153694000Y-66296000D03*
%TO.P,C8,2*%
%TO.N,GND*%
X153694000Y-67256000D03*
%TD*%
D13*
%TO.P,C3,1*%
%TO.N,/osc_out*%
X160227000Y-72364000D03*
%TO.P,C3,2*%
%TO.N,GND*%
X161187000Y-72364000D03*
%TD*%
D22*
%TO.P,R1,1*%
%TO.N,GND*%
X159766000Y-85342000D03*
%TO.P,R1,2*%
%TO.N,/boot0*%
X159766000Y-86362000D03*
%TD*%
D14*
%TO.P,C13,1*%
%TO.N,+3.3V*%
X136676000Y-81000000D03*
%TO.P,C13,2*%
%TO.N,GND*%
X135716000Y-81000000D03*
%TD*%
D15*
%TO.P,J10,1,Pin_1*%
%TO.N,/PB7*%
X162052000Y-92456000D03*
D16*
%TO.P,J10,2,Pin_2*%
%TO.N,/PB6*%
X162052000Y-94996000D03*
%TO.P,J10,3,Pin_3*%
%TO.N,/PB5*%
X159512000Y-92456000D03*
%TO.P,J10,4,Pin_4*%
%TO.N,/PB4*%
X159512000Y-94996000D03*
%TO.P,J10,5,Pin_5*%
%TO.N,/PB3*%
X156972000Y-92456000D03*
%TO.P,J10,6,Pin_6*%
%TO.N,/PD7*%
X156972000Y-94996000D03*
%TO.P,J10,7,Pin_7*%
%TO.N,/PD6*%
X154432000Y-92456000D03*
%TO.P,J10,8,Pin_8*%
%TO.N,/PD5*%
X154432000Y-94996000D03*
%TO.P,J10,9,Pin_9*%
%TO.N,/PD4*%
X151892000Y-92456000D03*
%TO.P,J10,10,Pin_10*%
%TO.N,/PD3*%
X151892000Y-94996000D03*
%TO.P,J10,11,Pin_11*%
%TO.N,/PD2*%
X149352000Y-92456000D03*
%TO.P,J10,12,Pin_12*%
%TO.N,/PD1*%
X149352000Y-94996000D03*
%TO.P,J10,13,Pin_13*%
%TO.N,/PD0*%
X146812000Y-92456000D03*
%TO.P,J10,14,Pin_14*%
%TO.N,/PC12*%
X146812000Y-94996000D03*
%TO.P,J10,15,Pin_15*%
%TO.N,/PC11*%
X144272000Y-92456000D03*
%TO.P,J10,16,Pin_16*%
%TO.N,/PC10*%
X144272000Y-94996000D03*
%TO.P,J10,17,Pin_17*%
%TO.N,/PA15*%
X141732000Y-92456000D03*
%TO.P,J10,18,Pin_18*%
%TO.N,/PA14*%
X141732000Y-94996000D03*
%TO.P,J10,19,Pin_19*%
%TO.N,/PA13*%
X139192000Y-92456000D03*
%TO.P,J10,20,Pin_20*%
%TO.N,unconnected-(J10-Pin_20-Pad20)*%
X139192000Y-94996000D03*
%TO.P,J10,21,Pin_21*%
%TO.N,unconnected-(J10-Pin_21-Pad21)*%
X136652000Y-92456000D03*
%TO.P,J10,22,Pin_22*%
%TO.N,/PA10*%
X136652000Y-94996000D03*
%TO.P,J10,23,Pin_23*%
%TO.N,/PA9*%
X134112000Y-92456000D03*
%TO.P,J10,24,Pin_24*%
%TO.N,/PA8*%
X134112000Y-94996000D03*
%TO.P,J10,25,Pin_25*%
%TO.N,/PC9*%
X131572000Y-92456000D03*
%TO.P,J10,26,Pin_26*%
%TO.N,/PC8*%
X131572000Y-94996000D03*
%TO.P,J10,27,Pin_27*%
%TO.N,/PC7*%
X129032000Y-92456000D03*
%TO.P,J10,28,Pin_28*%
%TO.N,/PC6*%
X129032000Y-94996000D03*
%TO.P,J10,29,Pin_29*%
%TO.N,/PD15*%
X126492000Y-92456000D03*
%TO.P,J10,30,Pin_30*%
%TO.N,/PD14*%
X126492000Y-94996000D03*
%TO.P,J10,31,Pin_31*%
%TO.N,/I2C4_SDA*%
X123952000Y-92456000D03*
%TO.P,J10,32,Pin_32*%
%TO.N,/I2C4_SCL*%
X123952000Y-94996000D03*
%TO.P,J10,33,Pin_33*%
%TO.N,/PD11*%
X121412000Y-92456000D03*
%TO.P,J10,34,Pin_34*%
%TO.N,/PD10*%
X121412000Y-94996000D03*
%TO.P,J10,35,Pin_35*%
%TO.N,/PD9*%
X118872000Y-92456000D03*
%TO.P,J10,36,Pin_36*%
%TO.N,/INT_ICM*%
X118872000Y-94996000D03*
%TO.P,J10,37,Pin_37*%
%TO.N,/PB15*%
X116332000Y-92456000D03*
%TO.P,J10,38,Pin_38*%
%TO.N,/PB14*%
X116332000Y-94996000D03*
%TO.P,J10,39,Pin_39*%
%TO.N,/PB13*%
X113792000Y-92456000D03*
%TO.P,J10,40,Pin_40*%
%TO.N,/PB12*%
X113792000Y-94996000D03*
%TD*%
D15*
%TO.P,J1,1,Pin_1*%
%TO.N,/PA14*%
X172212000Y-73152000D03*
D16*
%TO.P,J1,2,Pin_2*%
%TO.N,/PA13*%
X174752000Y-73152000D03*
%TO.P,J1,3,Pin_3*%
%TO.N,GND*%
X177292000Y-73152000D03*
%TO.P,J1,4,Pin_4*%
%TO.N,+3.3V*%
X179832000Y-73152000D03*
%TO.P,J1,5,Pin_5*%
%TO.N,/boot0*%
X182372000Y-73152000D03*
%TD*%
D14*
%TO.P,C12,1*%
%TO.N,Net-(C12-Pad1)*%
X136676000Y-79730000D03*
%TO.P,C12,2*%
%TO.N,GND*%
X135716000Y-79730000D03*
%TD*%
%TO.P,C1,1*%
%TO.N,GND*%
X157452000Y-74168000D03*
%TO.P,C1,2*%
%TO.N,/nrst*%
X156492000Y-74168000D03*
%TD*%
D40*
%TO.N,GND*%
X132842000Y-64008000D03*
X157734000Y-73406000D03*
X159230000Y-69088000D03*
X180340000Y-91694000D03*
X160020000Y-82296000D03*
X154592000Y-82496000D03*
X109062365Y-67316544D03*
X154432000Y-60960000D03*
D41*
X158266000Y-76682000D03*
X158266000Y-79476000D03*
X153162000Y-83854000D03*
D40*
X167132000Y-91694000D03*
D41*
X159917000Y-78587000D03*
X104392000Y-85344000D03*
D40*
X165862000Y-83312000D03*
X114142365Y-61982544D03*
D41*
X179324000Y-78740000D03*
D40*
X180594000Y-83566000D03*
X172212000Y-77310890D03*
D41*
X135394000Y-80250000D03*
D40*
X157099000Y-61595000D03*
D41*
X153162000Y-67004000D03*
X161314000Y-71602000D03*
D40*
X159766000Y-60935466D03*
D41*
X140560193Y-64292000D03*
D40*
%TO.N,+3.3V*%
X133858000Y-64008000D03*
D41*
X110742000Y-85344000D03*
D40*
X107126091Y-65024000D03*
X156210000Y-63754000D03*
X108492368Y-65030544D03*
D41*
X139446000Y-66040000D03*
D40*
X173116471Y-77310890D03*
X160274000Y-63246000D03*
D41*
X112776000Y-56896000D03*
X162052000Y-85953000D03*
D40*
X160274000Y-80518000D03*
D41*
X151892000Y-73660000D03*
X156996000Y-79984000D03*
D40*
X107792365Y-65030544D03*
D41*
X154456000Y-66268000D03*
X150876000Y-84074000D03*
D40*
X137210000Y-81534000D03*
X157988000Y-69088000D03*
%TO.N,/PA15*%
X140970000Y-81280000D03*
X166878000Y-80010000D03*
%TO.N,/PC8*%
X168910000Y-80010000D03*
X141224000Y-76200000D03*
%TO.N,/PC9*%
X140462000Y-76504000D03*
X167894000Y-80010000D03*
%TO.N,/PC10*%
X143256000Y-79664000D03*
X175768000Y-80010000D03*
D41*
%TO.N,/boot0*%
X162306000Y-90170000D03*
X165862000Y-89408000D03*
D40*
%TO.N,/PD2*%
X143510000Y-81026000D03*
X173482000Y-80010000D03*
%TO.N,/PC11*%
X174498000Y-80010000D03*
X142469822Y-80264000D03*
%TO.N,/PC12*%
X142748000Y-81280000D03*
X171196000Y-80010000D03*
D41*
%TO.N,/PA14*%
X177292000Y-77978000D03*
X164338000Y-91186000D03*
%TO.N,/PA13*%
X164592000Y-94234000D03*
X139700000Y-81788000D03*
%TO.N,/PC6*%
X162052000Y-69342000D03*
X172974000Y-65024000D03*
X149352000Y-70612000D03*
%TO.N,/PC7*%
X169164000Y-69342000D03*
X161798000Y-70104000D03*
X149606000Y-71374000D03*
%TO.N,/PA9*%
X170688000Y-67310000D03*
X163576000Y-67564000D03*
X151384000Y-70866000D03*
%TO.N,/PD4*%
X144780000Y-77978000D03*
%TO.N,/PE4*%
X151130000Y-80264000D03*
D40*
X157226000Y-84074000D03*
%TO.N,/PA11*%
X136789499Y-78504000D03*
X112236485Y-75215515D03*
D41*
%TO.N,/PE1*%
X148082000Y-77724000D03*
X150622000Y-76200000D03*
X140335000Y-78105000D03*
D40*
%TO.N,/INT_BMP*%
X157988000Y-84582000D03*
D41*
X151638000Y-81026000D03*
%TO.N,/PE5*%
X151130000Y-79248000D03*
D40*
X156010541Y-84215068D03*
D41*
%TO.N,/PD3*%
X144018000Y-78994000D03*
%TO.N,/PD6*%
X143256000Y-77978000D03*
%TO.N,/PC0*%
X152954000Y-74214000D03*
D40*
%TO.N,/PE6*%
X155194000Y-84582000D03*
D41*
X151638000Y-78486000D03*
%TO.N,/PC15*%
X152654000Y-75692000D03*
D40*
%TO.N,/PC5*%
X155702000Y-61214000D03*
X149352000Y-68834000D03*
%TO.N,/PB14*%
X138430000Y-67172178D03*
X140378265Y-69512265D03*
%TO.N,/PA5*%
X151182000Y-65532000D03*
X158242000Y-63754000D03*
%TO.N,/PA12*%
X111506000Y-76454000D03*
X137414000Y-79004000D03*
D41*
%TO.N,/PC14*%
X152146000Y-76708000D03*
%TO.N,/PE2*%
X152654000Y-81153000D03*
%TO.N,/IBUS_RX*%
X183642000Y-60960000D03*
X184658000Y-66294000D03*
X170688000Y-60706000D03*
%TO.N,/PD5*%
X143002000Y-78753756D03*
%TO.N,/PC13*%
X151892000Y-77470000D03*
D40*
%TO.N,+5V*%
X138430000Y-87376000D03*
X107188000Y-78486000D03*
X139954000Y-87630000D03*
D41*
%TO.N,/PE0*%
X149860000Y-76962000D03*
X140462000Y-78994000D03*
X146812000Y-77470000D03*
%TO.N,/PC1*%
X152908000Y-73152000D03*
D40*
%TO.N,/PC4*%
X150884938Y-69239444D03*
X154169375Y-63270002D03*
%TO.N,/INT3_BMI*%
X154818000Y-63754000D03*
X150070735Y-69385265D03*
D41*
%TO.N,/I2C1_SCL*%
X150114000Y-74676000D03*
%TO.N,/I2C1_SDA*%
X151130000Y-74676000D03*
X133350000Y-59690000D03*
%TO.N,/I2C4_SCL*%
X140462000Y-72390000D03*
%TO.N,/I2C4_SDA*%
X141224000Y-71628000D03*
%TD*%
D42*
%TO.N,/nrst*%
X156492000Y-74168000D02*
X156256000Y-74404000D01*
X156256000Y-74404000D02*
X154482000Y-74404000D01*
%TO.N,GND*%
X157476000Y-76682000D02*
X158266000Y-76682000D01*
X154432000Y-61531000D02*
X154218000Y-61745000D01*
X161187000Y-71729000D02*
X161314000Y-71602000D01*
X160020000Y-82296000D02*
X159512000Y-82804000D01*
X114142365Y-61982544D02*
X114142365Y-62942544D01*
X154218000Y-61745000D02*
X154218000Y-62370000D01*
X135394000Y-80250000D02*
X135716000Y-79928000D01*
X157476000Y-78912000D02*
X157126000Y-78562000D01*
X154433000Y-60960000D02*
X155218000Y-61745000D01*
X155726000Y-76658000D02*
X155472000Y-76404000D01*
X158056000Y-77262000D02*
X158056000Y-78308134D01*
X156218000Y-62370000D02*
X156718000Y-62370000D01*
X152082000Y-83794000D02*
X152082000Y-82804000D01*
X132842000Y-64968000D02*
X132898000Y-65024000D01*
X153694000Y-83738000D02*
X153578000Y-83854000D01*
X181351500Y-91694000D02*
X181486000Y-91828500D01*
X157126000Y-78562000D02*
X156516000Y-77952000D01*
X138682000Y-80404000D02*
X138668000Y-80390000D01*
X135906000Y-64777000D02*
X136406000Y-64777000D01*
X109062365Y-67316544D02*
X110867365Y-67316544D01*
X110966000Y-78377000D02*
X111506000Y-78917000D01*
X159766000Y-83058000D02*
X159512000Y-82804000D01*
X171732000Y-78994000D02*
X171732000Y-77790890D01*
X114086365Y-66780544D02*
X114058365Y-66808544D01*
X155726000Y-77162000D02*
X155726000Y-76658000D01*
X135144000Y-65539500D02*
X135721500Y-65539500D01*
X105609000Y-85344000D02*
X104392000Y-85344000D01*
X110160000Y-78377000D02*
X110966000Y-78377000D01*
X135394000Y-80678000D02*
X135716000Y-81000000D01*
X157734000Y-73406000D02*
X157452000Y-73688000D01*
X153162000Y-67004000D02*
X153442000Y-67004000D01*
X180594000Y-82236500D02*
X180586000Y-82228500D01*
X157424000Y-70894000D02*
X158468000Y-69850000D01*
X157099000Y-61595000D02*
X156718000Y-61976000D01*
X110969365Y-67418544D02*
X110881365Y-67330544D01*
X159917000Y-77515000D02*
X160227000Y-77825000D01*
X161187000Y-72364000D02*
X161187000Y-73494000D01*
X160274000Y-61443466D02*
X160274000Y-61496000D01*
X167132000Y-91694000D02*
X166120500Y-91694000D01*
X158130000Y-62370000D02*
X159004000Y-61496000D01*
X110867365Y-67316544D02*
X110881365Y-67330544D01*
X158012000Y-79222000D02*
X158266000Y-79476000D01*
X170486000Y-79871471D02*
X170486000Y-81228500D01*
X135906000Y-65355000D02*
X135906000Y-64777000D01*
X113552500Y-81028000D02*
X113554500Y-81026000D01*
X132842000Y-64008000D02*
X132842000Y-64968000D01*
X157802134Y-78562000D02*
X157126000Y-78562000D01*
X156516000Y-77952000D02*
X155726000Y-77162000D01*
X159004000Y-61496000D02*
X160274000Y-61496000D01*
X141082000Y-66046134D02*
X140564000Y-65528134D01*
X158056000Y-78308134D02*
X157802134Y-78562000D01*
X159766000Y-85342000D02*
X159766000Y-83058000D01*
X140564000Y-64902000D02*
X139954000Y-64292000D01*
X161187000Y-72364000D02*
X161187000Y-71729000D01*
X180340000Y-91694000D02*
X181351500Y-91694000D01*
X135716000Y-79928000D02*
X135716000Y-79730000D01*
X110160000Y-71402000D02*
X109610000Y-70852000D01*
X178364000Y-75438000D02*
X178364000Y-74224000D01*
X154432000Y-60960000D02*
X154433000Y-60960000D01*
X111506000Y-80249500D02*
X112284500Y-81028000D01*
X152142000Y-83854000D02*
X152082000Y-83794000D01*
X159917000Y-76174000D02*
X159917000Y-77515000D01*
X110160000Y-78377000D02*
X110160000Y-78952000D01*
X155472000Y-76404000D02*
X154482000Y-76404000D01*
X171732000Y-77790890D02*
X172212000Y-77310890D01*
X157476000Y-76682000D02*
X158056000Y-77262000D01*
X159512000Y-81534000D02*
X160020000Y-82042000D01*
X166120500Y-91694000D02*
X165986000Y-91828500D01*
X152582000Y-67004000D02*
X153162000Y-67004000D01*
X154432000Y-60960000D02*
X154432000Y-61531000D01*
X111506000Y-78917000D02*
X111506000Y-80249500D01*
X155218000Y-61745000D02*
X155218000Y-62370000D01*
X160227000Y-78277000D02*
X160227000Y-77825000D01*
X135394000Y-80250000D02*
X135394000Y-80678000D01*
X178364000Y-74224000D02*
X177292000Y-73152000D01*
X157476000Y-79222000D02*
X158012000Y-79222000D01*
X158225866Y-83414000D02*
X158902000Y-83414000D01*
X114142365Y-62942544D02*
X114086365Y-62998544D01*
X157480000Y-82796000D02*
X157607866Y-82796000D01*
X159766000Y-60935466D02*
X160274000Y-61443466D01*
X179324000Y-77980000D02*
X179326000Y-77978000D01*
X165862000Y-82352500D02*
X165986000Y-82228500D01*
X156718000Y-62370000D02*
X158130000Y-62370000D01*
X159917000Y-78587000D02*
X160227000Y-78277000D01*
X155292000Y-81796000D02*
X155742000Y-81796000D01*
X153162000Y-83854000D02*
X153578000Y-83854000D01*
X156640000Y-71904000D02*
X157424000Y-71120000D01*
X114058365Y-66808544D02*
X113448365Y-67418544D01*
X114086365Y-62998544D02*
X114086365Y-66780544D01*
X159230000Y-69088000D02*
X158468000Y-69850000D01*
X180594000Y-83566000D02*
X180594000Y-82236500D01*
X139954000Y-64292000D02*
X141224000Y-64292000D01*
X134438000Y-65668000D02*
X134438000Y-67920134D01*
X165862000Y-83312000D02*
X165862000Y-82352500D01*
X179324000Y-78740000D02*
X179324000Y-77980000D01*
X160020000Y-82042000D02*
X160020000Y-82296000D01*
X161187000Y-73494000D02*
X161667000Y-73974000D01*
X153578000Y-83854000D02*
X152142000Y-83854000D01*
X157476000Y-79222000D02*
X157476000Y-78912000D01*
X134438000Y-67920134D02*
X134184134Y-68174000D01*
X156718000Y-61976000D02*
X156718000Y-62370000D01*
X171363471Y-78994000D02*
X170486000Y-79871471D01*
X110160000Y-78952000D02*
X109610000Y-79502000D01*
X132898000Y-65024000D02*
X132898000Y-67564000D01*
X154592000Y-82496000D02*
X155292000Y-81796000D01*
X157452000Y-73688000D02*
X157452000Y-74168000D01*
X113448365Y-67418544D02*
X110969365Y-67418544D01*
X153442000Y-67004000D02*
X153694000Y-67256000D01*
X171732000Y-78994000D02*
X171363471Y-78994000D01*
X134184134Y-68174000D02*
X133508000Y-68174000D01*
X136326000Y-80390000D02*
X135716000Y-81000000D01*
X135721500Y-65539500D02*
X135906000Y-65355000D01*
X134566500Y-65539500D02*
X134438000Y-65668000D01*
X158902000Y-83414000D02*
X159512000Y-82804000D01*
X138668000Y-80390000D02*
X136326000Y-80390000D01*
X112284500Y-81028000D02*
X113552500Y-81028000D01*
X157607866Y-82796000D02*
X158225866Y-83414000D01*
X157480000Y-82296000D02*
X157480000Y-82796000D01*
X110160000Y-71977000D02*
X110160000Y-71402000D01*
X140564000Y-65528134D02*
X140564000Y-64902000D01*
X135144000Y-65539500D02*
X134566500Y-65539500D01*
X133508000Y-68174000D02*
X132898000Y-67564000D01*
X157424000Y-71120000D02*
X157424000Y-70894000D01*
X154482000Y-71904000D02*
X156640000Y-71904000D01*
X141082000Y-67004000D02*
X141082000Y-66046134D01*
%TO.N,/osc_in*%
X158911012Y-75404000D02*
X154482000Y-75404000D01*
X161187000Y-77825000D02*
X161187000Y-76654000D01*
X160651000Y-75158000D02*
X159157012Y-75158000D01*
X161667000Y-76174000D02*
X160651000Y-75158000D01*
X159157012Y-75158000D02*
X158911012Y-75404000D01*
X161187000Y-76654000D02*
X161667000Y-76174000D01*
%TO.N,/osc_out*%
X159917000Y-73974000D02*
X158987000Y-74904000D01*
X160227000Y-72364000D02*
X160227000Y-73664000D01*
X158987000Y-74904000D02*
X154482000Y-74904000D01*
X160227000Y-73664000D02*
X159917000Y-73974000D01*
%TO.N,+3.3V*%
X154793000Y-63070000D02*
X155526000Y-63070000D01*
X135144000Y-64461500D02*
X135144000Y-65039500D01*
X154482000Y-71404000D02*
X154482000Y-70904000D01*
X152082000Y-66014000D02*
X152082000Y-67004000D01*
X152582000Y-82804000D02*
X153668000Y-82804000D01*
X118618000Y-57402000D02*
X119888000Y-57402000D01*
X156464000Y-71120000D02*
X156210000Y-71120000D01*
X117348000Y-57402000D02*
X118618000Y-57402000D01*
X109728000Y-85344000D02*
X110742000Y-85344000D01*
X179326000Y-75440000D02*
X179324000Y-75438000D01*
X152142000Y-65954000D02*
X152082000Y-66014000D01*
X156516000Y-76682000D02*
X155738000Y-75904000D01*
X160274000Y-62456000D02*
X159004000Y-62456000D01*
X179326000Y-76708000D02*
X179326000Y-75440000D01*
X113284000Y-57404000D02*
X113538000Y-57404000D01*
X139954000Y-65786000D02*
X140582000Y-66414000D01*
X113538000Y-57404000D02*
X114808000Y-57404000D01*
X162052000Y-84937000D02*
X162052000Y-85953000D01*
X160274000Y-80518000D02*
X159568000Y-80518000D01*
X137210000Y-81534000D02*
X136676000Y-81000000D01*
X136906000Y-64777000D02*
X136906000Y-64199500D01*
X160274000Y-63246000D02*
X160274000Y-62456000D01*
X112776000Y-56896000D02*
X113284000Y-57404000D01*
X156516000Y-78912001D02*
X156007999Y-78404000D01*
X155718000Y-64770000D02*
X155718000Y-64246000D01*
X151892000Y-74109756D02*
X153234000Y-75451756D01*
X156464000Y-70894000D02*
X157508000Y-69850000D01*
X154304000Y-84064134D02*
X154304000Y-83388000D01*
X153234000Y-75646000D02*
X153492000Y-75904000D01*
X158552000Y-81534000D02*
X157742000Y-81534000D01*
X172686000Y-81228500D02*
X172686000Y-79000000D01*
X157988000Y-69088000D02*
X157988000Y-69370000D01*
D43*
X107126091Y-65024000D02*
X107785821Y-65024000D01*
D42*
X133858000Y-65024000D02*
X135128500Y-65024000D01*
X133858000Y-65024000D02*
X133858000Y-67564000D01*
X116076000Y-57404000D02*
X116078000Y-57402000D01*
D43*
X107126091Y-65024000D02*
X105217909Y-65024000D01*
D42*
X151892000Y-73660000D02*
X151892000Y-74109756D01*
X155994000Y-70904000D02*
X154482000Y-70904000D01*
X153934134Y-84434000D02*
X154304000Y-84064134D01*
D43*
X105217909Y-65024000D02*
X105211365Y-65030544D01*
D42*
X111389365Y-65538544D02*
X110881365Y-65030544D01*
X153492000Y-75904000D02*
X154482000Y-75904000D01*
X135466000Y-64139500D02*
X135144000Y-64461500D01*
X159568000Y-80518000D02*
X158552000Y-81534000D01*
X140582000Y-66414000D02*
X140582000Y-67004000D01*
X151236000Y-84434000D02*
X153934134Y-84434000D01*
X153352000Y-65954000D02*
X152142000Y-65954000D01*
X156516000Y-79504000D02*
X156516000Y-79222000D01*
D43*
X108492368Y-65030544D02*
X110881365Y-65030544D01*
D42*
X157476000Y-77642000D02*
X156516000Y-76682000D01*
X155738000Y-75904000D02*
X154482000Y-75904000D01*
D43*
X107792365Y-65030544D02*
X108492368Y-65030544D01*
D42*
X172686000Y-79000000D02*
X172692000Y-78994000D01*
X155718000Y-64246000D02*
X156210000Y-63754000D01*
X138682000Y-80904000D02*
X136772000Y-80904000D01*
X113098365Y-66808544D02*
X113098365Y-65538544D01*
X156516000Y-79222000D02*
X156516000Y-78912001D01*
X162306000Y-84683000D02*
X162052000Y-84937000D01*
X154718000Y-62995000D02*
X154793000Y-63070000D01*
X179324000Y-73660000D02*
X179832000Y-73152000D01*
X156210000Y-71120000D02*
X155994000Y-70904000D01*
X156464000Y-71120000D02*
X156464000Y-70894000D01*
X150876000Y-84074000D02*
X151236000Y-84434000D01*
X172692000Y-78994000D02*
X172692000Y-77735361D01*
X153234000Y-75451756D02*
X153234000Y-75646000D01*
X172692000Y-77735361D02*
X173116471Y-77310890D01*
X154304000Y-83388000D02*
X153694000Y-82778000D01*
X116078000Y-57402000D02*
X117348000Y-57402000D01*
X139954000Y-65252000D02*
X139954000Y-65786000D01*
D43*
X107785821Y-65024000D02*
X107792365Y-65030544D01*
D42*
X136772000Y-80904000D02*
X136676000Y-81000000D01*
X155526000Y-63070000D02*
X156210000Y-63754000D01*
X154428000Y-66296000D02*
X154456000Y-66268000D01*
X114808000Y-57404000D02*
X116076000Y-57404000D01*
X156996000Y-79984000D02*
X156516000Y-79504000D01*
X153694000Y-66296000D02*
X153352000Y-65954000D01*
X156861000Y-80119000D02*
X156996000Y-79984000D01*
X157988000Y-69370000D02*
X157508000Y-69850000D01*
X136906000Y-64199500D02*
X136846000Y-64139500D01*
X153694000Y-66296000D02*
X154428000Y-66296000D01*
X157109000Y-81425000D02*
X157480000Y-81796000D01*
X156861000Y-81425000D02*
X156861000Y-80119000D01*
X157476000Y-77952000D02*
X157476000Y-77642000D01*
X157742000Y-81534000D02*
X157480000Y-81796000D01*
X156007999Y-78404000D02*
X154482000Y-78404000D01*
X136846000Y-64139500D02*
X135466000Y-64139500D01*
X113098365Y-65538544D02*
X111389365Y-65538544D01*
X133858000Y-64008000D02*
X133858000Y-65024000D01*
X156861000Y-81425000D02*
X157109000Y-81425000D01*
X139446000Y-66040000D02*
X139446000Y-65760000D01*
X153668000Y-82804000D02*
X153694000Y-82778000D01*
X179324000Y-75438000D02*
X179324000Y-73660000D01*
X154718000Y-62370000D02*
X154718000Y-62995000D01*
X158552000Y-82804000D02*
X158552000Y-81534000D01*
X139446000Y-65760000D02*
X139954000Y-65252000D01*
X135128500Y-65024000D02*
X135144000Y-65039500D01*
%TO.N,Net-(C12-Pad1)*%
X136930000Y-79730000D02*
X137104000Y-79904000D01*
X137104000Y-79904000D02*
X138682000Y-79904000D01*
X136676000Y-79730000D02*
X136930000Y-79730000D01*
%TO.N,/PA15*%
X140970000Y-81280000D02*
X141082000Y-81392000D01*
X167186000Y-81228500D02*
X167186000Y-80318000D01*
X141082000Y-81392000D02*
X141082000Y-82804000D01*
X141082000Y-91552000D02*
X141082000Y-82804000D01*
X141732000Y-92202000D02*
X141082000Y-91552000D01*
X167186000Y-80318000D02*
X166878000Y-80010000D01*
X141732000Y-92456000D02*
X141732000Y-92202000D01*
%TO.N,/PC8*%
X140928000Y-75904000D02*
X138682000Y-75904000D01*
X169386000Y-80486000D02*
X169386000Y-81228500D01*
X130422000Y-80135822D02*
X134653822Y-75904000D01*
X130422000Y-93846000D02*
X130422000Y-80135822D01*
X134653822Y-75904000D02*
X138682000Y-75904000D01*
X141224000Y-76200000D02*
X140928000Y-75904000D01*
X131572000Y-94996000D02*
X130422000Y-93846000D01*
X168910000Y-80010000D02*
X169386000Y-80486000D01*
%TO.N,Net-(D1-A)*%
X107184000Y-85344000D02*
X108708000Y-85344000D01*
%TO.N,/PC9*%
X131572000Y-79409834D02*
X134577834Y-76404000D01*
X140462000Y-76504000D02*
X140362000Y-76404000D01*
X140362000Y-76404000D02*
X138682000Y-76404000D01*
X168286000Y-80402000D02*
X167894000Y-80010000D01*
X131572000Y-92456000D02*
X131572000Y-79409834D01*
X168286000Y-81228500D02*
X168286000Y-80402000D01*
X134577834Y-76404000D02*
X138682000Y-76404000D01*
%TO.N,/PC10*%
X175986000Y-81228500D02*
X175986000Y-80228000D01*
X142882000Y-93098000D02*
X142882000Y-91979654D01*
X175986000Y-80228000D02*
X175768000Y-80010000D01*
X142882000Y-91979654D02*
X141478000Y-90575654D01*
X141478000Y-90575654D02*
X141478000Y-83898000D01*
X141478000Y-83898000D02*
X141582000Y-83794000D01*
X141582000Y-83794000D02*
X141582000Y-82804000D01*
X144272000Y-94488000D02*
X142882000Y-93098000D01*
X143256000Y-79664000D02*
X142221293Y-79664000D01*
X144272000Y-94996000D02*
X144272000Y-94488000D01*
X141582000Y-80303293D02*
X141582000Y-82804000D01*
X142221293Y-79664000D02*
X141582000Y-80303293D01*
%TO.N,/boot0*%
X182372000Y-73152000D02*
X182372000Y-82636529D01*
X159766000Y-86362000D02*
X162306000Y-88902000D01*
X152148000Y-86360000D02*
X149582000Y-83794000D01*
X175600529Y-89408000D02*
X165862000Y-89408000D01*
X152406000Y-86362000D02*
X152404000Y-86360000D01*
X152404000Y-86360000D02*
X152148000Y-86360000D01*
X162306000Y-89408000D02*
X162052000Y-89154000D01*
X149582000Y-83794000D02*
X149582000Y-82804000D01*
X162306000Y-88902000D02*
X162306000Y-89053000D01*
X162306000Y-90170000D02*
X162306000Y-89408000D01*
X159766000Y-86362000D02*
X152406000Y-86362000D01*
X182372000Y-82636529D02*
X175600529Y-89408000D01*
%TO.N,Net-(USB1-CC2)*%
X112284500Y-78276500D02*
X112284500Y-80008000D01*
X110935000Y-76927000D02*
X112284500Y-78276500D01*
X110160000Y-76927000D02*
X110935000Y-76927000D01*
%TO.N,Net-(USB1-CC1)*%
X111796500Y-73927000D02*
X112836485Y-74966985D01*
X110160000Y-73927000D02*
X111796500Y-73927000D01*
X112776000Y-75524529D02*
X112776000Y-79227500D01*
X112776000Y-79227500D02*
X113554500Y-80006000D01*
X112836485Y-75464044D02*
X112776000Y-75524529D01*
X112836485Y-74966985D02*
X112836485Y-75464044D01*
%TO.N,/PD2*%
X145120916Y-90406534D02*
X144508534Y-90406534D01*
X143510000Y-81026000D02*
X144082000Y-81598000D01*
X147902178Y-91006178D02*
X145720560Y-91006178D01*
X149352000Y-92456000D02*
X147902178Y-91006178D01*
X144082000Y-81598000D02*
X144082000Y-82804000D01*
X144082000Y-89980000D02*
X144082000Y-82804000D01*
X173786000Y-80314000D02*
X173482000Y-80010000D01*
X173786000Y-81228500D02*
X173786000Y-80314000D01*
X145720560Y-91006178D02*
X145120916Y-90406534D01*
X144508534Y-90406534D02*
X144082000Y-89980000D01*
%TO.N,/PC11*%
X141986000Y-90170000D02*
X141986000Y-83854000D01*
X142469822Y-80264000D02*
X142082000Y-80651822D01*
X144272000Y-92456000D02*
X141986000Y-90170000D01*
X142082000Y-83758000D02*
X142082000Y-82804000D01*
X174498000Y-80010000D02*
X174886000Y-80398000D01*
X174886000Y-80398000D02*
X174886000Y-81228500D01*
X141986000Y-83854000D02*
X142082000Y-83758000D01*
X142082000Y-80651822D02*
X142082000Y-82804000D01*
%TO.N,/PC12*%
X142494000Y-89916000D02*
X142494000Y-83882000D01*
X142494000Y-83882000D02*
X142582000Y-83794000D01*
X143884000Y-91306000D02*
X142494000Y-89916000D01*
X171586000Y-80400000D02*
X171586000Y-81228500D01*
X146812000Y-94996000D02*
X146812000Y-94488000D01*
X142582000Y-81446000D02*
X142582000Y-82804000D01*
X146812000Y-94488000D02*
X145422000Y-93098000D01*
X144748346Y-91306000D02*
X143884000Y-91306000D01*
X145422000Y-91979654D02*
X144748346Y-91306000D01*
X145422000Y-93098000D02*
X145422000Y-91979654D01*
X171196000Y-80010000D02*
X171586000Y-80400000D01*
X142582000Y-83794000D02*
X142582000Y-82804000D01*
X142748000Y-81280000D02*
X142582000Y-81446000D01*
%TO.N,/PA14*%
X140582000Y-93846000D02*
X140582000Y-82804000D01*
X141732000Y-94996000D02*
X140582000Y-93846000D01*
X172212000Y-73152000D02*
X164592000Y-80772000D01*
X177292000Y-77978000D02*
X178306000Y-77978000D01*
X164592000Y-80772000D02*
X164592000Y-90932000D01*
X164592000Y-90932000D02*
X164338000Y-91186000D01*
%TO.N,/PA13*%
X174752000Y-73152000D02*
X173482000Y-74422000D01*
X173482000Y-74422000D02*
X171617471Y-74422000D01*
X139700000Y-81788000D02*
X139954000Y-81534000D01*
X164918000Y-81121471D02*
X164918000Y-93908000D01*
X178306000Y-76708000D02*
X178306000Y-76706000D01*
X178306000Y-76706000D02*
X174752000Y-73152000D01*
X139672000Y-79404000D02*
X138682000Y-79404000D01*
X171617471Y-74422000D02*
X164918000Y-81121471D01*
X139954000Y-79686000D02*
X139672000Y-79404000D01*
X139954000Y-81534000D02*
X139954000Y-79686000D01*
X164918000Y-93908000D02*
X164592000Y-94234000D01*
%TO.N,/PB6*%
X153713130Y-90106712D02*
X158789058Y-90106712D01*
X149267780Y-88307780D02*
X151914198Y-88307780D01*
X160782000Y-93726000D02*
X162052000Y-94996000D01*
X163458178Y-90821566D02*
X163458178Y-93589822D01*
X160782000Y-92099654D02*
X160782000Y-93726000D01*
X163992356Y-75929563D02*
X163992356Y-90287388D01*
X177292000Y-63832000D02*
X176089919Y-63832000D01*
X176089919Y-63832000D02*
X163992356Y-75929563D01*
X158789058Y-90106712D02*
X160782000Y-92099654D01*
X151914198Y-88307780D02*
X153713130Y-90106712D01*
X163458178Y-93589822D02*
X162052000Y-94996000D01*
X163992356Y-90287388D02*
X163458178Y-90821566D01*
X148582000Y-87622000D02*
X149267780Y-88307780D01*
X148582000Y-82804000D02*
X148582000Y-87622000D01*
%TO.N,/PA8*%
X134112000Y-94996000D02*
X134112000Y-94322346D01*
X163758000Y-94916346D02*
X162528346Y-96146000D01*
X131871822Y-91129476D02*
X131871822Y-79534024D01*
X132722000Y-92932346D02*
X132722000Y-91979654D01*
X162528346Y-96146000D02*
X135262000Y-96146000D01*
X134112000Y-94322346D02*
X132722000Y-92932346D01*
X134501846Y-76904000D02*
X138682000Y-76904000D01*
X132722000Y-91979654D02*
X131871822Y-91129476D01*
X171863931Y-68482000D02*
X164292178Y-76053753D01*
X164292178Y-76053753D02*
X164292178Y-90411578D01*
X135262000Y-96146000D02*
X134112000Y-94996000D01*
X131871822Y-79534024D02*
X134501846Y-76904000D01*
X177292000Y-68482000D02*
X171863931Y-68482000D01*
X163758000Y-90945756D02*
X163758000Y-94916346D01*
X164292178Y-90411578D02*
X163758000Y-90945756D01*
%TO.N,/PC6*%
X149352000Y-70612000D02*
X148844000Y-70612000D01*
X143510000Y-71628000D02*
X140234000Y-74904000D01*
X127882000Y-81827798D02*
X134805798Y-74904000D01*
X170917907Y-68580000D02*
X162814000Y-68580000D01*
X129032000Y-94996000D02*
X127882000Y-93846000D01*
X134805798Y-74904000D02*
X138682000Y-74904000D01*
X162814000Y-68580000D02*
X162052000Y-69342000D01*
X148844000Y-70612000D02*
X147828000Y-71628000D01*
X172974000Y-65024000D02*
X172974000Y-66523907D01*
X140234000Y-74904000D02*
X138682000Y-74904000D01*
X172974000Y-66523907D02*
X170917907Y-68580000D01*
X147828000Y-71628000D02*
X143510000Y-71628000D01*
X127882000Y-93846000D02*
X127882000Y-81827798D01*
%TO.N,/PC7*%
X148844000Y-71374000D02*
X147828000Y-72390000D01*
X147828000Y-72390000D02*
X144018000Y-72390000D01*
X134729810Y-75404000D02*
X138682000Y-75404000D01*
X129032000Y-81101810D02*
X134729810Y-75404000D01*
X129032000Y-92456000D02*
X129032000Y-81101810D01*
X149606000Y-71374000D02*
X148844000Y-71374000D01*
X169164000Y-69342000D02*
X168402000Y-70104000D01*
X168402000Y-70104000D02*
X161798000Y-70104000D01*
X141004000Y-75404000D02*
X138682000Y-75404000D01*
X144018000Y-72390000D02*
X141004000Y-75404000D01*
%TO.N,/PA9*%
X151384000Y-70866000D02*
X150296000Y-71954000D01*
X133021822Y-78808036D02*
X134425858Y-77404000D01*
X148036178Y-72689822D02*
X144142190Y-72689822D01*
X134425858Y-77404000D02*
X138682000Y-77404000D01*
X133021822Y-91365822D02*
X133021822Y-78808036D01*
X141824000Y-76448529D02*
X140868529Y-77404000D01*
X141824000Y-75008012D02*
X141824000Y-76448529D01*
X148772000Y-71954000D02*
X148036178Y-72689822D01*
X170688000Y-67310000D02*
X163830000Y-67310000D01*
X144142190Y-72689822D02*
X141824000Y-75008012D01*
X150296000Y-71954000D02*
X148772000Y-71954000D01*
X140868529Y-77404000D02*
X138682000Y-77404000D01*
X134112000Y-92456000D02*
X133021822Y-91365822D01*
X163830000Y-67310000D02*
X163576000Y-67564000D01*
%TO.N,/PC3*%
X157466000Y-72404000D02*
X170942000Y-58928000D01*
X170942000Y-58928000D02*
X170942000Y-57912000D01*
X154482000Y-72404000D02*
X157466000Y-72404000D01*
%TO.N,/PE10*%
X144392000Y-58540000D02*
X145582000Y-59730000D01*
X144392000Y-56762000D02*
X144392000Y-58540000D01*
X145582000Y-59730000D02*
X145582000Y-67004000D01*
X143002000Y-55372000D02*
X144392000Y-56762000D01*
%TO.N,/PB2*%
X149232000Y-56522000D02*
X149232000Y-58540000D01*
X149232000Y-58540000D02*
X147582000Y-60190000D01*
X148082000Y-55372000D02*
X149232000Y-56522000D01*
X147582000Y-60190000D02*
X147582000Y-67004000D01*
%TO.N,/PD9*%
X118872000Y-87869714D02*
X135337714Y-71404000D01*
X135337714Y-71404000D02*
X138682000Y-71404000D01*
X118872000Y-92456000D02*
X118872000Y-87869714D01*
%TO.N,/PD4*%
X145082000Y-81241471D02*
X145082000Y-82804000D01*
X151892000Y-92456000D02*
X149842534Y-90406534D01*
X144780000Y-77978000D02*
X144780000Y-80939471D01*
X146032534Y-90406534D02*
X145082000Y-89456000D01*
X149842534Y-90406534D02*
X146032534Y-90406534D01*
X145082000Y-89456000D02*
X145082000Y-82804000D01*
X144780000Y-80939471D02*
X145082000Y-81241471D01*
%TO.N,/PE4*%
X151130000Y-80264000D02*
X151490000Y-79904000D01*
X156361000Y-83667000D02*
X156361000Y-83167000D01*
X151490000Y-79904000D02*
X154482000Y-79904000D01*
X156768000Y-84074000D02*
X156361000Y-83667000D01*
X157226000Y-84074000D02*
X156768000Y-84074000D01*
%TO.N,/PD7*%
X153216370Y-91306000D02*
X154908346Y-91306000D01*
X155822000Y-92219654D02*
X155822000Y-93846000D01*
X146582000Y-82804000D02*
X146582000Y-88924000D01*
X151417438Y-89507068D02*
X153216370Y-91306000D01*
X154908346Y-91306000D02*
X155822000Y-92219654D01*
X146582000Y-88924000D02*
X147165068Y-89507068D01*
X155822000Y-93846000D02*
X156972000Y-94996000D01*
X147165068Y-89507068D02*
X151417438Y-89507068D01*
%TO.N,/PA7*%
X151996382Y-59436000D02*
X150082000Y-61350382D01*
X150082000Y-61350382D02*
X150082000Y-67004000D01*
X159258000Y-59436000D02*
X151996382Y-59436000D01*
X150668000Y-68580000D02*
X150082000Y-67994000D01*
X156718000Y-66548000D02*
X154802000Y-68464000D01*
X156718000Y-64770000D02*
X156718000Y-66548000D01*
X160782000Y-57912000D02*
X159258000Y-59436000D01*
X153432000Y-68580000D02*
X150668000Y-68580000D01*
X150082000Y-67994000D02*
X150082000Y-67004000D01*
X154802000Y-68464000D02*
X153548000Y-68464000D01*
X153548000Y-68464000D02*
X153432000Y-68580000D01*
%TO.N,/PC2*%
X157590190Y-72703822D02*
X171232012Y-59062000D01*
X155331822Y-72904000D02*
X155532000Y-72703822D01*
X154482000Y-72904000D02*
X155331822Y-72904000D01*
X172212000Y-56642000D02*
X170942000Y-55372000D01*
X172212000Y-58674000D02*
X172212000Y-56642000D01*
X171232012Y-59062000D02*
X171824000Y-59062000D01*
X171824000Y-59062000D02*
X172212000Y-58674000D01*
X155532000Y-72703822D02*
X157590190Y-72703822D01*
%TO.N,/PE8*%
X146582000Y-58498346D02*
X146582000Y-67004000D01*
X145542000Y-55372000D02*
X146692000Y-56522000D01*
X146692000Y-56522000D02*
X146692000Y-58388346D01*
X146692000Y-58388346D02*
X146582000Y-58498346D01*
%TO.N,/PA11*%
X110960000Y-75427000D02*
X111010000Y-75377000D01*
X111010000Y-74477000D02*
X110960000Y-74427000D01*
X136789499Y-78504000D02*
X136889499Y-78404000D01*
X110960000Y-74427000D02*
X110160000Y-74427000D01*
X111209000Y-74676000D02*
X110960000Y-74427000D01*
X111696970Y-74676000D02*
X111209000Y-74676000D01*
X111010000Y-75377000D02*
X111010000Y-74477000D01*
X136889499Y-78404000D02*
X138682000Y-78404000D01*
X110160000Y-75427000D02*
X110960000Y-75427000D01*
X112236485Y-75215515D02*
X111696970Y-74676000D01*
%TO.N,/PE1*%
X151582000Y-81790244D02*
X149697644Y-79905888D01*
X140591541Y-78105000D02*
X143766541Y-74930000D01*
X145288000Y-74930000D02*
X148082000Y-77724000D01*
X150622000Y-77132012D02*
X150622000Y-76200000D01*
X149697644Y-79905888D02*
X149697644Y-78056368D01*
X140335000Y-78105000D02*
X140591541Y-78105000D01*
X149697644Y-78056368D02*
X150622000Y-77132012D01*
X151582000Y-82804000D02*
X151582000Y-81790244D01*
X143766541Y-74930000D02*
X145288000Y-74930000D01*
%TO.N,/PE12*%
X140462000Y-55372000D02*
X141852000Y-56762000D01*
X142525654Y-59062000D02*
X143644000Y-59062000D01*
X141852000Y-58388346D02*
X142525654Y-59062000D01*
X144582000Y-60000000D02*
X144582000Y-67004000D01*
X143644000Y-59062000D02*
X144582000Y-60000000D01*
X141852000Y-56762000D02*
X141852000Y-58388346D01*
%TO.N,/INT_BMP*%
X157158000Y-83474000D02*
X156861000Y-83177000D01*
X157826000Y-84420000D02*
X157826000Y-83825471D01*
X157988000Y-84582000D02*
X157826000Y-84420000D01*
X151638000Y-81026000D02*
X152260000Y-80404000D01*
X152260000Y-80404000D02*
X154482000Y-80404000D01*
X156861000Y-83177000D02*
X156861000Y-83167000D01*
X157474529Y-83474000D02*
X157158000Y-83474000D01*
X157826000Y-83825471D02*
X157474529Y-83474000D01*
%TO.N,/PE15*%
X139371822Y-59361822D02*
X141063798Y-59361822D01*
X141663442Y-59961466D02*
X142511466Y-59961466D01*
X143082000Y-60532000D02*
X143082000Y-67004000D01*
X141063798Y-59361822D02*
X141663442Y-59961466D01*
X137922000Y-57912000D02*
X139371822Y-59361822D01*
X142511466Y-59961466D02*
X143082000Y-60532000D01*
%TO.N,/PE5*%
X155742000Y-83946527D02*
X155742000Y-82796000D01*
X151130000Y-79248000D02*
X151286000Y-79404000D01*
X156010541Y-84215068D02*
X155742000Y-83946527D01*
X151286000Y-79404000D02*
X154482000Y-79404000D01*
%TO.N,/PD3*%
X150502000Y-91979654D02*
X149228702Y-90706356D01*
X144582000Y-89718000D02*
X144582000Y-82804000D01*
X150502000Y-93606000D02*
X150502000Y-91979654D01*
X144238271Y-81313729D02*
X144582000Y-81657458D01*
X144018000Y-78994000D02*
X144238271Y-79214271D01*
X151892000Y-94996000D02*
X150502000Y-93606000D01*
X144582000Y-81657458D02*
X144582000Y-82804000D01*
X144970712Y-90106712D02*
X144582000Y-89718000D01*
X144238271Y-79214271D02*
X144238271Y-81313729D01*
X145245106Y-90106712D02*
X144970712Y-90106712D01*
X145844750Y-90706356D02*
X145245106Y-90106712D01*
X149228702Y-90706356D02*
X145844750Y-90706356D01*
%TO.N,/PD15*%
X126492000Y-92456000D02*
X126492000Y-82793786D01*
X126492000Y-82793786D02*
X134881786Y-74404000D01*
X134881786Y-74404000D02*
X138682000Y-74404000D01*
%TO.N,/PD1*%
X144996726Y-90706356D02*
X144132380Y-90706356D01*
X147288346Y-91306000D02*
X145596370Y-91306000D01*
X145596370Y-91306000D02*
X144996726Y-90706356D01*
X147962000Y-93606000D02*
X147962000Y-91979654D01*
X149352000Y-94996000D02*
X147962000Y-93606000D01*
X147962000Y-91979654D02*
X147288346Y-91306000D01*
X144132380Y-90706356D02*
X143582000Y-90155976D01*
X143582000Y-90155976D02*
X143582000Y-82804000D01*
%TO.N,/PB7*%
X149082000Y-82804000D02*
X149082000Y-87106000D01*
X149983958Y-88007958D02*
X152038388Y-88007958D01*
X149082000Y-87106000D02*
X149983958Y-88007958D01*
X152038388Y-88007958D02*
X153837320Y-89806890D01*
X153837320Y-89806890D02*
X159402890Y-89806890D01*
X159402890Y-89806890D02*
X162052000Y-92456000D01*
%TO.N,/PD6*%
X151293248Y-89806890D02*
X153942358Y-92456000D01*
X146082000Y-78035744D02*
X146082000Y-82804000D01*
X153942358Y-92456000D02*
X154432000Y-92456000D01*
X144135822Y-77098178D02*
X145144434Y-77098178D01*
X146956890Y-89806890D02*
X151293248Y-89806890D01*
X146082000Y-82804000D02*
X146082000Y-88932000D01*
X146082000Y-88932000D02*
X146956890Y-89806890D01*
X143256000Y-77978000D02*
X144135822Y-77098178D01*
X145144434Y-77098178D02*
X146082000Y-78035744D01*
%TO.N,/PC0*%
X152954000Y-74214000D02*
X153264000Y-73904000D01*
X153264000Y-73904000D02*
X154482000Y-73904000D01*
%TO.N,/PE6*%
X155192000Y-84580000D02*
X155194000Y-84582000D01*
X155192000Y-82346000D02*
X155192000Y-84580000D01*
X152056000Y-78904000D02*
X154482000Y-78904000D01*
X155242000Y-82296000D02*
X155192000Y-82346000D01*
X155742000Y-82296000D02*
X155242000Y-82296000D01*
X151638000Y-78486000D02*
X152056000Y-78904000D01*
%TO.N,/PA2*%
X155725006Y-69404000D02*
X166067006Y-59062000D01*
X166338346Y-59062000D02*
X167012000Y-58388346D01*
X154482000Y-69404000D02*
X155725006Y-69404000D01*
X167012000Y-58388346D02*
X167012000Y-56522000D01*
X166067006Y-59062000D02*
X166338346Y-59062000D01*
X167012000Y-56522000D02*
X165862000Y-55372000D01*
%TO.N,/PC15*%
X153492000Y-76904000D02*
X154482000Y-76904000D01*
X152654000Y-76066000D02*
X153492000Y-76904000D01*
X152654000Y-75692000D02*
X152654000Y-76066000D01*
%TO.N,/PA0*%
X155573030Y-70404000D02*
X154482000Y-70404000D01*
X168204524Y-59735822D02*
X166241208Y-59735822D01*
X169552000Y-58388346D02*
X168204524Y-59735822D01*
X169552000Y-56522000D02*
X169552000Y-58388346D01*
X168402000Y-55372000D02*
X169552000Y-56522000D01*
X166241208Y-59735822D02*
X155573030Y-70404000D01*
%TO.N,/PB4*%
X153464750Y-90706356D02*
X156848702Y-90706356D01*
X151665818Y-88907424D02*
X153464750Y-90706356D01*
X156848702Y-90706356D02*
X158122000Y-91979654D01*
X148089424Y-88907424D02*
X151665818Y-88907424D01*
X147582000Y-88400000D02*
X148089424Y-88907424D01*
X158122000Y-93606000D02*
X159512000Y-94996000D01*
X147582000Y-82804000D02*
X147582000Y-88400000D01*
X158122000Y-91979654D02*
X158122000Y-93606000D01*
%TO.N,/PD10*%
X120262000Y-86903726D02*
X135261726Y-71904000D01*
X121412000Y-94996000D02*
X120262000Y-93846000D01*
X135261726Y-71904000D02*
X138682000Y-71904000D01*
X120262000Y-93846000D02*
X120262000Y-86903726D01*
%TO.N,/PC5*%
X149082000Y-68564000D02*
X149082000Y-67004000D01*
X149082000Y-61502358D02*
X149082000Y-67004000D01*
X155718000Y-62370000D02*
X155718000Y-61230000D01*
X153162000Y-57912000D02*
X152672358Y-57912000D01*
X149352000Y-68834000D02*
X149082000Y-68564000D01*
X152672358Y-57912000D02*
X149082000Y-61502358D01*
X155718000Y-61230000D02*
X155702000Y-61214000D01*
%TO.N,/PA6*%
X153307810Y-68280178D02*
X150868178Y-68280178D01*
X154677810Y-68164178D02*
X153423810Y-68164178D01*
X156218000Y-64770000D02*
X156218000Y-65786000D01*
X161932000Y-58388346D02*
X160584524Y-59735822D01*
X161932000Y-56522000D02*
X161932000Y-58388346D01*
X152120572Y-59735822D02*
X150582000Y-61274394D01*
X150582000Y-67994000D02*
X150582000Y-67004000D01*
X160584524Y-59735822D02*
X152120572Y-59735822D01*
X150868178Y-68280178D02*
X150582000Y-67994000D01*
X156218000Y-65786000D02*
X156218000Y-66623988D01*
X160782000Y-55372000D02*
X161932000Y-56522000D01*
X150582000Y-61274394D02*
X150582000Y-67004000D01*
X153855000Y-65532000D02*
X155964000Y-65532000D01*
X156218000Y-66623988D02*
X154677810Y-68164178D01*
X153423810Y-68164178D02*
X153307810Y-68280178D01*
X153718000Y-64770000D02*
X153718000Y-65395000D01*
X153718000Y-65395000D02*
X153855000Y-65532000D01*
X155964000Y-65532000D02*
X156218000Y-65786000D01*
%TO.N,/PB12*%
X135906000Y-66802000D02*
X135906000Y-67339500D01*
X135717654Y-68904000D02*
X138682000Y-68904000D01*
X112642000Y-93846000D02*
X112642000Y-91979654D01*
X135906000Y-67339500D02*
X137470500Y-68904000D01*
X112642000Y-91979654D02*
X135717654Y-68904000D01*
X137470500Y-68904000D02*
X138682000Y-68904000D01*
X113792000Y-94996000D02*
X112642000Y-93846000D01*
%TO.N,/PB14*%
X115182000Y-93846000D02*
X115182000Y-90287678D01*
X115182000Y-90287678D02*
X135565678Y-69904000D01*
X135565678Y-69904000D02*
X138682000Y-69904000D01*
X138682000Y-69904000D02*
X139986530Y-69904000D01*
X138300678Y-67172178D02*
X137668000Y-66539500D01*
X138430000Y-67172178D02*
X138300678Y-67172178D01*
X139986530Y-69904000D02*
X140378265Y-69512265D01*
X116332000Y-94996000D02*
X115182000Y-93846000D01*
%TO.N,/PB13*%
X139954000Y-69088000D02*
X139638000Y-69404000D01*
X113792000Y-91253666D02*
X135641666Y-69404000D01*
X139954000Y-68676012D02*
X139954000Y-69088000D01*
X136406000Y-67379500D02*
X137098500Y-68072000D01*
X139638000Y-69404000D02*
X138682000Y-69404000D01*
X136406000Y-66802000D02*
X136406000Y-67379500D01*
X137098500Y-68072000D02*
X139349988Y-68072000D01*
X139349988Y-68072000D02*
X139954000Y-68676012D01*
X113792000Y-92456000D02*
X113792000Y-91253666D01*
X135641666Y-69404000D02*
X138682000Y-69404000D01*
%TO.N,/PB5*%
X151790008Y-88607602D02*
X153588940Y-90406534D01*
X157462534Y-90406534D02*
X159512000Y-92456000D01*
X148082000Y-87884000D02*
X148805602Y-88607602D01*
X153588940Y-90406534D02*
X157462534Y-90406534D01*
X148805602Y-88607602D02*
X151790008Y-88607602D01*
X148082000Y-82804000D02*
X148082000Y-87884000D01*
%TO.N,/PA5*%
X151182000Y-65532000D02*
X151082000Y-65632000D01*
X151182000Y-65532000D02*
X151130000Y-65480000D01*
X157131000Y-63570000D02*
X158058000Y-63570000D01*
X151130000Y-65480000D02*
X151130000Y-61150406D01*
X151130000Y-61150406D02*
X152244762Y-60035644D01*
X158058000Y-63570000D02*
X158242000Y-63754000D01*
X151082000Y-65632000D02*
X151082000Y-67004000D01*
X161198356Y-60035644D02*
X163322000Y-57912000D01*
X152244762Y-60035644D02*
X161198356Y-60035644D01*
%TO.N,/PA12*%
X109310000Y-74977000D02*
X109310000Y-75877000D01*
X111506000Y-76454000D02*
X110979000Y-75927000D01*
X110979000Y-75927000D02*
X110160000Y-75927000D01*
X138682000Y-78904000D02*
X137514000Y-78904000D01*
X137514000Y-78904000D02*
X137414000Y-79004000D01*
X109360000Y-75927000D02*
X110160000Y-75927000D01*
X109360000Y-74927000D02*
X109310000Y-74977000D01*
X110160000Y-74927000D02*
X109360000Y-74927000D01*
X109310000Y-75877000D02*
X109360000Y-75927000D01*
%TO.N,/PC14*%
X152842000Y-77404000D02*
X154482000Y-77404000D01*
X152146000Y-76708000D02*
X152842000Y-77404000D01*
%TO.N,/PE2*%
X155840000Y-80904000D02*
X154482000Y-80904000D01*
X152654000Y-81153000D02*
X152903000Y-80904000D01*
X156361000Y-81425000D02*
X155840000Y-80904000D01*
X152903000Y-80904000D02*
X154482000Y-80904000D01*
%TO.N,/PE11*%
X143002000Y-57912000D02*
X145082000Y-59992000D01*
X145082000Y-59992000D02*
X145082000Y-67004000D01*
%TO.N,/IBUS_RX*%
X170942000Y-60960000D02*
X170688000Y-60706000D01*
X184658000Y-75516000D02*
X186944000Y-77802000D01*
X166117018Y-59436000D02*
X166878000Y-59436000D01*
X183642000Y-60960000D02*
X170942000Y-60960000D01*
X184658000Y-66294000D02*
X184658000Y-75516000D01*
X154482000Y-69904000D02*
X155649018Y-69904000D01*
X166878000Y-59436000D02*
X168402000Y-57912000D01*
X155649018Y-69904000D02*
X166117018Y-59436000D01*
%TO.N,/PD5*%
X144539756Y-77398000D02*
X145020244Y-77398000D01*
X153042000Y-93606000D02*
X154432000Y-94996000D01*
X145020244Y-77398000D02*
X145582000Y-77959756D01*
X145582000Y-77959756D02*
X145582000Y-82804000D01*
X144200000Y-77991756D02*
X144200000Y-77737756D01*
X153042000Y-91979654D02*
X153042000Y-93606000D01*
X151169058Y-90106712D02*
X153042000Y-91979654D01*
X145582000Y-89194000D02*
X146494712Y-90106712D01*
X143002000Y-78753756D02*
X143438000Y-78753756D01*
X146494712Y-90106712D02*
X151169058Y-90106712D01*
X144200000Y-77737756D02*
X144539756Y-77398000D01*
X145582000Y-82804000D02*
X145582000Y-89194000D01*
X143438000Y-78753756D02*
X144200000Y-77991756D01*
%TO.N,/PE7*%
X148082000Y-57912000D02*
X147082000Y-58912000D01*
X147082000Y-58912000D02*
X147082000Y-67004000D01*
%TO.N,/PD0*%
X144872536Y-91006178D02*
X144008190Y-91006178D01*
X146322358Y-92456000D02*
X144872536Y-91006178D01*
X144008190Y-91006178D02*
X143082000Y-90079988D01*
X146812000Y-92456000D02*
X146322358Y-92456000D01*
X143082000Y-90079988D02*
X143082000Y-82804000D01*
%TO.N,/PD11*%
X135185738Y-72404000D02*
X138682000Y-72404000D01*
X121412000Y-92456000D02*
X121412000Y-86177738D01*
X121412000Y-86177738D02*
X135185738Y-72404000D01*
%TO.N,/PB3*%
X147082000Y-82804000D02*
X147082000Y-88408000D01*
X151541628Y-89207246D02*
X153340560Y-91006178D01*
X147881246Y-89207246D02*
X151541628Y-89207246D01*
X147082000Y-88408000D02*
X147881246Y-89207246D01*
X155522178Y-91006178D02*
X156972000Y-92456000D01*
X153340560Y-91006178D02*
X155522178Y-91006178D01*
%TO.N,/PB1*%
X148082000Y-60452000D02*
X148082000Y-67004000D01*
X150622000Y-57912000D02*
X148082000Y-60452000D01*
%TO.N,/PC13*%
X152326000Y-77904000D02*
X154482000Y-77904000D01*
X151892000Y-77470000D02*
X152326000Y-77904000D01*
%TO.N,/PA3*%
X165862000Y-58842994D02*
X165862000Y-57912000D01*
X154482000Y-68904000D02*
X155800994Y-68904000D01*
X155800994Y-68904000D02*
X165862000Y-58842994D01*
%TO.N,/PE14*%
X139312000Y-58388346D02*
X139985654Y-59062000D01*
X139312000Y-56762000D02*
X139312000Y-58388346D01*
X139985654Y-59062000D02*
X141187988Y-59062000D01*
X143582000Y-60016000D02*
X143582000Y-67004000D01*
X141787632Y-59661644D02*
X143227644Y-59661644D01*
X143227644Y-59661644D02*
X143582000Y-60016000D01*
X141187988Y-59062000D02*
X141787632Y-59661644D01*
X137922000Y-55372000D02*
X139312000Y-56762000D01*
D44*
%TO.N,+5V*%
X188034000Y-65302000D02*
X181126000Y-65302000D01*
D42*
X110160000Y-77577000D02*
X109654566Y-77577000D01*
D43*
X105918000Y-68326000D02*
X104902000Y-68326000D01*
X124440000Y-75458000D02*
X124440000Y-73680000D01*
D42*
X109654566Y-77577000D02*
X108712000Y-76634434D01*
D43*
X110126821Y-61976000D02*
X110881365Y-62730544D01*
D42*
X108357000Y-77317000D02*
X107188000Y-78486000D01*
D44*
X179832000Y-63832000D02*
X179832000Y-68482000D01*
X189484000Y-63852000D02*
X188034000Y-65302000D01*
D43*
X107188000Y-78486000D02*
X107188000Y-69596000D01*
X103576365Y-67000365D02*
X103576365Y-62830544D01*
X119380000Y-76708000D02*
X115570000Y-72898000D01*
D44*
X189484000Y-77802000D02*
X189484000Y-73152000D01*
D43*
X112329365Y-61282544D02*
X110881365Y-62730544D01*
X104902000Y-68326000D02*
X103576365Y-67000365D01*
D44*
X189484000Y-82296000D02*
X189484000Y-86614000D01*
D43*
X115570000Y-62230000D02*
X114622544Y-61282544D01*
X138430000Y-87376000D02*
X138938000Y-87376000D01*
D44*
X189484000Y-82296000D02*
X188468000Y-83312000D01*
X188468000Y-83312000D02*
X185166000Y-83312000D01*
D43*
X119380000Y-76708000D02*
X123190000Y-76708000D01*
X138938000Y-87376000D02*
X139192000Y-87630000D01*
X126844000Y-71628000D02*
X130556000Y-71628000D01*
X103576365Y-62830544D02*
X104430909Y-61976000D01*
X115570000Y-72898000D02*
X115570000Y-62230000D01*
D44*
X189484000Y-73152000D02*
X189484000Y-68502000D01*
D43*
X139192000Y-87630000D02*
X139954000Y-87630000D01*
D42*
X112604365Y-62730544D02*
X110881365Y-62730544D01*
D43*
X123190000Y-76708000D02*
X124440000Y-75458000D01*
D42*
X109654566Y-77577000D02*
X109394566Y-77317000D01*
D44*
X189484000Y-68502000D02*
X189484000Y-63852000D01*
D42*
X109394566Y-77317000D02*
X108357000Y-77317000D01*
D44*
X179832000Y-64008000D02*
X179832000Y-63832000D01*
X189484000Y-82296000D02*
X189484000Y-77802000D01*
D42*
X113126365Y-62998544D02*
X112872365Y-62998544D01*
X112872365Y-62998544D02*
X112604365Y-62730544D01*
X108712000Y-73719566D02*
X109654566Y-72777000D01*
D43*
X107188000Y-69596000D02*
X105918000Y-68326000D01*
X126492000Y-71628000D02*
X126844000Y-71628000D01*
X124440000Y-73680000D02*
X126492000Y-71628000D01*
X114622544Y-61282544D02*
X112329365Y-61282544D01*
X104430909Y-61976000D02*
X110126821Y-61976000D01*
D42*
X113126365Y-62998544D02*
X113126365Y-64268544D01*
X108712000Y-76634434D02*
X108712000Y-73719566D01*
D44*
X181126000Y-65302000D02*
X179832000Y-64008000D01*
D42*
X109654566Y-72777000D02*
X110160000Y-72777000D01*
%TO.N,/PD14*%
X125342000Y-93846000D02*
X125342000Y-83519774D01*
X134957774Y-73904000D02*
X138682000Y-73904000D01*
X125342000Y-83519774D02*
X134957774Y-73904000D01*
X126492000Y-94996000D02*
X125342000Y-93846000D01*
%TO.N,/PE0*%
X151082000Y-81889988D02*
X151082000Y-82804000D01*
X146140356Y-76798356D02*
X146812000Y-77470000D01*
X149860000Y-77470000D02*
X149397822Y-77932178D01*
X142657644Y-76798356D02*
X146140356Y-76798356D01*
X149860000Y-76962000D02*
X149860000Y-77470000D01*
X140462000Y-78994000D02*
X142657644Y-76798356D01*
X149397822Y-77932178D02*
X149397822Y-80205810D01*
X149397822Y-80205810D02*
X151082000Y-81889988D01*
%TO.N,/PC1*%
X153160000Y-73404000D02*
X154482000Y-73404000D01*
X152908000Y-73152000D02*
X153160000Y-73404000D01*
%TO.N,/PA10*%
X135382000Y-93218000D02*
X135382000Y-91440000D01*
X134349870Y-77904000D02*
X138682000Y-77904000D01*
X136652000Y-94996000D02*
X136652000Y-94488000D01*
X133321644Y-78932226D02*
X134349870Y-77904000D01*
X135382000Y-91440000D02*
X133321644Y-89379644D01*
X136652000Y-94488000D02*
X135382000Y-93218000D01*
X133321644Y-89379644D02*
X133321644Y-78932226D01*
%TO.N,/PC4*%
X154312000Y-58388346D02*
X153638346Y-59062000D01*
X153638346Y-59062000D02*
X151946370Y-59062000D01*
X154312000Y-56522000D02*
X154312000Y-58388346D01*
X151946370Y-59062000D02*
X149582000Y-61426370D01*
X153162000Y-55372000D02*
X154312000Y-56522000D01*
X154169375Y-63270002D02*
X154218000Y-63318627D01*
X150884938Y-69239444D02*
X150773444Y-69239444D01*
X150773444Y-69239444D02*
X149582000Y-68048000D01*
X149582000Y-61426370D02*
X149582000Y-67004000D01*
X154218000Y-63318627D02*
X154218000Y-64770000D01*
X149582000Y-68048000D02*
X149582000Y-67004000D01*
%TO.N,/PE9*%
X146082000Y-58452000D02*
X146082000Y-67004000D01*
X145542000Y-57912000D02*
X146082000Y-58452000D01*
%TO.N,/PB15*%
X116332000Y-92456000D02*
X116332000Y-89561690D01*
X140335059Y-70404000D02*
X138682000Y-70404000D01*
X135489690Y-70404000D02*
X138682000Y-70404000D01*
X136906000Y-66802000D02*
X136906000Y-66999500D01*
X136906000Y-66999500D02*
X137678678Y-67772178D01*
X139486707Y-67772178D02*
X140978265Y-69263736D01*
X137678678Y-67772178D02*
X139486707Y-67772178D01*
X140978265Y-69760794D02*
X140335059Y-70404000D01*
X116332000Y-89561690D02*
X135489690Y-70404000D01*
X140978265Y-69263736D02*
X140978265Y-69760794D01*
%TO.N,/PE13*%
X144082000Y-59924012D02*
X144082000Y-67004000D01*
X141722821Y-58928000D02*
X142156643Y-59361822D01*
X141478000Y-58928000D02*
X141722821Y-58928000D01*
X142156643Y-59361822D02*
X143519810Y-59361822D01*
X143519810Y-59361822D02*
X144082000Y-59924012D01*
X140462000Y-57912000D02*
X141478000Y-58928000D01*
%TO.N,/INT3_BMI*%
X154818000Y-63754000D02*
X155218000Y-64154000D01*
X155218000Y-64154000D02*
X155218000Y-64770000D01*
X149103471Y-69434000D02*
X148582000Y-68912529D01*
X151772000Y-58388346D02*
X148582000Y-61578346D01*
X150070735Y-69385265D02*
X150022000Y-69434000D01*
X148582000Y-68912529D02*
X148582000Y-67004000D01*
X150022000Y-69434000D02*
X149103471Y-69434000D01*
X148582000Y-61578346D02*
X148582000Y-67004000D01*
X150622000Y-55372000D02*
X151772000Y-56522000D01*
X151772000Y-56522000D02*
X151772000Y-58388346D01*
%TO.N,/INT1_BMI*%
X152146000Y-65525988D02*
X152146000Y-60558418D01*
X151582000Y-66089988D02*
X152146000Y-65525988D01*
X164472000Y-58388346D02*
X164472000Y-56522000D01*
X151582000Y-67004000D02*
X151582000Y-66089988D01*
X152146000Y-60558418D02*
X152368952Y-60335466D01*
X152146000Y-64725000D02*
X152146000Y-65525988D01*
X153301000Y-63570000D02*
X152146000Y-64725000D01*
X164472000Y-56522000D02*
X163322000Y-55372000D01*
X152368952Y-60335466D02*
X162524880Y-60335466D01*
X162524880Y-60335466D02*
X164472000Y-58388346D01*
%TO.N,/INT_ICM*%
X135413702Y-70904000D02*
X138682000Y-70904000D01*
X137668000Y-65039500D02*
X138245500Y-65039500D01*
X141278087Y-69884984D02*
X140259071Y-70904000D01*
X117722000Y-88595702D02*
X135413702Y-70904000D01*
X138245500Y-65039500D02*
X138430000Y-65224000D01*
X138430000Y-65224000D02*
X138430000Y-66291459D01*
X117722000Y-93846000D02*
X117722000Y-88595702D01*
X141278087Y-69139546D02*
X141278087Y-69884984D01*
X118872000Y-94996000D02*
X117722000Y-93846000D01*
X140259071Y-70904000D02*
X138682000Y-70904000D01*
X138430000Y-66291459D02*
X141278087Y-69139546D01*
%TO.N,/I2C1_SCL*%
X114808000Y-58424000D02*
X115066000Y-58424000D01*
X148798178Y-75991822D02*
X150114000Y-74676000D01*
X118872000Y-62230000D02*
X119902000Y-62230000D01*
X150082000Y-82804000D02*
X150082000Y-81814000D01*
X115066000Y-58424000D02*
X118872000Y-62230000D01*
X150082000Y-81814000D02*
X148798178Y-80530178D01*
X119902000Y-62230000D02*
X120530000Y-62858000D01*
X148798178Y-80530178D02*
X148798178Y-75991822D01*
X120530000Y-67938000D02*
X119380000Y-69088000D01*
X120530000Y-62858000D02*
X120530000Y-67938000D01*
%TO.N,/I2C1_SDA*%
X113538000Y-58424000D02*
X118230000Y-63116000D01*
X149098000Y-80330000D02*
X149098000Y-76116012D01*
X156178346Y-54222000D02*
X156972000Y-55015654D01*
X156972000Y-56642000D02*
X158242000Y-57912000D01*
X134232000Y-58808000D02*
X134232000Y-54895654D01*
X149958012Y-75256000D02*
X150550000Y-75256000D01*
X150582000Y-81814000D02*
X149098000Y-80330000D01*
X156972000Y-55015654D02*
X156972000Y-56642000D01*
X134905654Y-54222000D02*
X156178346Y-54222000D01*
X118230000Y-63116000D02*
X118230000Y-65398000D01*
X134232000Y-54895654D02*
X134905654Y-54222000D01*
X150550000Y-75256000D02*
X151130000Y-74676000D01*
X133350000Y-59690000D02*
X134232000Y-58808000D01*
X118230000Y-65398000D02*
X119380000Y-66548000D01*
X150582000Y-82804000D02*
X150582000Y-81814000D01*
X149098000Y-76116012D02*
X149958012Y-75256000D01*
%TO.N,/I2C2_SDA*%
X140479466Y-59961466D02*
X139123442Y-59961466D01*
X142082000Y-61564000D02*
X140479466Y-59961466D01*
X138523798Y-59361822D02*
X136831822Y-59361822D01*
X126982534Y-61330534D02*
X129406000Y-63754000D01*
X142082000Y-67004000D02*
X142082000Y-61564000D01*
X121526534Y-61330534D02*
X126982534Y-61330534D01*
X129406000Y-65398000D02*
X130556000Y-66548000D01*
X129406000Y-63754000D02*
X129406000Y-65398000D01*
X136831822Y-59361822D02*
X135382000Y-57912000D01*
X118618000Y-58422000D02*
X121526534Y-61330534D01*
X139123442Y-59961466D02*
X138523798Y-59361822D01*
%TO.N,/I2C2_SCL*%
X129878712Y-61030712D02*
X131706000Y-62858000D01*
X119888000Y-58422000D02*
X122496712Y-61030712D01*
X122496712Y-61030712D02*
X129878712Y-61030712D01*
X131706000Y-67938000D02*
X130556000Y-69088000D01*
X137445654Y-59062000D02*
X136532000Y-58148346D01*
X131706000Y-62858000D02*
X131706000Y-67938000D01*
X136532000Y-56522000D02*
X135382000Y-55372000D01*
X142303288Y-60261288D02*
X141539252Y-60261288D01*
X138647988Y-59062000D02*
X137445654Y-59062000D01*
X142582000Y-60540000D02*
X142303288Y-60261288D01*
X136532000Y-58148346D02*
X136532000Y-56522000D01*
X139247632Y-59661644D02*
X138647988Y-59062000D01*
X142582000Y-67004000D02*
X142582000Y-60540000D01*
X140939608Y-59661644D02*
X139247632Y-59661644D01*
X141539252Y-60261288D02*
X140939608Y-59661644D01*
%TO.N,/I2C4_SCL*%
X117348000Y-58422000D02*
X120556356Y-61630356D01*
X140462000Y-72390000D02*
X139948000Y-72904000D01*
X127994000Y-67938000D02*
X126844000Y-69088000D01*
X127994000Y-62858000D02*
X127994000Y-67938000D01*
X122802000Y-93846000D02*
X122802000Y-85211750D01*
X122802000Y-85211750D02*
X135109750Y-72904000D01*
X123952000Y-94996000D02*
X122802000Y-93846000D01*
X126766356Y-61630356D02*
X127994000Y-62858000D01*
X120556356Y-61630356D02*
X126766356Y-61630356D01*
X139948000Y-72904000D02*
X138682000Y-72904000D01*
X135109750Y-72904000D02*
X138682000Y-72904000D01*
%TO.N,/I2C4_SDA*%
X125694000Y-64212000D02*
X125694000Y-65398000D01*
X141224000Y-72898000D02*
X140718000Y-73404000D01*
X116078000Y-58422000D02*
X119586178Y-61930178D01*
X140718000Y-73404000D02*
X138682000Y-73404000D01*
X123412178Y-61930178D02*
X125694000Y-64212000D01*
X141224000Y-71628000D02*
X141224000Y-72898000D01*
X123952000Y-84485762D02*
X135033762Y-73404000D01*
X123952000Y-92456000D02*
X123952000Y-84485762D01*
X125694000Y-65398000D02*
X126844000Y-66548000D01*
X119586178Y-61930178D02*
X123412178Y-61930178D01*
X135033762Y-73404000D02*
X138682000Y-73404000D01*
%TO.N,Net-(C10-Pad1)*%
X141224000Y-65252000D02*
X141582000Y-65610000D01*
X141582000Y-65610000D02*
X141582000Y-67004000D01*
%TD*%
M02*
