%TF.GenerationSoftware,KiCad,Pcbnew,8.0.4*%
%TF.CreationDate,2024-11-29T22:22:17-05:00*%
%TF.ProjectId,SRSFC,53525346-432e-46b6-9963-61645f706362,V1.0*%
%TF.SameCoordinates,Original*%
%TF.FileFunction,Copper,L1,Top*%
%TF.FilePolarity,Positive*%
%FSLAX46Y46*%
G04 Gerber Fmt 4.6, Leading zero omitted, Abs format (unit mm)*
G04 Created by KiCad (PCBNEW 8.0.4) date 2024-11-29 22:22:17*
%MOMM*%
%LPD*%
G01*
G04 APERTURE LIST*
G04 Aperture macros list*
%AMRoundRect*
0 Rectangle with rounded corners*
0 $1 Rounding radius*
0 $2 $3 $4 $5 $6 $7 $8 $9 X,Y pos of 4 corners*
0 Add a 4 corners polygon primitive as box body*
4,1,4,$2,$3,$4,$5,$6,$7,$8,$9,$2,$3,0*
0 Add four circle primitives for the rounded corners*
1,1,$1+$1,$2,$3*
1,1,$1+$1,$4,$5*
1,1,$1+$1,$6,$7*
1,1,$1+$1,$8,$9*
0 Add four rect primitives between the rounded corners*
20,1,$1+$1,$2,$3,$4,$5,0*
20,1,$1+$1,$4,$5,$6,$7,0*
20,1,$1+$1,$6,$7,$8,$9,0*
20,1,$1+$1,$8,$9,$2,$3,0*%
G04 Aperture macros list end*
%TA.AperFunction,ComponentPad*%
%ADD10R,1.700000X1.700000*%
%TD*%
%TA.AperFunction,ComponentPad*%
%ADD11O,1.700000X1.700000*%
%TD*%
%TA.AperFunction,SMDPad,CuDef*%
%ADD12RoundRect,0.140000X0.140000X0.170000X-0.140000X0.170000X-0.140000X-0.170000X0.140000X-0.170000X0*%
%TD*%
%TA.AperFunction,SMDPad,CuDef*%
%ADD13RoundRect,0.140000X-0.140000X-0.170000X0.140000X-0.170000X0.140000X0.170000X-0.140000X0.170000X0*%
%TD*%
%TA.AperFunction,SMDPad,CuDef*%
%ADD14R,0.980000X2.470000*%
%TD*%
%TA.AperFunction,SMDPad,CuDef*%
%ADD15R,3.600000X2.470000*%
%TD*%
%TA.AperFunction,SMDPad,CuDef*%
%ADD16R,0.280000X1.500000*%
%TD*%
%TA.AperFunction,SMDPad,CuDef*%
%ADD17R,1.500000X0.280000*%
%TD*%
%TA.AperFunction,SMDPad,CuDef*%
%ADD18RoundRect,0.135000X-0.135000X-0.185000X0.135000X-0.185000X0.135000X0.185000X-0.135000X0.185000X0*%
%TD*%
%TA.AperFunction,SMDPad,CuDef*%
%ADD19R,0.550000X1.100000*%
%TD*%
%TA.AperFunction,SMDPad,CuDef*%
%ADD20R,0.300000X1.100000*%
%TD*%
%TA.AperFunction,ComponentPad*%
%ADD21O,1.100000X2.000000*%
%TD*%
%TA.AperFunction,ComponentPad*%
%ADD22O,1.200000X1.800000*%
%TD*%
%TA.AperFunction,SMDPad,CuDef*%
%ADD23RoundRect,0.135000X-0.185000X0.135000X-0.185000X-0.135000X0.185000X-0.135000X0.185000X0.135000X0*%
%TD*%
%TA.AperFunction,SMDPad,CuDef*%
%ADD24RoundRect,0.140000X0.170000X-0.140000X0.170000X0.140000X-0.170000X0.140000X-0.170000X-0.140000X0*%
%TD*%
%TA.AperFunction,SMDPad,CuDef*%
%ADD25RoundRect,0.135000X0.185000X-0.135000X0.185000X0.135000X-0.185000X0.135000X-0.185000X-0.135000X0*%
%TD*%
%TA.AperFunction,SMDPad,CuDef*%
%ADD26RoundRect,0.140000X-0.170000X0.140000X-0.170000X-0.140000X0.170000X-0.140000X0.170000X0.140000X0*%
%TD*%
%TA.AperFunction,ComponentPad*%
%ADD27C,7.500000*%
%TD*%
%TA.AperFunction,SMDPad,CuDef*%
%ADD28R,0.280000X0.500000*%
%TD*%
%TA.AperFunction,SMDPad,CuDef*%
%ADD29R,0.500000X0.280000*%
%TD*%
%TA.AperFunction,SMDPad,CuDef*%
%ADD30RoundRect,0.218750X0.256250X-0.218750X0.256250X0.218750X-0.256250X0.218750X-0.256250X-0.218750X0*%
%TD*%
%TA.AperFunction,SMDPad,CuDef*%
%ADD31RoundRect,0.135000X0.135000X0.185000X-0.135000X0.185000X-0.135000X-0.185000X0.135000X-0.185000X0*%
%TD*%
%TA.AperFunction,SMDPad,CuDef*%
%ADD32R,1.600000X0.700000*%
%TD*%
%TA.AperFunction,SMDPad,CuDef*%
%ADD33R,1.500000X1.200000*%
%TD*%
%TA.AperFunction,SMDPad,CuDef*%
%ADD34R,2.200000X1.200000*%
%TD*%
%TA.AperFunction,SMDPad,CuDef*%
%ADD35R,1.500000X1.600000*%
%TD*%
%TA.AperFunction,SMDPad,CuDef*%
%ADD36R,0.500000X0.300000*%
%TD*%
%TA.AperFunction,SMDPad,CuDef*%
%ADD37R,0.300000X0.500000*%
%TD*%
%TA.AperFunction,SMDPad,CuDef*%
%ADD38R,1.400000X1.200000*%
%TD*%
%TA.AperFunction,SMDPad,CuDef*%
%ADD39R,1.360000X1.230000*%
%TD*%
%TA.AperFunction,ViaPad*%
%ADD40C,0.450000*%
%TD*%
%TA.AperFunction,ViaPad*%
%ADD41C,0.600000*%
%TD*%
%TA.AperFunction,Conductor*%
%ADD42C,0.200000*%
%TD*%
%TA.AperFunction,Conductor*%
%ADD43C,0.400000*%
%TD*%
G04 APERTURE END LIST*
D10*
%TO.P,J6,1,Pin_1*%
%TO.N,GND*%
X147066000Y-101092000D03*
D11*
%TO.P,J6,2,Pin_2*%
%TO.N,VCC*%
X149606000Y-101092000D03*
%TO.P,J6,3,Pin_3*%
%TO.N,/servo_4*%
X152146000Y-101092000D03*
%TD*%
D12*
%TO.P,C1,1*%
%TO.N,GND*%
X139926000Y-89154000D03*
%TO.P,C1,2*%
%TO.N,/nrst*%
X138966000Y-89154000D03*
%TD*%
D10*
%TO.P,J1,1,Pin_1*%
%TO.N,/SWCLK*%
X134620000Y-112776000D03*
D11*
%TO.P,J1,2,Pin_2*%
%TO.N,/SWDIO*%
X137160000Y-112776000D03*
%TO.P,J1,3,Pin_3*%
%TO.N,GND*%
X139700000Y-112776000D03*
%TO.P,J1,4,Pin_4*%
%TO.N,+3.3V*%
X142240000Y-112776000D03*
%TO.P,J1,5,Pin_5*%
%TO.N,/boot0*%
X144780000Y-112776000D03*
%TD*%
D13*
%TO.P,C28,1*%
%TO.N,+3.3V*%
X143058000Y-92964000D03*
%TO.P,C28,2*%
%TO.N,GND*%
X144018000Y-92964000D03*
%TD*%
D14*
%TO.P,U5,1,ADJ(GND)*%
%TO.N,GND*%
X145782000Y-89957000D03*
%TO.P,U5,2,VOUT(TAB)*%
%TO.N,+3.3V*%
X148082000Y-89957000D03*
%TO.P,U5,3,VIN*%
%TO.N,VCC*%
X150382000Y-89957000D03*
D15*
%TO.P,U5,4,TAB*%
%TO.N,+3.3V*%
X148082000Y-84287000D03*
%TD*%
D16*
%TO.P,U1,1,PE2*%
%TO.N,/SPI_SCK_BMP*%
X138080000Y-89890000D03*
%TO.P,U1,2,PE3*%
%TO.N,unconnected-(U1-PE3-Pad2)*%
X137580000Y-89890000D03*
%TO.P,U1,3,PE4*%
%TO.N,/SPI_CS_BMP*%
X137080000Y-89890000D03*
%TO.P,U1,4,PE5*%
%TO.N,/SPI_MISO_BMP*%
X136580000Y-89890000D03*
%TO.P,U1,5,PE6*%
%TO.N,/SPI_MOSI_BMP*%
X136080000Y-89890000D03*
%TO.P,U1,6,VBAT*%
%TO.N,+3.3V*%
X135580000Y-89890000D03*
%TO.P,U1,7,PC13*%
%TO.N,unconnected-(U1-PC13-Pad7)*%
X135080000Y-89890000D03*
%TO.P,U1,8,PC14-OSC32_IN*%
%TO.N,unconnected-(U1-PC14-OSC32_IN-Pad8)*%
X134580000Y-89890000D03*
%TO.P,U1,9,PC15-OSC32_OUT*%
%TO.N,unconnected-(U1-PC15-OSC32_OUT-Pad9)*%
X134080000Y-89890000D03*
%TO.P,U1,10,VSS*%
%TO.N,GND*%
X133580000Y-89890000D03*
%TO.P,U1,11,VDD*%
%TO.N,+3.3V*%
X133080000Y-89890000D03*
%TO.P,U1,12,PH0-OSC_IN*%
%TO.N,Net-(U1-PH0-OSC_IN)*%
X132580000Y-89890000D03*
%TO.P,U1,13,PH1-OSC_OUT*%
%TO.N,Net-(U1-PH1-OSC_OUT)*%
X132080000Y-89890000D03*
%TO.P,U1,14,NRST*%
%TO.N,/nrst*%
X131580000Y-89890000D03*
%TO.P,U1,15,PC0*%
%TO.N,unconnected-(U1-PC0-Pad15)*%
X131080000Y-89890000D03*
%TO.P,U1,16,PC1*%
%TO.N,unconnected-(U1-PC1-Pad16)*%
X130580000Y-89890000D03*
%TO.P,U1,17,PC2_C*%
%TO.N,unconnected-(U1-PC2_C-Pad17)*%
X130080000Y-89890000D03*
%TO.P,U1,18,PC3_C*%
%TO.N,unconnected-(U1-PC3_C-Pad18)*%
X129580000Y-89890000D03*
%TO.P,U1,19,VSSA*%
%TO.N,GND*%
X129080000Y-89890000D03*
%TO.P,U1,20,VREF+*%
%TO.N,+3.3V*%
X128580000Y-89890000D03*
%TO.P,U1,21,VDDA*%
X128080000Y-89890000D03*
%TO.P,U1,22,PA0*%
%TO.N,unconnected-(U1-PA0-Pad22)*%
X127580000Y-89890000D03*
%TO.P,U1,23,PA1*%
%TO.N,/IBUS_RX*%
X127080000Y-89890000D03*
%TO.P,U1,24,PA2*%
%TO.N,unconnected-(U1-PA2-Pad24)*%
X126580000Y-89890000D03*
%TO.P,U1,25,PA3*%
%TO.N,unconnected-(U1-PA3-Pad25)*%
X126080000Y-89890000D03*
D17*
%TO.P,U1,26,VSS*%
%TO.N,GND*%
X124180000Y-91790000D03*
%TO.P,U1,27,VDD*%
%TO.N,+3.3V*%
X124180000Y-92290000D03*
%TO.P,U1,28,PA4*%
%TO.N,unconnected-(U1-PA4-Pad28)*%
X124180000Y-92790000D03*
%TO.P,U1,29,PA5*%
%TO.N,unconnected-(U1-PA5-Pad29)*%
X124180000Y-93290000D03*
%TO.P,U1,30,PA6*%
%TO.N,unconnected-(U1-PA6-Pad30)*%
X124180000Y-93790000D03*
%TO.P,U1,31,PA7*%
%TO.N,unconnected-(U1-PA7-Pad31)*%
X124180000Y-94290000D03*
%TO.P,U1,32,PC4*%
%TO.N,unconnected-(U1-PC4-Pad32)*%
X124180000Y-94790000D03*
%TO.P,U1,33,PC5*%
%TO.N,unconnected-(U1-PC5-Pad33)*%
X124180000Y-95290000D03*
%TO.P,U1,34,PB0*%
%TO.N,unconnected-(U1-PB0-Pad34)*%
X124180000Y-95790000D03*
%TO.P,U1,35,PB1*%
%TO.N,unconnected-(U1-PB1-Pad35)*%
X124180000Y-96290000D03*
%TO.P,U1,36,PB2*%
%TO.N,unconnected-(U1-PB2-Pad36)*%
X124180000Y-96790000D03*
%TO.P,U1,37,PE7*%
%TO.N,unconnected-(U1-PE7-Pad37)*%
X124180000Y-97290000D03*
%TO.P,U1,38,PE8*%
%TO.N,unconnected-(U1-PE8-Pad38)*%
X124180000Y-97790000D03*
%TO.P,U1,39,PE9*%
%TO.N,unconnected-(U1-PE9-Pad39)*%
X124180000Y-98290000D03*
%TO.P,U1,40,PE10*%
%TO.N,unconnected-(U1-PE10-Pad40)*%
X124180000Y-98790000D03*
%TO.P,U1,41,PE11*%
%TO.N,unconnected-(U1-PE11-Pad41)*%
X124180000Y-99290000D03*
%TO.P,U1,42,PE12*%
%TO.N,unconnected-(U1-PE12-Pad42)*%
X124180000Y-99790000D03*
%TO.P,U1,43,PE13*%
%TO.N,unconnected-(U1-PE13-Pad43)*%
X124180000Y-100290000D03*
%TO.P,U1,44,PE14*%
%TO.N,unconnected-(U1-PE14-Pad44)*%
X124180000Y-100790000D03*
%TO.P,U1,45,PE15*%
%TO.N,unconnected-(U1-PE15-Pad45)*%
X124180000Y-101290000D03*
%TO.P,U1,46,PB10*%
%TO.N,unconnected-(U1-PB10-Pad46)*%
X124180000Y-101790000D03*
%TO.P,U1,47,PB11*%
%TO.N,unconnected-(U1-PB11-Pad47)*%
X124180000Y-102290000D03*
%TO.P,U1,48,VCAP*%
%TO.N,Net-(C10-Pad1)*%
X124180000Y-102790000D03*
%TO.P,U1,49,VSS*%
%TO.N,GND*%
X124180000Y-103290000D03*
%TO.P,U1,50,VDD*%
%TO.N,+3.3V*%
X124180000Y-103790000D03*
D16*
%TO.P,U1,51,PB12*%
%TO.N,unconnected-(U1-PB12-Pad51)*%
X126080000Y-105690000D03*
%TO.P,U1,52,PB13*%
%TO.N,unconnected-(U1-PB13-Pad52)*%
X126580000Y-105690000D03*
%TO.P,U1,53,PB14*%
%TO.N,unconnected-(U1-PB14-Pad53)*%
X127080000Y-105690000D03*
%TO.P,U1,54,PB15*%
%TO.N,unconnected-(U1-PB15-Pad54)*%
X127580000Y-105690000D03*
%TO.P,U1,55,PD8*%
%TO.N,unconnected-(U1-PD8-Pad55)*%
X128080000Y-105690000D03*
%TO.P,U1,56,PD9*%
%TO.N,unconnected-(U1-PD9-Pad56)*%
X128580000Y-105690000D03*
%TO.P,U1,57,PD10*%
%TO.N,unconnected-(U1-PD10-Pad57)*%
X129080000Y-105690000D03*
%TO.P,U1,58,PD11*%
%TO.N,unconnected-(U1-PD11-Pad58)*%
X129580000Y-105690000D03*
%TO.P,U1,59,PD12*%
%TO.N,unconnected-(U1-PD12-Pad59)*%
X130080000Y-105690000D03*
%TO.P,U1,60,PD13*%
%TO.N,unconnected-(U1-PD13-Pad60)*%
X130580000Y-105690000D03*
%TO.P,U1,61,PD14*%
%TO.N,unconnected-(U1-PD14-Pad61)*%
X131080000Y-105690000D03*
%TO.P,U1,62,PD15*%
%TO.N,unconnected-(U1-PD15-Pad62)*%
X131580000Y-105690000D03*
%TO.P,U1,63,PC6*%
%TO.N,/servo_3*%
X132080000Y-105690000D03*
%TO.P,U1,64,PC7*%
%TO.N,/servo_4*%
X132580000Y-105690000D03*
%TO.P,U1,65,PC8*%
%TO.N,/SDIO_D0*%
X133080000Y-105690000D03*
%TO.P,U1,66,PC9*%
%TO.N,/SDIO_D1*%
X133580000Y-105690000D03*
%TO.P,U1,67,PA8*%
%TO.N,/servo_2*%
X134080000Y-105690000D03*
%TO.P,U1,68,PA9*%
%TO.N,/servo_5*%
X134580000Y-105690000D03*
%TO.P,U1,69,PA10*%
%TO.N,unconnected-(U1-PA10-Pad69)*%
X135080000Y-105690000D03*
%TO.P,U1,70,PA11*%
%TO.N,/USB-*%
X135580000Y-105690000D03*
%TO.P,U1,71,PA12*%
%TO.N,/USB+*%
X136080000Y-105690000D03*
%TO.P,U1,72,PA13*%
%TO.N,/SWDIO*%
X136580000Y-105690000D03*
%TO.P,U1,73,VCAP*%
%TO.N,Net-(C12-Pad1)*%
X137080000Y-105690000D03*
%TO.P,U1,74,VSS*%
%TO.N,GND*%
X137580000Y-105690000D03*
%TO.P,U1,75,VDD*%
%TO.N,+3.3V*%
X138080000Y-105690000D03*
D17*
%TO.P,U1,76,PA14*%
%TO.N,/SWCLK*%
X139980000Y-103790000D03*
%TO.P,U1,77,PA15*%
%TO.N,/SD_CD*%
X139980000Y-103290000D03*
%TO.P,U1,78,PC10*%
%TO.N,/SDIO_D2*%
X139980000Y-102790000D03*
%TO.P,U1,79,PC11*%
%TO.N,/SDIO_D3*%
X139980000Y-102290000D03*
%TO.P,U1,80,PC12*%
%TO.N,/SDIO_SCK*%
X139980000Y-101790000D03*
%TO.P,U1,81,PD0*%
%TO.N,unconnected-(U1-PD0-Pad81)*%
X139980000Y-101290000D03*
%TO.P,U1,82,PD1*%
%TO.N,unconnected-(U1-PD1-Pad82)*%
X139980000Y-100790000D03*
%TO.P,U1,83,PD2*%
%TO.N,/SDIO_CMD*%
X139980000Y-100290000D03*
%TO.P,U1,84,PD3*%
%TO.N,unconnected-(U1-PD3-Pad84)*%
X139980000Y-99790000D03*
%TO.P,U1,85,PD4*%
%TO.N,unconnected-(U1-PD4-Pad85)*%
X139980000Y-99290000D03*
%TO.P,U1,86,PD5*%
%TO.N,unconnected-(U1-PD5-Pad86)*%
X139980000Y-98790000D03*
%TO.P,U1,87,PD6*%
%TO.N,unconnected-(U1-PD6-Pad87)*%
X139980000Y-98290000D03*
%TO.P,U1,88,PD7*%
%TO.N,/SPI_CS_LSM*%
X139980000Y-97790000D03*
%TO.P,U1,89,PB3*%
%TO.N,/SPI_SCK_LSM*%
X139980000Y-97290000D03*
%TO.P,U1,90,PB4*%
%TO.N,/SPI_MISO_LSM*%
X139980000Y-96790000D03*
%TO.P,U1,91,PB5*%
%TO.N,/SPI_MOSI_LSM*%
X139980000Y-96290000D03*
%TO.P,U1,92,PB6*%
%TO.N,/servo_1*%
X139980000Y-95790000D03*
%TO.P,U1,93,PB7*%
%TO.N,unconnected-(U1-PB7-Pad93)*%
X139980000Y-95290000D03*
%TO.P,U1,94,BOOT0*%
%TO.N,/boot0*%
X139980000Y-94790000D03*
%TO.P,U1,95,PB8*%
%TO.N,unconnected-(U1-PB8-Pad95)*%
X139980000Y-94290000D03*
%TO.P,U1,96,PB9*%
%TO.N,unconnected-(U1-PB9-Pad96)*%
X139980000Y-93790000D03*
%TO.P,U1,97,PE0*%
%TO.N,unconnected-(U1-PE0-Pad97)*%
X139980000Y-93290000D03*
%TO.P,U1,98,PE1*%
%TO.N,unconnected-(U1-PE1-Pad98)*%
X139980000Y-92790000D03*
%TO.P,U1,99,VSS*%
%TO.N,GND*%
X139980000Y-92290000D03*
%TO.P,U1,100,VDD*%
%TO.N,+3.3V*%
X139980000Y-91790000D03*
%TD*%
D18*
%TO.P,R5,1*%
%TO.N,GND*%
X132334000Y-110236000D03*
%TO.P,R5,2*%
%TO.N,/SWCLK*%
X133354000Y-110236000D03*
%TD*%
D19*
%TO.P,USB1,1,GND*%
%TO.N,GND*%
X160172000Y-87791500D03*
%TO.P,USB1,2,VBUS*%
%TO.N,VCC*%
X159372000Y-87791500D03*
D20*
%TO.P,USB1,3,SBU2*%
%TO.N,unconnected-(USB1-SBU2-Pad3)*%
X158722000Y-87791500D03*
%TO.P,USB1,4,CC1*%
%TO.N,Net-(USB1-CC1)*%
X158222000Y-87791500D03*
%TO.P,USB1,5,DN2*%
%TO.N,/USB-*%
X157722000Y-87791500D03*
%TO.P,USB1,6,DP1*%
%TO.N,/USB+*%
X157222000Y-87791500D03*
%TO.P,USB1,7,DN1*%
%TO.N,/USB-*%
X156722000Y-87791500D03*
%TO.P,USB1,8,DP2*%
%TO.N,/USB+*%
X156222000Y-87791500D03*
%TO.P,USB1,9,SBU1*%
%TO.N,unconnected-(USB1-SBU1-Pad9)*%
X155722000Y-87791500D03*
%TO.P,USB1,10,CC2*%
%TO.N,Net-(USB1-CC2)*%
X155222000Y-87791500D03*
D19*
%TO.P,USB1,11,VBUS*%
%TO.N,VCC*%
X154572000Y-87791500D03*
%TO.P,USB1,12,GND*%
%TO.N,GND*%
X153772000Y-87791500D03*
D21*
%TO.P,USB1,13,SHELL*%
X161297000Y-87241500D03*
D22*
X161297000Y-83041500D03*
D21*
%TO.P,USB1,14,SHELL*%
X152647000Y-87241500D03*
D22*
X152647000Y-83041500D03*
%TD*%
D12*
%TO.P,C11,1*%
%TO.N,GND*%
X136624000Y-88138000D03*
%TO.P,C11,2*%
%TO.N,+3.3V*%
X135664000Y-88138000D03*
%TD*%
D13*
%TO.P,C2,1*%
%TO.N,Net-(U1-PH0-OSC_IN)*%
X134422000Y-84582000D03*
%TO.P,C2,2*%
%TO.N,GND*%
X135382000Y-84582000D03*
%TD*%
D23*
%TO.P,R4,1*%
%TO.N,Net-(USB1-CC1)*%
X155194000Y-90170000D03*
%TO.P,R4,2*%
%TO.N,GND*%
X155194000Y-91190000D03*
%TD*%
D10*
%TO.P,J8,1,Pin_1*%
%TO.N,GND*%
X121412000Y-93472000D03*
D11*
%TO.P,J8,2,Pin_2*%
%TO.N,VCC*%
X121412000Y-96012000D03*
%TO.P,J8,3,Pin_3*%
%TO.N,/IBUS_RX*%
X121412000Y-98552000D03*
%TD*%
D12*
%TO.P,C5,1*%
%TO.N,+3.3V*%
X131036000Y-88392000D03*
%TO.P,C5,2*%
%TO.N,GND*%
X130076000Y-88392000D03*
%TD*%
D10*
%TO.P,J3,1,Pin_1*%
%TO.N,GND*%
X148590000Y-112776000D03*
D11*
%TO.P,J3,2,Pin_2*%
%TO.N,VCC*%
X151130000Y-112776000D03*
%TO.P,J3,3,Pin_3*%
%TO.N,/servo_1*%
X153670000Y-112776000D03*
%TD*%
D24*
%TO.P,C10,1*%
%TO.N,Net-(C10-Pad1)*%
X122428000Y-102080000D03*
%TO.P,C10,2*%
%TO.N,GND*%
X122428000Y-101120000D03*
%TD*%
D25*
%TO.P,R1,1*%
%TO.N,GND*%
X127762000Y-111508000D03*
%TO.P,R1,2*%
%TO.N,/boot0*%
X127762000Y-110488000D03*
%TD*%
D26*
%TO.P,C22,1*%
%TO.N,+3.3V*%
X147320000Y-91976000D03*
%TO.P,C22,2*%
%TO.N,GND*%
X147320000Y-92936000D03*
%TD*%
D23*
%TO.P,R3,1*%
%TO.N,Net-(USB1-CC2)*%
X153924000Y-90166000D03*
%TO.P,R3,2*%
%TO.N,GND*%
X153924000Y-91186000D03*
%TD*%
D13*
%TO.P,C8,1*%
%TO.N,+3.3V*%
X123472000Y-90678000D03*
%TO.P,C8,2*%
%TO.N,GND*%
X124432000Y-90678000D03*
%TD*%
D12*
%TO.P,C26,1*%
%TO.N,+3.3V*%
X141732000Y-110236000D03*
%TO.P,C26,2*%
%TO.N,GND*%
X140772000Y-110236000D03*
%TD*%
%TO.P,C4,1*%
%TO.N,GND*%
X135326000Y-86614000D03*
%TO.P,C4,2*%
%TO.N,+3.3V*%
X134366000Y-86614000D03*
%TD*%
D27*
%TO.P,H4,1*%
%TO.N,N/C*%
X166878000Y-110998000D03*
%TD*%
D10*
%TO.P,J7,1,Pin_1*%
%TO.N,GND*%
X147066000Y-97282000D03*
D11*
%TO.P,J7,2,Pin_2*%
%TO.N,VCC*%
X149606000Y-97282000D03*
%TO.P,J7,3,Pin_3*%
%TO.N,/servo_5*%
X152146000Y-97282000D03*
%TD*%
D26*
%TO.P,C24,1*%
%TO.N,VCC*%
X149860000Y-91976000D03*
%TO.P,C24,2*%
%TO.N,GND*%
X149860000Y-92936000D03*
%TD*%
D24*
%TO.P,C3,1*%
%TO.N,Net-(U1-PH1-OSC_OUT)*%
X129032000Y-86332000D03*
%TO.P,C3,2*%
%TO.N,GND*%
X129032000Y-85372000D03*
%TD*%
D10*
%TO.P,J5,1,Pin_1*%
%TO.N,GND*%
X147066000Y-104902000D03*
D11*
%TO.P,J5,2,Pin_2*%
%TO.N,VCC*%
X149606000Y-104902000D03*
%TO.P,J5,3,Pin_3*%
%TO.N,/servo_3*%
X152146000Y-104902000D03*
%TD*%
D13*
%TO.P,C7,1*%
%TO.N,+3.3V*%
X128044000Y-88392000D03*
%TO.P,C7,2*%
%TO.N,GND*%
X129004000Y-88392000D03*
%TD*%
D12*
%TO.P,C13,1*%
%TO.N,+3.3V*%
X138374000Y-107188000D03*
%TO.P,C13,2*%
%TO.N,GND*%
X137414000Y-107188000D03*
%TD*%
D23*
%TO.P,R2,1*%
%TO.N,Net-(D1-A)*%
X141986000Y-83818000D03*
%TO.P,R2,2*%
%TO.N,+3.3V*%
X141986000Y-84838000D03*
%TD*%
D10*
%TO.P,J2,1,Pin_1*%
%TO.N,GND*%
X157480000Y-112776000D03*
D11*
%TO.P,J2,2,Pin_2*%
%TO.N,VCC*%
X160020000Y-112776000D03*
%TD*%
D24*
%TO.P,C6,1*%
%TO.N,+3.3V*%
X122174000Y-104112000D03*
%TO.P,C6,2*%
%TO.N,GND*%
X122174000Y-103152000D03*
%TD*%
D26*
%TO.P,C25,1*%
%TO.N,VCC*%
X151130000Y-91976000D03*
%TO.P,C25,2*%
%TO.N,GND*%
X151130000Y-92936000D03*
%TD*%
D27*
%TO.P,H3,1*%
%TO.N,N/C*%
X122936000Y-110998000D03*
%TD*%
D24*
%TO.P,C27,1*%
%TO.N,GND*%
X154432000Y-101036000D03*
%TO.P,C27,2*%
%TO.N,+3.3V*%
X154432000Y-100076000D03*
%TD*%
D28*
%TO.P,U2,1,SDO/SA0*%
%TO.N,/SPI_MISO_LSM*%
X142518000Y-101410000D03*
%TO.P,U2,2,SDx*%
%TO.N,GND*%
X143018000Y-101410000D03*
%TO.P,U2,3,SCx*%
X143518000Y-101410000D03*
%TO.P,U2,4,INT1*%
%TO.N,unconnected-(U2-INT1-Pad4)*%
X144018000Y-101410000D03*
D29*
%TO.P,U2,5,VDDIO*%
%TO.N,+3.3V*%
X144193000Y-100735000D03*
%TO.P,U2,6,GND*%
%TO.N,GND*%
X144193000Y-100235000D03*
%TO.P,U2,7,GND*%
X144193000Y-99735000D03*
D28*
%TO.P,U2,8,VDD*%
%TO.N,+3.3V*%
X144018000Y-99060000D03*
%TO.P,U2,9,INT2*%
%TO.N,unconnected-(U2-INT2-Pad9)*%
X143518000Y-99060000D03*
%TO.P,U2,10,OCS_Aux*%
%TO.N,unconnected-(U2-OCS_Aux-Pad10)*%
X143018000Y-99060000D03*
%TO.P,U2,11,SDO_Aux*%
%TO.N,unconnected-(U2-SDO_Aux-Pad11)*%
X142518000Y-99060000D03*
D29*
%TO.P,U2,12,CS*%
%TO.N,/SPI_CS_LSM*%
X142343000Y-99735000D03*
%TO.P,U2,13,SCL*%
%TO.N,/SPI_SCK_LSM*%
X142343000Y-100235000D03*
%TO.P,U2,14,SDA*%
%TO.N,/SPI_MOSI_LSM*%
X142343000Y-100735000D03*
%TD*%
D13*
%TO.P,C15,1*%
%TO.N,+3.3V*%
X143792000Y-98044000D03*
%TO.P,C15,2*%
%TO.N,GND*%
X144752000Y-98044000D03*
%TD*%
%TO.P,C16,1*%
%TO.N,GND*%
X143792000Y-102616000D03*
%TO.P,C16,2*%
%TO.N,+3.3V*%
X144752000Y-102616000D03*
%TD*%
D26*
%TO.P,C14,1*%
%TO.N,+3.3V*%
X141732000Y-91468000D03*
%TO.P,C14,2*%
%TO.N,GND*%
X141732000Y-92428000D03*
%TD*%
D12*
%TO.P,C12,1*%
%TO.N,Net-(C12-Pad1)*%
X136370000Y-107188000D03*
%TO.P,C12,2*%
%TO.N,GND*%
X135410000Y-107188000D03*
%TD*%
D30*
%TO.P,D1,1,K*%
%TO.N,GND*%
X140462000Y-85115500D03*
%TO.P,D1,2,A*%
%TO.N,Net-(D1-A)*%
X140462000Y-83540500D03*
%TD*%
D31*
%TO.P,R6,1*%
%TO.N,/SWDIO*%
X136144000Y-110236000D03*
%TO.P,R6,2*%
%TO.N,+3.3V*%
X135124000Y-110236000D03*
%TD*%
D32*
%TO.P,CARD1,1,DAT2*%
%TO.N,/SDIO_D2*%
X156244000Y-96100000D03*
%TO.P,CARD1,2,CD/DAT3*%
%TO.N,/SDIO_D3*%
X156244000Y-97200000D03*
%TO.P,CARD1,3,CMD*%
%TO.N,/SDIO_CMD*%
X156244000Y-98300000D03*
%TO.P,CARD1,4,VDD*%
%TO.N,+3.3V*%
X156244000Y-99400000D03*
%TO.P,CARD1,5,CLX*%
%TO.N,/SDIO_SCK*%
X156244000Y-100500000D03*
%TO.P,CARD1,6,VSS*%
%TO.N,GND*%
X156244000Y-101600000D03*
%TO.P,CARD1,7,DAT0*%
%TO.N,/SDIO_D0*%
X156244000Y-102700000D03*
%TO.P,CARD1,8,DAT1*%
%TO.N,/SDIO_D1*%
X156244000Y-103800000D03*
D33*
%TO.P,CARD1,10,10*%
%TO.N,GND*%
X157244000Y-106100000D03*
D34*
%TO.P,CARD1,11,11*%
X166844000Y-106100000D03*
%TO.P,CARD1,12,12*%
X166844000Y-90600000D03*
D35*
%TO.P,CARD1,13,13*%
X157244000Y-91500000D03*
D32*
%TO.P,CARD1,CD,CD*%
%TO.N,/SD_CD*%
X156244000Y-104900000D03*
%TD*%
D36*
%TO.P,U6,1,VDDIO*%
%TO.N,+3.3V*%
X142530000Y-94488000D03*
%TO.P,U6,2,SCK*%
%TO.N,/SPI_SCK_BMP*%
X142530000Y-94988000D03*
D37*
%TO.P,U6,3,VSS*%
%TO.N,GND*%
X142901000Y-95607000D03*
%TO.P,U6,4,SDI*%
%TO.N,/SPI_MOSI_BMP*%
X143401000Y-95607000D03*
%TO.P,U6,5,SDO*%
%TO.N,/SPI_MISO_BMP*%
X143901000Y-95607000D03*
D36*
%TO.P,U6,6,CSB*%
%TO.N,/SPI_CS_BMP*%
X144272000Y-94988000D03*
%TO.P,U6,7,INT*%
%TO.N,unconnected-(U6-INT-Pad7)*%
X144272000Y-94488000D03*
D37*
%TO.P,U6,8,VSS*%
%TO.N,GND*%
X143901000Y-93869000D03*
%TO.P,U6,9,VSS*%
X143401000Y-93869000D03*
%TO.P,U6,10,VDD*%
%TO.N,+3.3V*%
X142901000Y-93869000D03*
%TD*%
D10*
%TO.P,J4,1,Pin_1*%
%TO.N,GND*%
X154955000Y-108966000D03*
D11*
%TO.P,J4,2,Pin_2*%
%TO.N,VCC*%
X157495000Y-108966000D03*
%TO.P,J4,3,Pin_3*%
%TO.N,/servo_2*%
X160035000Y-108966000D03*
%TD*%
D38*
%TO.P,X1,1,OSC1*%
%TO.N,Net-(U1-PH1-OSC_OUT)*%
X130642000Y-86614000D03*
%TO.P,X1,2,GND*%
%TO.N,GND*%
X132842000Y-86614000D03*
%TO.P,X1,3,OSC2*%
%TO.N,Net-(U1-PH0-OSC_IN)*%
X132842000Y-84864000D03*
%TO.P,X1,4,GND*%
%TO.N,GND*%
X130642000Y-84864000D03*
%TD*%
D27*
%TO.P,H2,1*%
%TO.N,N/C*%
X166878000Y-85852000D03*
%TD*%
D39*
%TO.P,SW1,1,1*%
%TO.N,+3.3V*%
X130048000Y-113437000D03*
%TO.P,SW1,2,2*%
%TO.N,/boot0*%
X130048000Y-109067000D03*
%TD*%
D13*
%TO.P,C9,1*%
%TO.N,+3.3V*%
X133604000Y-88138000D03*
%TO.P,C9,2*%
%TO.N,GND*%
X134564000Y-88138000D03*
%TD*%
D27*
%TO.P,H1,1*%
%TO.N,N/C*%
X122936000Y-85852000D03*
%TD*%
D26*
%TO.P,C17,1*%
%TO.N,+3.3V*%
X141478000Y-94262000D03*
%TO.P,C17,2*%
%TO.N,GND*%
X141478000Y-95222000D03*
%TD*%
%TO.P,C23,1*%
%TO.N,+3.3V*%
X148590000Y-91976000D03*
%TO.P,C23,2*%
%TO.N,GND*%
X148590000Y-92936000D03*
%TD*%
D40*
%TO.N,GND*%
X136652000Y-87376000D03*
X158690000Y-91500000D03*
X135382000Y-85852000D03*
X141986000Y-96012000D03*
X150876000Y-93726000D03*
X153162000Y-91186000D03*
X147320000Y-93726000D03*
X121666000Y-101092000D03*
D41*
X125222000Y-90678000D03*
D40*
X127762000Y-112268000D03*
X135382000Y-107950000D03*
X121412000Y-103124000D03*
X142494000Y-91440000D03*
X132334000Y-109474000D03*
X137414000Y-107950000D03*
X164846000Y-90678000D03*
X129032000Y-84328000D03*
X143002000Y-102108000D03*
X144780000Y-99060000D03*
X129032000Y-91186000D03*
X144018000Y-92202000D03*
X145796000Y-88138000D03*
X140716000Y-89154000D03*
X132842000Y-87630000D03*
X165172000Y-106100000D03*
X154432000Y-101854000D03*
X140520793Y-86175316D03*
X130556000Y-83820000D03*
X157734000Y-104902000D03*
%TO.N,+3.3V*%
X131572000Y-113792000D03*
X135636000Y-87376000D03*
X134366000Y-85852000D03*
X121412000Y-104140000D03*
X141478000Y-93472000D03*
X149098000Y-89662000D03*
X141732000Y-90678000D03*
X143002000Y-92202000D03*
X142748000Y-98044000D03*
X135128000Y-109474000D03*
X138430000Y-107950000D03*
X128016000Y-91186000D03*
X154432000Y-99314000D03*
X145288000Y-101854000D03*
X141986000Y-85598000D03*
X148082000Y-85852000D03*
D41*
X122682000Y-90678000D03*
D40*
%TO.N,/servo_3*%
X135890000Y-97536000D03*
%TO.N,/servo_4*%
X136652000Y-98298000D03*
%TO.N,/SWCLK*%
X139954000Y-104394000D03*
X138078122Y-109122122D03*
X133350000Y-109474000D03*
X140716000Y-106426000D03*
%TO.N,/SWDIO*%
X136906000Y-110490000D03*
X136017000Y-103251000D03*
%TO.N,/boot0*%
X131064000Y-108204000D03*
%TO.N,/servo_5*%
X133858000Y-103378000D03*
X138430000Y-97790000D03*
X131826000Y-103124000D03*
%TO.N,/SDIO_D0*%
X139414250Y-108743750D03*
X133096000Y-106934000D03*
%TO.N,/SDIO_D3*%
X158242000Y-98552000D03*
X137922000Y-102616000D03*
%TO.N,/USB-*%
X134874000Y-102616000D03*
X156972000Y-89408000D03*
%TO.N,/USB+*%
X135890000Y-102362000D03*
X155702000Y-89154000D03*
%TO.N,/SPI_CS_LSM*%
X143256000Y-100076000D03*
X141224000Y-98044000D03*
%TO.N,/SPI_SCK_BMP*%
X143510000Y-94742000D03*
X138176000Y-91186000D03*
%TO.N,/SDIO_CMD*%
X137541000Y-101219000D03*
X158242000Y-101219000D03*
%TO.N,/SPI_MISO_BMP*%
X137414000Y-91440000D03*
X144272000Y-96520000D03*
%TO.N,/SDIO_SCK*%
X158242000Y-100330000D03*
X138684000Y-101854000D03*
%TO.N,/SPI_MOSI_BMP*%
X143510000Y-96266000D03*
X136144000Y-91186000D03*
%TO.N,/SD_CD*%
X143764000Y-103632000D03*
X151384000Y-103124000D03*
D41*
%TO.N,/IBUS_RX*%
X127000000Y-91440000D03*
D40*
%TO.N,/SDIO_D2*%
X137922000Y-103632000D03*
X158242000Y-99441000D03*
%TO.N,/SPI_MISO_LSM*%
X137922000Y-96520000D03*
X142240000Y-102362000D03*
%TO.N,/SPI_SCK_LSM*%
X141669182Y-99563302D03*
X137668000Y-97282000D03*
D41*
%TO.N,VCC*%
X123952000Y-106172000D03*
D40*
X156068998Y-106172000D03*
%TO.N,/servo_1*%
X138176000Y-95758000D03*
%TD*%
D42*
%TO.N,/nrst*%
X132588000Y-92456000D02*
X137922000Y-92456000D01*
X131580000Y-91448000D02*
X132588000Y-92456000D01*
X138966000Y-91412000D02*
X138966000Y-89154000D01*
X137922000Y-92456000D02*
X138966000Y-91412000D01*
X131580000Y-89890000D02*
X131580000Y-91448000D01*
%TO.N,GND*%
X141478000Y-95222000D02*
X141863000Y-95607000D01*
X154432000Y-101036000D02*
X154996000Y-101600000D01*
X140520793Y-86175316D02*
X140520793Y-85174293D01*
X129032000Y-91186000D02*
X129032000Y-89938000D01*
X129032000Y-89938000D02*
X129080000Y-89890000D01*
X125222000Y-90678000D02*
X124432000Y-90678000D01*
X154996000Y-101600000D02*
X156244000Y-101600000D01*
X150876000Y-93726000D02*
X150876000Y-93190000D01*
X129004000Y-88392000D02*
X130076000Y-88392000D01*
X137580000Y-107022000D02*
X137580000Y-105690000D01*
X137414000Y-107950000D02*
X137414000Y-107188000D01*
X134564000Y-88194000D02*
X133918000Y-88840000D01*
X144193000Y-100235000D02*
X144193000Y-99735000D01*
X158690000Y-91500000D02*
X157244000Y-91500000D01*
X137414000Y-107188000D02*
X137580000Y-107022000D01*
X144018000Y-92964000D02*
X144018000Y-93752000D01*
X135382000Y-107950000D02*
X135382000Y-107216000D01*
X145796000Y-89943000D02*
X145782000Y-89957000D01*
X143510000Y-102616000D02*
X143792000Y-102616000D01*
X130556000Y-84778000D02*
X130642000Y-84864000D01*
X144752000Y-99032000D02*
X144752000Y-98044000D01*
X140772000Y-110236000D02*
X140772000Y-111704000D01*
X141732000Y-92428000D02*
X141594000Y-92290000D01*
X132334000Y-110236000D02*
X132334000Y-109474000D01*
X144752000Y-99176000D02*
X144752000Y-99088000D01*
X150876000Y-93190000D02*
X151130000Y-92936000D01*
X122174000Y-103152000D02*
X122312000Y-103290000D01*
X143792000Y-102616000D02*
X143518000Y-102342000D01*
X142494000Y-91440000D02*
X142494000Y-91666000D01*
X134564000Y-88138000D02*
X134693000Y-88009000D01*
X153197000Y-87791500D02*
X152647000Y-87241500D01*
X133640000Y-88840000D02*
X133580000Y-88900000D01*
X133918000Y-88840000D02*
X133640000Y-88840000D01*
X142494000Y-91666000D02*
X141732000Y-92428000D01*
X129032000Y-85372000D02*
X129032000Y-84328000D01*
X157734000Y-104902000D02*
X157734000Y-105610000D01*
X135382000Y-107216000D02*
X135410000Y-107188000D01*
X157734000Y-105610000D02*
X157244000Y-106100000D01*
X129080000Y-88468000D02*
X129004000Y-88392000D01*
X130556000Y-83820000D02*
X130556000Y-84778000D01*
X149860000Y-92936000D02*
X151130000Y-92936000D01*
X155190000Y-91186000D02*
X155194000Y-91190000D01*
X148590000Y-92936000D02*
X149860000Y-92936000D01*
X133580000Y-88900000D02*
X133580000Y-89890000D01*
X141986000Y-96012000D02*
X141986000Y-95607000D01*
X122428000Y-101120000D02*
X121694000Y-101120000D01*
X136652000Y-87376000D02*
X136652000Y-88110000D01*
X122174000Y-103152000D02*
X121440000Y-103152000D01*
X122312000Y-103290000D02*
X124180000Y-103290000D01*
X124432000Y-91538000D02*
X124180000Y-91790000D01*
X144018000Y-93752000D02*
X143901000Y-93869000D01*
X141863000Y-95607000D02*
X141986000Y-95607000D01*
X154432000Y-101854000D02*
X154432000Y-101036000D01*
X145796000Y-88138000D02*
X145796000Y-89943000D01*
X147320000Y-93726000D02*
X147320000Y-92936000D01*
X135382000Y-84582000D02*
X135382000Y-85852000D01*
X164924000Y-90600000D02*
X166844000Y-90600000D01*
X160747000Y-87791500D02*
X161297000Y-87241500D01*
X153162000Y-91186000D02*
X153924000Y-91186000D01*
X144752000Y-99088000D02*
X144780000Y-99060000D01*
X144018000Y-92964000D02*
X144018000Y-92202000D01*
X144193000Y-99735000D02*
X144752000Y-99176000D01*
X140772000Y-111704000D02*
X139700000Y-112776000D01*
X165172000Y-106100000D02*
X166844000Y-106100000D01*
X127762000Y-112268000D02*
X127762000Y-111508000D01*
X143018000Y-101410000D02*
X143518000Y-101410000D01*
X141986000Y-95607000D02*
X142901000Y-95607000D01*
X132842000Y-87630000D02*
X132842000Y-86614000D01*
X153924000Y-91186000D02*
X155190000Y-91186000D01*
X121694000Y-101120000D02*
X121666000Y-101092000D01*
X121440000Y-103152000D02*
X121412000Y-103124000D01*
X135382000Y-85852000D02*
X135382000Y-86558000D01*
X147320000Y-92936000D02*
X148590000Y-92936000D01*
X135382000Y-86558000D02*
X135326000Y-86614000D01*
X143002000Y-102108000D02*
X143510000Y-102616000D01*
X134693000Y-87247000D02*
X135326000Y-86614000D01*
X153772000Y-87791500D02*
X153197000Y-87791500D01*
X139926000Y-89154000D02*
X140716000Y-89154000D01*
X143518000Y-102342000D02*
X143518000Y-101410000D01*
X134564000Y-88138000D02*
X134564000Y-88194000D01*
X140520793Y-85174293D02*
X140462000Y-85115500D01*
X129080000Y-89890000D02*
X129080000Y-88468000D01*
X141594000Y-92290000D02*
X139980000Y-92290000D01*
X164846000Y-90678000D02*
X164924000Y-90600000D01*
X134693000Y-88009000D02*
X134693000Y-87247000D01*
X144780000Y-99060000D02*
X144752000Y-99032000D01*
X124432000Y-90678000D02*
X124432000Y-91538000D01*
X136652000Y-88110000D02*
X136624000Y-88138000D01*
X143401000Y-93869000D02*
X143901000Y-93869000D01*
X160172000Y-87791500D02*
X160747000Y-87791500D01*
%TO.N,Net-(U1-PH0-OSC_IN)*%
X132842000Y-84864000D02*
X134140000Y-84864000D01*
X132842000Y-84864000D02*
X131842000Y-85864000D01*
X134140000Y-84864000D02*
X134422000Y-84582000D01*
X132580000Y-88188244D02*
X132580000Y-89890000D01*
X131842000Y-85864000D02*
X131842000Y-87450244D01*
X131842000Y-87450244D02*
X132580000Y-88188244D01*
%TO.N,Net-(U1-PH1-OSC_OUT)*%
X130642000Y-86700000D02*
X132080000Y-88138000D01*
X130642000Y-86614000D02*
X130642000Y-86700000D01*
X130360000Y-86332000D02*
X130642000Y-86614000D01*
X132080000Y-88138000D02*
X132080000Y-89890000D01*
X129032000Y-86332000D02*
X130360000Y-86332000D01*
%TO.N,+3.3V*%
X138430000Y-107950000D02*
X138430000Y-107244000D01*
X148590000Y-90465000D02*
X148082000Y-89957000D01*
X138374000Y-105984000D02*
X138080000Y-105690000D01*
X135664000Y-88138000D02*
X135580000Y-88222000D01*
X128080000Y-89890000D02*
X128580000Y-89890000D01*
X138430000Y-107244000D02*
X138374000Y-107188000D01*
X128080000Y-88428000D02*
X128044000Y-88392000D01*
X131217000Y-113437000D02*
X131572000Y-113792000D01*
X148590000Y-91976000D02*
X148590000Y-90465000D01*
X134366000Y-87376000D02*
X134366000Y-86614000D01*
X141732000Y-91468000D02*
X140302000Y-91468000D01*
X144752000Y-101294000D02*
X144193000Y-100735000D01*
X141732000Y-112268000D02*
X142240000Y-112776000D01*
X134366000Y-85852000D02*
X134366000Y-86614000D01*
X143792000Y-98044000D02*
X144018000Y-98270000D01*
X142748000Y-98044000D02*
X143792000Y-98044000D01*
X141732000Y-110236000D02*
X141732000Y-112268000D01*
X123472000Y-90678000D02*
X123130000Y-91020000D01*
X128654000Y-87782000D02*
X130426000Y-87782000D01*
X144752000Y-102616000D02*
X144752000Y-102390000D01*
X122174000Y-104112000D02*
X123858000Y-104112000D01*
X143058000Y-92964000D02*
X142901000Y-93121000D01*
X142901000Y-93121000D02*
X142901000Y-93869000D01*
X128080000Y-89890000D02*
X128080000Y-88428000D01*
X143058000Y-92964000D02*
X143058000Y-92258000D01*
X141732000Y-90678000D02*
X141732000Y-91468000D01*
X140302000Y-91468000D02*
X139980000Y-91790000D01*
X130048000Y-113437000D02*
X131217000Y-113437000D01*
X135664000Y-88138000D02*
X135664000Y-87404000D01*
X135664000Y-87404000D02*
X135636000Y-87376000D01*
X148377000Y-89662000D02*
X148082000Y-89957000D01*
X123130000Y-91020000D02*
X123130000Y-92230000D01*
X123858000Y-104112000D02*
X124180000Y-103790000D01*
X128016000Y-91186000D02*
X128080000Y-91122000D01*
X143058000Y-92258000D02*
X143002000Y-92202000D01*
X123190000Y-92290000D02*
X124180000Y-92290000D01*
X130426000Y-87782000D02*
X131036000Y-88392000D01*
X128044000Y-88392000D02*
X128654000Y-87782000D01*
X154432000Y-100076000D02*
X155108000Y-99400000D01*
X135124000Y-110236000D02*
X135124000Y-109478000D01*
X144752000Y-102616000D02*
X144752000Y-101294000D01*
X149098000Y-89662000D02*
X148377000Y-89662000D01*
X155108000Y-99400000D02*
X156244000Y-99400000D01*
X133604000Y-88138000D02*
X133080000Y-88662000D01*
X138374000Y-107188000D02*
X138374000Y-105984000D01*
X141986000Y-85598000D02*
X141986000Y-84838000D01*
X148082000Y-85852000D02*
X148082000Y-84287000D01*
X135580000Y-88222000D02*
X135580000Y-89890000D01*
X147320000Y-91976000D02*
X148590000Y-91976000D01*
X141478000Y-94262000D02*
X142304000Y-94262000D01*
X144018000Y-98270000D02*
X144018000Y-99060000D01*
X135124000Y-109478000D02*
X135128000Y-109474000D01*
X141478000Y-94262000D02*
X141478000Y-93472000D01*
X133080000Y-88662000D02*
X133080000Y-89890000D01*
X123130000Y-92230000D02*
X123190000Y-92290000D01*
X121440000Y-104112000D02*
X121412000Y-104140000D01*
X122174000Y-104112000D02*
X121440000Y-104112000D01*
X154432000Y-100076000D02*
X154432000Y-99314000D01*
X142304000Y-94262000D02*
X142530000Y-94488000D01*
X133604000Y-88138000D02*
X134366000Y-87376000D01*
X129895000Y-113538000D02*
X129540000Y-113183000D01*
X122682000Y-90678000D02*
X123472000Y-90678000D01*
X144752000Y-102390000D02*
X145288000Y-101854000D01*
X128080000Y-91122000D02*
X128080000Y-89890000D01*
%TO.N,Net-(C10-Pad1)*%
X122428000Y-102080000D02*
X123138000Y-102790000D01*
X123138000Y-102790000D02*
X124180000Y-102790000D01*
%TO.N,Net-(C12-Pad1)*%
X137080000Y-106506000D02*
X137080000Y-105690000D01*
X136398000Y-107188000D02*
X137080000Y-106506000D01*
X136370000Y-107188000D02*
X136398000Y-107188000D01*
%TO.N,/servo_3*%
X135890000Y-97536000D02*
X135890000Y-97619988D01*
X130946178Y-102563810D02*
X130946178Y-103566178D01*
X132080000Y-104700000D02*
X132080000Y-105690000D01*
X130946178Y-103566178D02*
X132080000Y-104700000D01*
X135890000Y-97619988D02*
X130946178Y-102563810D01*
%TO.N,/servo_4*%
X131246000Y-103366000D02*
X132580000Y-104700000D01*
X132580000Y-104700000D02*
X132580000Y-105690000D01*
X135636000Y-98298000D02*
X131246000Y-102688000D01*
X131246000Y-102688000D02*
X131246000Y-103366000D01*
X136652000Y-98298000D02*
X135636000Y-98298000D01*
%TO.N,Net-(D1-A)*%
X141708500Y-83540500D02*
X141986000Y-83818000D01*
X140462000Y-83540500D02*
X141708500Y-83540500D01*
%TO.N,/SWCLK*%
X139954000Y-104394000D02*
X139980000Y-104368000D01*
X133354000Y-110236000D02*
X133354000Y-111510000D01*
X133350000Y-110232000D02*
X133354000Y-110236000D01*
X133350000Y-109474000D02*
X133350000Y-110232000D01*
X133354000Y-111510000D02*
X134620000Y-112776000D01*
X139980000Y-104368000D02*
X139980000Y-103790000D01*
X138078122Y-109122122D02*
X140716000Y-106484244D01*
X140716000Y-106484244D02*
X140716000Y-106426000D01*
%TO.N,/SWDIO*%
X136906000Y-110490000D02*
X136398000Y-110490000D01*
X136580000Y-103814000D02*
X136580000Y-105690000D01*
X136017000Y-103251000D02*
X136580000Y-103814000D01*
X136144000Y-110236000D02*
X136144000Y-111760000D01*
X136398000Y-110490000D02*
X136144000Y-110236000D01*
X136144000Y-111760000D02*
X137160000Y-112776000D01*
%TO.N,/boot0*%
X139980000Y-94790000D02*
X135045000Y-94790000D01*
X131064000Y-108204000D02*
X130911000Y-108204000D01*
X128627000Y-110488000D02*
X127762000Y-110488000D01*
X135045000Y-94790000D02*
X125640000Y-104195000D01*
X127762000Y-108712000D02*
X127762000Y-110488000D01*
X125640000Y-104195000D02*
X125640000Y-106590000D01*
X130048000Y-109067000D02*
X128627000Y-110488000D01*
X125640000Y-106590000D02*
X127762000Y-108712000D01*
X130911000Y-108204000D02*
X130048000Y-109067000D01*
%TO.N,Net-(USB1-CC2)*%
X154940000Y-88898000D02*
X155222000Y-88616000D01*
X154940000Y-89150000D02*
X154940000Y-88898000D01*
X153924000Y-90166000D02*
X154940000Y-89150000D01*
X155222000Y-88616000D02*
X155222000Y-87791500D01*
%TO.N,Net-(USB1-CC1)*%
X155194000Y-90170000D02*
X157734000Y-90170000D01*
X158222000Y-89682000D02*
X158222000Y-87791500D01*
X157734000Y-90170000D02*
X158222000Y-89682000D01*
%TO.N,/servo_5*%
X135232066Y-101300178D02*
X133649822Y-101300178D01*
X133649822Y-101300178D02*
X131826000Y-103124000D01*
X134580000Y-104100000D02*
X133858000Y-103378000D01*
X134580000Y-105690000D02*
X134580000Y-104100000D01*
X138430000Y-98102244D02*
X135232066Y-101300178D01*
X138430000Y-97790000D02*
X138430000Y-98102244D01*
%TO.N,/SDIO_D0*%
X133096000Y-105706000D02*
X133080000Y-105690000D01*
X159049822Y-104855822D02*
X156894000Y-102700000D01*
X140858178Y-107299822D02*
X158554190Y-107299822D01*
X159049822Y-106804190D02*
X159049822Y-104855822D01*
X158554190Y-107299822D02*
X159049822Y-106804190D01*
X133096000Y-106934000D02*
X133096000Y-105706000D01*
X139414250Y-108743750D02*
X140858178Y-107299822D01*
X156894000Y-102700000D02*
X156244000Y-102700000D01*
%TO.N,/SDIO_D3*%
X139980000Y-102290000D02*
X139068244Y-102290000D01*
X156890000Y-97200000D02*
X156244000Y-97200000D01*
X138176000Y-102362000D02*
X137922000Y-102616000D01*
X138924244Y-102434000D02*
X138443756Y-102434000D01*
X139068244Y-102290000D02*
X138924244Y-102434000D01*
X138443756Y-102434000D02*
X138371756Y-102362000D01*
X158242000Y-98552000D02*
X156890000Y-97200000D01*
X138371756Y-102362000D02*
X138176000Y-102362000D01*
%TO.N,/USB-*%
X156972000Y-89408000D02*
X156772000Y-89208000D01*
X157722000Y-88541500D02*
X157722000Y-87791500D01*
X135580000Y-104700000D02*
X135580000Y-105690000D01*
X134874000Y-103994000D02*
X135580000Y-104700000D01*
X156722000Y-87791500D02*
X156722000Y-88591500D01*
X134874000Y-102616000D02*
X134874000Y-103994000D01*
X156722000Y-88591500D02*
X156772000Y-88641500D01*
X156772000Y-89208000D02*
X156772000Y-88641500D01*
X156772000Y-88641500D02*
X157622000Y-88641500D01*
X157622000Y-88641500D02*
X157722000Y-88541500D01*
%TO.N,/USB+*%
X155702000Y-89095756D02*
X155702000Y-89154000D01*
X135890000Y-102362000D02*
X135437000Y-102815000D01*
X135437000Y-102815000D02*
X135437000Y-103687000D01*
X156272000Y-86941500D02*
X157172000Y-86941500D01*
X136080000Y-104330000D02*
X136080000Y-105690000D01*
X156222000Y-87791500D02*
X156222000Y-88575756D01*
X135437000Y-103687000D02*
X136080000Y-104330000D01*
X157222000Y-86991500D02*
X157222000Y-87791500D01*
X156222000Y-87791500D02*
X156222000Y-86991500D01*
X157172000Y-86941500D02*
X157222000Y-86991500D01*
X156222000Y-88575756D02*
X155702000Y-89095756D01*
X156222000Y-86991500D02*
X156272000Y-86941500D01*
%TO.N,/SPI_CS_LSM*%
X140970000Y-97790000D02*
X139980000Y-97790000D01*
X142915000Y-99735000D02*
X143256000Y-100076000D01*
X142343000Y-99735000D02*
X142915000Y-99735000D01*
X141224000Y-98044000D02*
X140970000Y-97790000D01*
%TO.N,/SPI_SCK_BMP*%
X143264000Y-94988000D02*
X143510000Y-94742000D01*
X142530000Y-94988000D02*
X143264000Y-94988000D01*
X138176000Y-91186000D02*
X138176000Y-89986000D01*
X138176000Y-89986000D02*
X138080000Y-89890000D01*
%TO.N,/SDIO_CMD*%
X156894000Y-98300000D02*
X156244000Y-98300000D01*
X137541000Y-101219000D02*
X138470000Y-100290000D01*
X158242000Y-101219000D02*
X157344000Y-100321000D01*
X157344000Y-100321000D02*
X157344000Y-98750000D01*
X157344000Y-98750000D02*
X156894000Y-98300000D01*
X138470000Y-100290000D02*
X139980000Y-100290000D01*
%TO.N,/SPI_MOSI_LSM*%
X141893000Y-100735000D02*
X142343000Y-100735000D01*
X141089182Y-99931182D02*
X141893000Y-100735000D01*
X139980000Y-96290000D02*
X140970000Y-96290000D01*
X141434000Y-96754000D02*
X141434000Y-96876134D01*
X141986000Y-97428134D02*
X141986000Y-98426240D01*
X141089182Y-99323058D02*
X141089182Y-99931182D01*
X140970000Y-96290000D02*
X141434000Y-96754000D01*
X141986000Y-98426240D02*
X141089182Y-99323058D01*
X141434000Y-96876134D02*
X141986000Y-97428134D01*
%TO.N,/SDIO_D1*%
X137486000Y-104212000D02*
X138092000Y-104212000D01*
X138854000Y-104974000D02*
X140084244Y-104974000D01*
X137342000Y-102290000D02*
X137342000Y-104068000D01*
X158750000Y-104980012D02*
X157569988Y-103800000D01*
X157569988Y-103800000D02*
X156244000Y-103800000D01*
X133096000Y-102870000D02*
X134366000Y-101600000D01*
X133580000Y-105690000D02*
X133580000Y-104428244D01*
X142110244Y-107000000D02*
X158430000Y-107000000D01*
X133580000Y-104428244D02*
X133096000Y-103944244D01*
X133096000Y-103944244D02*
X133096000Y-102870000D01*
X136652000Y-101600000D02*
X137342000Y-102290000D01*
X134366000Y-101600000D02*
X136652000Y-101600000D01*
X137342000Y-104068000D02*
X137486000Y-104212000D01*
X158750000Y-106680000D02*
X158750000Y-104980012D01*
X158430000Y-107000000D02*
X158750000Y-106680000D01*
X140084244Y-104974000D02*
X142110244Y-107000000D01*
X138092000Y-104212000D02*
X138854000Y-104974000D01*
%TO.N,/SPI_MISO_BMP*%
X136580000Y-90801756D02*
X136580000Y-89890000D01*
X137414000Y-91440000D02*
X137218244Y-91440000D01*
X143901000Y-95607000D02*
X144272000Y-95978000D01*
X137218244Y-91440000D02*
X136580000Y-90801756D01*
X144272000Y-95978000D02*
X144272000Y-96520000D01*
%TO.N,/SDIO_SCK*%
X158805000Y-101799000D02*
X157797000Y-101799000D01*
X157797000Y-101799000D02*
X157344000Y-101346000D01*
X156894000Y-100500000D02*
X156244000Y-100500000D01*
X138748000Y-101790000D02*
X138684000Y-101854000D01*
X157344000Y-101346000D02*
X157344000Y-100950000D01*
X159004000Y-101600000D02*
X158805000Y-101799000D01*
X139980000Y-101790000D02*
X138748000Y-101790000D01*
X157344000Y-100950000D02*
X156894000Y-100500000D01*
X159004000Y-101092000D02*
X159004000Y-101600000D01*
X158242000Y-100330000D02*
X159004000Y-101092000D01*
%TO.N,/SPI_MOSI_BMP*%
X136080000Y-91122000D02*
X136080000Y-89890000D01*
X136144000Y-91186000D02*
X136080000Y-91122000D01*
X143401000Y-95607000D02*
X143401000Y-96157000D01*
X143401000Y-96157000D02*
X143510000Y-96266000D01*
%TO.N,/SD_CD*%
X153770346Y-104900000D02*
X151994346Y-103124000D01*
X141390000Y-103290000D02*
X139980000Y-103290000D01*
X141732000Y-103632000D02*
X141390000Y-103290000D01*
X143764000Y-103632000D02*
X141732000Y-103632000D01*
X156244000Y-104900000D02*
X153770346Y-104900000D01*
X151994346Y-103124000D02*
X151384000Y-103124000D01*
%TO.N,/IBUS_RX*%
X127080000Y-91360000D02*
X127000000Y-91440000D01*
X127080000Y-89890000D02*
X127080000Y-91360000D01*
%TO.N,/SDIO_D2*%
X158242000Y-99441000D02*
X158822000Y-98861000D01*
X158822000Y-97989000D02*
X156933000Y-96100000D01*
X158822000Y-98861000D02*
X158822000Y-97989000D01*
X139980000Y-102790000D02*
X138764000Y-102790000D01*
X138764000Y-102790000D02*
X137922000Y-103632000D01*
X156933000Y-96100000D02*
X156244000Y-96100000D01*
%TO.N,/SPI_MISO_LSM*%
X142240000Y-101688000D02*
X142518000Y-101410000D01*
X138192000Y-96790000D02*
X137922000Y-96520000D01*
X139980000Y-96790000D02*
X138192000Y-96790000D01*
X142240000Y-102362000D02*
X142240000Y-101688000D01*
%TO.N,/SPI_SCK_LSM*%
X139980000Y-97290000D02*
X138750244Y-97290000D01*
X137850000Y-97100000D02*
X137668000Y-97282000D01*
X141853000Y-100235000D02*
X142343000Y-100235000D01*
X139972000Y-97282000D02*
X139980000Y-97290000D01*
X138560244Y-97100000D02*
X137850000Y-97100000D01*
X141669182Y-99563302D02*
X141669182Y-100051182D01*
X141669182Y-100051182D02*
X141853000Y-100235000D01*
X138750244Y-97290000D02*
X138560244Y-97100000D01*
%TO.N,VCC*%
X154572000Y-87286066D02*
X156006066Y-85852000D01*
X122428000Y-106172000D02*
X123952000Y-106172000D01*
X156068998Y-106172000D02*
X150876000Y-106172000D01*
X120262000Y-104006000D02*
X122428000Y-106172000D01*
X154572000Y-88541500D02*
X153156500Y-89957000D01*
X149606000Y-104902000D02*
X149606000Y-101092000D01*
X157937934Y-85852000D02*
X159372000Y-87286066D01*
X153156500Y-89957000D02*
X150382000Y-89957000D01*
X154572000Y-87791500D02*
X154572000Y-88541500D01*
X160648000Y-110116000D02*
X158645000Y-110116000D01*
X158645000Y-110116000D02*
X157495000Y-108966000D01*
X149860000Y-90479000D02*
X150382000Y-89957000D01*
X121412000Y-96012000D02*
X120262000Y-97162000D01*
X161185000Y-109579000D02*
X160648000Y-110116000D01*
D43*
X160020000Y-112776000D02*
X158770000Y-114026000D01*
X152380000Y-114026000D02*
X151130000Y-112776000D01*
D42*
X156006066Y-85852000D02*
X157937934Y-85852000D01*
X155041076Y-91976000D02*
X161185000Y-98119924D01*
D43*
X158770000Y-114026000D02*
X152380000Y-114026000D01*
D42*
X120262000Y-97162000D02*
X120262000Y-104006000D01*
X159372000Y-87286066D02*
X159372000Y-87791500D01*
X154572000Y-87791500D02*
X154572000Y-87286066D01*
X150876000Y-106172000D02*
X149606000Y-104902000D01*
D43*
X160020000Y-111491000D02*
X157495000Y-108966000D01*
D42*
X149606000Y-101092000D02*
X149606000Y-97282000D01*
X149860000Y-91976000D02*
X149860000Y-90479000D01*
X151130000Y-91976000D02*
X155041076Y-91976000D01*
X161185000Y-98119924D02*
X161185000Y-109579000D01*
D43*
X160020000Y-112776000D02*
X160020000Y-111491000D01*
D42*
X151130000Y-91976000D02*
X149860000Y-91976000D01*
%TO.N,/servo_1*%
X138208000Y-95790000D02*
X138176000Y-95758000D01*
X139980000Y-95790000D02*
X138208000Y-95790000D01*
%TO.N,/servo_2*%
X158668644Y-107599644D02*
X160035000Y-108966000D01*
X135141756Y-108530000D02*
X135962000Y-108530000D01*
X137160000Y-109728000D02*
X139954000Y-109728000D01*
X134080000Y-105690000D02*
X134080000Y-107468244D01*
X134080000Y-107468244D02*
X135141756Y-108530000D01*
X135962000Y-108530000D02*
X137160000Y-109728000D01*
X142082356Y-107599644D02*
X158668644Y-107599644D01*
X139954000Y-109728000D02*
X142082356Y-107599644D01*
%TO.N,/SPI_CS_BMP*%
X144272000Y-94988000D02*
X144772000Y-94988000D01*
X144822000Y-94938000D02*
X144822000Y-92185756D01*
X144772000Y-94988000D02*
X144822000Y-94938000D01*
X144822000Y-92185756D02*
X141180244Y-88544000D01*
X141180244Y-88544000D02*
X137436000Y-88544000D01*
X137080000Y-88900000D02*
X137080000Y-89890000D01*
X137436000Y-88544000D02*
X137080000Y-88900000D01*
%TD*%
M02*
