%TF.GenerationSoftware,KiCad,Pcbnew,8.0.4*%
%TF.CreationDate,2025-08-25T15:50:40-04:00*%
%TF.ProjectId,zephyrus_fc,7a657068-7972-4757-935f-66632e6b6963,V1.0*%
%TF.SameCoordinates,Original*%
%TF.FileFunction,Legend,Bot*%
%TF.FilePolarity,Positive*%
%FSLAX46Y46*%
G04 Gerber Fmt 4.6, Leading zero omitted, Abs format (unit mm)*
G04 Created by KiCad (PCBNEW 8.0.4) date 2025-08-25 15:50:40*
%MOMM*%
%LPD*%
G01*
G04 APERTURE LIST*
%ADD10C,1.500000*%
%ADD11C,0.250000*%
%ADD12R,1.700000X1.700000*%
%ADD13O,1.700000X1.700000*%
%ADD14C,3.200000*%
%ADD15O,2.000000X1.100000*%
%ADD16O,1.800000X1.200000*%
G04 APERTURE END LIST*
D10*
X142811448Y-77431706D02*
X164026878Y-89154000D01*
X164026878Y-89154000D02*
X164026878Y-84311347D01*
X164026878Y-84311347D02*
X147192895Y-74971946D01*
X147192895Y-74971946D02*
X142811448Y-72550619D01*
X142811448Y-72550619D02*
X138430000Y-74971946D01*
X138430000Y-74971946D02*
X142811448Y-77431706D01*
X164026878Y-60789891D02*
X145002171Y-71359173D01*
X145002171Y-71359173D02*
X149422053Y-73780499D01*
X149422053Y-73780499D02*
X164026878Y-65670978D01*
X164026878Y-65670978D02*
X164026878Y-60789891D01*
D11*
G36*
X133368785Y-65037516D02*
G01*
X133379166Y-63308277D01*
X132959068Y-63308277D01*
X132959068Y-65734219D01*
X133270478Y-65734219D01*
X135048565Y-64008643D01*
X135048565Y-65734219D01*
X135465000Y-65734219D01*
X135465000Y-63308277D01*
X135153590Y-63308277D01*
X133368785Y-65037516D01*
G37*
G36*
X133975118Y-68271902D02*
G01*
X134370792Y-68271902D01*
X134370792Y-66759428D01*
X135043070Y-66759428D01*
X135043070Y-68740848D01*
X135459504Y-68740848D01*
X135459504Y-66314906D01*
X132974333Y-66314906D01*
X132974333Y-68740848D01*
X133393820Y-68740848D01*
X133393820Y-66759428D01*
X133975118Y-66759428D01*
X133975118Y-68271902D01*
G37*
G36*
X135472327Y-69773385D02*
G01*
X134475205Y-69769721D01*
X134475205Y-70809585D01*
X134474934Y-70859117D01*
X134470218Y-71007092D01*
X134457943Y-71152019D01*
X134435917Y-71291180D01*
X134401949Y-71421854D01*
X134353847Y-71541322D01*
X134289420Y-71646863D01*
X134174334Y-71761219D01*
X134063292Y-71823688D01*
X133928618Y-71863164D01*
X133768122Y-71876927D01*
X133669815Y-71876927D01*
X133613591Y-71875364D01*
X133462701Y-71852728D01*
X133336786Y-71805286D01*
X133233664Y-71735757D01*
X133127850Y-71613398D01*
X133069423Y-71502912D01*
X133026513Y-71379407D01*
X132996937Y-71245602D01*
X132978514Y-71104217D01*
X132969061Y-70957971D01*
X132968386Y-70920394D01*
X133381953Y-70920394D01*
X133386493Y-71044058D01*
X133390049Y-71114612D01*
X133414581Y-71240063D01*
X133453425Y-71323551D01*
X133552258Y-71406749D01*
X133673478Y-71428741D01*
X133760795Y-71428741D01*
X133812032Y-71425761D01*
X133944819Y-71372207D01*
X134018471Y-71262122D01*
X134047733Y-71133261D01*
X134056611Y-71008210D01*
X134058161Y-70872478D01*
X134058161Y-69766058D01*
X133382829Y-69766058D01*
X133382829Y-70826682D01*
X133381953Y-70920394D01*
X132968386Y-70920394D01*
X132966395Y-70809585D01*
X132966395Y-69321536D01*
X135472327Y-69321536D01*
X135472327Y-69773385D01*
G37*
G36*
X135465000Y-72902136D02*
G01*
X135465000Y-72457614D01*
X132959068Y-72457614D01*
X132959068Y-72902136D01*
X133960464Y-72902136D01*
X133960464Y-74600234D01*
X132959068Y-74600234D01*
X132959068Y-75051473D01*
X135465000Y-75051473D01*
X135465000Y-74600234D01*
X134376898Y-74600234D01*
X134376898Y-72902136D01*
X135465000Y-72902136D01*
G37*
G36*
X132959068Y-78638179D02*
G01*
X134292634Y-77350409D01*
X135465000Y-77350409D01*
X135465000Y-76908940D01*
X134285917Y-76908940D01*
X132959068Y-75627886D01*
X132959068Y-76215901D01*
X133900624Y-77136696D01*
X132959068Y-78043448D01*
X132959068Y-78638179D01*
G37*
G36*
X135472327Y-79665220D02*
G01*
X134475205Y-79661557D01*
X134475205Y-80389400D01*
X135472327Y-81345001D01*
X135472327Y-81947059D01*
X134467878Y-80981079D01*
X134463535Y-81023093D01*
X134437753Y-81183547D01*
X134396974Y-81329905D01*
X134339135Y-81459591D01*
X134262177Y-81570028D01*
X134164039Y-81658640D01*
X134042659Y-81722852D01*
X133895978Y-81760088D01*
X133768122Y-81768762D01*
X133669815Y-81768762D01*
X133613591Y-81767199D01*
X133462701Y-81744563D01*
X133336786Y-81697121D01*
X133233664Y-81627593D01*
X133127850Y-81505233D01*
X133069423Y-81394748D01*
X133026513Y-81271242D01*
X132996937Y-81137437D01*
X132978514Y-80996052D01*
X132969061Y-80849806D01*
X132968386Y-80812230D01*
X133381953Y-80812230D01*
X133386493Y-80935894D01*
X133390049Y-81006447D01*
X133414581Y-81131899D01*
X133453425Y-81215387D01*
X133552258Y-81298584D01*
X133673478Y-81320576D01*
X133760795Y-81320576D01*
X133812032Y-81317596D01*
X133944819Y-81264043D01*
X134018471Y-81153957D01*
X134047733Y-81025097D01*
X134056611Y-80900045D01*
X134058161Y-80764313D01*
X134058161Y-79657893D01*
X133382829Y-79657893D01*
X133382829Y-80718518D01*
X133381953Y-80812230D01*
X132968386Y-80812230D01*
X132966395Y-80701421D01*
X132966395Y-79213371D01*
X135472327Y-79213371D01*
X135472327Y-79665220D01*
G37*
G36*
X133970844Y-84984830D02*
G01*
X134111594Y-84982228D01*
X134251029Y-84973834D01*
X134388078Y-84958764D01*
X134521669Y-84936134D01*
X134650730Y-84905060D01*
X134774191Y-84864659D01*
X134890978Y-84814047D01*
X135000022Y-84752341D01*
X135100250Y-84678656D01*
X135190591Y-84592109D01*
X135269973Y-84491816D01*
X135337325Y-84376894D01*
X135391575Y-84246458D01*
X135431652Y-84099626D01*
X135456484Y-83935513D01*
X135465000Y-83753235D01*
X135456370Y-83571630D01*
X135431226Y-83408159D01*
X135390686Y-83261936D01*
X135335866Y-83132076D01*
X135267883Y-83017693D01*
X135187854Y-82917903D01*
X135096897Y-82831819D01*
X134996130Y-82758556D01*
X134886668Y-82697228D01*
X134769629Y-82646951D01*
X134646130Y-82606838D01*
X134517290Y-82576004D01*
X134384223Y-82553563D01*
X134248049Y-82538630D01*
X134109883Y-82530320D01*
X133970844Y-82527747D01*
X132959068Y-82527747D01*
X132959068Y-82972269D01*
X133970844Y-82972269D01*
X134117474Y-82975902D01*
X134245480Y-82985459D01*
X134377535Y-83002750D01*
X134508593Y-83029455D01*
X134633610Y-83067257D01*
X134747541Y-83117837D01*
X134866681Y-83201593D01*
X134905073Y-83242157D01*
X134980988Y-83356321D01*
X135028339Y-83479530D01*
X135052678Y-83612585D01*
X135059462Y-83737716D01*
X135059556Y-83756288D01*
X135054346Y-83882086D01*
X135032212Y-84014545D01*
X134987222Y-84137408D01*
X134913538Y-84253251D01*
X134902020Y-84267366D01*
X134796940Y-84361079D01*
X134662337Y-84430885D01*
X134540067Y-84471724D01*
X134410334Y-84501046D01*
X134278218Y-84520532D01*
X134148800Y-84531865D01*
X133998560Y-84537127D01*
X133970844Y-84537255D01*
X132959068Y-84537255D01*
X132959068Y-84984830D01*
X133970844Y-84984830D01*
G37*
G36*
X135472937Y-86642017D02*
G01*
X135472116Y-86519685D01*
X135467623Y-86393567D01*
X135456419Y-86266404D01*
X135435461Y-86140938D01*
X135401710Y-86019908D01*
X135352123Y-85906054D01*
X135283660Y-85802119D01*
X135193279Y-85710841D01*
X135089412Y-85643841D01*
X134966582Y-85600118D01*
X134941099Y-85595437D01*
X134819565Y-85582334D01*
X134734713Y-85581393D01*
X134566186Y-85581393D01*
X134566186Y-86029578D01*
X134759138Y-86029578D01*
X134853782Y-86036295D01*
X134962335Y-86092991D01*
X135024167Y-86205963D01*
X135035743Y-86246344D01*
X135054517Y-86371909D01*
X135056503Y-86428305D01*
X135060055Y-86552303D01*
X135060167Y-86603549D01*
X135060167Y-87086539D01*
X135058686Y-87211454D01*
X135048317Y-87341907D01*
X135032079Y-87426037D01*
X134979450Y-87545145D01*
X134880085Y-87619189D01*
X134853782Y-87625705D01*
X134762801Y-87632422D01*
X134702962Y-87632422D01*
X134575729Y-87604578D01*
X134485548Y-87510062D01*
X134454445Y-87426037D01*
X134432185Y-87300570D01*
X134426357Y-87219652D01*
X134426357Y-87002275D01*
X134426357Y-86631637D01*
X134425363Y-86508984D01*
X134420356Y-86381994D01*
X134408293Y-86253545D01*
X134386133Y-86126512D01*
X134350836Y-86003773D01*
X134299360Y-85888204D01*
X134228664Y-85782681D01*
X134135708Y-85690081D01*
X134029510Y-85622933D01*
X133906528Y-85581622D01*
X133779280Y-85565722D01*
X133691796Y-85563685D01*
X133642337Y-85563685D01*
X133483921Y-85577784D01*
X133351634Y-85618131D01*
X133243174Y-85681801D01*
X133131641Y-85797919D01*
X133069817Y-85904633D01*
X133024141Y-86024919D01*
X132992310Y-86155853D01*
X132972021Y-86294509D01*
X132960970Y-86437961D01*
X132956854Y-86583285D01*
X132956625Y-86631637D01*
X132956625Y-86991895D01*
X132958121Y-87145194D01*
X132964074Y-87273175D01*
X132977596Y-87402391D01*
X133001770Y-87529602D01*
X133039682Y-87651567D01*
X133094414Y-87765043D01*
X133169051Y-87866789D01*
X133239947Y-87933451D01*
X133350034Y-88003513D01*
X133471492Y-88045400D01*
X133488464Y-88048856D01*
X133613920Y-88061958D01*
X133702177Y-88062900D01*
X133862766Y-88062900D01*
X133862766Y-87611661D01*
X133677752Y-87611661D01*
X133575781Y-87607998D01*
X133466045Y-87550315D01*
X133404344Y-87437454D01*
X133393820Y-87397949D01*
X133376669Y-87275320D01*
X133373060Y-87219652D01*
X133369508Y-87095654D01*
X133369396Y-87044407D01*
X133369396Y-86582178D01*
X133369559Y-86455320D01*
X133377752Y-86328094D01*
X133383440Y-86288476D01*
X133412296Y-86161886D01*
X133481748Y-86057666D01*
X133596576Y-86015252D01*
X133677752Y-86011871D01*
X133726601Y-86011871D01*
X133855461Y-86040443D01*
X133944531Y-86134488D01*
X133975118Y-86215203D01*
X133996697Y-86336036D01*
X134003206Y-86424641D01*
X134004389Y-86548305D01*
X134003206Y-86642017D01*
X134003206Y-87013266D01*
X134004754Y-87165881D01*
X134010840Y-87292867D01*
X134024602Y-87420855D01*
X134049143Y-87546753D01*
X134087569Y-87667471D01*
X134142986Y-87779917D01*
X134218500Y-87881000D01*
X134290191Y-87947495D01*
X134397458Y-88016980D01*
X134518985Y-88060696D01*
X134644162Y-88078213D01*
X134731050Y-88080608D01*
X134787226Y-88080608D01*
X134945642Y-88066422D01*
X135077928Y-88025852D01*
X135186389Y-87961880D01*
X135297922Y-87845338D01*
X135359746Y-87738362D01*
X135405422Y-87617927D01*
X135437253Y-87487015D01*
X135457542Y-87348608D01*
X135468593Y-87205689D01*
X135472709Y-87061240D01*
X135472937Y-87013266D01*
X135472937Y-86642017D01*
G37*
G36*
X168960000Y-66433683D02*
G01*
X168600669Y-66645588D01*
X168598911Y-67154688D01*
X168960000Y-67366300D01*
X168960000Y-67613376D01*
X167757152Y-66899112D01*
X168170411Y-66899112D01*
X168407522Y-67040382D01*
X168407522Y-66759894D01*
X168170411Y-66899112D01*
X167757152Y-66899112D01*
X168960000Y-66190124D01*
X168960000Y-66433683D01*
G37*
G36*
X167759497Y-67120982D02*
G01*
X167759497Y-67368058D01*
X168682149Y-67907347D01*
X167759497Y-68438428D01*
X167759497Y-68677005D01*
X168976120Y-67981206D01*
X168971137Y-67835246D01*
X167759497Y-67120982D01*
G37*
G36*
X168960000Y-68520494D02*
G01*
X168600669Y-68732399D01*
X168598911Y-69241499D01*
X168960000Y-69453111D01*
X168960000Y-69700187D01*
X167757152Y-68985923D01*
X168170411Y-68985923D01*
X168407522Y-69127193D01*
X168407522Y-68846705D01*
X168170411Y-68985923D01*
X167757152Y-68985923D01*
X168960000Y-68276935D01*
X168960000Y-68520494D01*
G37*
G36*
X168960000Y-69976865D02*
G01*
X167757152Y-69976865D01*
X167757152Y-70139824D01*
X168622358Y-71005323D01*
X167757152Y-71005323D01*
X167757152Y-71221917D01*
X168960000Y-71221917D01*
X168960000Y-71055735D01*
X168093328Y-70191994D01*
X168960000Y-70190236D01*
X168960000Y-69976865D01*
G37*
G36*
X167757152Y-71711966D02*
G01*
X168960000Y-71711966D01*
X168960000Y-71498596D01*
X167757152Y-71498596D01*
X167757152Y-71711966D01*
G37*
G36*
X168960000Y-71989817D02*
G01*
X167757152Y-71989817D01*
X167757152Y-72152776D01*
X168622358Y-73018275D01*
X167757152Y-73018275D01*
X167757152Y-73234869D01*
X168960000Y-73234869D01*
X168960000Y-73068686D01*
X168093328Y-72204946D01*
X168960000Y-72203187D01*
X168960000Y-71989817D01*
G37*
G36*
X168960000Y-74094506D02*
G01*
X168959433Y-74135201D01*
X168954890Y-74213102D01*
X168945776Y-74286297D01*
X168932061Y-74354716D01*
X168913715Y-74418289D01*
X168890709Y-74476946D01*
X168863013Y-74530618D01*
X168812611Y-74601628D01*
X168751491Y-74661030D01*
X168679551Y-74708590D01*
X168625532Y-74733601D01*
X168566630Y-74753176D01*
X168502816Y-74767244D01*
X168434061Y-74775736D01*
X168360334Y-74778582D01*
X168334967Y-74778276D01*
X168270644Y-74774522D01*
X168205883Y-74765722D01*
X168141749Y-74750912D01*
X168079310Y-74729126D01*
X168019632Y-74699397D01*
X167963782Y-74660759D01*
X167908621Y-74607156D01*
X167863490Y-74545615D01*
X167827563Y-74477652D01*
X167800017Y-74404780D01*
X167784361Y-74347817D01*
X167772608Y-74289584D01*
X167764410Y-74230719D01*
X167759419Y-74171864D01*
X167757152Y-74094506D01*
X167955575Y-74094506D01*
X167955864Y-74120990D01*
X167959521Y-74189183D01*
X167968388Y-74258087D01*
X167983733Y-74325055D01*
X168006823Y-74387435D01*
X168038927Y-74442578D01*
X168081311Y-74487835D01*
X168110593Y-74508343D01*
X168167720Y-74534832D01*
X168229813Y-74551154D01*
X168293924Y-74559409D01*
X168357110Y-74561694D01*
X168393490Y-74560997D01*
X168458527Y-74555558D01*
X168522660Y-74542950D01*
X168582795Y-74521075D01*
X168635840Y-74487835D01*
X168654161Y-74471088D01*
X168692383Y-74421559D01*
X168720797Y-74363203D01*
X168740678Y-74298670D01*
X168753301Y-74230610D01*
X168759940Y-74161672D01*
X168761870Y-74094506D01*
X168761870Y-73724918D01*
X167955575Y-73724918D01*
X167955575Y-74094506D01*
X167757152Y-74094506D01*
X167757152Y-73511548D01*
X168960000Y-73511548D01*
X168960000Y-74094506D01*
G37*
G36*
X168244856Y-75996083D02*
G01*
X168434780Y-75996083D01*
X168434780Y-75270096D01*
X168757473Y-75270096D01*
X168757473Y-76221178D01*
X168957362Y-76221178D01*
X168957362Y-75056725D01*
X167764480Y-75056725D01*
X167764480Y-76221178D01*
X167965833Y-76221178D01*
X167965833Y-75270096D01*
X168244856Y-75270096D01*
X168244856Y-75996083D01*
G37*
G36*
X168963517Y-76716795D02*
G01*
X168484898Y-76715037D01*
X168484898Y-77064402D01*
X168963517Y-77523090D01*
X168963517Y-77812078D01*
X168481381Y-77348407D01*
X168479296Y-77368574D01*
X168466921Y-77445592D01*
X168447347Y-77515844D01*
X168419585Y-77578093D01*
X168382645Y-77631103D01*
X168335538Y-77673637D01*
X168277276Y-77704459D01*
X168206869Y-77722332D01*
X168145498Y-77726495D01*
X168098311Y-77726495D01*
X168071323Y-77725745D01*
X167998896Y-77714880D01*
X167938457Y-77692107D01*
X167888958Y-77658734D01*
X167838168Y-77600001D01*
X167810123Y-77546968D01*
X167789526Y-77487686D01*
X167775330Y-77423459D01*
X167766487Y-77355594D01*
X167761949Y-77285397D01*
X167761625Y-77267360D01*
X167960137Y-77267360D01*
X167962316Y-77326718D01*
X167964023Y-77360584D01*
X167975799Y-77420801D01*
X167994444Y-77460875D01*
X168041884Y-77500810D01*
X168100069Y-77511366D01*
X168141981Y-77511366D01*
X168166575Y-77509936D01*
X168230313Y-77484230D01*
X168265666Y-77431389D01*
X168279712Y-77369536D01*
X168283973Y-77309511D01*
X168284717Y-77244360D01*
X168284717Y-76713278D01*
X167960558Y-76713278D01*
X167960558Y-77222378D01*
X167960137Y-77267360D01*
X167761625Y-77267360D01*
X167760669Y-77214171D01*
X167760669Y-76499908D01*
X168963517Y-76499908D01*
X168963517Y-76716795D01*
G37*
G36*
X168960000Y-78337884D02*
G01*
X168960000Y-78090808D01*
X168724940Y-78090808D01*
X168724940Y-78337884D01*
X168960000Y-78337884D01*
G37*
G36*
X168156929Y-79765825D02*
G01*
X168135240Y-79754102D01*
X168106517Y-79740619D01*
X168084829Y-79727137D01*
X168066364Y-79710431D01*
X168028870Y-79664553D01*
X168000747Y-79607979D01*
X167980760Y-79544010D01*
X167967674Y-79475946D01*
X167960256Y-79407088D01*
X167957270Y-79340737D01*
X167957041Y-79315637D01*
X167958172Y-79255382D01*
X167964387Y-79172876D01*
X167976545Y-79099688D01*
X167995237Y-79035670D01*
X168021054Y-78980671D01*
X168067576Y-78921113D01*
X168129209Y-78876971D01*
X168186192Y-78853769D01*
X168253050Y-78838891D01*
X168330374Y-78832187D01*
X168358576Y-78831743D01*
X168439969Y-78835755D01*
X168510616Y-78847892D01*
X168571115Y-78868303D01*
X168637029Y-78908646D01*
X168687385Y-78964317D01*
X168715795Y-79016342D01*
X168736851Y-79077337D01*
X168751149Y-79147452D01*
X168759289Y-79226835D01*
X168761870Y-79315637D01*
X168760318Y-79380062D01*
X168754868Y-79448314D01*
X168744325Y-79517091D01*
X168727494Y-79583094D01*
X168703183Y-79643022D01*
X168670196Y-79693574D01*
X168654305Y-79710431D01*
X168635840Y-79727137D01*
X168614152Y-79740619D01*
X168585429Y-79754102D01*
X168560223Y-79765825D01*
X168711458Y-79925560D01*
X168721423Y-79920284D01*
X168771798Y-79886432D01*
X168815799Y-79844667D01*
X168854308Y-79791136D01*
X168885811Y-79730105D01*
X168910884Y-79663523D01*
X168930104Y-79593341D01*
X168944049Y-79521511D01*
X168953295Y-79449983D01*
X168958420Y-79380708D01*
X168960000Y-79315637D01*
X168957879Y-79234109D01*
X168951456Y-79157197D01*
X168940639Y-79084990D01*
X168925337Y-79017577D01*
X168905458Y-78955045D01*
X168880911Y-78897485D01*
X168851605Y-78844985D01*
X168798521Y-78775918D01*
X168734213Y-78718735D01*
X168658374Y-78673738D01*
X168601255Y-78650657D01*
X168538782Y-78633214D01*
X168470864Y-78621498D01*
X168397408Y-78615597D01*
X168358576Y-78614855D01*
X168282917Y-78617815D01*
X168212728Y-78626634D01*
X168147927Y-78641225D01*
X168088433Y-78661498D01*
X168034164Y-78687364D01*
X167962383Y-78736457D01*
X167901903Y-78797634D01*
X167852451Y-78870597D01*
X167825474Y-78925638D01*
X167803196Y-78985695D01*
X167785535Y-79050679D01*
X167772410Y-79120500D01*
X167763740Y-79195071D01*
X167759444Y-79274302D01*
X167758911Y-79315637D01*
X167760503Y-79380708D01*
X167765661Y-79449983D01*
X167774954Y-79521511D01*
X167788953Y-79593341D01*
X167808227Y-79663523D01*
X167833347Y-79730105D01*
X167864883Y-79791136D01*
X167903405Y-79844667D01*
X167947039Y-79886432D01*
X167995729Y-79920284D01*
X168007452Y-79925560D01*
X168156929Y-79765825D01*
G37*
G36*
X168400184Y-80133796D02*
G01*
X168473920Y-80139592D01*
X168542120Y-80151120D01*
X168604875Y-80168312D01*
X168662272Y-80191101D01*
X168738515Y-80235635D01*
X168803201Y-80292386D01*
X168856629Y-80361130D01*
X168886139Y-80413509D01*
X168910867Y-80471051D01*
X168930901Y-80533688D01*
X168946329Y-80601354D01*
X168957239Y-80673980D01*
X168963721Y-80751502D01*
X168965861Y-80833850D01*
X168965324Y-80875314D01*
X168960993Y-80954748D01*
X168952253Y-81029457D01*
X168939021Y-81099360D01*
X168921215Y-81164374D01*
X168898755Y-81224420D01*
X168871556Y-81279414D01*
X168821697Y-81352256D01*
X168760717Y-81413274D01*
X168688339Y-81462193D01*
X168633619Y-81487948D01*
X168573629Y-81508122D01*
X168508286Y-81522632D01*
X168437508Y-81531399D01*
X168361214Y-81534339D01*
X168322226Y-81533612D01*
X168248513Y-81527823D01*
X168180402Y-81516307D01*
X168117795Y-81499132D01*
X168060593Y-81476363D01*
X167984711Y-81431866D01*
X167920438Y-81375154D01*
X167867443Y-81306452D01*
X167838214Y-81254099D01*
X167813752Y-81196582D01*
X167793958Y-81133967D01*
X167778734Y-81066320D01*
X167767981Y-80993708D01*
X167761602Y-80916196D01*
X167759497Y-80833850D01*
X167957920Y-80833850D01*
X167960500Y-80922990D01*
X167968641Y-81002580D01*
X167982939Y-81072789D01*
X168003994Y-81133789D01*
X168032405Y-81185752D01*
X168082761Y-81241272D01*
X168148675Y-81281434D01*
X168209174Y-81301720D01*
X168279821Y-81313767D01*
X168361214Y-81317744D01*
X168389271Y-81317295D01*
X168466373Y-81310524D01*
X168533289Y-81295521D01*
X168590549Y-81272162D01*
X168652795Y-81227806D01*
X168700081Y-81168086D01*
X168726486Y-81113037D01*
X168745718Y-81049057D01*
X168758307Y-80976025D01*
X168764786Y-80893815D01*
X168765973Y-80833850D01*
X168763349Y-80745049D01*
X168755092Y-80665665D01*
X168740621Y-80595551D01*
X168719358Y-80534555D01*
X168679438Y-80467156D01*
X168625037Y-80415351D01*
X168573908Y-80386517D01*
X168513280Y-80366106D01*
X168442575Y-80353969D01*
X168361214Y-80349956D01*
X168332852Y-80350400D01*
X168255107Y-80357105D01*
X168187909Y-80371983D01*
X168130660Y-80395185D01*
X168068768Y-80439326D01*
X168022080Y-80498885D01*
X167996188Y-80553883D01*
X167977452Y-80617902D01*
X167965273Y-80691089D01*
X167959052Y-80773596D01*
X167957920Y-80833850D01*
X167759497Y-80833850D01*
X167760031Y-80792360D01*
X167764335Y-80712878D01*
X167773022Y-80638127D01*
X167786175Y-80568188D01*
X167803878Y-80503142D01*
X167826212Y-80443071D01*
X167853261Y-80388055D01*
X167902855Y-80315188D01*
X167963524Y-80254153D01*
X168035547Y-80205224D01*
X168090008Y-80179464D01*
X168149722Y-80159288D01*
X168214773Y-80144776D01*
X168285242Y-80136009D01*
X168361214Y-80133069D01*
X168400184Y-80133796D01*
G37*
G36*
X168960000Y-82027612D02*
G01*
X168960000Y-81810724D01*
X167757152Y-81810724D01*
X167757152Y-81988924D01*
X168511570Y-82491282D01*
X167757152Y-82986900D01*
X167757152Y-83159824D01*
X168960000Y-83159824D01*
X168960000Y-82944988D01*
X168202358Y-82944988D01*
X168785317Y-82563383D01*
X168782093Y-82420647D01*
X168200600Y-82027612D01*
X168960000Y-82027612D01*
G37*
%LPC*%
D12*
%TO.C,J5*%
X192024000Y-63852000D03*
D13*
X189484000Y-63852000D03*
X186944000Y-63852000D03*
%TD*%
D14*
%TO.C,H2*%
X191262000Y-92456000D03*
%TD*%
D12*
%TO.C,J4*%
X182372000Y-68482000D03*
D13*
X179832000Y-68482000D03*
X177292000Y-68482000D03*
%TD*%
D12*
%TO.C,J14*%
X192024000Y-86614000D03*
D13*
X189484000Y-86614000D03*
%TD*%
D12*
%TO.C,J8*%
X192024000Y-77802000D03*
D13*
X189484000Y-77802000D03*
X186944000Y-77802000D03*
%TD*%
D12*
%TO.C,J13*%
X123190000Y-64008000D03*
D13*
X123190000Y-66548000D03*
X123190000Y-69088000D03*
X123190000Y-71628000D03*
X123190000Y-74168000D03*
X123190000Y-76708000D03*
%TD*%
D12*
%TO.C,J12*%
X119380000Y-64008000D03*
D13*
X119380000Y-66548000D03*
X119380000Y-69088000D03*
X119380000Y-71628000D03*
X119380000Y-74168000D03*
X119380000Y-76708000D03*
%TD*%
D12*
%TO.C,J6*%
X192024000Y-68502000D03*
D13*
X189484000Y-68502000D03*
X186944000Y-68502000D03*
%TD*%
D12*
%TO.C,J11*%
X123952000Y-57912000D03*
D13*
X123952000Y-55372000D03*
X126492000Y-57912000D03*
X126492000Y-55372000D03*
X129032000Y-57912000D03*
X129032000Y-55372000D03*
X131572000Y-57912000D03*
X131572000Y-55372000D03*
%TD*%
D14*
%TO.C,H1*%
X191262000Y-57912000D03*
%TD*%
D15*
%TO.C,USB1*%
X109610000Y-70852000D03*
D16*
X105410000Y-70852000D03*
D15*
X109610000Y-79502000D03*
D16*
X105410000Y-79502000D03*
%TD*%
D12*
%TO.C,J17*%
X185166000Y-85852000D03*
D13*
X185166000Y-83312000D03*
%TD*%
D12*
%TO.C,J7*%
X192024000Y-73152000D03*
D13*
X189484000Y-73152000D03*
X186944000Y-73152000D03*
%TD*%
D14*
%TO.C,H3*%
X107188000Y-57912000D03*
%TD*%
D12*
%TO.C,J9*%
X183642000Y-55372000D03*
D13*
X183642000Y-57912000D03*
X181102000Y-55372000D03*
X181102000Y-57912000D03*
X178562000Y-55372000D03*
X178562000Y-57912000D03*
X176022000Y-55372000D03*
X176022000Y-57912000D03*
X173482000Y-55372000D03*
X173482000Y-57912000D03*
X170942000Y-55372000D03*
X170942000Y-57912000D03*
X168402000Y-55372000D03*
X168402000Y-57912000D03*
X165862000Y-55372000D03*
X165862000Y-57912000D03*
X163322000Y-55372000D03*
X163322000Y-57912000D03*
X160782000Y-55372000D03*
X160782000Y-57912000D03*
X158242000Y-55372000D03*
X158242000Y-57912000D03*
X155702000Y-55372000D03*
X155702000Y-57912000D03*
X153162000Y-55372000D03*
X153162000Y-57912000D03*
X150622000Y-55372000D03*
X150622000Y-57912000D03*
X148082000Y-55372000D03*
X148082000Y-57912000D03*
X145542000Y-55372000D03*
X145542000Y-57912000D03*
X143002000Y-55372000D03*
X143002000Y-57912000D03*
X140462000Y-55372000D03*
X140462000Y-57912000D03*
X137922000Y-55372000D03*
X137922000Y-57912000D03*
X135382000Y-55372000D03*
X135382000Y-57912000D03*
%TD*%
D14*
%TO.C,H4*%
X107188000Y-92456000D03*
%TD*%
D12*
%TO.C,J2*%
X192024000Y-82296000D03*
D13*
X189484000Y-82296000D03*
%TD*%
D12*
%TO.C,J3*%
X182372000Y-63832000D03*
D13*
X179832000Y-63832000D03*
X177292000Y-63832000D03*
%TD*%
D12*
%TO.C,J15*%
X130556000Y-64008000D03*
D13*
X130556000Y-66548000D03*
X130556000Y-69088000D03*
X130556000Y-71628000D03*
%TD*%
D12*
%TO.C,J16*%
X126844000Y-64008000D03*
D13*
X126844000Y-66548000D03*
X126844000Y-69088000D03*
X126844000Y-71628000D03*
%TD*%
D12*
%TO.C,J10*%
X162052000Y-92456000D03*
D13*
X162052000Y-94996000D03*
X159512000Y-92456000D03*
X159512000Y-94996000D03*
X156972000Y-92456000D03*
X156972000Y-94996000D03*
X154432000Y-92456000D03*
X154432000Y-94996000D03*
X151892000Y-92456000D03*
X151892000Y-94996000D03*
X149352000Y-92456000D03*
X149352000Y-94996000D03*
X146812000Y-92456000D03*
X146812000Y-94996000D03*
X144272000Y-92456000D03*
X144272000Y-94996000D03*
X141732000Y-92456000D03*
X141732000Y-94996000D03*
X139192000Y-92456000D03*
X139192000Y-94996000D03*
X136652000Y-92456000D03*
X136652000Y-94996000D03*
X134112000Y-92456000D03*
X134112000Y-94996000D03*
X131572000Y-92456000D03*
X131572000Y-94996000D03*
X129032000Y-92456000D03*
X129032000Y-94996000D03*
X126492000Y-92456000D03*
X126492000Y-94996000D03*
X123952000Y-92456000D03*
X123952000Y-94996000D03*
X121412000Y-92456000D03*
X121412000Y-94996000D03*
X118872000Y-92456000D03*
X118872000Y-94996000D03*
X116332000Y-92456000D03*
X116332000Y-94996000D03*
X113792000Y-92456000D03*
X113792000Y-94996000D03*
%TD*%
D12*
%TO.C,J1*%
X172212000Y-73152000D03*
D13*
X174752000Y-73152000D03*
X177292000Y-73152000D03*
X179832000Y-73152000D03*
X182372000Y-73152000D03*
%TD*%
%LPD*%
M02*
