%TF.GenerationSoftware,KiCad,Pcbnew,8.0.4*%
%TF.CreationDate,2025-08-25T15:50:40-04:00*%
%TF.ProjectId,zephyrus_fc,7a657068-7972-4757-935f-66632e6b6963,V1.0*%
%TF.SameCoordinates,Original*%
%TF.FileFunction,Soldermask,Bot*%
%TF.FilePolarity,Negative*%
%FSLAX46Y46*%
G04 Gerber Fmt 4.6, Leading zero omitted, Abs format (unit mm)*
G04 Created by KiCad (PCBNEW 8.0.4) date 2025-08-25 15:50:40*
%MOMM*%
%LPD*%
G01*
G04 APERTURE LIST*
%ADD10R,1.700000X1.700000*%
%ADD11O,1.700000X1.700000*%
%ADD12C,3.200000*%
%ADD13O,2.000000X1.100000*%
%ADD14O,1.800000X1.200000*%
G04 APERTURE END LIST*
D10*
%TO.C,J5*%
X192024000Y-63852000D03*
D11*
X189484000Y-63852000D03*
X186944000Y-63852000D03*
%TD*%
D12*
%TO.C,H2*%
X191262000Y-92456000D03*
%TD*%
D10*
%TO.C,J4*%
X182372000Y-68482000D03*
D11*
X179832000Y-68482000D03*
X177292000Y-68482000D03*
%TD*%
D10*
%TO.C,J14*%
X192024000Y-86614000D03*
D11*
X189484000Y-86614000D03*
%TD*%
D10*
%TO.C,J8*%
X192024000Y-77802000D03*
D11*
X189484000Y-77802000D03*
X186944000Y-77802000D03*
%TD*%
D10*
%TO.C,J13*%
X123190000Y-64008000D03*
D11*
X123190000Y-66548000D03*
X123190000Y-69088000D03*
X123190000Y-71628000D03*
X123190000Y-74168000D03*
X123190000Y-76708000D03*
%TD*%
D10*
%TO.C,J12*%
X119380000Y-64008000D03*
D11*
X119380000Y-66548000D03*
X119380000Y-69088000D03*
X119380000Y-71628000D03*
X119380000Y-74168000D03*
X119380000Y-76708000D03*
%TD*%
D10*
%TO.C,J6*%
X192024000Y-68502000D03*
D11*
X189484000Y-68502000D03*
X186944000Y-68502000D03*
%TD*%
D10*
%TO.C,J11*%
X123952000Y-57912000D03*
D11*
X123952000Y-55372000D03*
X126492000Y-57912000D03*
X126492000Y-55372000D03*
X129032000Y-57912000D03*
X129032000Y-55372000D03*
X131572000Y-57912000D03*
X131572000Y-55372000D03*
%TD*%
D12*
%TO.C,H1*%
X191262000Y-57912000D03*
%TD*%
D13*
%TO.C,USB1*%
X109610000Y-70852000D03*
D14*
X105410000Y-70852000D03*
D13*
X109610000Y-79502000D03*
D14*
X105410000Y-79502000D03*
%TD*%
D10*
%TO.C,J17*%
X185166000Y-85852000D03*
D11*
X185166000Y-83312000D03*
%TD*%
D10*
%TO.C,J7*%
X192024000Y-73152000D03*
D11*
X189484000Y-73152000D03*
X186944000Y-73152000D03*
%TD*%
D12*
%TO.C,H3*%
X107188000Y-57912000D03*
%TD*%
D10*
%TO.C,J9*%
X183642000Y-55372000D03*
D11*
X183642000Y-57912000D03*
X181102000Y-55372000D03*
X181102000Y-57912000D03*
X178562000Y-55372000D03*
X178562000Y-57912000D03*
X176022000Y-55372000D03*
X176022000Y-57912000D03*
X173482000Y-55372000D03*
X173482000Y-57912000D03*
X170942000Y-55372000D03*
X170942000Y-57912000D03*
X168402000Y-55372000D03*
X168402000Y-57912000D03*
X165862000Y-55372000D03*
X165862000Y-57912000D03*
X163322000Y-55372000D03*
X163322000Y-57912000D03*
X160782000Y-55372000D03*
X160782000Y-57912000D03*
X158242000Y-55372000D03*
X158242000Y-57912000D03*
X155702000Y-55372000D03*
X155702000Y-57912000D03*
X153162000Y-55372000D03*
X153162000Y-57912000D03*
X150622000Y-55372000D03*
X150622000Y-57912000D03*
X148082000Y-55372000D03*
X148082000Y-57912000D03*
X145542000Y-55372000D03*
X145542000Y-57912000D03*
X143002000Y-55372000D03*
X143002000Y-57912000D03*
X140462000Y-55372000D03*
X140462000Y-57912000D03*
X137922000Y-55372000D03*
X137922000Y-57912000D03*
X135382000Y-55372000D03*
X135382000Y-57912000D03*
%TD*%
D12*
%TO.C,H4*%
X107188000Y-92456000D03*
%TD*%
D10*
%TO.C,J2*%
X192024000Y-82296000D03*
D11*
X189484000Y-82296000D03*
%TD*%
D10*
%TO.C,J3*%
X182372000Y-63832000D03*
D11*
X179832000Y-63832000D03*
X177292000Y-63832000D03*
%TD*%
D10*
%TO.C,J15*%
X130556000Y-64008000D03*
D11*
X130556000Y-66548000D03*
X130556000Y-69088000D03*
X130556000Y-71628000D03*
%TD*%
D10*
%TO.C,J16*%
X126844000Y-64008000D03*
D11*
X126844000Y-66548000D03*
X126844000Y-69088000D03*
X126844000Y-71628000D03*
%TD*%
D10*
%TO.C,J10*%
X162052000Y-92456000D03*
D11*
X162052000Y-94996000D03*
X159512000Y-92456000D03*
X159512000Y-94996000D03*
X156972000Y-92456000D03*
X156972000Y-94996000D03*
X154432000Y-92456000D03*
X154432000Y-94996000D03*
X151892000Y-92456000D03*
X151892000Y-94996000D03*
X149352000Y-92456000D03*
X149352000Y-94996000D03*
X146812000Y-92456000D03*
X146812000Y-94996000D03*
X144272000Y-92456000D03*
X144272000Y-94996000D03*
X141732000Y-92456000D03*
X141732000Y-94996000D03*
X139192000Y-92456000D03*
X139192000Y-94996000D03*
X136652000Y-92456000D03*
X136652000Y-94996000D03*
X134112000Y-92456000D03*
X134112000Y-94996000D03*
X131572000Y-92456000D03*
X131572000Y-94996000D03*
X129032000Y-92456000D03*
X129032000Y-94996000D03*
X126492000Y-92456000D03*
X126492000Y-94996000D03*
X123952000Y-92456000D03*
X123952000Y-94996000D03*
X121412000Y-92456000D03*
X121412000Y-94996000D03*
X118872000Y-92456000D03*
X118872000Y-94996000D03*
X116332000Y-92456000D03*
X116332000Y-94996000D03*
X113792000Y-92456000D03*
X113792000Y-94996000D03*
%TD*%
D10*
%TO.C,J1*%
X172212000Y-73152000D03*
D11*
X174752000Y-73152000D03*
X177292000Y-73152000D03*
X179832000Y-73152000D03*
X182372000Y-73152000D03*
%TD*%
M02*
