%TF.GenerationSoftware,KiCad,Pcbnew,8.0.4*%
%TF.CreationDate,2025-08-25T15:50:40-04:00*%
%TF.ProjectId,zephyrus_fc,7a657068-7972-4757-935f-66632e6b6963,V1.0*%
%TF.SameCoordinates,Original*%
%TF.FileFunction,Paste,Top*%
%TF.FilePolarity,Positive*%
%FSLAX46Y46*%
G04 Gerber Fmt 4.6, Leading zero omitted, Abs format (unit mm)*
G04 Created by KiCad (PCBNEW 8.0.4) date 2025-08-25 15:50:40*
%MOMM*%
%LPD*%
G01*
G04 APERTURE LIST*
G04 Aperture macros list*
%AMRoundRect*
0 Rectangle with rounded corners*
0 $1 Rounding radius*
0 $2 $3 $4 $5 $6 $7 $8 $9 X,Y pos of 4 corners*
0 Add a 4 corners polygon primitive as box body*
4,1,4,$2,$3,$4,$5,$6,$7,$8,$9,$2,$3,0*
0 Add four circle primitives for the rounded corners*
1,1,$1+$1,$2,$3*
1,1,$1+$1,$4,$5*
1,1,$1+$1,$6,$7*
1,1,$1+$1,$8,$9*
0 Add four rect primitives between the rounded corners*
20,1,$1+$1,$2,$3,$4,$5,0*
20,1,$1+$1,$4,$5,$6,$7,0*
20,1,$1+$1,$6,$7,$8,$9,0*
20,1,$1+$1,$8,$9,$2,$3,0*%
G04 Aperture macros list end*
%ADD10C,0.000000*%
%ADD11RoundRect,0.140000X-0.170000X0.140000X-0.170000X-0.140000X0.170000X-0.140000X0.170000X0.140000X0*%
%ADD12R,0.300000X0.500000*%
%ADD13R,0.500000X0.300000*%
%ADD14RoundRect,0.140000X-0.140000X-0.170000X0.140000X-0.170000X0.140000X0.170000X-0.140000X0.170000X0*%
%ADD15RoundRect,0.140000X0.140000X0.170000X-0.140000X0.170000X-0.140000X-0.170000X0.140000X-0.170000X0*%
%ADD16R,1.360000X1.230000*%
%ADD17R,1.500000X0.280000*%
%ADD18R,0.280000X1.500000*%
%ADD19R,0.250000X0.800000*%
%ADD20R,0.800000X0.250000*%
%ADD21RoundRect,0.135000X-0.185000X0.135000X-0.185000X-0.135000X0.185000X-0.135000X0.185000X0.135000X0*%
%ADD22RoundRect,0.135000X-0.135000X-0.185000X0.135000X-0.185000X0.135000X0.185000X-0.135000X0.185000X0*%
%ADD23R,1.100000X0.550000*%
%ADD24R,1.100000X0.300000*%
%ADD25RoundRect,0.140000X0.170000X-0.140000X0.170000X0.140000X-0.170000X0.140000X-0.170000X-0.140000X0*%
%ADD26R,0.675000X0.280000*%
%ADD27R,0.280000X0.675000*%
%ADD28R,0.700000X1.600000*%
%ADD29R,1.200000X1.500000*%
%ADD30R,1.200000X2.200000*%
%ADD31R,1.600000X1.500000*%
%ADD32RoundRect,0.135000X0.135000X0.185000X-0.135000X0.185000X-0.135000X-0.185000X0.135000X-0.185000X0*%
%ADD33RoundRect,0.218750X-0.218750X-0.256250X0.218750X-0.256250X0.218750X0.256250X-0.218750X0.256250X0*%
%ADD34R,2.470000X0.980000*%
%ADD35R,2.470000X3.600000*%
%ADD36R,1.200000X1.400000*%
G04 APERTURE END LIST*
D10*
%TO.C,USB1*%
G36*
X110710000Y-73577000D02*
G01*
X109610000Y-73577000D01*
X109610000Y-73277000D01*
X110710000Y-73277000D01*
X110710000Y-73577000D01*
G37*
G36*
X110710000Y-74077000D02*
G01*
X109610000Y-74077000D01*
X109610000Y-73777000D01*
X110710000Y-73777000D01*
X110710000Y-74077000D01*
G37*
G36*
X110710000Y-74577000D02*
G01*
X109610000Y-74577000D01*
X109610000Y-74277000D01*
X110710000Y-74277000D01*
X110710000Y-74577000D01*
G37*
G36*
X110710000Y-75077000D02*
G01*
X109610000Y-75077000D01*
X109610000Y-74777000D01*
X110710000Y-74777000D01*
X110710000Y-75077000D01*
G37*
G36*
X110710000Y-75577000D02*
G01*
X109610000Y-75577000D01*
X109610000Y-75277000D01*
X110710000Y-75277000D01*
X110710000Y-75577000D01*
G37*
G36*
X110710000Y-76077000D02*
G01*
X109610000Y-76077000D01*
X109610000Y-75777000D01*
X110710000Y-75777000D01*
X110710000Y-76077000D01*
G37*
G36*
X110710000Y-76577000D02*
G01*
X109610000Y-76577000D01*
X109610000Y-76277000D01*
X110710000Y-76277000D01*
X110710000Y-76577000D01*
G37*
G36*
X110710000Y-78677000D02*
G01*
X109610000Y-78677000D01*
X109610000Y-78077000D01*
X110710000Y-78077000D01*
X110710000Y-78677000D01*
G37*
G36*
X110710000Y-72277000D02*
G01*
X109610000Y-72277000D01*
X109610000Y-71677000D01*
X110710000Y-71677000D01*
X110710000Y-72277000D01*
G37*
G36*
X110710000Y-73077000D02*
G01*
X109610000Y-73077000D01*
X109610000Y-72477000D01*
X110710000Y-72477000D01*
X110710000Y-73077000D01*
G37*
G36*
X110710000Y-77077000D02*
G01*
X109610000Y-77077000D01*
X109610000Y-76777000D01*
X110710000Y-76777000D01*
X110710000Y-77077000D01*
G37*
G36*
X110710000Y-77877000D02*
G01*
X109610000Y-77877000D01*
X109610000Y-77277000D01*
X110710000Y-77277000D01*
X110710000Y-77877000D01*
G37*
G36*
X105590000Y-70253000D02*
G01*
X105619500Y-70255000D01*
X105649500Y-70258500D01*
X105679000Y-70264000D01*
X105708000Y-70270500D01*
X105737000Y-70278500D01*
X105765000Y-70288000D01*
X105793000Y-70299000D01*
X105820500Y-70311500D01*
X105847000Y-70325000D01*
X105873000Y-70340000D01*
X105898000Y-70356500D01*
X105922000Y-70373500D01*
X105945500Y-70392500D01*
X105968000Y-70412000D01*
X105989500Y-70433000D01*
X106010000Y-70455000D01*
X106029000Y-70478000D01*
X106047000Y-70502000D01*
X106064000Y-70526500D01*
X106079500Y-70552000D01*
X106094000Y-70578500D01*
X106107000Y-70605500D01*
X106118500Y-70633000D01*
X106128500Y-70661000D01*
X106137500Y-70689500D01*
X106145000Y-70718500D01*
X106151000Y-70748000D01*
X106155500Y-70777500D01*
X106158500Y-70807000D01*
X106160000Y-70837000D01*
X106160000Y-70867000D01*
X106158500Y-70897000D01*
X106155500Y-70926500D01*
X106151000Y-70956000D01*
X106145000Y-70985500D01*
X106137500Y-71014500D01*
X106128500Y-71043000D01*
X106118500Y-71071000D01*
X106107000Y-71099000D01*
X106094000Y-71126000D01*
X106079500Y-71152000D01*
X106064000Y-71177500D01*
X106047000Y-71202500D01*
X106029000Y-71226000D01*
X106010000Y-71249000D01*
X105989500Y-71271000D01*
X105968000Y-71292000D01*
X105945500Y-71311500D01*
X105922000Y-71330500D01*
X105898000Y-71347500D01*
X105873000Y-71364000D01*
X105847000Y-71379000D01*
X105820500Y-71392500D01*
X105793000Y-71405000D01*
X105765000Y-71416000D01*
X105737000Y-71425500D01*
X105708000Y-71433500D01*
X105679000Y-71440000D01*
X105649500Y-71445500D01*
X105619500Y-71449000D01*
X105590000Y-71451500D01*
X105560000Y-71452000D01*
X105260000Y-71452000D01*
X105230000Y-71451500D01*
X105200000Y-71449000D01*
X105170500Y-71445500D01*
X105141000Y-71440000D01*
X105112000Y-71433500D01*
X105083000Y-71425500D01*
X105055000Y-71416000D01*
X105027000Y-71405000D01*
X104999500Y-71392500D01*
X104973000Y-71379000D01*
X104947000Y-71364000D01*
X104922000Y-71347500D01*
X104897500Y-71330500D01*
X104874500Y-71311500D01*
X104852000Y-71292000D01*
X104830500Y-71271000D01*
X104810000Y-71249000D01*
X104791000Y-71226000D01*
X104773000Y-71202500D01*
X104756000Y-71177500D01*
X104740500Y-71152000D01*
X104726000Y-71126000D01*
X104713000Y-71099000D01*
X104701500Y-71071000D01*
X104691000Y-71043000D01*
X104682500Y-71014500D01*
X104675000Y-70985500D01*
X104669000Y-70956000D01*
X104664500Y-70926500D01*
X104661500Y-70897000D01*
X104660000Y-70867000D01*
X104660000Y-70837000D01*
X104661500Y-70807000D01*
X104664500Y-70777500D01*
X104669000Y-70748000D01*
X104675000Y-70718500D01*
X104682500Y-70689500D01*
X104691000Y-70661000D01*
X104701500Y-70633000D01*
X104713000Y-70605500D01*
X104726000Y-70578500D01*
X104740500Y-70552000D01*
X104756000Y-70526500D01*
X104773000Y-70502000D01*
X104791000Y-70478000D01*
X104810000Y-70455000D01*
X104830500Y-70433000D01*
X104852000Y-70412000D01*
X104874500Y-70392500D01*
X104897500Y-70373500D01*
X104922000Y-70356500D01*
X104947000Y-70340000D01*
X104973000Y-70325000D01*
X104999500Y-70311500D01*
X105027000Y-70299000D01*
X105055000Y-70288000D01*
X105083000Y-70278500D01*
X105112000Y-70270500D01*
X105141000Y-70264000D01*
X105170500Y-70258500D01*
X105200000Y-70255000D01*
X105230000Y-70253000D01*
X105260000Y-70252000D01*
X105560000Y-70252000D01*
X105590000Y-70253000D01*
G37*
G36*
X105590000Y-78902500D02*
G01*
X105619500Y-78905000D01*
X105649500Y-78908500D01*
X105679000Y-78914000D01*
X105708000Y-78920500D01*
X105737000Y-78928500D01*
X105765000Y-78938000D01*
X105793000Y-78949000D01*
X105820500Y-78961500D01*
X105847000Y-78975000D01*
X105873000Y-78990000D01*
X105898000Y-79006500D01*
X105922000Y-79023500D01*
X105945500Y-79042500D01*
X105968000Y-79062000D01*
X105989500Y-79083000D01*
X106010000Y-79105000D01*
X106029000Y-79128000D01*
X106047000Y-79151500D01*
X106064000Y-79176500D01*
X106079500Y-79202000D01*
X106094000Y-79228000D01*
X106107000Y-79255000D01*
X106118500Y-79283000D01*
X106128500Y-79311000D01*
X106137500Y-79339500D01*
X106145000Y-79368500D01*
X106151000Y-79398000D01*
X106155500Y-79427500D01*
X106158500Y-79457000D01*
X106160000Y-79487000D01*
X106160000Y-79517000D01*
X106158500Y-79547000D01*
X106155500Y-79576500D01*
X106151000Y-79606000D01*
X106145000Y-79635500D01*
X106137500Y-79664500D01*
X106128500Y-79693000D01*
X106118500Y-79721000D01*
X106107000Y-79748500D01*
X106094000Y-79775500D01*
X106079500Y-79802000D01*
X106064000Y-79827500D01*
X106047000Y-79852000D01*
X106029000Y-79876000D01*
X106010000Y-79899000D01*
X105989500Y-79921000D01*
X105968000Y-79942000D01*
X105945500Y-79961500D01*
X105922000Y-79980500D01*
X105898000Y-79997500D01*
X105873000Y-80014000D01*
X105847000Y-80029000D01*
X105820500Y-80042500D01*
X105793000Y-80055000D01*
X105765000Y-80066000D01*
X105737000Y-80075500D01*
X105708000Y-80083500D01*
X105679000Y-80090000D01*
X105649500Y-80095500D01*
X105619500Y-80099000D01*
X105590000Y-80101000D01*
X105560000Y-80102000D01*
X105260000Y-80102000D01*
X105230000Y-80101000D01*
X105200000Y-80099000D01*
X105170500Y-80095500D01*
X105141000Y-80090000D01*
X105112000Y-80083500D01*
X105083000Y-80075500D01*
X105055000Y-80066000D01*
X105027000Y-80055000D01*
X104999500Y-80042500D01*
X104973000Y-80029000D01*
X104947000Y-80014000D01*
X104922000Y-79997500D01*
X104897500Y-79980500D01*
X104874500Y-79961500D01*
X104852000Y-79942000D01*
X104830500Y-79921000D01*
X104810000Y-79899000D01*
X104791000Y-79876000D01*
X104773000Y-79852000D01*
X104756000Y-79827500D01*
X104740500Y-79802000D01*
X104726000Y-79775500D01*
X104713000Y-79748500D01*
X104701500Y-79721000D01*
X104691000Y-79693000D01*
X104682500Y-79664500D01*
X104675000Y-79635500D01*
X104669000Y-79606000D01*
X104664500Y-79576500D01*
X104661500Y-79547000D01*
X104660000Y-79517000D01*
X104660000Y-79487000D01*
X104661500Y-79457000D01*
X104664500Y-79427500D01*
X104669000Y-79398000D01*
X104675000Y-79368500D01*
X104682500Y-79339500D01*
X104691000Y-79311000D01*
X104701500Y-79283000D01*
X104713000Y-79255000D01*
X104726000Y-79228000D01*
X104740500Y-79202000D01*
X104756000Y-79176500D01*
X104773000Y-79151500D01*
X104791000Y-79128000D01*
X104810000Y-79105000D01*
X104830500Y-79083000D01*
X104852000Y-79062000D01*
X104874500Y-79042500D01*
X104897500Y-79023500D01*
X104922000Y-79006500D01*
X104947000Y-78990000D01*
X104973000Y-78975000D01*
X104999500Y-78961500D01*
X105027000Y-78949000D01*
X105055000Y-78938000D01*
X105083000Y-78928500D01*
X105112000Y-78920500D01*
X105141000Y-78914000D01*
X105170500Y-78908500D01*
X105200000Y-78905000D01*
X105230000Y-78902500D01*
X105260000Y-78902000D01*
X105560000Y-78902000D01*
X105590000Y-78902500D01*
G37*
G36*
X110040000Y-78902500D02*
G01*
X110070000Y-78905000D01*
X110099500Y-78908500D01*
X110129000Y-78914000D01*
X110158000Y-78920500D01*
X110187000Y-78928500D01*
X110215500Y-78938000D01*
X110243000Y-78949000D01*
X110270500Y-78961500D01*
X110297000Y-78975000D01*
X110323000Y-78990000D01*
X110348000Y-79006500D01*
X110372500Y-79023500D01*
X110396000Y-79042500D01*
X110418000Y-79062000D01*
X110439500Y-79083000D01*
X110460000Y-79105000D01*
X110479000Y-79128000D01*
X110497500Y-79151500D01*
X110514000Y-79176500D01*
X110529500Y-79202000D01*
X110544000Y-79228000D01*
X110557000Y-79255000D01*
X110568500Y-79283000D01*
X110579000Y-79311000D01*
X110587500Y-79339500D01*
X110595000Y-79368500D01*
X110601000Y-79398000D01*
X110605500Y-79427500D01*
X110608500Y-79457000D01*
X110610000Y-79487000D01*
X110610000Y-79517000D01*
X110608500Y-79547000D01*
X110605500Y-79576500D01*
X110601000Y-79606000D01*
X110595000Y-79635500D01*
X110587500Y-79664500D01*
X110579000Y-79693000D01*
X110568500Y-79721000D01*
X110557000Y-79748500D01*
X110544000Y-79775500D01*
X110529500Y-79802000D01*
X110514000Y-79827500D01*
X110497500Y-79852000D01*
X110479000Y-79876000D01*
X110460000Y-79899000D01*
X110439500Y-79921000D01*
X110418000Y-79942000D01*
X110396000Y-79961500D01*
X110372500Y-79980500D01*
X110348000Y-79997500D01*
X110323000Y-80014000D01*
X110297000Y-80029000D01*
X110270500Y-80042500D01*
X110243000Y-80055000D01*
X110215500Y-80066000D01*
X110187000Y-80075500D01*
X110158000Y-80083500D01*
X110129000Y-80090000D01*
X110099500Y-80095500D01*
X110070000Y-80099000D01*
X110040000Y-80101000D01*
X110010000Y-80102000D01*
X109210000Y-80102000D01*
X109180000Y-80101000D01*
X109150500Y-80099000D01*
X109120500Y-80095500D01*
X109091000Y-80090000D01*
X109062000Y-80083500D01*
X109033500Y-80075500D01*
X109005000Y-80066000D01*
X108977000Y-80055000D01*
X108950000Y-80042500D01*
X108923000Y-80029000D01*
X108897500Y-80014000D01*
X108872000Y-79997500D01*
X108848000Y-79980500D01*
X108824500Y-79961500D01*
X108802000Y-79942000D01*
X108780500Y-79921000D01*
X108760500Y-79899000D01*
X108741000Y-79876000D01*
X108723000Y-79852000D01*
X108706000Y-79827500D01*
X108690500Y-79802000D01*
X108676000Y-79775500D01*
X108663000Y-79748500D01*
X108651500Y-79721000D01*
X108641500Y-79693000D01*
X108632500Y-79664500D01*
X108625000Y-79635500D01*
X108619000Y-79606000D01*
X108615000Y-79576500D01*
X108612000Y-79547000D01*
X108610500Y-79517000D01*
X108610500Y-79487000D01*
X108612000Y-79457000D01*
X108615000Y-79427500D01*
X108619000Y-79398000D01*
X108625000Y-79368500D01*
X108632500Y-79339500D01*
X108641500Y-79311000D01*
X108651500Y-79283000D01*
X108663000Y-79255000D01*
X108676000Y-79228000D01*
X108690500Y-79202000D01*
X108706000Y-79176500D01*
X108723000Y-79151500D01*
X108741000Y-79128000D01*
X108760500Y-79105000D01*
X108780500Y-79083000D01*
X108802000Y-79062000D01*
X108824500Y-79042500D01*
X108848000Y-79023500D01*
X108872000Y-79006500D01*
X108897500Y-78990000D01*
X108923000Y-78975000D01*
X108950000Y-78961500D01*
X108977000Y-78949000D01*
X109005000Y-78938000D01*
X109033500Y-78928500D01*
X109062000Y-78920500D01*
X109091000Y-78914000D01*
X109120500Y-78908500D01*
X109150500Y-78905000D01*
X109180000Y-78902500D01*
X109210000Y-78902000D01*
X110010000Y-78902000D01*
X110040000Y-78902500D01*
G37*
G36*
X110040000Y-70253000D02*
G01*
X110070000Y-70255000D01*
X110099500Y-70258500D01*
X110129000Y-70264000D01*
X110158000Y-70270500D01*
X110187000Y-70278500D01*
X110215500Y-70288000D01*
X110243000Y-70299000D01*
X110270500Y-70311500D01*
X110297000Y-70325000D01*
X110323000Y-70340000D01*
X110348000Y-70356500D01*
X110372500Y-70373500D01*
X110396000Y-70392500D01*
X110418000Y-70412000D01*
X110439500Y-70433000D01*
X110460000Y-70455000D01*
X110479000Y-70478000D01*
X110497500Y-70502000D01*
X110514000Y-70526500D01*
X110529500Y-70552000D01*
X110544000Y-70578500D01*
X110557000Y-70605500D01*
X110568500Y-70633000D01*
X110579000Y-70661000D01*
X110587500Y-70689500D01*
X110595000Y-70718500D01*
X110601000Y-70748000D01*
X110605500Y-70777500D01*
X110608500Y-70807000D01*
X110610000Y-70837000D01*
X110610000Y-70867000D01*
X110608500Y-70897000D01*
X110605500Y-70926500D01*
X110601000Y-70956000D01*
X110595000Y-70985500D01*
X110587500Y-71014500D01*
X110579000Y-71043000D01*
X110568500Y-71071000D01*
X110557000Y-71099000D01*
X110544000Y-71126000D01*
X110529500Y-71152000D01*
X110514000Y-71177500D01*
X110497500Y-71202500D01*
X110479000Y-71226000D01*
X110460000Y-71249000D01*
X110439500Y-71271000D01*
X110418000Y-71292000D01*
X110396000Y-71311500D01*
X110372500Y-71330500D01*
X110348000Y-71347500D01*
X110323000Y-71364000D01*
X110297000Y-71379000D01*
X110270500Y-71392500D01*
X110243000Y-71405000D01*
X110215500Y-71416000D01*
X110187000Y-71425500D01*
X110158000Y-71433500D01*
X110129000Y-71440000D01*
X110099500Y-71445500D01*
X110070000Y-71449000D01*
X110040000Y-71451500D01*
X110010000Y-71452000D01*
X109210000Y-71452000D01*
X109180000Y-71451500D01*
X109150500Y-71449000D01*
X109120500Y-71445500D01*
X109091000Y-71440000D01*
X109062000Y-71433500D01*
X109033500Y-71425500D01*
X109005000Y-71416000D01*
X108977000Y-71405000D01*
X108950000Y-71392500D01*
X108923000Y-71379000D01*
X108897500Y-71364000D01*
X108872000Y-71347500D01*
X108848000Y-71330500D01*
X108824500Y-71311500D01*
X108802000Y-71292000D01*
X108780500Y-71271000D01*
X108760500Y-71249000D01*
X108741000Y-71226000D01*
X108723000Y-71202500D01*
X108706000Y-71177500D01*
X108690500Y-71152000D01*
X108676000Y-71126000D01*
X108663000Y-71099000D01*
X108651500Y-71071000D01*
X108641500Y-71043000D01*
X108632500Y-71014500D01*
X108625000Y-70985500D01*
X108619000Y-70956000D01*
X108615000Y-70926500D01*
X108612000Y-70897000D01*
X108610500Y-70867000D01*
X108610500Y-70837000D01*
X108612000Y-70807000D01*
X108615000Y-70777500D01*
X108619000Y-70748000D01*
X108625000Y-70718500D01*
X108632500Y-70689500D01*
X108641500Y-70661000D01*
X108651500Y-70633000D01*
X108663000Y-70605500D01*
X108676000Y-70578500D01*
X108690500Y-70552000D01*
X108706000Y-70526500D01*
X108723000Y-70502000D01*
X108741000Y-70478000D01*
X108760500Y-70455000D01*
X108780500Y-70433000D01*
X108802000Y-70412000D01*
X108824500Y-70392500D01*
X108848000Y-70373500D01*
X108872000Y-70356500D01*
X108897500Y-70340000D01*
X108923000Y-70325000D01*
X108950000Y-70311500D01*
X108977000Y-70299000D01*
X109005000Y-70288000D01*
X109033500Y-70278500D01*
X109062000Y-70270500D01*
X109091000Y-70264000D01*
X109120500Y-70258500D01*
X109150500Y-70255000D01*
X109180000Y-70253000D01*
X109210000Y-70252000D01*
X110010000Y-70252000D01*
X110040000Y-70253000D01*
G37*
%TD*%
D11*
%TO.C,C15*%
X160274000Y-61496000D03*
X160274000Y-62456000D03*
%TD*%
D12*
%TO.C,U6*%
X156861000Y-81425000D03*
X156361000Y-81425000D03*
D13*
X155742000Y-81796000D03*
X155742000Y-82296000D03*
X155742000Y-82796000D03*
D12*
X156361000Y-83167000D03*
X156861000Y-83167000D03*
D13*
X157480000Y-82796000D03*
X157480000Y-82296000D03*
X157480000Y-81796000D03*
%TD*%
D14*
%TO.C,C19*%
X132898000Y-66294000D03*
X133858000Y-66294000D03*
%TD*%
D15*
%TO.C,C18*%
X133858000Y-65024000D03*
X132898000Y-65024000D03*
%TD*%
D14*
%TO.C,C20*%
X132898000Y-67564000D03*
X133858000Y-67564000D03*
%TD*%
%TO.C,C9*%
X156516000Y-76682000D03*
X157476000Y-76682000D03*
%TD*%
D16*
%TO.C,SW1*%
X162306000Y-84683000D03*
X162306000Y-89053000D03*
%TD*%
D14*
%TO.C,C27*%
X171732000Y-78994000D03*
X172692000Y-78994000D03*
%TD*%
%TO.C,C24*%
X113126365Y-62998544D03*
X114086365Y-62998544D03*
%TD*%
%TO.C,C17*%
X158552000Y-81534000D03*
X159512000Y-81534000D03*
%TD*%
D17*
%TO.C,U1*%
X154482000Y-80904000D03*
X154482000Y-80404000D03*
X154482000Y-79904000D03*
X154482000Y-79404000D03*
X154482000Y-78904000D03*
X154482000Y-78404000D03*
X154482000Y-77904000D03*
X154482000Y-77404000D03*
X154482000Y-76904000D03*
X154482000Y-76404000D03*
X154482000Y-75904000D03*
X154482000Y-75404000D03*
X154482000Y-74904000D03*
X154482000Y-74404000D03*
X154482000Y-73904000D03*
X154482000Y-73404000D03*
X154482000Y-72904000D03*
X154482000Y-72404000D03*
X154482000Y-71904000D03*
X154482000Y-71404000D03*
X154482000Y-70904000D03*
X154482000Y-70404000D03*
X154482000Y-69904000D03*
X154482000Y-69404000D03*
X154482000Y-68904000D03*
D18*
X152582000Y-67004000D03*
X152082000Y-67004000D03*
X151582000Y-67004000D03*
X151082000Y-67004000D03*
X150582000Y-67004000D03*
X150082000Y-67004000D03*
X149582000Y-67004000D03*
X149082000Y-67004000D03*
X148582000Y-67004000D03*
X148082000Y-67004000D03*
X147582000Y-67004000D03*
X147082000Y-67004000D03*
X146582000Y-67004000D03*
X146082000Y-67004000D03*
X145582000Y-67004000D03*
X145082000Y-67004000D03*
X144582000Y-67004000D03*
X144082000Y-67004000D03*
X143582000Y-67004000D03*
X143082000Y-67004000D03*
X142582000Y-67004000D03*
X142082000Y-67004000D03*
X141582000Y-67004000D03*
X141082000Y-67004000D03*
X140582000Y-67004000D03*
D17*
X138682000Y-68904000D03*
X138682000Y-69404000D03*
X138682000Y-69904000D03*
X138682000Y-70404000D03*
X138682000Y-70904000D03*
X138682000Y-71404000D03*
X138682000Y-71904000D03*
X138682000Y-72404000D03*
X138682000Y-72904000D03*
X138682000Y-73404000D03*
X138682000Y-73904000D03*
X138682000Y-74404000D03*
X138682000Y-74904000D03*
X138682000Y-75404000D03*
X138682000Y-75904000D03*
X138682000Y-76404000D03*
X138682000Y-76904000D03*
X138682000Y-77404000D03*
X138682000Y-77904000D03*
X138682000Y-78404000D03*
X138682000Y-78904000D03*
X138682000Y-79404000D03*
X138682000Y-79904000D03*
X138682000Y-80404000D03*
X138682000Y-80904000D03*
D18*
X140582000Y-82804000D03*
X141082000Y-82804000D03*
X141582000Y-82804000D03*
X142082000Y-82804000D03*
X142582000Y-82804000D03*
X143082000Y-82804000D03*
X143582000Y-82804000D03*
X144082000Y-82804000D03*
X144582000Y-82804000D03*
X145082000Y-82804000D03*
X145582000Y-82804000D03*
X146082000Y-82804000D03*
X146582000Y-82804000D03*
X147082000Y-82804000D03*
X147582000Y-82804000D03*
X148082000Y-82804000D03*
X148582000Y-82804000D03*
X149082000Y-82804000D03*
X149582000Y-82804000D03*
X150082000Y-82804000D03*
X150582000Y-82804000D03*
X151082000Y-82804000D03*
X151582000Y-82804000D03*
X152082000Y-82804000D03*
X152582000Y-82804000D03*
%TD*%
D19*
%TO.C,U2*%
X153718000Y-62370000D03*
X154218000Y-62370000D03*
X154718000Y-62370000D03*
X155218000Y-62370000D03*
X155718000Y-62370000D03*
X156218000Y-62370000D03*
X156718000Y-62370000D03*
D20*
X157131000Y-63570000D03*
D19*
X156718000Y-64770000D03*
X156218000Y-64770000D03*
X155718000Y-64770000D03*
X155218000Y-64770000D03*
X154718000Y-64770000D03*
X154218000Y-64770000D03*
X153718000Y-64770000D03*
D20*
X153301000Y-63570000D03*
%TD*%
D21*
%TO.C,R11*%
X119888000Y-57402000D03*
X119888000Y-58422000D03*
%TD*%
D22*
%TO.C,R2*%
X108708000Y-85344000D03*
X109728000Y-85344000D03*
%TD*%
D21*
%TO.C,R8*%
X113538000Y-57404000D03*
X113538000Y-58424000D03*
%TD*%
%TO.C,R13*%
X117348000Y-57402000D03*
X117348000Y-58422000D03*
%TD*%
D14*
%TO.C,C28*%
X158552000Y-82804000D03*
X159512000Y-82804000D03*
%TD*%
D23*
%TO.C,USB1*%
X110160000Y-71977000D03*
X110160000Y-72777000D03*
D24*
X110160000Y-73427000D03*
X110160000Y-73927000D03*
X110160000Y-74427000D03*
X110160000Y-74927000D03*
X110160000Y-75427000D03*
X110160000Y-75927000D03*
X110160000Y-76427000D03*
X110160000Y-76927000D03*
D23*
X110160000Y-77577000D03*
X110160000Y-78377000D03*
%TD*%
D15*
%TO.C,C26*%
X179324000Y-75438000D03*
X178364000Y-75438000D03*
%TD*%
D21*
%TO.C,R12*%
X118618000Y-57402000D03*
X118618000Y-58422000D03*
%TD*%
D11*
%TO.C,C14*%
X153694000Y-82778000D03*
X153694000Y-83738000D03*
%TD*%
D22*
%TO.C,R6*%
X178306000Y-76708000D03*
X179326000Y-76708000D03*
%TD*%
D25*
%TO.C,C6*%
X139954000Y-65252000D03*
X139954000Y-64292000D03*
%TD*%
D14*
%TO.C,C4*%
X156516000Y-77952000D03*
X157476000Y-77952000D03*
%TD*%
%TO.C,C22*%
X113098365Y-65538544D03*
X114058365Y-65538544D03*
%TD*%
D25*
%TO.C,C10*%
X141224000Y-65252000D03*
X141224000Y-64292000D03*
%TD*%
D26*
%TO.C,U3*%
X137668000Y-66539500D03*
X137668000Y-66039500D03*
X137668000Y-65539500D03*
X137668000Y-65039500D03*
D27*
X136906000Y-64777000D03*
X136406000Y-64777000D03*
X135906000Y-64777000D03*
D26*
X135144000Y-65039500D03*
X135144000Y-65539500D03*
X135144000Y-66039500D03*
X135144000Y-66539500D03*
D27*
X135906000Y-66802000D03*
X136406000Y-66802000D03*
X136906000Y-66802000D03*
%TD*%
D21*
%TO.C,R3*%
X112284500Y-80008000D03*
X112284500Y-81028000D03*
%TD*%
D15*
%TO.C,C2*%
X161187000Y-77825000D03*
X160227000Y-77825000D03*
%TD*%
D14*
%TO.C,C25*%
X113126365Y-64268544D03*
X114086365Y-64268544D03*
%TD*%
D11*
%TO.C,C16*%
X159004000Y-61496000D03*
X159004000Y-62456000D03*
%TD*%
D21*
%TO.C,R14*%
X116078000Y-57402000D03*
X116078000Y-58422000D03*
%TD*%
D28*
%TO.C,CARD1*%
X175986000Y-81228500D03*
X174886000Y-81228500D03*
X173786000Y-81228500D03*
X172686000Y-81228500D03*
X171586000Y-81228500D03*
X170486000Y-81228500D03*
X169386000Y-81228500D03*
X168286000Y-81228500D03*
D29*
X165986000Y-82228500D03*
D30*
X165986000Y-91828500D03*
X181486000Y-91828500D03*
D31*
X180586000Y-82228500D03*
D28*
X167186000Y-81228500D03*
%TD*%
D32*
%TO.C,R5*%
X179326000Y-77978000D03*
X178306000Y-77978000D03*
%TD*%
D33*
%TO.C,D1*%
X105609000Y-85344000D03*
X107184000Y-85344000D03*
%TD*%
D21*
%TO.C,R4*%
X113554500Y-80006000D03*
X113554500Y-81026000D03*
%TD*%
%TO.C,R7*%
X114808000Y-57404000D03*
X114808000Y-58424000D03*
%TD*%
D34*
%TO.C,U5*%
X110881365Y-67330544D03*
X110881365Y-65030544D03*
X110881365Y-62730544D03*
D35*
X105211365Y-65030544D03*
%TD*%
D14*
%TO.C,C11*%
X156516000Y-79222000D03*
X157476000Y-79222000D03*
%TD*%
D36*
%TO.C,X1*%
X159917000Y-73974000D03*
X159917000Y-76174000D03*
X161667000Y-76174000D03*
X161667000Y-73974000D03*
%TD*%
D14*
%TO.C,C5*%
X157508000Y-69850000D03*
X158468000Y-69850000D03*
%TD*%
%TO.C,C23*%
X113098365Y-66808544D03*
X114058365Y-66808544D03*
%TD*%
%TO.C,C7*%
X156464000Y-71120000D03*
X157424000Y-71120000D03*
%TD*%
D11*
%TO.C,C8*%
X153694000Y-66296000D03*
X153694000Y-67256000D03*
%TD*%
D14*
%TO.C,C3*%
X160227000Y-72364000D03*
X161187000Y-72364000D03*
%TD*%
D21*
%TO.C,R1*%
X159766000Y-85342000D03*
X159766000Y-86362000D03*
%TD*%
D15*
%TO.C,C13*%
X136676000Y-81000000D03*
X135716000Y-81000000D03*
%TD*%
%TO.C,C12*%
X136676000Y-79730000D03*
X135716000Y-79730000D03*
%TD*%
%TO.C,C1*%
X157452000Y-74168000D03*
X156492000Y-74168000D03*
%TD*%
M02*
