%TF.GenerationSoftware,KiCad,Pcbnew,8.0.4*%
%TF.CreationDate,2024-11-29T22:22:18-05:00*%
%TF.ProjectId,SRSFC,53525346-432e-46b6-9963-61645f706362,V1.0*%
%TF.SameCoordinates,Original*%
%TF.FileFunction,Copper,L4,Bot*%
%TF.FilePolarity,Positive*%
%FSLAX46Y46*%
G04 Gerber Fmt 4.6, Leading zero omitted, Abs format (unit mm)*
G04 Created by KiCad (PCBNEW 8.0.4) date 2024-11-29 22:22:18*
%MOMM*%
%LPD*%
G01*
G04 APERTURE LIST*
%TA.AperFunction,ComponentPad*%
%ADD10R,1.700000X1.700000*%
%TD*%
%TA.AperFunction,ComponentPad*%
%ADD11O,1.700000X1.700000*%
%TD*%
%TA.AperFunction,ComponentPad*%
%ADD12O,1.100000X2.000000*%
%TD*%
%TA.AperFunction,ComponentPad*%
%ADD13O,1.200000X1.800000*%
%TD*%
%TA.AperFunction,ComponentPad*%
%ADD14C,7.500000*%
%TD*%
%TA.AperFunction,ViaPad*%
%ADD15C,0.450000*%
%TD*%
%TA.AperFunction,ViaPad*%
%ADD16C,0.600000*%
%TD*%
%TA.AperFunction,Conductor*%
%ADD17C,0.200000*%
%TD*%
G04 APERTURE END LIST*
D10*
%TO.P,J6,1,Pin_1*%
%TO.N,GND*%
X147066000Y-101092000D03*
D11*
%TO.P,J6,2,Pin_2*%
%TO.N,VCC*%
X149606000Y-101092000D03*
%TO.P,J6,3,Pin_3*%
%TO.N,/servo_4*%
X152146000Y-101092000D03*
%TD*%
D10*
%TO.P,J1,1,Pin_1*%
%TO.N,/SWCLK*%
X134620000Y-112776000D03*
D11*
%TO.P,J1,2,Pin_2*%
%TO.N,/SWDIO*%
X137160000Y-112776000D03*
%TO.P,J1,3,Pin_3*%
%TO.N,GND*%
X139700000Y-112776000D03*
%TO.P,J1,4,Pin_4*%
%TO.N,+3.3V*%
X142240000Y-112776000D03*
%TO.P,J1,5,Pin_5*%
%TO.N,/boot0*%
X144780000Y-112776000D03*
%TD*%
D12*
%TO.P,USB1,13,SHELL*%
%TO.N,GND*%
X161297000Y-87241500D03*
D13*
X161297000Y-83041500D03*
D12*
%TO.P,USB1,14,SHELL*%
X152647000Y-87241500D03*
D13*
X152647000Y-83041500D03*
%TD*%
D10*
%TO.P,J8,1,Pin_1*%
%TO.N,GND*%
X121412000Y-93472000D03*
D11*
%TO.P,J8,2,Pin_2*%
%TO.N,VCC*%
X121412000Y-96012000D03*
%TO.P,J8,3,Pin_3*%
%TO.N,/IBUS_RX*%
X121412000Y-98552000D03*
%TD*%
D10*
%TO.P,J3,1,Pin_1*%
%TO.N,GND*%
X148590000Y-112776000D03*
D11*
%TO.P,J3,2,Pin_2*%
%TO.N,VCC*%
X151130000Y-112776000D03*
%TO.P,J3,3,Pin_3*%
%TO.N,/servo_1*%
X153670000Y-112776000D03*
%TD*%
D14*
%TO.P,H4,1*%
%TO.N,N/C*%
X166878000Y-110998000D03*
%TD*%
D10*
%TO.P,J7,1,Pin_1*%
%TO.N,GND*%
X147066000Y-97282000D03*
D11*
%TO.P,J7,2,Pin_2*%
%TO.N,VCC*%
X149606000Y-97282000D03*
%TO.P,J7,3,Pin_3*%
%TO.N,/servo_5*%
X152146000Y-97282000D03*
%TD*%
D10*
%TO.P,J5,1,Pin_1*%
%TO.N,GND*%
X147066000Y-104902000D03*
D11*
%TO.P,J5,2,Pin_2*%
%TO.N,VCC*%
X149606000Y-104902000D03*
%TO.P,J5,3,Pin_3*%
%TO.N,/servo_3*%
X152146000Y-104902000D03*
%TD*%
D10*
%TO.P,J2,1,Pin_1*%
%TO.N,GND*%
X157480000Y-112776000D03*
D11*
%TO.P,J2,2,Pin_2*%
%TO.N,VCC*%
X160020000Y-112776000D03*
%TD*%
D14*
%TO.P,H3,1*%
%TO.N,N/C*%
X122936000Y-110998000D03*
%TD*%
D10*
%TO.P,J4,1,Pin_1*%
%TO.N,GND*%
X154955000Y-108966000D03*
D11*
%TO.P,J4,2,Pin_2*%
%TO.N,VCC*%
X157495000Y-108966000D03*
%TO.P,J4,3,Pin_3*%
%TO.N,/servo_2*%
X160035000Y-108966000D03*
%TD*%
D14*
%TO.P,H2,1*%
%TO.N,N/C*%
X166878000Y-85852000D03*
%TD*%
%TO.P,H1,1*%
%TO.N,N/C*%
X122936000Y-85852000D03*
%TD*%
D15*
%TO.N,GND*%
X136652000Y-87376000D03*
X158690000Y-91500000D03*
X135382000Y-85852000D03*
X141986000Y-96012000D03*
X150876000Y-93726000D03*
X153162000Y-91186000D03*
X147320000Y-93726000D03*
X121666000Y-101092000D03*
D16*
X125222000Y-90678000D03*
D15*
X127762000Y-112268000D03*
X135382000Y-107950000D03*
X121412000Y-103124000D03*
X142494000Y-91440000D03*
X132334000Y-109474000D03*
X137414000Y-107950000D03*
X164846000Y-90678000D03*
X129032000Y-84328000D03*
X143002000Y-102108000D03*
X144780000Y-99060000D03*
X129032000Y-91186000D03*
X144018000Y-92202000D03*
X145796000Y-88138000D03*
X140716000Y-89154000D03*
X132842000Y-87630000D03*
X165172000Y-106100000D03*
X154432000Y-101854000D03*
X140520793Y-86175316D03*
X130556000Y-83820000D03*
X157734000Y-104902000D03*
%TO.N,+3.3V*%
X131572000Y-113792000D03*
X135636000Y-87376000D03*
X134366000Y-85852000D03*
X121412000Y-104140000D03*
X141478000Y-93472000D03*
X149098000Y-89662000D03*
X141732000Y-90678000D03*
X143002000Y-92202000D03*
X142748000Y-98044000D03*
X135128000Y-109474000D03*
X138430000Y-107950000D03*
X128016000Y-91186000D03*
X154432000Y-99314000D03*
X145288000Y-101854000D03*
X141986000Y-85598000D03*
X148082000Y-85852000D03*
D16*
X122682000Y-90678000D03*
D15*
%TO.N,/servo_3*%
X135890000Y-97536000D03*
%TO.N,/servo_4*%
X136652000Y-98298000D03*
%TO.N,/SWCLK*%
X139954000Y-104394000D03*
X138078122Y-109122122D03*
X133350000Y-109474000D03*
X140716000Y-106426000D03*
%TO.N,/SWDIO*%
X136906000Y-110490000D03*
X136017000Y-103251000D03*
%TO.N,/boot0*%
X131064000Y-108204000D03*
%TO.N,/servo_5*%
X133858000Y-103378000D03*
X138430000Y-97790000D03*
X131826000Y-103124000D03*
%TO.N,/SDIO_D0*%
X139414250Y-108743750D03*
X133096000Y-106934000D03*
%TO.N,/SDIO_D3*%
X158242000Y-98552000D03*
X137922000Y-102616000D03*
%TO.N,/USB-*%
X134874000Y-102616000D03*
X156972000Y-89408000D03*
%TO.N,/USB+*%
X135890000Y-102362000D03*
X155702000Y-89154000D03*
%TO.N,/SPI_CS_LSM*%
X143256000Y-100076000D03*
X141224000Y-98044000D03*
%TO.N,/SPI_SCK_BMP*%
X143510000Y-94742000D03*
X138176000Y-91186000D03*
%TO.N,/SDIO_CMD*%
X137541000Y-101219000D03*
X158242000Y-101219000D03*
%TO.N,/SPI_MISO_BMP*%
X137414000Y-91440000D03*
X144272000Y-96520000D03*
%TO.N,/SDIO_SCK*%
X158242000Y-100330000D03*
X138684000Y-101854000D03*
%TO.N,/SPI_MOSI_BMP*%
X143510000Y-96266000D03*
X136144000Y-91186000D03*
%TO.N,/SD_CD*%
X143764000Y-103632000D03*
X151384000Y-103124000D03*
D16*
%TO.N,/IBUS_RX*%
X127000000Y-91440000D03*
D15*
%TO.N,/SDIO_D2*%
X137922000Y-103632000D03*
X158242000Y-99441000D03*
%TO.N,/SPI_MISO_LSM*%
X137922000Y-96520000D03*
X142240000Y-102362000D03*
%TO.N,/SPI_SCK_LSM*%
X141669182Y-99563302D03*
X137668000Y-97282000D03*
D16*
%TO.N,VCC*%
X123952000Y-106172000D03*
D15*
X156068998Y-106172000D03*
%TO.N,/servo_1*%
X138176000Y-95758000D03*
%TD*%
D17*
%TO.N,/servo_3*%
X142553578Y-103241822D02*
X143523756Y-104212000D01*
X150667822Y-103423822D02*
X152146000Y-104902000D01*
X135890000Y-98552000D02*
X138612000Y-101274000D01*
X138612000Y-101274000D02*
X138924244Y-101274000D01*
X140892066Y-103241822D02*
X142553578Y-103241822D01*
X135890000Y-97536000D02*
X135890000Y-98552000D01*
X144004244Y-104212000D02*
X144792422Y-103423822D01*
X144792422Y-103423822D02*
X150667822Y-103423822D01*
X138924244Y-101274000D02*
X140892066Y-103241822D01*
X143523756Y-104212000D02*
X144004244Y-104212000D01*
%TO.N,/servo_4*%
X136652000Y-98298000D02*
X136652000Y-98552000D01*
X143106066Y-102824178D02*
X150413822Y-102824178D01*
X150413822Y-102824178D02*
X152146000Y-101092000D01*
X141042000Y-102942000D02*
X142988244Y-102942000D01*
X142988244Y-102942000D02*
X143106066Y-102824178D01*
X136652000Y-98552000D02*
X141042000Y-102942000D01*
%TO.N,/SWCLK*%
X139954000Y-105664000D02*
X140716000Y-106426000D01*
X138078122Y-109122122D02*
X137850000Y-108894000D01*
X137850000Y-108894000D02*
X133930000Y-108894000D01*
X133930000Y-108894000D02*
X133350000Y-109474000D01*
X139954000Y-104394000D02*
X139954000Y-105664000D01*
%TO.N,/SWDIO*%
X135128000Y-106172000D02*
X133037756Y-106172000D01*
X133037756Y-106172000D02*
X131754000Y-107455756D01*
X131754000Y-109800000D02*
X132444000Y-110490000D01*
X132444000Y-110490000D02*
X136906000Y-110490000D01*
X136017000Y-105283000D02*
X135128000Y-106172000D01*
X136017000Y-103251000D02*
X136017000Y-105283000D01*
X131754000Y-107455756D02*
X131754000Y-109800000D01*
%TO.N,/boot0*%
X131064000Y-110236000D02*
X132454000Y-111626000D01*
X143630000Y-111626000D02*
X144780000Y-112776000D01*
X132454000Y-111626000D02*
X143630000Y-111626000D01*
X131064000Y-108204000D02*
X131064000Y-110236000D01*
%TO.N,/servo_5*%
X143275376Y-97699644D02*
X144943644Y-97699644D01*
X145676000Y-98432000D02*
X150996000Y-98432000D01*
X139354356Y-96865644D02*
X141033864Y-96865644D01*
X138430000Y-97790000D02*
X139354356Y-96865644D01*
X150996000Y-98432000D02*
X152146000Y-97282000D01*
X132080000Y-103378000D02*
X131826000Y-103124000D01*
X142949376Y-97373644D02*
X143275376Y-97699644D01*
X141033864Y-96865644D02*
X141541864Y-97373644D01*
X141541864Y-97373644D02*
X142949376Y-97373644D01*
X144943644Y-97699644D02*
X145676000Y-98432000D01*
X133858000Y-103378000D02*
X132080000Y-103378000D01*
%TO.N,/SDIO_D0*%
X139414250Y-108743750D02*
X138883994Y-108743750D01*
X138670244Y-108530000D02*
X134692000Y-108530000D01*
X134692000Y-108530000D02*
X133096000Y-106934000D01*
X138883994Y-108743750D02*
X138670244Y-108530000D01*
%TO.N,/SDIO_D3*%
X138249000Y-104903208D02*
X138249000Y-104125244D01*
X138249000Y-104125244D02*
X138502000Y-103872244D01*
X158242000Y-98552000D02*
X156527178Y-100266822D01*
X140956244Y-107006000D02*
X140351792Y-107006000D01*
X156527178Y-100266822D02*
X156527178Y-103566786D01*
X137922000Y-102811756D02*
X137922000Y-102616000D01*
X156527178Y-103566786D02*
X153512964Y-106581000D01*
X153512964Y-106581000D02*
X141381244Y-106581000D01*
X140351792Y-107006000D02*
X138249000Y-104903208D01*
X141381244Y-106581000D02*
X140956244Y-107006000D01*
X138502000Y-103872244D02*
X138502000Y-103391756D01*
X138502000Y-103391756D02*
X137922000Y-102811756D01*
%TO.N,/USB-*%
X141790244Y-96774000D02*
X143197756Y-96774000D01*
X138540434Y-94878178D02*
X139928256Y-96266000D01*
X155122000Y-88913756D02*
X155461756Y-88574000D01*
X149794054Y-95712178D02*
X155122000Y-90384232D01*
X156776244Y-89408000D02*
X156972000Y-89408000D01*
X134040000Y-97608000D02*
X136769822Y-94878178D01*
X155942244Y-88574000D02*
X156776244Y-89408000D01*
X155122000Y-90384232D02*
X155122000Y-88913756D01*
X139928256Y-96266000D02*
X141282244Y-96266000D01*
X134874000Y-102616000D02*
X134040000Y-101782000D01*
X145911810Y-95712178D02*
X149794054Y-95712178D01*
X155461756Y-88574000D02*
X155942244Y-88574000D01*
X134040000Y-101782000D02*
X134040000Y-97608000D01*
X144523988Y-97100000D02*
X145911810Y-95712178D01*
X141282244Y-96266000D02*
X141790244Y-96774000D01*
X143197756Y-96774000D02*
X143523756Y-97100000D01*
X143523756Y-97100000D02*
X144523988Y-97100000D01*
X136769822Y-94878178D02*
X138540434Y-94878178D01*
%TO.N,/USB+*%
X143399566Y-97399822D02*
X144648178Y-97399822D01*
X135890000Y-102362000D02*
X134620000Y-101092000D01*
X138416244Y-95178000D02*
X139804066Y-96565822D01*
X143073566Y-97073822D02*
X143399566Y-97399822D01*
X146036000Y-96012000D02*
X149918244Y-96012000D01*
X141666054Y-97073822D02*
X143073566Y-97073822D01*
X149918244Y-96012000D02*
X155702000Y-90228244D01*
X136894012Y-95178000D02*
X138416244Y-95178000D01*
X141158054Y-96565822D02*
X141666054Y-97073822D01*
X144648178Y-97399822D02*
X146036000Y-96012000D01*
X134620000Y-101092000D02*
X134620000Y-97452012D01*
X139804066Y-96565822D02*
X141158054Y-96565822D01*
X155702000Y-90228244D02*
X155702000Y-89154000D01*
X134620000Y-97452012D02*
X136894012Y-95178000D01*
%TO.N,/SPI_CS_LSM*%
X143256000Y-100076000D02*
X141224000Y-98044000D01*
%TO.N,/SPI_SCK_BMP*%
X141732000Y-94742000D02*
X138176000Y-91186000D01*
X143510000Y-94742000D02*
X141732000Y-94742000D01*
%TO.N,/SDIO_CMD*%
X139863914Y-107905466D02*
X137268000Y-105309552D01*
X157453822Y-102007178D02*
X157453822Y-103912178D01*
X137268000Y-105309552D02*
X137268000Y-104260692D01*
X137015000Y-104007692D02*
X137015000Y-101745000D01*
X137015000Y-101745000D02*
X137541000Y-101219000D01*
X153804000Y-107562000D02*
X141672280Y-107562000D01*
X137268000Y-104260692D02*
X137015000Y-104007692D01*
X158242000Y-101219000D02*
X157453822Y-102007178D01*
X157453822Y-103912178D02*
X153804000Y-107562000D01*
X141672280Y-107562000D02*
X141328814Y-107905466D01*
X141328814Y-107905466D02*
X139863914Y-107905466D01*
%TO.N,/SPI_MISO_BMP*%
X144272000Y-96207756D02*
X144272000Y-96520000D01*
X137414000Y-91440000D02*
X141015822Y-95041822D01*
X143750244Y-95686000D02*
X144272000Y-96207756D01*
X143354012Y-95686000D02*
X143750244Y-95686000D01*
X141015822Y-95041822D02*
X142709834Y-95041822D01*
X142709834Y-95041822D02*
X143354012Y-95686000D01*
%TO.N,/SDIO_SCK*%
X158183756Y-100330000D02*
X157154000Y-101359756D01*
X141575268Y-107235000D02*
X141204624Y-107605644D01*
X137595000Y-105174104D02*
X137595000Y-104125244D01*
X153706988Y-107235000D02*
X141575268Y-107235000D01*
X140026540Y-107605644D02*
X137595000Y-105174104D01*
X157154000Y-101359756D02*
X157154000Y-103787988D01*
X137595000Y-104125244D02*
X137342000Y-103872244D01*
X157154000Y-103787988D02*
X153706988Y-107235000D01*
X158242000Y-100330000D02*
X158183756Y-100330000D01*
X141204624Y-107605644D02*
X140026540Y-107605644D01*
X137342000Y-102375756D02*
X137863756Y-101854000D01*
X137863756Y-101854000D02*
X138684000Y-101854000D01*
X137342000Y-103872244D02*
X137342000Y-102375756D01*
%TO.N,/SPI_MOSI_BMP*%
X140390000Y-95432000D02*
X136144000Y-91186000D01*
X142676000Y-95432000D02*
X140390000Y-95432000D01*
X143510000Y-96266000D02*
X142676000Y-95432000D01*
%TO.N,/SD_CD*%
X144272000Y-103124000D02*
X143764000Y-103632000D01*
X151384000Y-103124000D02*
X144272000Y-103124000D01*
%TO.N,/IBUS_RX*%
X127000000Y-92964000D02*
X121412000Y-98552000D01*
X127000000Y-91440000D02*
X127000000Y-92964000D01*
%TO.N,/SDIO_D2*%
X137922000Y-105038656D02*
X137922000Y-103632000D01*
X156827000Y-103690976D02*
X153609976Y-106908000D01*
X153609976Y-106908000D02*
X141478256Y-106908000D01*
X141478256Y-106908000D02*
X141080434Y-107305822D01*
X158242000Y-99441000D02*
X156827000Y-100856000D01*
X140189166Y-107305822D02*
X137922000Y-105038656D01*
X156827000Y-100856000D02*
X156827000Y-103690976D01*
X141080434Y-107305822D02*
X140189166Y-107305822D01*
%TO.N,/SPI_MISO_LSM*%
X137922000Y-96520000D02*
X137609756Y-96520000D01*
X136906000Y-97510256D02*
X141757744Y-102362000D01*
X136906000Y-97223756D02*
X136906000Y-97510256D01*
X137609756Y-96520000D02*
X136906000Y-97223756D01*
X141757744Y-102362000D02*
X142240000Y-102362000D01*
%TO.N,/SPI_SCK_LSM*%
X140475880Y-98370000D02*
X138189756Y-98370000D01*
X138189756Y-98370000D02*
X137668000Y-97848244D01*
X141669182Y-99563302D02*
X140475880Y-98370000D01*
X137668000Y-97848244D02*
X137668000Y-97282000D01*
%TO.N,VCC*%
X124772244Y-106172000D02*
X132526244Y-113926000D01*
X132526244Y-113926000D02*
X149980000Y-113926000D01*
X157495000Y-107598002D02*
X156068998Y-106172000D01*
X123952000Y-106172000D02*
X124772244Y-106172000D01*
X157495000Y-108966000D02*
X157495000Y-107598002D01*
X149980000Y-113926000D02*
X151130000Y-112776000D01*
%TO.N,/servo_1*%
X139701288Y-108205288D02*
X141453004Y-108205288D01*
X138176000Y-95758000D02*
X136738024Y-95758000D01*
X141453004Y-108205288D02*
X141796470Y-107861822D01*
X136597000Y-105101000D02*
X139701288Y-108205288D01*
X141796470Y-107861822D02*
X153327822Y-107861822D01*
X136738024Y-95758000D02*
X135128000Y-97368024D01*
X135128000Y-100779756D02*
X136597000Y-102248756D01*
X136597000Y-102248756D02*
X136597000Y-105101000D01*
X135128000Y-97368024D02*
X135128000Y-100779756D01*
X153670000Y-108204000D02*
X153670000Y-112776000D01*
X153327822Y-107861822D02*
X153670000Y-108204000D01*
%TD*%
M02*
