%TF.GenerationSoftware,KiCad,Pcbnew,8.0.4*%
%TF.CreationDate,2025-08-25T15:50:40-04:00*%
%TF.ProjectId,zephyrus_fc,7a657068-7972-4757-935f-66632e6b6963,V1.0*%
%TF.SameCoordinates,Original*%
%TF.FileFunction,Soldermask,Top*%
%TF.FilePolarity,Negative*%
%FSLAX46Y46*%
G04 Gerber Fmt 4.6, Leading zero omitted, Abs format (unit mm)*
G04 Created by KiCad (PCBNEW 8.0.4) date 2025-08-25 15:50:40*
%MOMM*%
%LPD*%
G01*
G04 APERTURE LIST*
G04 Aperture macros list*
%AMRoundRect*
0 Rectangle with rounded corners*
0 $1 Rounding radius*
0 $2 $3 $4 $5 $6 $7 $8 $9 X,Y pos of 4 corners*
0 Add a 4 corners polygon primitive as box body*
4,1,4,$2,$3,$4,$5,$6,$7,$8,$9,$2,$3,0*
0 Add four circle primitives for the rounded corners*
1,1,$1+$1,$2,$3*
1,1,$1+$1,$4,$5*
1,1,$1+$1,$6,$7*
1,1,$1+$1,$8,$9*
0 Add four rect primitives between the rounded corners*
20,1,$1+$1,$2,$3,$4,$5,0*
20,1,$1+$1,$4,$5,$6,$7,0*
20,1,$1+$1,$6,$7,$8,$9,0*
20,1,$1+$1,$8,$9,$2,$3,0*%
G04 Aperture macros list end*
%ADD10RoundRect,0.140000X-0.170000X0.140000X-0.170000X-0.140000X0.170000X-0.140000X0.170000X0.140000X0*%
%ADD11R,0.300000X0.500000*%
%ADD12R,0.500000X0.300000*%
%ADD13RoundRect,0.140000X-0.140000X-0.170000X0.140000X-0.170000X0.140000X0.170000X-0.140000X0.170000X0*%
%ADD14RoundRect,0.140000X0.140000X0.170000X-0.140000X0.170000X-0.140000X-0.170000X0.140000X-0.170000X0*%
%ADD15R,1.700000X1.700000*%
%ADD16O,1.700000X1.700000*%
%ADD17C,3.200000*%
%ADD18R,1.360000X1.230000*%
%ADD19R,1.500000X0.280000*%
%ADD20R,0.280000X1.500000*%
%ADD21R,0.250000X0.800000*%
%ADD22R,0.800000X0.250000*%
%ADD23RoundRect,0.135000X-0.185000X0.135000X-0.185000X-0.135000X0.185000X-0.135000X0.185000X0.135000X0*%
%ADD24RoundRect,0.135000X-0.135000X-0.185000X0.135000X-0.185000X0.135000X0.185000X-0.135000X0.185000X0*%
%ADD25R,1.100000X0.550000*%
%ADD26R,1.100000X0.300000*%
%ADD27O,2.000000X1.100000*%
%ADD28O,1.800000X1.200000*%
%ADD29RoundRect,0.140000X0.170000X-0.140000X0.170000X0.140000X-0.170000X0.140000X-0.170000X-0.140000X0*%
%ADD30R,0.675000X0.280000*%
%ADD31R,0.280000X0.675000*%
%ADD32R,0.700000X1.600000*%
%ADD33R,1.200000X1.500000*%
%ADD34R,1.200000X2.200000*%
%ADD35R,1.600000X1.500000*%
%ADD36RoundRect,0.135000X0.135000X0.185000X-0.135000X0.185000X-0.135000X-0.185000X0.135000X-0.185000X0*%
%ADD37RoundRect,0.218750X-0.218750X-0.256250X0.218750X-0.256250X0.218750X0.256250X-0.218750X0.256250X0*%
%ADD38R,2.470000X0.980000*%
%ADD39R,2.470000X3.600000*%
%ADD40R,1.200000X1.400000*%
G04 APERTURE END LIST*
D10*
%TO.C,C15*%
X160274000Y-61496000D03*
X160274000Y-62456000D03*
%TD*%
D11*
%TO.C,U6*%
X156861000Y-81425000D03*
X156361000Y-81425000D03*
D12*
X155742000Y-81796000D03*
X155742000Y-82296000D03*
X155742000Y-82796000D03*
D11*
X156361000Y-83167000D03*
X156861000Y-83167000D03*
D12*
X157480000Y-82796000D03*
X157480000Y-82296000D03*
X157480000Y-81796000D03*
%TD*%
D13*
%TO.C,C19*%
X132898000Y-66294000D03*
X133858000Y-66294000D03*
%TD*%
D14*
%TO.C,C18*%
X133858000Y-65024000D03*
X132898000Y-65024000D03*
%TD*%
D13*
%TO.C,C20*%
X132898000Y-67564000D03*
X133858000Y-67564000D03*
%TD*%
%TO.C,C9*%
X156516000Y-76682000D03*
X157476000Y-76682000D03*
%TD*%
D15*
%TO.C,J5*%
X192024000Y-63852000D03*
D16*
X189484000Y-63852000D03*
X186944000Y-63852000D03*
%TD*%
D17*
%TO.C,H2*%
X191262000Y-92456000D03*
%TD*%
D15*
%TO.C,J4*%
X182372000Y-68482000D03*
D16*
X179832000Y-68482000D03*
X177292000Y-68482000D03*
%TD*%
D15*
%TO.C,J14*%
X192024000Y-86614000D03*
D16*
X189484000Y-86614000D03*
%TD*%
D18*
%TO.C,SW1*%
X162306000Y-84683000D03*
X162306000Y-89053000D03*
%TD*%
D13*
%TO.C,C27*%
X171732000Y-78994000D03*
X172692000Y-78994000D03*
%TD*%
D15*
%TO.C,J8*%
X192024000Y-77802000D03*
D16*
X189484000Y-77802000D03*
X186944000Y-77802000D03*
%TD*%
D13*
%TO.C,C24*%
X113126365Y-62998544D03*
X114086365Y-62998544D03*
%TD*%
D15*
%TO.C,J13*%
X123190000Y-64008000D03*
D16*
X123190000Y-66548000D03*
X123190000Y-69088000D03*
X123190000Y-71628000D03*
X123190000Y-74168000D03*
X123190000Y-76708000D03*
%TD*%
D13*
%TO.C,C17*%
X158552000Y-81534000D03*
X159512000Y-81534000D03*
%TD*%
D19*
%TO.C,U1*%
X154482000Y-80904000D03*
X154482000Y-80404000D03*
X154482000Y-79904000D03*
X154482000Y-79404000D03*
X154482000Y-78904000D03*
X154482000Y-78404000D03*
X154482000Y-77904000D03*
X154482000Y-77404000D03*
X154482000Y-76904000D03*
X154482000Y-76404000D03*
X154482000Y-75904000D03*
X154482000Y-75404000D03*
X154482000Y-74904000D03*
X154482000Y-74404000D03*
X154482000Y-73904000D03*
X154482000Y-73404000D03*
X154482000Y-72904000D03*
X154482000Y-72404000D03*
X154482000Y-71904000D03*
X154482000Y-71404000D03*
X154482000Y-70904000D03*
X154482000Y-70404000D03*
X154482000Y-69904000D03*
X154482000Y-69404000D03*
X154482000Y-68904000D03*
D20*
X152582000Y-67004000D03*
X152082000Y-67004000D03*
X151582000Y-67004000D03*
X151082000Y-67004000D03*
X150582000Y-67004000D03*
X150082000Y-67004000D03*
X149582000Y-67004000D03*
X149082000Y-67004000D03*
X148582000Y-67004000D03*
X148082000Y-67004000D03*
X147582000Y-67004000D03*
X147082000Y-67004000D03*
X146582000Y-67004000D03*
X146082000Y-67004000D03*
X145582000Y-67004000D03*
X145082000Y-67004000D03*
X144582000Y-67004000D03*
X144082000Y-67004000D03*
X143582000Y-67004000D03*
X143082000Y-67004000D03*
X142582000Y-67004000D03*
X142082000Y-67004000D03*
X141582000Y-67004000D03*
X141082000Y-67004000D03*
X140582000Y-67004000D03*
D19*
X138682000Y-68904000D03*
X138682000Y-69404000D03*
X138682000Y-69904000D03*
X138682000Y-70404000D03*
X138682000Y-70904000D03*
X138682000Y-71404000D03*
X138682000Y-71904000D03*
X138682000Y-72404000D03*
X138682000Y-72904000D03*
X138682000Y-73404000D03*
X138682000Y-73904000D03*
X138682000Y-74404000D03*
X138682000Y-74904000D03*
X138682000Y-75404000D03*
X138682000Y-75904000D03*
X138682000Y-76404000D03*
X138682000Y-76904000D03*
X138682000Y-77404000D03*
X138682000Y-77904000D03*
X138682000Y-78404000D03*
X138682000Y-78904000D03*
X138682000Y-79404000D03*
X138682000Y-79904000D03*
X138682000Y-80404000D03*
X138682000Y-80904000D03*
D20*
X140582000Y-82804000D03*
X141082000Y-82804000D03*
X141582000Y-82804000D03*
X142082000Y-82804000D03*
X142582000Y-82804000D03*
X143082000Y-82804000D03*
X143582000Y-82804000D03*
X144082000Y-82804000D03*
X144582000Y-82804000D03*
X145082000Y-82804000D03*
X145582000Y-82804000D03*
X146082000Y-82804000D03*
X146582000Y-82804000D03*
X147082000Y-82804000D03*
X147582000Y-82804000D03*
X148082000Y-82804000D03*
X148582000Y-82804000D03*
X149082000Y-82804000D03*
X149582000Y-82804000D03*
X150082000Y-82804000D03*
X150582000Y-82804000D03*
X151082000Y-82804000D03*
X151582000Y-82804000D03*
X152082000Y-82804000D03*
X152582000Y-82804000D03*
%TD*%
D21*
%TO.C,U2*%
X153718000Y-62370000D03*
X154218000Y-62370000D03*
X154718000Y-62370000D03*
X155218000Y-62370000D03*
X155718000Y-62370000D03*
X156218000Y-62370000D03*
X156718000Y-62370000D03*
D22*
X157131000Y-63570000D03*
D21*
X156718000Y-64770000D03*
X156218000Y-64770000D03*
X155718000Y-64770000D03*
X155218000Y-64770000D03*
X154718000Y-64770000D03*
X154218000Y-64770000D03*
X153718000Y-64770000D03*
D22*
X153301000Y-63570000D03*
%TD*%
D23*
%TO.C,R11*%
X119888000Y-57402000D03*
X119888000Y-58422000D03*
%TD*%
D15*
%TO.C,J12*%
X119380000Y-64008000D03*
D16*
X119380000Y-66548000D03*
X119380000Y-69088000D03*
X119380000Y-71628000D03*
X119380000Y-74168000D03*
X119380000Y-76708000D03*
%TD*%
D24*
%TO.C,R2*%
X108708000Y-85344000D03*
X109728000Y-85344000D03*
%TD*%
D23*
%TO.C,R8*%
X113538000Y-57404000D03*
X113538000Y-58424000D03*
%TD*%
%TO.C,R13*%
X117348000Y-57402000D03*
X117348000Y-58422000D03*
%TD*%
D15*
%TO.C,J6*%
X192024000Y-68502000D03*
D16*
X189484000Y-68502000D03*
X186944000Y-68502000D03*
%TD*%
D15*
%TO.C,J11*%
X123952000Y-57912000D03*
D16*
X123952000Y-55372000D03*
X126492000Y-57912000D03*
X126492000Y-55372000D03*
X129032000Y-57912000D03*
X129032000Y-55372000D03*
X131572000Y-57912000D03*
X131572000Y-55372000D03*
%TD*%
D17*
%TO.C,H1*%
X191262000Y-57912000D03*
%TD*%
D13*
%TO.C,C28*%
X158552000Y-82804000D03*
X159512000Y-82804000D03*
%TD*%
D25*
%TO.C,USB1*%
X110160000Y-71977000D03*
X110160000Y-72777000D03*
D26*
X110160000Y-73427000D03*
X110160000Y-73927000D03*
X110160000Y-74427000D03*
X110160000Y-74927000D03*
X110160000Y-75427000D03*
X110160000Y-75927000D03*
X110160000Y-76427000D03*
X110160000Y-76927000D03*
D25*
X110160000Y-77577000D03*
X110160000Y-78377000D03*
D27*
X109610000Y-70852000D03*
D28*
X105410000Y-70852000D03*
D27*
X109610000Y-79502000D03*
D28*
X105410000Y-79502000D03*
%TD*%
D15*
%TO.C,J17*%
X185166000Y-85852000D03*
D16*
X185166000Y-83312000D03*
%TD*%
D14*
%TO.C,C26*%
X179324000Y-75438000D03*
X178364000Y-75438000D03*
%TD*%
D23*
%TO.C,R12*%
X118618000Y-57402000D03*
X118618000Y-58422000D03*
%TD*%
D15*
%TO.C,J7*%
X192024000Y-73152000D03*
D16*
X189484000Y-73152000D03*
X186944000Y-73152000D03*
%TD*%
D10*
%TO.C,C14*%
X153694000Y-82778000D03*
X153694000Y-83738000D03*
%TD*%
D24*
%TO.C,R6*%
X178306000Y-76708000D03*
X179326000Y-76708000D03*
%TD*%
D29*
%TO.C,C6*%
X139954000Y-65252000D03*
X139954000Y-64292000D03*
%TD*%
D17*
%TO.C,H3*%
X107188000Y-57912000D03*
%TD*%
D15*
%TO.C,J9*%
X183642000Y-55372000D03*
D16*
X183642000Y-57912000D03*
X181102000Y-55372000D03*
X181102000Y-57912000D03*
X178562000Y-55372000D03*
X178562000Y-57912000D03*
X176022000Y-55372000D03*
X176022000Y-57912000D03*
X173482000Y-55372000D03*
X173482000Y-57912000D03*
X170942000Y-55372000D03*
X170942000Y-57912000D03*
X168402000Y-55372000D03*
X168402000Y-57912000D03*
X165862000Y-55372000D03*
X165862000Y-57912000D03*
X163322000Y-55372000D03*
X163322000Y-57912000D03*
X160782000Y-55372000D03*
X160782000Y-57912000D03*
X158242000Y-55372000D03*
X158242000Y-57912000D03*
X155702000Y-55372000D03*
X155702000Y-57912000D03*
X153162000Y-55372000D03*
X153162000Y-57912000D03*
X150622000Y-55372000D03*
X150622000Y-57912000D03*
X148082000Y-55372000D03*
X148082000Y-57912000D03*
X145542000Y-55372000D03*
X145542000Y-57912000D03*
X143002000Y-55372000D03*
X143002000Y-57912000D03*
X140462000Y-55372000D03*
X140462000Y-57912000D03*
X137922000Y-55372000D03*
X137922000Y-57912000D03*
X135382000Y-55372000D03*
X135382000Y-57912000D03*
%TD*%
D13*
%TO.C,C4*%
X156516000Y-77952000D03*
X157476000Y-77952000D03*
%TD*%
D17*
%TO.C,H4*%
X107188000Y-92456000D03*
%TD*%
D15*
%TO.C,J2*%
X192024000Y-82296000D03*
D16*
X189484000Y-82296000D03*
%TD*%
D13*
%TO.C,C22*%
X113098365Y-65538544D03*
X114058365Y-65538544D03*
%TD*%
D29*
%TO.C,C10*%
X141224000Y-65252000D03*
X141224000Y-64292000D03*
%TD*%
D30*
%TO.C,U3*%
X137668000Y-66539500D03*
X137668000Y-66039500D03*
X137668000Y-65539500D03*
X137668000Y-65039500D03*
D31*
X136906000Y-64777000D03*
X136406000Y-64777000D03*
X135906000Y-64777000D03*
D30*
X135144000Y-65039500D03*
X135144000Y-65539500D03*
X135144000Y-66039500D03*
X135144000Y-66539500D03*
D31*
X135906000Y-66802000D03*
X136406000Y-66802000D03*
X136906000Y-66802000D03*
%TD*%
D23*
%TO.C,R3*%
X112284500Y-80008000D03*
X112284500Y-81028000D03*
%TD*%
D14*
%TO.C,C2*%
X161187000Y-77825000D03*
X160227000Y-77825000D03*
%TD*%
D13*
%TO.C,C25*%
X113126365Y-64268544D03*
X114086365Y-64268544D03*
%TD*%
D15*
%TO.C,J3*%
X182372000Y-63832000D03*
D16*
X179832000Y-63832000D03*
X177292000Y-63832000D03*
%TD*%
D10*
%TO.C,C16*%
X159004000Y-61496000D03*
X159004000Y-62456000D03*
%TD*%
D23*
%TO.C,R14*%
X116078000Y-57402000D03*
X116078000Y-58422000D03*
%TD*%
D32*
%TO.C,CARD1*%
X175986000Y-81228500D03*
X174886000Y-81228500D03*
X173786000Y-81228500D03*
X172686000Y-81228500D03*
X171586000Y-81228500D03*
X170486000Y-81228500D03*
X169386000Y-81228500D03*
X168286000Y-81228500D03*
D33*
X165986000Y-82228500D03*
D34*
X165986000Y-91828500D03*
X181486000Y-91828500D03*
D35*
X180586000Y-82228500D03*
D32*
X167186000Y-81228500D03*
%TD*%
D36*
%TO.C,R5*%
X179326000Y-77978000D03*
X178306000Y-77978000D03*
%TD*%
D37*
%TO.C,D1*%
X105609000Y-85344000D03*
X107184000Y-85344000D03*
%TD*%
D23*
%TO.C,R4*%
X113554500Y-80006000D03*
X113554500Y-81026000D03*
%TD*%
%TO.C,R7*%
X114808000Y-57404000D03*
X114808000Y-58424000D03*
%TD*%
D38*
%TO.C,U5*%
X110881365Y-67330544D03*
X110881365Y-65030544D03*
X110881365Y-62730544D03*
D39*
X105211365Y-65030544D03*
%TD*%
D13*
%TO.C,C11*%
X156516000Y-79222000D03*
X157476000Y-79222000D03*
%TD*%
D15*
%TO.C,J15*%
X130556000Y-64008000D03*
D16*
X130556000Y-66548000D03*
X130556000Y-69088000D03*
X130556000Y-71628000D03*
%TD*%
D40*
%TO.C,X1*%
X159917000Y-73974000D03*
X159917000Y-76174000D03*
X161667000Y-76174000D03*
X161667000Y-73974000D03*
%TD*%
D13*
%TO.C,C5*%
X157508000Y-69850000D03*
X158468000Y-69850000D03*
%TD*%
%TO.C,C23*%
X113098365Y-66808544D03*
X114058365Y-66808544D03*
%TD*%
D15*
%TO.C,J16*%
X126844000Y-64008000D03*
D16*
X126844000Y-66548000D03*
X126844000Y-69088000D03*
X126844000Y-71628000D03*
%TD*%
D13*
%TO.C,C7*%
X156464000Y-71120000D03*
X157424000Y-71120000D03*
%TD*%
D10*
%TO.C,C8*%
X153694000Y-66296000D03*
X153694000Y-67256000D03*
%TD*%
D13*
%TO.C,C3*%
X160227000Y-72364000D03*
X161187000Y-72364000D03*
%TD*%
D23*
%TO.C,R1*%
X159766000Y-85342000D03*
X159766000Y-86362000D03*
%TD*%
D14*
%TO.C,C13*%
X136676000Y-81000000D03*
X135716000Y-81000000D03*
%TD*%
D15*
%TO.C,J10*%
X162052000Y-92456000D03*
D16*
X162052000Y-94996000D03*
X159512000Y-92456000D03*
X159512000Y-94996000D03*
X156972000Y-92456000D03*
X156972000Y-94996000D03*
X154432000Y-92456000D03*
X154432000Y-94996000D03*
X151892000Y-92456000D03*
X151892000Y-94996000D03*
X149352000Y-92456000D03*
X149352000Y-94996000D03*
X146812000Y-92456000D03*
X146812000Y-94996000D03*
X144272000Y-92456000D03*
X144272000Y-94996000D03*
X141732000Y-92456000D03*
X141732000Y-94996000D03*
X139192000Y-92456000D03*
X139192000Y-94996000D03*
X136652000Y-92456000D03*
X136652000Y-94996000D03*
X134112000Y-92456000D03*
X134112000Y-94996000D03*
X131572000Y-92456000D03*
X131572000Y-94996000D03*
X129032000Y-92456000D03*
X129032000Y-94996000D03*
X126492000Y-92456000D03*
X126492000Y-94996000D03*
X123952000Y-92456000D03*
X123952000Y-94996000D03*
X121412000Y-92456000D03*
X121412000Y-94996000D03*
X118872000Y-92456000D03*
X118872000Y-94996000D03*
X116332000Y-92456000D03*
X116332000Y-94996000D03*
X113792000Y-92456000D03*
X113792000Y-94996000D03*
%TD*%
D15*
%TO.C,J1*%
X172212000Y-73152000D03*
D16*
X174752000Y-73152000D03*
X177292000Y-73152000D03*
X179832000Y-73152000D03*
X182372000Y-73152000D03*
%TD*%
D14*
%TO.C,C12*%
X136676000Y-79730000D03*
X135716000Y-79730000D03*
%TD*%
%TO.C,C1*%
X157452000Y-74168000D03*
X156492000Y-74168000D03*
%TD*%
M02*
